<svg xmlns="http://www.w3.org/2000/svg" xmlns:xlink="http://www.w3.org/1999/xlink" contentStyleType="text/css" data-diagram-type="SEQUENCE" height="499px" preserveAspectRatio="none" style="width:698px;height:499px;background:#FFFFFF;" version="1.1" viewBox="0 0 698 499" width="698px" zoomAndPan="magnify"><title>US2.2.3: Register and Update Docks - System Sequence Diagram (SSD)</title><defs/><g><text fill="#000000" font-family="sans-serif" font-size="14" font-weight="bold" lengthAdjust="spacing" textLength="475.3711" x="110.5518" y="30.1074">US2.2.3: Register and Update Docks - System Sequence Diagram (SSD)</text><g><title>Port Authority Officer</title><rect fill="#FFFFFF" height="62.582" style="stroke:#FFFFFF;stroke-width:1;" width="10" x="67.9653" y="133.2422"/><line style="stroke:#181818;stroke-width:1;" x1="67.9653" x2="67.9653" y1="133.2422" y2="195.8242"/><line style="stroke:#181818;stroke-width:1;" x1="77.9653" x2="77.9653" y1="133.2422" y2="195.8242"/><line style="stroke:#181818;stroke-width:1;" x1="67.9653" x2="77.9653" y1="133.2422" y2="133.2422"/></g><g><title>Port Authority Officer</title><rect fill="#FFFFFF" height="62.582" style="stroke:#FFFFFF;stroke-width:1;" width="10" x="67.9653" y="238.4551"/><line style="stroke:#181818;stroke-width:1;" x1="67.9653" x2="67.9653" y1="238.4551" y2="301.0371"/><line style="stroke:#181818;stroke-width:1;" x1="77.9653" x2="77.9653" y1="238.4551" y2="301.0371"/></g><g><title>Port Authority Officer</title><rect fill="#FFFFFF" height="54.582" style="stroke:#FFFFFF;stroke-width:1;" width="10" x="67.9653" y="343.668"/><line style="stroke:#181818;stroke-width:1;" x1="67.9653" x2="67.9653" y1="343.668" y2="398.25"/><line style="stroke:#181818;stroke-width:1;" x1="77.9653" x2="77.9653" y1="343.668" y2="398.25"/><line style="stroke:#181818;stroke-width:1;" x1="67.9653" x2="77.9653" y1="398.25" y2="398.25"/></g><g><title>.System</title><rect fill="#FFFFFF" height="31.291" style="stroke:#181818;stroke-width:1;" width="10" x="655.1919" y="156.5332"/></g><g><title>.System</title><rect fill="#FFFFFF" height="31.291" style="stroke:#181818;stroke-width:1;" width="10" x="655.1919" y="261.7461"/></g><g><title>.System</title><rect fill="#FFFFFF" height="31.291" style="stroke:#181818;stroke-width:1;" width="10" x="655.1919" y="366.959"/></g><g><title>Port Authority Officer</title><rect fill="#000000" fill-opacity="0.00000" height="72.582" width="8" x="68.9653" y="123.2422"/><line style="stroke:#181818;stroke-width:0.5;stroke-dasharray:5,5;" x1="72" x2="72" y1="123.2422" y2="195.8242"/></g><line style="stroke:#181818;stroke-width:0.5;stroke-dasharray:1,4;" x1="72" x2="72" y1="195.8242" y2="238.4551"/><g><title>Port Authority Officer</title><rect fill="#000000" fill-opacity="0.00000" height="62.582" width="8" x="68.9653" y="238.4551"/><line style="stroke:#181818;stroke-width:0.5;stroke-dasharray:5,5;" x1="72" x2="72" y1="238.4551" y2="301.0371"/></g><line style="stroke:#181818;stroke-width:0.5;stroke-dasharray:1,4;" x1="72" x2="72" y1="301.0371" y2="343.668"/><g><title>Port Authority Officer</title><rect fill="#000000" fill-opacity="0.00000" height="72.582" width="8" x="68.9653" y="343.668"/><line style="stroke:#181818;stroke-width:0.5;stroke-dasharray:5,5;" x1="72" x2="72" y1="343.668" y2="416.25"/></g><g><title>.System</title><rect fill="#000000" fill-opacity="0.00000" height="72.582" width="8" x="656.1919" y="123.2422"/><line style="stroke:#181818;stroke-width:0.5;stroke-dasharray:5,5;" x1="659.9092" x2="659.9092" y1="123.2422" y2="195.8242"/></g><line style="stroke:#181818;stroke-width:0.5;stroke-dasharray:1,4;" x1="659.9092" x2="659.9092" y1="195.8242" y2="238.4551"/><g><title>.System</title><rect fill="#000000" fill-opacity="0.00000" height="62.582" width="8" x="656.1919" y="238.4551"/><line style="stroke:#181818;stroke-width:0.5;stroke-dasharray:5,5;" x1="659.9092" x2="659.9092" y1="238.4551" y2="301.0371"/></g><line style="stroke:#181818;stroke-width:0.5;stroke-dasharray:1,4;" x1="659.9092" x2="659.9092" y1="301.0371" y2="343.668"/><g><title>.System</title><rect fill="#000000" fill-opacity="0.00000" height="72.582" width="8" x="656.1919" y="343.668"/><line style="stroke:#181818;stroke-width:0.5;stroke-dasharray:5,5;" x1="659.9092" x2="659.9092" y1="343.668" y2="416.25"/></g><g class="participant participant-head" data-participant="Authority"><text fill="#000000" font-family="sans-serif" font-size="14" lengthAdjust="spacing" textLength="129.9307" x="5" y="119.7285">Port Authority Officer</text><ellipse cx="72.9653" cy="53.1211" fill="#E3E3E3" rx="8" ry="8" style="stroke:#181818;stroke-width:0.5;"/><path d="M72.9653,61.1211 L72.9653,88.1211 M59.9653,69.1211 L85.9653,69.1211 M72.9653,88.1211 L59.9653,103.1211 M72.9653,88.1211 L85.9653,103.1211" fill="none" style="stroke:#181818;stroke-width:0.5;"/></g><g class="participant participant-tail" data-participant="Authority"><text fill="#000000" font-family="sans-serif" font-size="14" lengthAdjust="spacing" textLength="129.9307" x="5" y="430.3574">Port Authority Officer</text><ellipse cx="72.9653" cy="442.3711" fill="#E3E3E3" rx="8" ry="8" style="stroke:#181818;stroke-width:0.5;"/><path d="M72.9653,450.3711 L72.9653,477.3711 M59.9653,458.3711 L85.9653,458.3711 M72.9653,477.3711 L59.9653,492.3711 M72.9653,477.3711 L85.9653,492.3711" fill="none" style="stroke:#181818;stroke-width:0.5;"/></g><g class="participant participant-head" data-participant="System"><rect fill="#E3E3E3" height="32.6211" rx="2.5" ry="2.5" style="stroke:#181818;stroke-width:0.5;" width="64.5654" x="627.9092" y="89.6211"/><text fill="#000000" font-family="sans-serif" font-size="14" lengthAdjust="spacing" textLength="50.5654" x="634.9092" y="111.7285">:System</text></g><g class="participant participant-tail" data-participant="System"><rect fill="#E3E3E3" height="32.6211" rx="2.5" ry="2.5" style="stroke:#181818;stroke-width:0.5;" width="64.5654" x="627.9092" y="415.25"/><text fill="#000000" font-family="sans-serif" font-size="14" lengthAdjust="spacing" textLength="50.5654" x="634.9092" y="437.3574">:System</text></g><g><title>Port Authority Officer</title><rect fill="#FFFFFF" height="62.582" style="stroke:#FFFFFF;stroke-width:1;" width="10" x="67.9653" y="133.2422"/><line style="stroke:#181818;stroke-width:1;" x1="67.9653" x2="67.9653" y1="133.2422" y2="195.8242"/><line style="stroke:#181818;stroke-width:1;" x1="77.9653" x2="77.9653" y1="133.2422" y2="195.8242"/><line style="stroke:#181818;stroke-width:1;" x1="67.9653" x2="77.9653" y1="133.2422" y2="133.2422"/></g><g><title>Port Authority Officer</title><rect fill="#FFFFFF" height="62.582" style="stroke:#FFFFFF;stroke-width:1;" width="10" x="67.9653" y="238.4551"/><line style="stroke:#181818;stroke-width:1;" x1="67.9653" x2="67.9653" y1="238.4551" y2="301.0371"/><line style="stroke:#181818;stroke-width:1;" x1="77.9653" x2="77.9653" y1="238.4551" y2="301.0371"/></g><g><title>Port Authority Officer</title><rect fill="#FFFFFF" height="54.582" style="stroke:#FFFFFF;stroke-width:1;" width="10" x="67.9653" y="343.668"/><line style="stroke:#181818;stroke-width:1;" x1="67.9653" x2="67.9653" y1="343.668" y2="398.25"/><line style="stroke:#181818;stroke-width:1;" x1="77.9653" x2="77.9653" y1="343.668" y2="398.25"/><line style="stroke:#181818;stroke-width:1;" x1="67.9653" x2="77.9653" y1="398.25" y2="398.25"/></g><g><title>.System</title><rect fill="#FFFFFF" height="31.291" style="stroke:#181818;stroke-width:1;" width="10" x="655.1919" y="156.5332"/></g><g><title>.System</title><rect fill="#FFFFFF" height="31.291" style="stroke:#181818;stroke-width:1;" width="10" x="655.1919" y="261.7461"/></g><g><title>.System</title><rect fill="#FFFFFF" height="31.291" style="stroke:#181818;stroke-width:1;" width="10" x="655.1919" y="366.959"/></g><g class="message" data-participant-1="Authority" data-participant-2="System"><polygon fill="#181818" points="643.1919,152.5332,653.1919,156.5332,643.1919,160.5332,647.1919,156.5332" style="stroke:#181818;stroke-width:1;"/><line style="stroke:#181818;stroke-width:1;" x1="77.9653" x2="649.1919" y1="156.5332" y2="156.5332"/><text fill="#000000" font-family="sans-serif" font-size="13" font-weight="bold" lengthAdjust="spacing" textLength="7.23" x="84.9653" y="151.2705">1</text><text fill="#000000" font-family="sans-serif" font-size="13" lengthAdjust="spacing" textLength="511.5894" x="96.1953" y="151.2705">submits new dock details (name, location, length, depth, max draft, allowed vessel types)</text></g><g class="message" data-participant-1="System" data-participant-2="Authority"><polygon fill="#181818" points="88.9653,183.8242,78.9653,187.8242,88.9653,191.8242,84.9653,187.8242" style="stroke:#181818;stroke-width:1;"/><line style="stroke:#181818;stroke-width:1;stroke-dasharray:2,2;" x1="82.9653" x2="659.1919" y1="187.8242" y2="187.8242"/><text fill="#000000" font-family="sans-serif" font-size="13" font-weight="bold" lengthAdjust="spacing" textLength="7.23" x="94.9653" y="182.5615">2</text><text fill="#000000" font-family="sans-serif" font-size="13" lengthAdjust="spacing" textLength="212.4116" x="106.1953" y="182.5615">confirms successful dock registration</text></g><text fill="#000000" font-family="sans-serif" font-size="11" lengthAdjust="spacing" textLength="211.5674" x="260.7949" y="221.6943">Authority selects an existing dock to update</text><g class="message" data-participant-1="Authority" data-participant-2="System"><polygon fill="#181818" points="643.1919,257.7461,653.1919,261.7461,643.1919,265.7461,647.1919,261.7461" style="stroke:#181818;stroke-width:1;"/><line style="stroke:#181818;stroke-width:1;" x1="77.9653" x2="649.1919" y1="261.7461" y2="261.7461"/><text fill="#000000" font-family="sans-serif" font-size="13" font-weight="bold" lengthAdjust="spacing" textLength="7.23" x="84.9653" y="256.4834">3</text><text fill="#000000" font-family="sans-serif" font-size="13" lengthAdjust="spacing" textLength="546.9966" x="96.1953" y="256.4834">submits updated dock details (id, newName, newLocation, newDimensions, newAllowedTypes)</text></g><g class="message" data-participant-1="System" data-participant-2="Authority"><polygon fill="#181818" points="88.9653,289.0371,78.9653,293.0371,88.9653,297.0371,84.9653,293.0371" style="stroke:#181818;stroke-width:1;"/><line style="stroke:#181818;stroke-width:1;stroke-dasharray:2,2;" x1="82.9653" x2="659.1919" y1="293.0371" y2="293.0371"/><text fill="#000000" font-family="sans-serif" font-size="13" font-weight="bold" lengthAdjust="spacing" textLength="7.23" x="94.9653" y="287.7744">4</text><text fill="#000000" font-family="sans-serif" font-size="13" lengthAdjust="spacing" textLength="187.8652" x="106.1953" y="287.7744">confirms successful dock update</text></g><text fill="#000000" font-family="sans-serif" font-size="11" lengthAdjust="spacing" textLength="179.1313" x="277.0129" y="326.9072">Authority wants to search/filter docks</text><g class="message" data-participant-1="Authority" data-participant-2="System"><polygon fill="#181818" points="643.1919,362.959,653.1919,366.959,643.1919,370.959,647.1919,366.959" style="stroke:#181818;stroke-width:1;"/><line style="stroke:#181818;stroke-width:1;" x1="77.9653" x2="649.1919" y1="366.959" y2="366.959"/><text fill="#000000" font-family="sans-serif" font-size="13" font-weight="bold" lengthAdjust="spacing" textLength="7.23" x="84.9653" y="361.6963">5</text><text fill="#000000" font-family="sans-serif" font-size="13" lengthAdjust="spacing" textLength="276.7388" x="96.1953" y="361.6963">searches docks by (name, location, vessel type)</text></g><g class="message" data-participant-1="System" data-participant-2="Authority"><polygon fill="#181818" points="83.9653,394.25,73.9653,398.25,83.9653,402.25,79.9653,398.25" style="stroke:#181818;stroke-width:1;"/><line style="stroke:#181818;stroke-width:1;stroke-dasharray:2,2;" x1="77.9653" x2="659.1919" y1="398.25" y2="398.25"/><text fill="#000000" font-family="sans-serif" font-size="13" font-weight="bold" lengthAdjust="spacing" textLength="7.23" x="89.9653" y="392.9873">6</text><text fill="#000000" font-family="sans-serif" font-size="13" lengthAdjust="spacing" textLength="174.8525" x="101.1953" y="392.9873">returns matching dock records</text></g><!--SRC=[hLDDRzim3BtxLn2vD05Y3-XkEGme4EmqRCEy_016ecqX-l14kcd-_IGxYzskwtROoPH4llVuID_1WGc4N6zH25WkrlWMriWyk1ovu8FgOd2q1H9LRGe-6TzZHBTu0ua3BLvwL2TigKvm196Ke6_jCe4xrE6S2HgqJ4KXHbBgeRwlxgltE_X6hM6X2EWr77gTnUs3EZ6KK5_IYuEQVWpaLRets6RCTLtlDqM1WmG_k2F50fM42Akl8Gey3DA5QEG2Nvh6A8ehG9vlYwHBZ38zUe7LRk8OKwQmo63cCUkOQugxiYndhLaWr8eyHXCWFHKpQVdXb-uTy71qHXWydK7d6as2nZAiFMQVRL0e9lWKaM-bswQ4FdySFe6EsCWMqDfm9WsFn4mMvD8JRsQDLz5NoZAnpr9se89lJ7ISb2YL09h1JaBYs4eSsGjDB-6cVXVZUDvjLLKBcYGh3PxJ186U4ceUzaWY0OO98XNynQ8fKR-moUXjDk_pw5OAFjqCIuUzSUGvdNWyFan6VVy_1arw_cXDJHXLz-wZiQ_lmtE7pcdNEDl1KrapbUbnpz_mPimclYOUBx_lpM8h_hddI394psd9H7MtOQMVDqJDhtMykBhX_0G0]--></g></svg>