<svg xmlns="http://www.w3.org/2000/svg" xmlns:xlink="http://www.w3.org/1999/xlink" contentStyleType="text/css" data-diagram-type="SEQUENCE" height="535px" preserveAspectRatio="none" style="width:604px;height:535px;background:#FFFFFF;" version="1.1" viewBox="0 0 604 535" width="604px" zoomAndPan="magnify"><title>US 2.2.9: Update "In Progress" VVN (SSD)</title><defs/><g><text fill="#000000" font-family="sans-serif" font-size="14" font-weight="bold" lengthAdjust="spacing" textLength="292.8516" x="157.554" y="28.5352">US 2.2.9: Update "In Progress" VVN (SSD)</text><g><title>Shipping Agent</title><rect fill="#FFFFFF" height="120.5527" style="stroke:#FFFFFF;stroke-width:1;" width="10" x="69.9531" y="145.4648"/><line style="stroke:#181818;stroke-width:1;" x1="69.9531" x2="69.9531" y1="145.4648" y2="266.0176"/><line style="stroke:#181818;stroke-width:1;" x1="79.9531" x2="79.9531" y1="145.4648" y2="266.0176"/><line style="stroke:#181818;stroke-width:1;" x1="69.9531" x2="79.9531" y1="145.4648" y2="145.4648"/></g><g><title>Shipping Agent</title><rect fill="#FFFFFF" height="120.5527" style="stroke:#FFFFFF;stroke-width:1;" width="10" x="69.9531" y="306.9727"/><line style="stroke:#181818;stroke-width:1;" x1="69.9531" x2="69.9531" y1="306.9727" y2="427.5254"/><line style="stroke:#181818;stroke-width:1;" x1="79.9531" x2="79.9531" y1="306.9727" y2="427.5254"/><line style="stroke:#181818;stroke-width:1;" x1="69.9531" x2="79.9531" y1="427.5254" y2="427.5254"/></g><g><title>.System</title><rect fill="#FFFFFF" height="44.6211" style="stroke:#181818;stroke-width:1;" width="10" x="550.6958" y="206.3965"/></g><g><title>.System</title><rect fill="#FFFFFF" height="44.6211" style="stroke:#181818;stroke-width:1;" width="10" x="550.6958" y="367.9043"/></g><rect fill="none" height="106.5527" style="stroke:#000000;stroke-width:1.5;" width="588.9595" x="10" y="152.4648"/><rect fill="none" height="106.5527" style="stroke:#000000;stroke-width:1.5;" width="588.9595" x="10" y="313.9727"/><g><title>Shipping Agent</title><rect fill="#000000" fill-opacity="0.00000" height="130.5527" width="8" x="70.9531" y="135.4648"/><line style="stroke:#181818;stroke-width:0.5;stroke-dasharray:5,5;" x1="74" x2="74" y1="135.4648" y2="266.0176"/></g><line style="stroke:#181818;stroke-width:0.5;stroke-dasharray:1,4;" x1="74" x2="74" y1="266.0176" y2="306.9727"/><g><title>Shipping Agent</title><rect fill="#000000" fill-opacity="0.00000" height="130.5527" width="8" x="70.9531" y="306.9727"/><line style="stroke:#181818;stroke-width:0.5;stroke-dasharray:5,5;" x1="74" x2="74" y1="306.9727" y2="437.5254"/></g><g><title>.System</title><rect fill="#000000" fill-opacity="0.00000" height="130.5527" width="8" x="551.6958" y="135.4648"/><line style="stroke:#181818;stroke-width:0.5;stroke-dasharray:5,5;" x1="555.4321" x2="555.4321" y1="135.4648" y2="266.0176"/></g><line style="stroke:#181818;stroke-width:0.5;stroke-dasharray:1,4;" x1="555.4321" x2="555.4321" y1="266.0176" y2="306.9727"/><g><title>.System</title><rect fill="#000000" fill-opacity="0.00000" height="130.5527" width="8" x="551.6958" y="306.9727"/><line style="stroke:#181818;stroke-width:0.5;stroke-dasharray:5,5;" x1="555.4321" x2="555.4321" y1="306.9727" y2="437.5254"/></g><g class="participant participant-head" data-participant="Rep"><text fill="#000000" font-family="sans-serif" font-size="14" lengthAdjust="spacing" textLength="103.9063" x="20" y="116.0234">Shipping Agent</text><text fill="#000000" font-family="sans-serif" font-size="14" lengthAdjust="spacing" textLength="99.9141" x="21.9961" y="132.5117">Representative</text><ellipse cx="74.9531" cy="50.9883" fill="#E3E3E3" rx="8" ry="8" style="stroke:#181818;stroke-width:0.5;"/><path d="M74.9531,58.9883 L74.9531,85.9883 M61.9531,66.9883 L87.9531,66.9883 M74.9531,85.9883 L61.9531,100.9883 M74.9531,85.9883 L87.9531,100.9883" fill="none" style="stroke:#181818;stroke-width:0.5;"/></g><g class="participant participant-tail" data-participant="Rep"><text fill="#000000" font-family="sans-serif" font-size="14" lengthAdjust="spacing" textLength="103.9063" x="20" y="450.0605">Shipping Agent</text><text fill="#000000" font-family="sans-serif" font-size="14" lengthAdjust="spacing" textLength="99.9141" x="21.9961" y="466.5488">Representative</text><ellipse cx="74.9531" cy="478.002" fill="#E3E3E3" rx="8" ry="8" style="stroke:#181818;stroke-width:0.5;"/><path d="M74.9531,486.002 L74.9531,513.002 M61.9531,494.002 L87.9531,494.002 M74.9531,513.002 L61.9531,528.002 M74.9531,513.002 L87.9531,528.002" fill="none" style="stroke:#181818;stroke-width:0.5;"/></g><g class="participant participant-head" data-participant="System"><rect fill="#E3E3E3" height="30.4883" rx="2.5" ry="2.5" style="stroke:#181818;stroke-width:0.5;" width="66.5273" x="522.4321" y="103.9766"/><text fill="#000000" font-family="sans-serif" font-size="14" lengthAdjust="spacing" textLength="52.5273" x="529.4321" y="124.5117">:System</text></g><g class="participant participant-tail" data-participant="System"><rect fill="#E3E3E3" height="30.4883" rx="2.5" ry="2.5" style="stroke:#181818;stroke-width:0.5;" width="66.5273" x="522.4321" y="436.5254"/><text fill="#000000" font-family="sans-serif" font-size="14" lengthAdjust="spacing" textLength="52.5273" x="529.4321" y="457.0605">:System</text></g><g><title>Shipping Agent</title><rect fill="#FFFFFF" height="120.5527" style="stroke:#FFFFFF;stroke-width:1;" width="10" x="69.9531" y="145.4648"/><line style="stroke:#181818;stroke-width:1;" x1="69.9531" x2="69.9531" y1="145.4648" y2="266.0176"/><line style="stroke:#181818;stroke-width:1;" x1="79.9531" x2="79.9531" y1="145.4648" y2="266.0176"/><line style="stroke:#181818;stroke-width:1;" x1="69.9531" x2="79.9531" y1="145.4648" y2="145.4648"/></g><g><title>Shipping Agent</title><rect fill="#FFFFFF" height="120.5527" style="stroke:#FFFFFF;stroke-width:1;" width="10" x="69.9531" y="306.9727"/><line style="stroke:#181818;stroke-width:1;" x1="69.9531" x2="69.9531" y1="306.9727" y2="427.5254"/><line style="stroke:#181818;stroke-width:1;" x1="79.9531" x2="79.9531" y1="306.9727" y2="427.5254"/><line style="stroke:#181818;stroke-width:1;" x1="69.9531" x2="79.9531" y1="427.5254" y2="427.5254"/></g><g><title>.System</title><rect fill="#FFFFFF" height="44.6211" style="stroke:#181818;stroke-width:1;" width="10" x="550.6958" y="206.3965"/></g><g><title>.System</title><rect fill="#FFFFFF" height="44.6211" style="stroke:#181818;stroke-width:1;" width="10" x="550.6958" y="367.9043"/></g><path d="M10,152.4648 L360.8618,152.4648 L360.8618,159.7754 L350.8618,169.7754 L10,169.7754 L10,152.4648" fill="#EEEEEE" style="stroke:#000000;stroke-width:1.5;"/><rect fill="none" height="106.5527" style="stroke:#000000;stroke-width:1.5;" width="588.9595" x="10" y="152.4648"/><text fill="#000000" font-family="sans-serif" font-size="13" font-weight="bold" lengthAdjust="spacing" textLength="305.8618" x="25" y="166.0332">Happy Path: Update "In Progress" Notification</text><g class="message" data-participant-1="Rep" data-participant-2="System"><polygon fill="#181818" points="538.6958,202.3965,548.6958,206.3965,538.6958,210.3965,542.6958,206.3965" style="stroke:#181818;stroke-width:1;"/><line style="stroke:#181818;stroke-width:1;" x1="79.9531" x2="544.6958" y1="206.3965" y2="206.3965"/><text fill="#000000" font-family="sans-serif" font-size="13" font-weight="bold" lengthAdjust="spacing" textLength="8.5757" x="86.9531" y="193.999">1</text><text fill="#000000" font-family="sans-serif" font-size="13" font-weight="bold" lengthAdjust="spacing" textLength="26.5142" x="99.5288" y="186.3438">PUT</text><text fill="#000000" font-family="sans-serif" font-size="13" lengthAdjust="spacing" textLength="138.3154" x="130.1563" y="186.3438">/api/notifications/{id}</text><text fill="#000000" font-family="sans-serif" font-size="13" lengthAdjust="spacing" textLength="239.8208" x="99.5288" y="201.6543">(Body: CreateVvnDto with new details)</text></g><g class="message" data-participant-1="System" data-participant-2="Rep"><polygon fill="#181818" points="90.9531,247.0176,80.9531,251.0176,90.9531,255.0176,86.9531,251.0176" style="stroke:#181818;stroke-width:1;"/><line style="stroke:#181818;stroke-width:1;stroke-dasharray:2,2;" x1="84.9531" x2="554.6958" y1="251.0176" y2="251.0176"/><text fill="#000000" font-family="sans-serif" font-size="13" font-weight="bold" lengthAdjust="spacing" textLength="8.5757" x="96.9531" y="238.6201">2</text><text fill="#000000" font-family="sans-serif" font-size="13" font-weight="bold" lengthAdjust="spacing" textLength="49.9434" x="109.5288" y="230.9648">200 OK</text><text fill="#000000" font-family="sans-serif" font-size="13" lengthAdjust="spacing" textLength="328.8784" x="109.5288" y="246.2754">(Body: VesselVisitNotificationDto { updated details })</text></g><text fill="#000000" font-family="sans-serif" font-size="11" lengthAdjust="spacing" textLength="367.1411" x="131.7539" y="290.6523">A separate notification {id_submitted} already has status "Submitted"</text><path d="M10,313.9727 L373.9634,313.9727 L373.9634,321.2832 L363.9634,331.2832 L10,331.2832 L10,313.9727" fill="#EEEEEE" style="stroke:#000000;stroke-width:1.5;"/><rect fill="none" height="106.5527" style="stroke:#000000;stroke-width:1.5;" width="588.9595" x="10" y="313.9727"/><text fill="#000000" font-family="sans-serif" font-size="13" font-weight="bold" lengthAdjust="spacing" textLength="318.9634" x="25" y="327.541">Alternate Flow: Update a Submitted Notification</text><g class="message" data-participant-1="Rep" data-participant-2="System"><polygon fill="#181818" points="538.6958,363.9043,548.6958,367.9043,538.6958,371.9043,542.6958,367.9043" style="stroke:#181818;stroke-width:1;"/><line style="stroke:#181818;stroke-width:1;" x1="79.9531" x2="544.6958" y1="367.9043" y2="367.9043"/><text fill="#000000" font-family="sans-serif" font-size="13" font-weight="bold" lengthAdjust="spacing" textLength="8.5757" x="86.9531" y="355.5068">3</text><text fill="#000000" font-family="sans-serif" font-size="13" font-weight="bold" lengthAdjust="spacing" textLength="26.5142" x="99.5288" y="347.8516">PUT</text><text fill="#000000" font-family="sans-serif" font-size="13" lengthAdjust="spacing" textLength="208.7363" x="130.1563" y="347.8516">/api/notifications/{id_submitted}</text><text fill="#000000" font-family="sans-serif" font-size="13" lengthAdjust="spacing" textLength="133.8403" x="99.5288" y="363.1621">(Body: CreateVvnDto)</text></g><g class="message" data-participant-1="System" data-participant-2="Rep"><polygon fill="#181818" points="90.9531,408.5254,80.9531,412.5254,90.9531,416.5254,86.9531,412.5254" style="stroke:#181818;stroke-width:1;"/><line style="stroke:#181818;stroke-width:1;stroke-dasharray:2,2;" x1="84.9531" x2="554.6958" y1="412.5254" y2="412.5254"/><text fill="#000000" font-family="sans-serif" font-size="13" font-weight="bold" lengthAdjust="spacing" textLength="8.5757" x="96.9531" y="400.1279">4</text><text fill="#000000" font-family="sans-serif" font-size="13" font-weight="bold" lengthAdjust="spacing" textLength="82.145" x="109.5288" y="392.4727">409 Conflict</text><text fill="#000000" font-family="sans-serif" font-size="13" lengthAdjust="spacing" textLength="434.167" x="109.5288" y="407.7832">(Body: { message: "Only 'In Progress' notifications can be updated." })</text></g><!--SRC=[fLDDQzj05BphLmowE36nR4mlyQ7WnfIMWcEgsAT0M4lFqX9fLzrziYjC_djtRKieJKi3rMdrFkRDlDaTO1rZ6asZMumGDvQfH4m_Qb89OI55PaI9gpXUN0VsMQfA-FzIAvtaHfS4DZNrCfL8daL6CJS5mL32GcL5ly3c8jK7gJBiH64f25YoAsr9pB2kKi64yAl2okZCaBKXDflbXKGWQjQgBhTa0f6mDWZZN5QLHvndfFXHVQVATRcZOBcd4CB2XG8tdsKYAw4OuUmizPGy7mCF9_T-jgyECgFh2bz4LJLO2Sx_mcofMUvauaPf5S1zhXcZZ-qgPnWEL-k7uH1ZKScnwbNRyL6cBu_gwfDEcndk33dqpLujMECWEOUY0r9Y8GjxVOBk25uO-zW03pd1dgVjoJXuic0Nwy-27mNwAItRIzjykO1a2-lML5j8wuLrkg9JrKN4oEdnihoOwMI2-s_3OSTxuygfs4WhkRyBh-A8-hIoj9M1bxEGb7wNGYeDWYYAC8SbVrFuhO0dMszBoGxl1Q9mwqeRvA9J4CPjEeH3QXsS5qn6URpFXJvqBWfqvV_hOO_N7zryftaxgTAtpjrWMtFFg4kVVANtnhUypxyFarlSQRKhPC8z5uyeNPjxkJE4zwfeCEZTyi4hHXQ9KDXIQsuK_iFMNjY_h5y0]--></g></svg>