<svg xmlns="http://www.w3.org/2000/svg" xmlns:xlink="http://www.w3.org/1999/xlink" contentStyleType="text/css" data-diagram-type="SEQUENCE" height="244px" preserveAspectRatio="none" style="width:477px;height:244px;background:#FFFFFF;" version="1.1" viewBox="0 0 477 244" width="477px" zoomAndPan="magnify"><defs/><g><g><title>..system .C4...</title><rect fill="#FFFFFF" height="29.7993" style="stroke:#000000;stroke-width:1;" width="10" x="407.4302" y="114.814"/></g><g><title>Shipping Agent Rep.</title><rect fill="#000000" fill-opacity="0.00000" height="79.5986" width="8" x="80.9414" y="83.0146"/><line style="stroke:#000000;stroke-width:1;" x1="84" x2="84" y1="83.0146" y2="162.6133"/></g><g><title>..system .C4...</title><rect fill="#000000" fill-opacity="0.00000" height="79.5986" width="8" x="408.4302" y="83.0146"/><line style="stroke:#000000;stroke-width:1;" x1="412.0771" x2="412.0771" y1="83.0146" y2="162.6133"/></g><g class="participant participant-head" data-participant="Actor"><text fill="#000000" font-family="Verdana" font-size="14" lengthAdjust="spacing" textLength="143.8828" x="10" y="80.0752">Shipping Agent Rep.</text><ellipse cx="84.9414" cy="14" fill="#FFFFFF" rx="8" ry="8" style="stroke:#000000;stroke-width:1;"/><path d="M84.9414,22 L84.9414,49 M71.9414,30 L97.9414,30 M84.9414,49 L71.9414,64 M84.9414,49 L97.9414,64" fill="none" style="stroke:#000000;stroke-width:1;"/></g><g class="participant participant-tail" data-participant="Actor"><text fill="#000000" font-family="Verdana" font-size="14" lengthAdjust="spacing" textLength="143.8828" x="10" y="175.6885">Shipping Agent Rep.</text><ellipse cx="84.9414" cy="187.6279" fill="#FFFFFF" rx="8" ry="8" style="stroke:#000000;stroke-width:1;"/><path d="M84.9414,195.6279 L84.9414,222.6279 M71.9414,203.6279 L97.9414,203.6279 M84.9414,222.6279 L71.9414,237.6279 M84.9414,222.6279 L97.9414,237.6279" fill="none" style="stroke:#000000;stroke-width:1;"/></g><g class="participant participant-head" data-participant="System"><rect fill="#FFFFFF" height="48.0293" rx="2.5" ry="2.5" style="stroke:#000000;stroke-width:1;" width="118.7061" x="353.0771" y="33.9854"/><text fill="#000000" font-family="Verdana" font-size="14" lengthAdjust="spacing" textLength="104.7061" x="360.0771" y="55.0605">&#171;system (C4)&#187;</text><text fill="#000000" font-family="Verdana" font-size="14" lengthAdjust="spacing" textLength="85.9756" x="369.4424" y="72.0752">Port System</text></g><g class="participant participant-tail" data-participant="System"><rect fill="#FFFFFF" height="48.0293" rx="2.5" ry="2.5" style="stroke:#000000;stroke-width:1;" width="118.7061" x="353.0771" y="161.6133"/><text fill="#000000" font-family="Verdana" font-size="14" lengthAdjust="spacing" textLength="104.7061" x="360.0771" y="182.6885">&#171;system (C4)&#187;</text><text fill="#000000" font-family="Verdana" font-size="14" lengthAdjust="spacing" textLength="85.9756" x="369.4424" y="199.7031">Port System</text></g><g><title>..system .C4...</title><rect fill="#FFFFFF" height="29.7993" style="stroke:#000000;stroke-width:1;" width="10" x="407.4302" y="114.814"/></g><g class="message" data-participant-1="Actor" data-participant-2="System"><polygon fill="#000000" points="395.4302,110.814,405.4302,114.814,395.4302,118.814,399.4302,114.814" style="stroke:#000000;stroke-width:1;"/><line style="stroke:#000000;stroke-width:1;" x1="84.9414" x2="401.4302" y1="114.814" y2="114.814"/><text fill="#000000" font-family="Verdana" font-size="13" font-weight="bold" lengthAdjust="spacing" textLength="9.2422" x="91.9414" y="110.0845">1</text><text fill="#000000" font-family="Verdana" font-size="13" lengthAdjust="spacing" textLength="290.2466" x="105.1836" y="110.0845">1: create and submit vessel visit notification</text></g><g class="message" data-participant-1="System" data-participant-2="Actor"><polygon fill="#000000" points="95.9414,140.6133,85.9414,144.6133,95.9414,148.6133,91.9414,144.6133" style="stroke:#000000;stroke-width:1;"/><line style="stroke:#000000;stroke-width:1;stroke-dasharray:2,2;" x1="89.9414" x2="411.4302" y1="144.6133" y2="144.6133"/><text fill="#000000" font-family="Verdana" font-size="13" font-weight="bold" lengthAdjust="spacing" textLength="9.2422" x="101.9414" y="139.8838">2</text><text fill="#000000" font-family="Verdana" font-size="13" lengthAdjust="spacing" textLength="256.147" x="115.1836" y="139.8838">1.1: notification created and submitted</text></g><!--SRC=[NOwn3eCm34JtV8NBr0v5gjG98IJK7wZAsiK45on14YK6gN_V01bGDz-Txzad6MWYS2EoKJYBDVFKabSAjLWFMJEmSsnwg7io0YzoUGOOe5vZvT0BQtOOewmimpS8JN1-t2zLzJPFwmMQpTiw-wZKreLhbGmeu5Q0zeH2WAQ3CBSJ2omK0esmS8Z2ME4FQnIsPlsDbtKx4HFd6f4xEnBpo3oMqe7kS24grT4_x0S0]--></g></svg>