<svg xmlns="http://www.w3.org/2000/svg" xmlns:xlink="http://www.w3.org/1999/xlink" contentStyleType="text/css" data-diagram-type="SEQUENCE" height="289.2px" preserveAspectRatio="none" style="width:561px;height:289px;background:#FFFFFF;" version="1.1" viewBox="0 0 561 289" width="561.6px" zoomAndPan="magnify"><defs/><g><g><title>..system .C4...</title><rect fill="#FFFFFF" height="34.9594" style="stroke:#000000;stroke-width:1.2;" width="12" x="479.6391" y="136.1156"/></g><g><title>Port Authority Officer</title><rect fill="#000000" fill-opacity="0.00000" height="93.9188" width="9.6" x="100.0705" y="98.7563"/><line style="stroke:#000000;stroke-width:1.2;" x1="104.4" x2="104.4" y1="98.7563" y2="192.675"/></g><g><title>..system .C4...</title><rect fill="#000000" fill-opacity="0.00000" height="93.9188" width="9.6" x="480.8391" y="98.7563"/><line style="stroke:#000000;stroke-width:1.2;" x1="484.5586" x2="484.5586" y1="98.7563" y2="192.675"/></g><g class="participant participant-head" data-participant="Officer"><text fill="#000000" font-family="Verdana" font-size="16.8" lengthAdjust="spacing" textLength="178.541" x="12" y="94.7941">Port Authority Officer</text><ellipse cx="104.8705" cy="16.8" fill="#FFFFFF" rx="9.6" ry="9.6" style="stroke:#000000;stroke-width:1.2;"/><path d="M104.8705,26.4 L104.8705,58.8 M89.2705,36 L120.4705,36 M104.8705,58.8 L89.2705,76.8 M104.8705,58.8 L120.4705,76.8" fill="none" style="stroke:#000000;stroke-width:1.2;"/></g><g class="participant participant-tail" data-participant="Officer"><text fill="#000000" font-family="Verdana" font-size="16.8" lengthAdjust="spacing" textLength="178.541" x="12" y="207.0691">Port Authority Officer</text><ellipse cx="104.8705" cy="221.8312" fill="#FFFFFF" rx="9.6" ry="9.6" style="stroke:#000000;stroke-width:1.2;"/><path d="M104.8705,231.4312 L104.8705,263.8313 M89.2705,241.0313 L120.4705,241.0313 M104.8705,263.8313 L89.2705,281.8313 M104.8705,263.8313 L120.4705,281.8313" fill="none" style="stroke:#000000;stroke-width:1.2;"/></g><g class="participant participant-head" data-participant="AIT"><rect fill="#FFFFFF" height="55.9125" rx="3" ry="3" style="stroke:#000000;stroke-width:1.2;" width="138.9609" x="416.1586" y="41.6438"/><text fill="#000000" font-family="Verdana" font-size="16.8" lengthAdjust="spacing" textLength="122.1609" x="424.5586" y="65.6379">&#171;system (C4)&#187;</text><text fill="#000000" font-family="Verdana" font-size="16.8" lengthAdjust="spacing" textLength="101.891" x="434.6936" y="85.1941">Port System</text></g><g class="participant participant-tail" data-participant="AIT"><rect fill="#FFFFFF" height="55.9125" rx="3" ry="3" style="stroke:#000000;stroke-width:1.2;" width="138.9609" x="416.1586" y="191.475"/><text fill="#000000" font-family="Verdana" font-size="16.8" lengthAdjust="spacing" textLength="122.1609" x="424.5586" y="215.4691">&#171;system (C4)&#187;</text><text fill="#000000" font-family="Verdana" font-size="16.8" lengthAdjust="spacing" textLength="101.891" x="434.6936" y="235.0254">Port System</text></g><g><title>..system .C4...</title><rect fill="#FFFFFF" height="34.9594" style="stroke:#000000;stroke-width:1.2;" width="12" x="479.6391" y="136.1156"/></g><g class="message" data-participant-1="Officer" data-participant-2="AIT"><polygon fill="#000000" points="465.2391,131.3156,477.2391,136.1156,465.2391,140.9156,470.0391,136.1156" style="stroke:#000000;stroke-width:1.2;"/><line style="stroke:#000000;stroke-width:1.2;" x1="104.8705" x2="472.4391" y1="136.1156" y2="136.1156"/><text fill="#000000" font-family="Verdana" font-size="15.6" font-weight="bold" lengthAdjust="spacing" textLength="10.8545" x="113.2705" y="130.0365">1</text><text fill="#000000" font-family="Verdana" font-size="15.6" lengthAdjust="spacing" textLength="336.3141" x="128.925" y="130.0365">1: create new Shipping Agent Organization</text></g><g class="message" data-participant-1="AIT" data-participant-2="Officer"><polygon fill="#000000" points="118.0705,166.275,106.0705,171.075,118.0705,175.875,113.2705,171.075" style="stroke:#000000;stroke-width:1.2;"/><line style="stroke:#000000;stroke-width:1.2;stroke-dasharray:2.4,2.4;" x1="110.8705" x2="484.4391" y1="171.075" y2="171.075"/><text fill="#000000" font-family="Verdana" font-size="15.6" font-weight="bold" lengthAdjust="spacing" textLength="10.8545" x="125.2705" y="164.9959">2</text><text fill="#000000" font-family="Verdana" font-size="15.6" lengthAdjust="spacing" textLength="296.2781" x="140.925" y="164.9959">1.1: organization successfully created</text></g><!--SRC=[LSwn2i9030RW_PuYTj91GN0gfL2Sd1HqT8bdsWRQk-CkfzIdjrTQq2q9-Rza9Itr1Av3DWgZM1Fx1tcbK8lra5si5wYYjDQp372kQzRaCy2mrCgX5zRiq0XaHH668DJ3-dZObENTJC1rcasfwdHJQex2jamzvB3FGNj28J3qXclBph5fe6feHC- -GSCV5BOc_SMlj9YW5DwEoEADq6wax4y0GjIQGgXZrmtpaQTwqf_p1G00]--></g></svg>