<svg xmlns="http://www.w3.org/2000/svg" xmlns:xlink="http://www.w3.org/1999/xlink" contentStyleType="text/css" data-diagram-type="SEQUENCE" height="489px" preserveAspectRatio="none" style="width:518px;height:489px;background:#FFFFFF;" version="1.1" viewBox="0 0 518 489" width="518px" zoomAndPan="magnify"><title>US 2.2.11: Manage Staff Members - SSD</title><defs/><g><text fill="#000000" font-family="sans-serif" font-size="14" font-weight="bold" lengthAdjust="spacing" textLength="284.9082" x="118.375" y="28.5352">US 2.2.11: Manage Staff Members - SSD</text><g><title>Logistics Operator</title><rect fill="#FFFFFF" height="269.7949" style="stroke:#181818;stroke-width:1;" width="10" x="80.2549" y="128.9766"/></g><g><title>.System</title><rect fill="#FFFFFF" height="29.3105" style="stroke:#181818;stroke-width:1;" width="10" x="464.3945" y="174.5977"/></g><g><title>.System</title><rect fill="#FFFFFF" height="29.3105" style="stroke:#181818;stroke-width:1;" width="10" x="464.3945" y="264.5293"/></g><g><title>.System</title><rect fill="#FFFFFF" height="29.3105" style="stroke:#181818;stroke-width:1;" width="10" x="464.3945" y="354.4609"/></g><rect fill="none" height="75.9316" style="stroke:#000000;stroke-width:1.5;" width="502.6582" x="10" y="135.9766"/><rect fill="none" height="75.9316" style="stroke:#000000;stroke-width:1.5;" width="502.6582" x="10" y="225.9082"/><rect fill="none" height="75.9316" style="stroke:#000000;stroke-width:1.5;" width="502.6582" x="10" y="315.8398"/><g><title>Logistics Operator</title><rect fill="#000000" fill-opacity="0.00000" height="289.7949" width="8" x="81.2549" y="118.9766"/><line style="stroke:#181818;stroke-width:0.5;stroke-dasharray:5,5;" x1="85" x2="85" y1="118.9766" y2="408.7715"/></g><g><title>.System</title><rect fill="#000000" fill-opacity="0.00000" height="289.7949" width="8" x="465.3945" y="118.9766"/><line style="stroke:#181818;stroke-width:0.5;stroke-dasharray:5,5;" x1="469.1309" x2="469.1309" y1="118.9766" y2="408.7715"/></g><g class="participant participant-head" data-participant="User"><text fill="#000000" font-family="sans-serif" font-size="14" lengthAdjust="spacing" textLength="124.5098" x="20" y="116.0234">Logistics Operator</text><ellipse cx="85.2549" cy="50.9883" fill="#E3E3E3" rx="8" ry="8" style="stroke:#181818;stroke-width:0.5;"/><path d="M85.2549,58.9883 L85.2549,85.9883 M72.2549,66.9883 L98.2549,66.9883 M85.2549,85.9883 L72.2549,100.9883 M85.2549,85.9883 L98.2549,100.9883" fill="none" style="stroke:#181818;stroke-width:0.5;"/></g><g class="participant participant-tail" data-participant="User"><text fill="#000000" font-family="sans-serif" font-size="14" lengthAdjust="spacing" textLength="124.5098" x="20" y="421.3066">Logistics Operator</text><ellipse cx="85.2549" cy="432.7598" fill="#E3E3E3" rx="8" ry="8" style="stroke:#181818;stroke-width:0.5;"/><path d="M85.2549,440.7598 L85.2549,467.7598 M72.2549,448.7598 L98.2549,448.7598 M85.2549,467.7598 L72.2549,482.7598 M85.2549,467.7598 L98.2549,482.7598" fill="none" style="stroke:#181818;stroke-width:0.5;"/></g><g class="participant participant-head" data-participant="System"><rect fill="#E3E3E3" height="30.4883" rx="2.5" ry="2.5" style="stroke:#181818;stroke-width:0.5;" width="66.5273" x="436.1309" y="87.4883"/><text fill="#000000" font-family="sans-serif" font-size="14" lengthAdjust="spacing" textLength="52.5273" x="443.1309" y="108.0234">:System</text></g><g class="participant participant-tail" data-participant="System"><rect fill="#E3E3E3" height="30.4883" rx="2.5" ry="2.5" style="stroke:#181818;stroke-width:0.5;" width="66.5273" x="436.1309" y="407.7715"/><text fill="#000000" font-family="sans-serif" font-size="14" lengthAdjust="spacing" textLength="52.5273" x="443.1309" y="428.3066">:System</text></g><g><title>Logistics Operator</title><rect fill="#FFFFFF" height="269.7949" style="stroke:#181818;stroke-width:1;" width="10" x="80.2549" y="128.9766"/></g><g><title>.System</title><rect fill="#FFFFFF" height="29.3105" style="stroke:#181818;stroke-width:1;" width="10" x="464.3945" y="174.5977"/></g><g><title>.System</title><rect fill="#FFFFFF" height="29.3105" style="stroke:#181818;stroke-width:1;" width="10" x="464.3945" y="264.5293"/></g><g><title>.System</title><rect fill="#FFFFFF" height="29.3105" style="stroke:#181818;stroke-width:1;" width="10" x="464.3945" y="354.4609"/></g><path d="M10,135.9766 L72.1387,135.9766 L72.1387,143.2871 L62.1387,153.2871 L10,153.2871 L10,135.9766" fill="#EEEEEE" style="stroke:#000000;stroke-width:1.5;"/><rect fill="none" height="75.9316" style="stroke:#000000;stroke-width:1.5;" width="502.6582" x="10" y="135.9766"/><text fill="#000000" font-family="sans-serif" font-size="13" font-weight="bold" lengthAdjust="spacing" textLength="17.1387" x="25" y="149.5449">alt</text><text fill="#000000" font-family="sans-serif" font-size="11" font-weight="bold" lengthAdjust="spacing" textLength="124.2173" x="87.1387" y="148.6113">[Create Staff Member]</text><g class="message" data-participant-1="User" data-participant-2="System"><polygon fill="#181818" points="452.3945,170.5977,462.3945,174.5977,452.3945,178.5977,456.3945,174.5977" style="stroke:#181818;stroke-width:1;"/><line style="stroke:#181818;stroke-width:1;" x1="90.2549" x2="458.3945" y1="174.5977" y2="174.5977"/><text fill="#000000" font-family="sans-serif" font-size="13" font-weight="bold" lengthAdjust="spacing" textLength="8.5757" x="97.2549" y="169.8555">1</text><text fill="#000000" font-family="sans-serif" font-size="13" lengthAdjust="spacing" textLength="238.3228" x="109.8306" y="169.8555">requests to create staff member(data)</text></g><g class="message" data-participant-1="System" data-participant-2="User"><polygon fill="#181818" points="101.2549,199.9082,91.2549,203.9082,101.2549,207.9082,97.2549,203.9082" style="stroke:#181818;stroke-width:1;"/><line style="stroke:#181818;stroke-width:1;stroke-dasharray:2,2;" x1="95.2549" x2="468.3945" y1="203.9082" y2="203.9082"/><text fill="#000000" font-family="sans-serif" font-size="13" font-weight="bold" lengthAdjust="spacing" textLength="8.5757" x="107.2549" y="199.166">2</text><text fill="#000000" font-family="sans-serif" font-size="13" lengthAdjust="spacing" textLength="331.1699" x="119.8306" y="199.166">confirms creation and shows new staff member data</text></g><path d="M10,225.9082 L72.1387,225.9082 L72.1387,233.2188 L62.1387,243.2188 L10,243.2188 L10,225.9082" fill="#EEEEEE" style="stroke:#000000;stroke-width:1.5;"/><rect fill="none" height="75.9316" style="stroke:#000000;stroke-width:1.5;" width="502.6582" x="10" y="225.9082"/><text fill="#000000" font-family="sans-serif" font-size="13" font-weight="bold" lengthAdjust="spacing" textLength="17.1387" x="25" y="239.4766">alt</text><text fill="#000000" font-family="sans-serif" font-size="11" font-weight="bold" lengthAdjust="spacing" textLength="302.0542" x="87.1387" y="238.543">[Update Staff Member Status (Deactivate/Reactivate)]</text><g class="message" data-participant-1="User" data-participant-2="System"><polygon fill="#181818" points="452.3945,260.5293,462.3945,264.5293,452.3945,268.5293,456.3945,264.5293" style="stroke:#181818;stroke-width:1;"/><line style="stroke:#181818;stroke-width:1;" x1="90.2549" x2="458.3945" y1="264.5293" y2="264.5293"/><text fill="#000000" font-family="sans-serif" font-size="13" font-weight="bold" lengthAdjust="spacing" textLength="8.5757" x="97.2549" y="259.7871">3</text><text fill="#000000" font-family="sans-serif" font-size="13" lengthAdjust="spacing" textLength="342.564" x="109.8306" y="259.7871">requests to update staff member status(id, newStatus)</text></g><g class="message" data-participant-1="System" data-participant-2="User"><polygon fill="#181818" points="101.2549,289.8398,91.2549,293.8398,101.2549,297.8398,97.2549,293.8398" style="stroke:#181818;stroke-width:1;"/><line style="stroke:#181818;stroke-width:1;stroke-dasharray:2,2;" x1="95.2549" x2="468.3945" y1="293.8398" y2="293.8398"/><text fill="#000000" font-family="sans-serif" font-size="13" font-weight="bold" lengthAdjust="spacing" textLength="8.5757" x="107.2549" y="289.0977">4</text><text fill="#000000" font-family="sans-serif" font-size="13" lengthAdjust="spacing" textLength="145.501" x="119.8306" y="289.0977">confirms status update</text></g><path d="M10,315.8398 L72.1387,315.8398 L72.1387,323.1504 L62.1387,333.1504 L10,333.1504 L10,315.8398" fill="#EEEEEE" style="stroke:#000000;stroke-width:1.5;"/><rect fill="none" height="75.9316" style="stroke:#000000;stroke-width:1.5;" width="502.6582" x="10" y="315.8398"/><text fill="#000000" font-family="sans-serif" font-size="13" font-weight="bold" lengthAdjust="spacing" textLength="17.1387" x="25" y="329.4082">alt</text><text fill="#000000" font-family="sans-serif" font-size="11" font-weight="bold" lengthAdjust="spacing" textLength="150.0308" x="87.1387" y="328.4746">[List/Filter Staff Members]</text><g class="message" data-participant-1="User" data-participant-2="System"><polygon fill="#181818" points="452.3945,350.4609,462.3945,354.4609,452.3945,358.4609,456.3945,354.4609" style="stroke:#181818;stroke-width:1;"/><line style="stroke:#181818;stroke-width:1;" x1="90.2549" x2="458.3945" y1="354.4609" y2="354.4609"/><text fill="#000000" font-family="sans-serif" font-size="13" font-weight="bold" lengthAdjust="spacing" textLength="8.5757" x="97.2549" y="349.7188">5</text><text fill="#000000" font-family="sans-serif" font-size="13" lengthAdjust="spacing" textLength="274.1997" x="109.8306" y="349.7188">requests to list staff members(filterCriteria)</text></g><g class="message" data-participant-1="System" data-participant-2="User"><polygon fill="#181818" points="101.2549,379.7715,91.2549,383.7715,101.2549,387.7715,97.2549,383.7715" style="stroke:#181818;stroke-width:1;"/><line style="stroke:#181818;stroke-width:1;stroke-dasharray:2,2;" x1="95.2549" x2="468.3945" y1="383.7715" y2="383.7715"/><text fill="#000000" font-family="sans-serif" font-size="13" font-weight="bold" lengthAdjust="spacing" textLength="8.5757" x="107.2549" y="379.0293">6</text><text fill="#000000" font-family="sans-serif" font-size="13" lengthAdjust="spacing" textLength="237.6118" x="119.8306" y="379.0293">shows list of matching staff members</text></g><!--SRC=[dPBDJiCm3CVlUGfh5pg9WU3O0vTLd418L7i0axfTH9kKs6NYxSd76DqE3EYXIlpni_zsBc1Jm-tLxTNDJGcFQB4Zg0NR5XvfU27Fi8BwWuK6gEbj8gi9AeETnm6AkgwMYb-D7J7U1sUTtdet48YVQEOPKRy6SYqVFO4dBMYxVXx0MspSpjWEMkoPb18Z8VGNlTMLKZY9irCqATJYF2mUN6TOZ6Pu6ibZi2q06JOSGaB5u34ZMe55cSKbRpwgo33lA9J35VO2Qq_HCA-k87mn0bPtNoCgWxWm91O6SQ1p4gUa8IKL3GekK-gXohvijEqngq1Cv1Aqiwtn0sUOSHRGDc5SRiTWQNS4XmXFd8PEwMIRh6GpDgTAuaKcXg8wf5q_7uxByqAdp3pgXHEpCCrbx3DN-9Vm3DhNEAVk8Mpz-jxqabLzFvNp8lgGUYI1YpQ1rjw4l_dJslA24j857ehUniTzXFz9oymSYPy0]--></g></svg>