<svg xmlns="http://www.w3.org/2000/svg" xmlns:xlink="http://www.w3.org/1999/xlink" contentStyleType="text/css" data-diagram-type="CLASS" height="572px" preserveAspectRatio="none" style="width:1327px;height:572px;background:#FFFFFF;" version="1.1" viewBox="0 0 1327 572" width="1327px" zoomAndPan="magnify"><title>US 2.2.8 - Create/Submit VVN - Class Diagram</title><defs/><g><g class="title" data-source-line="2"><text fill="#000000" font-family="sans-serif" font-size="14" font-weight="bold" lengthAdjust="spacing" textLength="338.1533" x="487.6071" y="23.5352">US 2.2.8 - Create/Submit VVN - Class Diagram</text></g><!--class VesselVisitNotificationController--><g class="entity" data-entity="VesselVisitNotificationController" data-source-line="9" data-uid="ent0002" id="entity_VesselVisitNotificationController"><rect fill="#F1F1F1" height="122.5742" rx="2.5" ry="2.5" style="stroke:#181818;stroke-width:0.5;" width="272.873" x="591.02" y="44.4883"/><ellipse cx="615.5263" cy="64.7988" fill="#C2C2C2" rx="11" ry="11" style="stroke:#181818;stroke-width:1;"/><path d="M618.4994,70.4419 Q617.9183,70.7407 617.2792,70.8901 Q616.64,71.0396 615.9345,71.0396 Q613.4276,71.0396 612.1078,69.3877 Q610.788,67.7358 610.788,64.6147 Q610.788,61.4854 612.1078,59.8335 Q613.4276,58.1816 615.9345,58.1816 Q616.64,58.1816 617.2875,58.3311 Q617.9349,58.4805 618.4994,58.7793 L618.4994,61.502 Q617.8685,60.9209 617.275,60.6511 Q616.6815,60.3813 616.0507,60.3813 Q614.7059,60.3813 614.0211,61.448 Q613.3363,62.5146 613.3363,64.6147 Q613.3363,66.7065 614.0211,67.7732 Q614.7059,68.8398 616.0507,68.8398 Q616.6815,68.8398 617.275,68.5701 Q617.8685,68.3003 618.4994,67.7192 Z " fill="#000000"/><text fill="#000000" font-family="sans-serif" font-size="12" font-style="italic" lengthAdjust="spacing" textLength="70.998" x="706.0138" y="61.0898">&#171;Controller&#187;</text><text fill="#000000" font-family="sans-serif" font-size="14" lengthAdjust="spacing" textLength="219.748" x="631.6388" y="77.1563">VesselVisitNotificationController</text><line style="stroke:#181818;stroke-width:0.5;" x1="592.02" x2="862.893" y1="85.1094" y2="85.1094"/><line style="stroke:#181818;stroke-width:0.5;" x1="592.02" x2="862.893" y1="93.1094" y2="93.1094"/><text fill="#000000" font-family="sans-serif" font-size="14" lengthAdjust="spacing" textLength="235.0469" x="597.02" y="110.6445">+Create(dto): Task&lt;ActionResult&gt;</text><text fill="#000000" font-family="sans-serif" font-size="14" lengthAdjust="spacing" textLength="260.873" x="597.02" y="127.1328">+Update(id, dto): Task&lt;ActionResult&gt;</text><text fill="#000000" font-family="sans-serif" font-size="14" lengthAdjust="spacing" textLength="232.7021" x="597.02" y="143.6211">+Submit(id): Task&lt;IActionResult&gt;</text><text fill="#000000" font-family="sans-serif" font-size="14" lengthAdjust="spacing" textLength="232.6406" x="597.02" y="160.1094">+GetById(id): Task&lt;ActionResult&gt;</text></g><!--class IVesselVisitNotificationService--><g class="entity" data-entity="IVesselVisitNotificationService" data-source-line="16" data-uid="ent0003" id="entity_IVesselVisitNotificationService"><rect fill="#F1F1F1" height="122.5742" rx="2.5" ry="2.5" style="stroke:#181818;stroke-width:0.5;" width="421.8076" x="898.56" y="44.4883"/><ellipse cx="1003.7377" cy="64.7988" fill="#B1B1B1" rx="11" ry="11" style="stroke:#181818;stroke-width:1;"/><path d="M999.6655,60.564 L999.6655,58.4058 L1007.0449,58.4058 L1007.0449,60.564 L1004.5795,60.564 L1004.5795,68.6406 L1007.0449,68.6406 L1007.0449,70.7988 L999.6655,70.7988 L999.6655,68.6406 L1002.1308,68.6406 L1002.1308,60.564 Z " fill="#000000"/><text fill="#000000" font-family="sans-serif" font-size="12" font-style="italic" lengthAdjust="spacing" textLength="53.1445" x="1099.1415" y="61.0898">&#171;Service&#187;</text><text fill="#000000" font-family="sans-serif" font-size="14" font-style="italic" lengthAdjust="spacing" textLength="202.9521" x="1024.2377" y="77.1563">IVesselVisitNotificationService</text><line style="stroke:#181818;stroke-width:0.5;" x1="899.56" x2="1319.3676" y1="85.1094" y2="85.1094"/><line style="stroke:#181818;stroke-width:0.5;" x1="899.56" x2="1319.3676" y1="93.1094" y2="93.1094"/><text fill="#000000" font-family="sans-serif" font-size="14" lengthAdjust="spacing" textLength="409.8076" x="904.56" y="110.6445">+CreateAsync(dto, repId): Task&lt;VesselVisitNotificationDto&gt;</text><text fill="#000000" font-family="sans-serif" font-size="14" lengthAdjust="spacing" textLength="391.5898" x="904.56" y="127.1328">+UpdateAsync(id, dto): Task&lt;VesselVisitNotificationDto&gt;</text><text fill="#000000" font-family="sans-serif" font-size="14" lengthAdjust="spacing" textLength="161.2188" x="904.56" y="143.6211">+SubmitAsync(id): Task</text><text fill="#000000" font-family="sans-serif" font-size="14" lengthAdjust="spacing" textLength="369.2637" x="904.56" y="160.1094">+GetByIdAsync(id): Task&lt;VesselVisitNotificationDto?&gt;</text></g><!--class VesselVisitNotificationService--><g class="entity" data-entity="VesselVisitNotificationService" data-source-line="23" data-uid="ent0004" id="entity_VesselVisitNotificationService"><rect fill="#F1F1F1" height="56.6211" rx="2.5" ry="2.5" style="stroke:#181818;stroke-width:0.5;" width="230.9189" x="7" y="251.7983"/><ellipse cx="22" cy="272.1088" fill="#C2C2C2" rx="11" ry="11" style="stroke:#181818;stroke-width:1;"/><path d="M24.9731,277.7519 Q24.3921,278.0507 23.7529,278.2001 Q23.1138,278.3496 22.4082,278.3496 Q19.9014,278.3496 18.5815,276.6977 Q17.2617,275.0458 17.2617,271.9247 Q17.2617,268.7954 18.5815,267.1435 Q19.9014,265.4916 22.4082,265.4916 Q23.1138,265.4916 23.7612,265.6411 Q24.4087,265.7905 24.9731,266.0893 L24.9731,268.812 Q24.3423,268.2309 23.7488,267.9611 Q23.1553,267.6913 22.5244,267.6913 Q21.1797,267.6913 20.4949,268.758 Q19.8101,269.8246 19.8101,271.9247 Q19.8101,274.0165 20.4949,275.0832 Q21.1797,276.1498 22.5244,276.1498 Q23.1553,276.1498 23.7488,275.8801 Q24.3423,275.6103 24.9731,275.0292 Z " fill="#000000"/><text fill="#000000" font-family="sans-serif" font-size="12" font-style="italic" lengthAdjust="spacing" textLength="53.1445" x="108.8872" y="268.3998">&#171;Service&#187;</text><text fill="#000000" font-family="sans-serif" font-size="14" lengthAdjust="spacing" textLength="198.9189" x="36" y="284.4663">VesselVisitNotificationService</text><line style="stroke:#181818;stroke-width:0.5;" x1="8" x2="236.9189" y1="292.4194" y2="292.4194"/><line style="stroke:#181818;stroke-width:0.5;" x1="8" x2="236.9189" y1="300.4194" y2="300.4194"/></g><!--class IVesselVisitNotificationRepository--><g class="entity" data-entity="IVesselVisitNotificationRepository" data-source-line="25" data-uid="ent0005" id="entity_IVesselVisitNotificationRepository"><rect fill="#F1F1F1" height="106.0859" rx="2.5" ry="2.5" style="stroke:#181818;stroke-width:0.5;" width="356.9414" x="272.99" y="227.0683"/><ellipse cx="333.3377" cy="247.3788" fill="#B1B1B1" rx="11" ry="11" style="stroke:#181818;stroke-width:1;"/><path d="M329.2654,243.144 L329.2654,240.9858 L336.6448,240.9858 L336.6448,243.144 L334.1795,243.144 L334.1795,251.2206 L336.6448,251.2206 L336.6448,253.3788 L329.2654,253.3788 L329.2654,251.2206 L331.7307,251.2206 L331.7307,243.144 Z " fill="#000000"/><text fill="#000000" font-family="sans-serif" font-size="12" font-style="italic" lengthAdjust="spacing" textLength="74.3965" x="430.5125" y="243.6698">&#171;Repository&#187;</text><text fill="#000000" font-family="sans-serif" font-size="14" font-style="italic" lengthAdjust="spacing" textLength="227.7461" x="353.8377" y="259.7363">IVesselVisitNotificationRepository</text><line style="stroke:#181818;stroke-width:0.5;" x1="273.99" x2="628.9314" y1="267.6894" y2="267.6894"/><line style="stroke:#181818;stroke-width:0.5;" x1="273.99" x2="628.9314" y1="275.6894" y2="275.6894"/><text fill="#000000" font-family="sans-serif" font-size="14" lengthAdjust="spacing" textLength="205.4883" x="278.99" y="293.2245">+AddAsync(notification): Task</text><text fill="#000000" font-family="sans-serif" font-size="14" lengthAdjust="spacing" textLength="344.9414" x="278.99" y="309.7128">+GetByIdAsync(id): Task&lt;VesselVisitNotification?&gt;</text><text fill="#000000" font-family="sans-serif" font-size="14" lengthAdjust="spacing" textLength="226.2969" x="278.99" y="326.2011">+UpdateAsync(notification): Task</text></g><!--class VesselVisitNotification--><g class="entity" data-entity="VesselVisitNotification" data-source-line="31" data-uid="ent0006" id="entity_VesselVisitNotification"><rect fill="#F1F1F1" height="172.0391" rx="2.5" ry="2.5" style="stroke:#181818;stroke-width:0.5;" width="197.1104" x="187.9" y="393.1483"/><ellipse cx="208.9855" cy="413.4588" fill="#9B9B9B" rx="11" ry="11" style="stroke:#181818;stroke-width:1;"/><path d="M209.0988,408.807 L207.945,413.8788 L210.2609,413.8788 Z M207.6047,406.5658 L210.6013,406.5658 L213.9465,418.9588 L211.4978,418.9588 L210.7341,415.8958 L207.4553,415.8958 L206.7082,418.9588 L204.2595,418.9588 Z " fill="#000000"/><text fill="#000000" font-family="sans-serif" font-size="12" font-style="italic" lengthAdjust="spacing" textLength="72.6973" x="263.7827" y="409.7498">&#171;Aggregate&#187;</text><text fill="#000000" font-family="sans-serif" font-size="14" lengthAdjust="spacing" textLength="151.5869" x="224.3379" y="425.8163">VesselVisitNotification</text><line style="stroke:#181818;stroke-width:0.5;" x1="188.9" x2="384.0104" y1="433.7694" y2="433.7694"/><text fill="#000000" font-family="sans-serif" font-size="14" lengthAdjust="spacing" textLength="124.5713" x="193.9" y="451.3045">+Id: NotificationId</text><text fill="#000000" font-family="sans-serif" font-size="14" lengthAdjust="spacing" textLength="182.0205" x="193.9" y="467.7928">+Status: NotificationStatus</text><line style="stroke:#181818;stroke-width:1;" x1="188.9" x2="384.0104" y1="474.7459" y2="474.7459"/><text fill="#000000" font-family="sans-serif" font-size="14" lengthAdjust="spacing" textLength="185.1104" x="193.9" y="492.2811">+VesselVisitNotification(...)</text><text fill="#000000" font-family="sans-serif" font-size="14" lengthAdjust="spacing" textLength="128.0986" x="193.9" y="508.7694">+UpdateDetails(...)</text><text fill="#000000" font-family="sans-serif" font-size="14" lengthAdjust="spacing" textLength="67.6279" x="193.9" y="525.2577">+Submit()</text><text fill="#000000" font-family="sans-serif" font-size="14" lengthAdjust="spacing" textLength="90.1797" x="193.9" y="541.7459">+Approve(...)</text><text fill="#000000" font-family="sans-serif" font-size="14" lengthAdjust="spacing" textLength="74.6416" x="193.9" y="558.2342">+Reject(...)</text></g><!--class CreateVvnDto--><g class="entity" data-entity="CreateVvnDto" data-source-line="42" data-uid="ent0007" id="entity_CreateVvnDto"><rect fill="#F1F1F1" height="56.6211" rx="2.5" ry="2.5" style="stroke:#181818;stroke-width:0.5;" width="125.3926" x="664.76" y="251.7983"/><ellipse cx="679.76" cy="272.1088" fill="#C2C2C2" rx="11" ry="11" style="stroke:#181818;stroke-width:1;"/><path d="M682.7331,277.7519 Q682.1521,278.0507 681.5129,278.2001 Q680.8738,278.3496 680.1682,278.3496 Q677.6614,278.3496 676.3415,276.6977 Q675.0217,275.0458 675.0217,271.9247 Q675.0217,268.7954 676.3415,267.1435 Q677.6614,265.4916 680.1682,265.4916 Q680.8738,265.4916 681.5212,265.6411 Q682.1687,265.7905 682.7331,266.0893 L682.7331,268.812 Q682.1023,268.2309 681.5088,267.9611 Q680.9153,267.6913 680.2844,267.6913 Q678.9397,267.6913 678.2549,268.758 Q677.5701,269.8246 677.5701,271.9247 Q677.5701,274.0165 678.2549,275.0832 Q678.9397,276.1498 680.2844,276.1498 Q680.9153,276.1498 681.5088,275.8801 Q682.1023,275.6103 682.7331,275.0292 Z " fill="#000000"/><text fill="#000000" font-family="sans-serif" font-size="12" font-style="italic" lengthAdjust="spacing" textLength="38.4727" x="721.22" y="268.3998">&#171;DTO&#187;</text><text fill="#000000" font-family="sans-serif" font-size="14" lengthAdjust="spacing" textLength="93.3926" x="693.76" y="284.4663">CreateVvnDto</text><line style="stroke:#181818;stroke-width:0.5;" x1="665.76" x2="789.1526" y1="292.4194" y2="292.4194"/><line style="stroke:#181818;stroke-width:0.5;" x1="665.76" x2="789.1526" y1="300.4194" y2="300.4194"/></g><!--class VesselVisitNotificationDto--><g class="entity" data-entity="VesselVisitNotificationDto" data-source-line="43" data-uid="ent0008" id="entity_VesselVisitNotificationDto"><rect fill="#F1F1F1" height="56.6211" rx="2.5" ry="2.5" style="stroke:#181818;stroke-width:0.5;" width="207.9092" x="825.5" y="251.7983"/><ellipse cx="840.5" cy="272.1088" fill="#C2C2C2" rx="11" ry="11" style="stroke:#181818;stroke-width:1;"/><path d="M843.4731,277.7519 Q842.8921,278.0507 842.2529,278.2001 Q841.6138,278.3496 840.9082,278.3496 Q838.4014,278.3496 837.0815,276.6977 Q835.7617,275.0458 835.7617,271.9247 Q835.7617,268.7954 837.0815,267.1435 Q838.4014,265.4916 840.9082,265.4916 Q841.6138,265.4916 842.2612,265.6411 Q842.9087,265.7905 843.4731,266.0893 L843.4731,268.812 Q842.8423,268.2309 842.2488,267.9611 Q841.6553,267.6913 841.0244,267.6913 Q839.6797,267.6913 838.9949,268.758 Q838.3101,269.8246 838.3101,271.9247 Q838.3101,274.0165 838.9949,275.0832 Q839.6797,276.1498 841.0244,276.1498 Q841.6553,276.1498 842.2488,275.8801 Q842.8423,275.6103 843.4731,275.0292 Z " fill="#000000"/><text fill="#000000" font-family="sans-serif" font-size="12" font-style="italic" lengthAdjust="spacing" textLength="38.4727" x="923.2183" y="268.3998">&#171;DTO&#187;</text><text fill="#000000" font-family="sans-serif" font-size="14" lengthAdjust="spacing" textLength="175.9092" x="854.5" y="284.4663">VesselVisitNotificationDto</text><line style="stroke:#181818;stroke-width:0.5;" x1="826.5" x2="1032.4092" y1="292.4194" y2="292.4194"/><line style="stroke:#181818;stroke-width:0.5;" x1="826.5" x2="1032.4092" y1="300.4194" y2="300.4194"/></g><!--link VesselVisitNotificationController to IVesselVisitNotificationService--><g class="link" data-entity-1="VesselVisitNotificationController" data-entity-2="IVesselVisitNotificationService" data-source-line="45" data-uid="lnk9" id="link_VesselVisitNotificationController_IVesselVisitNotificationService"><path codeLine="45" d="M864.29,106.1883 C875.42,106.1883 880.82,106.1883 892.32,106.1883" fill="none" id="VesselVisitNotificationController-to-IVesselVisitNotificationService" style="stroke:#181818;stroke-width:1;stroke-dasharray:7,7;"/><polygon fill="#181818" points="898.32,106.1883,889.32,102.1883,893.32,106.1883,889.32,110.1883,898.32,106.1883" style="stroke:#181818;stroke-width:1;"/><text fill="#000000" font-family="sans-serif" font-size="13" lengthAdjust="spacing" textLength="28.5645" x="867.31" y="119.7566">uses</text></g><!--reverse link IVesselVisitNotificationService to VesselVisitNotificationService--><g class="link" data-entity-1="IVesselVisitNotificationService" data-entity-2="VesselVisitNotificationService" data-source-line="46" data-uid="lnk11" id="link_IVesselVisitNotificationService_VesselVisitNotificationService"><path codeLine="46" d="M965.98,185.5083 C965.98,201.9283 965.98,197.1883 965.98,197.1883 C965.98,197.1883 122.46,197.1883 122.46,197.1883 C122.46,197.1883 122.46,227.5883 122.46,251.5683" fill="none" id="IVesselVisitNotificationService-backto-VesselVisitNotificationService" style="stroke:#181818;stroke-width:1;stroke-dasharray:7,7;"/><polygon fill="none" points="965.98,167.5083,959.98,185.5083,971.98,185.5083,965.98,167.5083" style="stroke:#181818;stroke-width:1;"/></g><!--link VesselVisitNotificationService to IVesselVisitNotificationRepository--><g class="link" data-entity-1="VesselVisitNotificationService" data-entity-2="IVesselVisitNotificationRepository" data-source-line="47" data-uid="lnk12" id="link_VesselVisitNotificationService_IVesselVisitNotificationRepository"><path codeLine="47" d="M237.99,280.1883 C249.28,280.1883 254.92,280.1883 266.65,280.1883" fill="none" id="VesselVisitNotificationService-to-IVesselVisitNotificationRepository" style="stroke:#181818;stroke-width:1;stroke-dasharray:7,7;"/><polygon fill="#181818" points="272.65,280.1883,263.65,276.1883,267.65,280.1883,263.65,284.1883,272.65,280.1883" style="stroke:#181818;stroke-width:1;"/><text fill="#000000" font-family="sans-serif" font-size="13" lengthAdjust="spacing" textLength="28.5645" x="241.32" y="293.7566">uses</text></g><!--link IVesselVisitNotificationRepository to VesselVisitNotification--><g class="link" data-entity-1="IVesselVisitNotificationRepository" data-entity-2="VesselVisitNotification" data-source-line="48" data-uid="lnk13" id="link_IVesselVisitNotificationRepository_VesselVisitNotification"><path codeLine="48" d="M329,333.4483 C329,351.7583 329,366.7583 329,386.9983" fill="none" id="IVesselVisitNotificationRepository-to-VesselVisitNotification" style="stroke:#181818;stroke-width:1;stroke-dasharray:7,7;"/><polygon fill="#181818" points="329,392.9983,333,383.9983,329,387.9983,325,383.9983,329,392.9983" style="stroke:#181818;stroke-width:1;"/><text fill="#000000" font-family="sans-serif" font-size="13" lengthAdjust="spacing" textLength="56.5386" x="272" y="359.7866">manages</text></g><!--link VesselVisitNotificationService to VesselVisitNotification--><g class="link" data-entity-1="VesselVisitNotificationService" data-entity-2="VesselVisitNotification" data-source-line="49" data-uid="lnk14" id="link_VesselVisitNotificationService_VesselVisitNotification"><path codeLine="49" d="M212.91,308.6283 C212.91,330.7683 212.91,356.7083 212.91,386.9683" fill="none" id="VesselVisitNotificationService-to-VesselVisitNotification" style="stroke:#181818;stroke-width:1;stroke-dasharray:7,7;"/><polygon fill="#181818" points="212.91,392.9683,216.91,383.9683,212.91,387.9683,208.91,383.9683,212.91,392.9683" style="stroke:#181818;stroke-width:1;"/><text fill="#000000" font-family="sans-serif" font-size="13" lengthAdjust="spacing" textLength="90.9873" x="121.91" y="347.3666">creates &amp; uses</text></g><!--link VesselVisitNotificationController to CreateVvnDto--><g class="link" data-entity-1="VesselVisitNotificationController" data-entity-2="CreateVvnDto" data-source-line="50" data-uid="lnk15" id="link_VesselVisitNotificationController_CreateVvnDto"><path codeLine="50" d="M727.46,167.2383 C727.46,195.8583 727.46,222.5483 727.46,245.3483" fill="none" id="VesselVisitNotificationController-to-CreateVvnDto" style="stroke:#181818;stroke-width:1;stroke-dasharray:7,7;"/><polygon fill="#181818" points="727.46,251.3483,731.46,242.3483,727.46,246.3483,723.46,242.3483,727.46,251.3483" style="stroke:#181818;stroke-width:1;"/><text fill="#000000" font-family="sans-serif" font-size="13" lengthAdjust="spacing" textLength="50.8193" x="676.46" y="205.8666">receives</text></g><!--link VesselVisitNotificationController to VesselVisitNotificationDto--><g class="link" data-entity-1="VesselVisitNotificationController" data-entity-2="VesselVisitNotificationDto" data-source-line="51" data-uid="lnk16" id="link_VesselVisitNotificationController_VesselVisitNotificationDto"><path codeLine="51" d="M844.7,167.2383 C844.7,195.8583 844.7,222.5483 844.7,245.3483" fill="none" id="VesselVisitNotificationController-to-VesselVisitNotificationDto" style="stroke:#181818;stroke-width:1;stroke-dasharray:7,7;"/><polygon fill="#181818" points="844.7,251.3483,848.7,242.3483,844.7,246.3483,840.7,242.3483,844.7,251.3483" style="stroke:#181818;stroke-width:1;"/><text fill="#000000" font-family="sans-serif" font-size="13" lengthAdjust="spacing" textLength="45.5063" x="798.7" y="205.8666">returns</text></g><!--SRC=[dLHBZvim4BxpA-RKPjM4Ldkg4695DrB5PIibkzozPaBS1HlPGwhqyTzh7fiuoGRGth2_X-URiVa8JskuzM_zhx20-u8P0ql1SirAZmGLU09hP8IVr_LpAGZIzE52ufaN8IjcFw4G4cbV8IXDM-K0fPAARxKg4KZNw21copBrIyWSDgmmBiARKs8YBPvhmeGhkHQ_4RvuNej0YiPWaGeZw46Hs0ZEI2XvhoHfLHIe8GoFYoY2Fnx0fpxGB2Dr4y0ZCozXp1lT2arTKDHodggiuOXi3eEyhYkMzqf9BZdVaRxjaymXdNB-UPwGX7h3E49o9TGQzKvOF0pxhxCuiTbBtcIQWyOgEHnrnMv9oWtQgS_IZacxxA_INkKcFeC63E_QBWnEzOq6JEdR2YjbjvJUM-LnSUXUdFLbIaVq_YntbrrzotWihArr5i-Lvbjx8iHvhZ6tXeUgaom0bvzatKI8KMrEeMxFmel5eYLTENBc-_wDK_mIYOd27BVxgzujughIQeT7T8K_aLEtFgJhhcQwQqPi8oqVVzYX3GPtYTxu-_QZqGSJG6tGU2CilwxylwDceoxHb7lOLpI1wLl3QpSaW999ba-8DcZ2sn4P-33O9hVbrkvahe7zuN0KkydgWT4tNbHhQRp_]--></g></svg>