<svg xmlns="http://www.w3.org/2000/svg" xmlns:xlink="http://www.w3.org/1999/xlink" contentStyleType="text/css" height="774px" preserveAspectRatio="none" style="width:2490px;height:774px;background:#FFFFFF;" version="1.1" viewBox="0 0 2490 774" width="2490px" zoomAndPan="magnify"><defs/><g><rect fill="#ADD8E6" height="762.4136" style="stroke:#000000;stroke-width:1.0;" width="1360.5796" x="11" y="6"/><text fill="#000000" font-family="Verdana" font-size="13" font-weight="bold" lengthAdjust="spacing" textLength="227.5571" x="577.5112" y="19.0698">Backend System (Sistema AIT)</text><rect fill="#90EE90" height="762.4136" style="stroke:#000000;stroke-width:1.0;" width="1099.7842" x="1383.5796" y="6"/><text fill="#000000" font-family="Verdana" font-size="13" font-weight="bold" lengthAdjust="spacing" textLength="84.5889" x="1891.1772" y="19.0698">Persistence</text><rect fill="#FFFFFF" height="625.7856" style="stroke:#000000;stroke-width:1.0;" width="10" x="75.9727" y="89.6133"/><rect fill="#FFFFFF" height="566.187" style="stroke:#000000;stroke-width:1.0;" width="10" x="477.3799" y="119.4126"/><rect fill="#FFFFFF" height="536.3877" style="stroke:#000000;stroke-width:1.0;" width="10" x="700.1196" y="149.2119"/><rect fill="#FFFFFF" height="446.9897" style="stroke:#000000;stroke-width:1.0;" width="10" x="1005.4121" y="208.8105"/><rect fill="#FFFFFF" height="387.3911" style="stroke:#000000;stroke-width:1.0;" width="10" x="1261.3608" y="238.6099"/><rect fill="#FFFFFF" height="29.7993" style="stroke:#000000;stroke-width:1.0;" width="10" x="1439.2007" y="506.8037"/><rect fill="#FFFFFF" height="148.9966" style="stroke:#000000;stroke-width:1.0;" width="10" x="1558.9805" y="268.4092"/><rect fill="#FFFFFF" height="29.7993" style="stroke:#000000;stroke-width:1.0;" width="10" x="1851.1406" y="298.2085"/><rect fill="#FFFFFF" height="29.7993" style="stroke:#000000;stroke-width:1.0;" width="10" x="1960.4033" y="357.8071"/><rect fill="#FFFFFF" height="148.9966" style="stroke:#000000;stroke-width:1.0;" width="10" x="2096.4253" y="447.2051"/><rect fill="#FFFFFF" height="89.3979" style="stroke:#000000;stroke-width:1.0;" width="10" x="2361.6162" y="477.0044"/><line style="stroke:#000000;stroke-width:1.0;" x1="80" x2="80" y1="57.814" y2="733.3989"/><line style="stroke:#000000;stroke-width:1.0;" x1="481.9063" x2="481.9063" y1="57.814" y2="733.3989"/><line style="stroke:#000000;stroke-width:1.0;" x1="704.5605" x2="704.5605" y1="57.814" y2="733.3989"/><line style="stroke:#000000;stroke-width:1.0;" x1="890.9214" x2="890.9214" y1="57.814" y2="733.3989"/><line style="stroke:#000000;stroke-width:1.0;" x1="1010.355" x2="1010.355" y1="57.814" y2="733.3989"/><line style="stroke:#000000;stroke-width:1.0;" x1="1266.1421" x2="1266.1421" y1="57.814" y2="733.3989"/><line style="stroke:#000000;stroke-width:1.0;" x1="1443.5796" x2="1443.5796" y1="57.814" y2="733.3989"/><line style="stroke:#000000;stroke-width:1.0;" x1="1563.8218" x2="1563.8218" y1="57.814" y2="733.3989"/><line style="stroke:#000000;stroke-width:1.0;" x1="1855.314" x2="1855.314" y1="57.814" y2="733.3989"/><line style="stroke:#000000;stroke-width:1.0;" x1="1964.9673" x2="1964.9673" y1="57.814" y2="733.3989"/><line style="stroke:#000000;stroke-width:1.0;" x1="2100.8394" x2="2100.8394" y1="57.814" y2="733.3989"/><line style="stroke:#000000;stroke-width:1.0;" x1="2365.8687" x2="2365.8687" y1="57.814" y2="733.3989"/><rect fill="#FFFFFF" height="31.0146" rx="2.5" ry="2.5" style="stroke:#000000;stroke-width:1.0;" width="111.9453" x="25" y="25.7993"/><text fill="#000000" font-family="Verdana" font-size="14" lengthAdjust="spacing" textLength="97.9453" x="32" y="46.8745">HTTP Request</text><rect fill="#FFFFFF" height="31.0146" rx="2.5" ry="2.5" style="stroke:#000000;stroke-width:1.0;" width="111.9453" x="25" y="732.3989"/><text fill="#000000" font-family="Verdana" font-size="14" lengthAdjust="spacing" textLength="97.9453" x="32" y="753.4741">HTTP Request</text><rect fill="#FFFFFF" height="31.0146" rx="2.5" ry="2.5" style="stroke:#000000;stroke-width:1.0;" width="54.9473" x="454.9063" y="25.7993"/><text fill="#000000" font-family="Verdana" font-size="14" lengthAdjust="spacing" textLength="40.9473" x="461.9063" y="46.8745">Route</text><rect fill="#FFFFFF" height="31.0146" rx="2.5" ry="2.5" style="stroke:#000000;stroke-width:1.0;" width="54.9473" x="454.9063" y="732.3989"/><text fill="#000000" font-family="Verdana" font-size="14" lengthAdjust="spacing" textLength="40.9473" x="461.9063" y="753.4741">Route</text><rect fill="#FFFFFF" height="31.0146" rx="2.5" ry="2.5" style="stroke:#000000;stroke-width:1.0;" width="83.1182" x="663.5605" y="25.7993"/><text fill="#000000" font-family="Verdana" font-size="14" lengthAdjust="spacing" textLength="69.1182" x="670.5605" y="46.8745">Controller</text><rect fill="#FFFFFF" height="31.0146" rx="2.5" ry="2.5" style="stroke:#000000;stroke-width:1.0;" width="83.1182" x="663.5605" y="732.3989"/><text fill="#000000" font-family="Verdana" font-size="14" lengthAdjust="spacing" textLength="69.1182" x="670.5605" y="753.4741">Controller</text><rect fill="#FFFFFF" height="31.0146" rx="2.5" ry="2.5" style="stroke:#000000;stroke-width:1.0;" width="44.4336" x="868.9214" y="25.7993"/><text fill="#000000" font-family="Verdana" font-size="14" lengthAdjust="spacing" textLength="30.4336" x="875.9214" y="46.8745">DTO</text><rect fill="#FFFFFF" height="31.0146" rx="2.5" ry="2.5" style="stroke:#000000;stroke-width:1.0;" width="44.4336" x="868.9214" y="732.3989"/><text fill="#000000" font-family="Verdana" font-size="14" lengthAdjust="spacing" textLength="30.4336" x="875.9214" y="753.4741">DTO</text><rect fill="#FFFFFF" height="31.0146" rx="2.5" ry="2.5" style="stroke:#000000;stroke-width:1.0;" width="134.1143" x="943.355" y="25.7993"/><text fill="#000000" font-family="Verdana" font-size="14" lengthAdjust="spacing" textLength="120.1143" x="950.355" y="46.8745">Service Interface</text><rect fill="#FFFFFF" height="31.0146" rx="2.5" ry="2.5" style="stroke:#000000;stroke-width:1.0;" width="134.1143" x="943.355" y="732.3989"/><text fill="#000000" font-family="Verdana" font-size="14" lengthAdjust="spacing" textLength="120.1143" x="950.355" y="753.4741">Service Interface</text><rect fill="#FFFFFF" height="31.0146" rx="2.5" ry="2.5" style="stroke:#000000;stroke-width:1.0;" width="182.4375" x="1175.1421" y="25.7993"/><text fill="#000000" font-family="Verdana" font-size="14" lengthAdjust="spacing" textLength="168.4375" x="1182.1421" y="46.8745">Service Implementation</text><rect fill="#FFFFFF" height="31.0146" rx="2.5" ry="2.5" style="stroke:#000000;stroke-width:1.0;" width="182.4375" x="1175.1421" y="732.3989"/><text fill="#000000" font-family="Verdana" font-size="14" lengthAdjust="spacing" textLength="168.4375" x="1182.1421" y="753.4741">Service Implementation</text><rect fill="#FFFFFF" height="31.0146" rx="2.5" ry="2.5" style="stroke:#000000;stroke-width:1.0;" width="93.2422" x="1397.5796" y="25.7993"/><text fill="#000000" font-family="Verdana" font-size="14" lengthAdjust="spacing" textLength="79.2422" x="1404.5796" y="46.8745">Data Model</text><rect fill="#FFFFFF" height="31.0146" rx="2.5" ry="2.5" style="stroke:#000000;stroke-width:1.0;" width="93.2422" x="1397.5796" y="732.3989"/><text fill="#000000" font-family="Verdana" font-size="14" lengthAdjust="spacing" textLength="79.2422" x="1404.5796" y="753.4741">Data Model</text><rect fill="#FFFFFF" height="31.0146" rx="2.5" ry="2.5" style="stroke:#000000;stroke-width:1.0;" width="86.3174" x="1520.8218" y="25.7993"/><text fill="#000000" font-family="Verdana" font-size="14" lengthAdjust="spacing" textLength="72.3174" x="1527.8218" y="46.8745">Aggregate</text><rect fill="#FFFFFF" height="31.0146" rx="2.5" ry="2.5" style="stroke:#000000;stroke-width:1.0;" width="86.3174" x="1520.8218" y="732.3989"/><text fill="#000000" font-family="Verdana" font-size="14" lengthAdjust="spacing" textLength="72.3174" x="1527.8218" y="753.4741">Aggregate</text><rect fill="#FFFFFF" height="31.0146" rx="2.5" ry="2.5" style="stroke:#000000;stroke-width:1.0;" width="103.6533" x="1804.314" y="25.7993"/><text fill="#000000" font-family="Verdana" font-size="14" lengthAdjust="spacing" textLength="89.6533" x="1811.314" y="46.8745">Value Object</text><rect fill="#FFFFFF" height="31.0146" rx="2.5" ry="2.5" style="stroke:#000000;stroke-width:1.0;" width="103.6533" x="1804.314" y="732.3989"/><text fill="#000000" font-family="Verdana" font-size="14" lengthAdjust="spacing" textLength="89.6533" x="1811.314" y="753.4741">Value Object</text><rect fill="#FFFFFF" height="31.0146" rx="2.5" ry="2.5" style="stroke:#000000;stroke-width:1.0;" width="54.8721" x="1937.9673" y="25.7993"/><text fill="#000000" font-family="Verdana" font-size="14" lengthAdjust="spacing" textLength="40.8721" x="1944.9673" y="46.8745">Entity</text><rect fill="#FFFFFF" height="31.0146" rx="2.5" ry="2.5" style="stroke:#000000;stroke-width:1.0;" width="54.8721" x="1937.9673" y="732.3989"/><text fill="#000000" font-family="Verdana" font-size="14" lengthAdjust="spacing" textLength="40.8721" x="1944.9673" y="753.4741">Entity</text><rect fill="#FFFFFF" height="31.0146" rx="2.5" ry="2.5" style="stroke:#000000;stroke-width:1.0;" width="157.1719" x="2022.8394" y="25.7993"/><text fill="#000000" font-family="Verdana" font-size="14" lengthAdjust="spacing" textLength="143.1719" x="2029.8394" y="46.8745">Repository Interface</text><rect fill="#FFFFFF" height="31.0146" rx="2.5" ry="2.5" style="stroke:#000000;stroke-width:1.0;" width="157.1719" x="2022.8394" y="732.3989"/><text fill="#000000" font-family="Verdana" font-size="14" lengthAdjust="spacing" textLength="143.1719" x="2029.8394" y="753.4741">Repository Interface</text><rect fill="#FFFFFF" height="31.0146" rx="2.5" ry="2.5" style="stroke:#000000;stroke-width:1.0;" width="205.4951" x="2263.8687" y="25.7993"/><text fill="#000000" font-family="Verdana" font-size="14" lengthAdjust="spacing" textLength="191.4951" x="2270.8687" y="46.8745">Repository Implementation</text><rect fill="#FFFFFF" height="31.0146" rx="2.5" ry="2.5" style="stroke:#000000;stroke-width:1.0;" width="205.4951" x="2263.8687" y="732.3989"/><text fill="#000000" font-family="Verdana" font-size="14" lengthAdjust="spacing" textLength="191.4951" x="2270.8687" y="753.4741">Repository Implementation</text><rect fill="#FFFFFF" height="625.7856" style="stroke:#000000;stroke-width:1.0;" width="10" x="75.9727" y="89.6133"/><rect fill="#FFFFFF" height="566.187" style="stroke:#000000;stroke-width:1.0;" width="10" x="477.3799" y="119.4126"/><rect fill="#FFFFFF" height="536.3877" style="stroke:#000000;stroke-width:1.0;" width="10" x="700.1196" y="149.2119"/><rect fill="#FFFFFF" height="446.9897" style="stroke:#000000;stroke-width:1.0;" width="10" x="1005.4121" y="208.8105"/><rect fill="#FFFFFF" height="387.3911" style="stroke:#000000;stroke-width:1.0;" width="10" x="1261.3608" y="238.6099"/><rect fill="#FFFFFF" height="29.7993" style="stroke:#000000;stroke-width:1.0;" width="10" x="1439.2007" y="506.8037"/><rect fill="#FFFFFF" height="148.9966" style="stroke:#000000;stroke-width:1.0;" width="10" x="1558.9805" y="268.4092"/><rect fill="#FFFFFF" height="29.7993" style="stroke:#000000;stroke-width:1.0;" width="10" x="1851.1406" y="298.2085"/><rect fill="#FFFFFF" height="29.7993" style="stroke:#000000;stroke-width:1.0;" width="10" x="1960.4033" y="357.8071"/><rect fill="#FFFFFF" height="148.9966" style="stroke:#000000;stroke-width:1.0;" width="10" x="2096.4253" y="447.2051"/><rect fill="#FFFFFF" height="89.3979" style="stroke:#000000;stroke-width:1.0;" width="10" x="2361.6162" y="477.0044"/><polygon fill="#000000" points="470.3799,85.6133,480.3799,89.6133,470.3799,93.6133,474.3799,89.6133" style="stroke:#000000;stroke-width:1.0;"/><line style="stroke:#000000;stroke-width:1.0;" x1="85.9727" x2="476.3799" y1="89.6133" y2="89.6133"/><text fill="#000000" font-family="Verdana" font-size="13" font-weight="bold" lengthAdjust="spacing" textLength="9.2422" x="92.9727" y="84.8838">1</text><text fill="#000000" font-family="Verdana" font-size="13" lengthAdjust="spacing" textLength="364.165" x="106.2148" y="84.8838">1.1: POST /api/vesseltype OR PUT /api/vesseltype/{id}</text><polygon fill="#000000" points="693.1196,115.4126,703.1196,119.4126,693.1196,123.4126,697.1196,119.4126" style="stroke:#000000;stroke-width:1.0;"/><line style="stroke:#000000;stroke-width:1.0;" x1="487.3799" x2="699.1196" y1="119.4126" y2="119.4126"/><text fill="#000000" font-family="Verdana" font-size="13" font-weight="bold" lengthAdjust="spacing" textLength="9.2422" x="494.3799" y="114.6831">2</text><text fill="#000000" font-family="Verdana" font-size="13" lengthAdjust="spacing" textLength="185.4976" x="507.6221" y="114.6831">1.2: Invoke Create / Update</text><polygon fill="#000000" points="879.1382,145.2119,889.1382,149.2119,879.1382,153.2119,883.1382,149.2119" style="stroke:#000000;stroke-width:1.0;"/><line style="stroke:#000000;stroke-width:1.0;" x1="710.1196" x2="885.1382" y1="149.2119" y2="149.2119"/><text fill="#000000" font-family="Verdana" font-size="13" font-weight="bold" lengthAdjust="spacing" textLength="9.2422" x="717.1196" y="144.4824">3</text><text fill="#000000" font-family="Verdana" font-size="13" lengthAdjust="spacing" textLength="148.7764" x="730.3618" y="144.4824">1.3: Map request body</text><polygon fill="#000000" points="721.1196,175.0112,711.1196,179.0112,721.1196,183.0112,717.1196,179.0112" style="stroke:#000000;stroke-width:1.0;"/><line style="stroke:#000000;stroke-width:1.0;stroke-dasharray:2.0,2.0;" x1="715.1196" x2="890.1382" y1="179.0112" y2="179.0112"/><text fill="#000000" font-family="Verdana" font-size="13" font-weight="bold" lengthAdjust="spacing" textLength="9.2422" x="727.1196" y="174.2817">4</text><text fill="#000000" font-family="Verdana" font-size="13" lengthAdjust="spacing" textLength="115.9463" x="740.3618" y="174.2817">1.4: Mapped data</text><polygon fill="#000000" points="993.4121,204.8105,1003.4121,208.8105,993.4121,212.8105,997.4121,208.8105" style="stroke:#000000;stroke-width:1.0;"/><line style="stroke:#000000;stroke-width:1.0;" x1="710.1196" x2="999.4121" y1="208.8105" y2="208.8105"/><text fill="#000000" font-family="Verdana" font-size="13" font-weight="bold" lengthAdjust="spacing" textLength="9.2422" x="717.1196" y="204.0811">5</text><text fill="#000000" font-family="Verdana" font-size="13" lengthAdjust="spacing" textLength="160.4624" x="730.3618" y="204.0811">1.5: Call service method</text><polygon fill="#000000" points="1249.3608,234.6099,1259.3608,238.6099,1249.3608,242.6099,1253.3608,238.6099" style="stroke:#000000;stroke-width:1.0;"/><line style="stroke:#000000;stroke-width:1.0;" x1="1015.4121" x2="1255.3608" y1="238.6099" y2="238.6099"/><text fill="#000000" font-family="Verdana" font-size="13" font-weight="bold" lengthAdjust="spacing" textLength="9.2422" x="1022.4121" y="233.8804">6</text><text fill="#000000" font-family="Verdana" font-size="13" lengthAdjust="spacing" textLength="213.7065" x="1035.6543" y="233.8804">1.6: Delegate to implementation</text><polygon fill="#000000" points="1546.9805,264.4092,1556.9805,268.4092,1546.9805,272.4092,1550.9805,268.4092" style="stroke:#000000;stroke-width:1.0;"/><line style="stroke:#000000;stroke-width:1.0;" x1="1271.3608" x2="1552.9805" y1="268.4092" y2="268.4092"/><text fill="#000000" font-family="Verdana" font-size="13" font-weight="bold" lengthAdjust="spacing" textLength="9.2422" x="1278.3608" y="263.6797">7</text><text fill="#000000" font-family="Verdana" font-size="13" lengthAdjust="spacing" textLength="213.0972" x="1291.603" y="263.6797">1.7: Create or update aggregate</text><polygon fill="#000000" points="1839.1406,294.2085,1849.1406,298.2085,1839.1406,302.2085,1843.1406,298.2085" style="stroke:#000000;stroke-width:1.0;"/><line style="stroke:#000000;stroke-width:1.0;" x1="1568.9805" x2="1845.1406" y1="298.2085" y2="298.2085"/><text fill="#000000" font-family="Verdana" font-size="13" font-weight="bold" lengthAdjust="spacing" textLength="9.2422" x="1575.9805" y="293.479">8</text><text fill="#000000" font-family="Verdana" font-size="13" lengthAdjust="spacing" textLength="246.5049" x="1589.2227" y="293.479">1.7.1: Create or update value objects</text><polygon fill="#000000" points="1579.9805,324.0078,1569.9805,328.0078,1579.9805,332.0078,1575.9805,328.0078" style="stroke:#000000;stroke-width:1.0;"/><line style="stroke:#000000;stroke-width:1.0;stroke-dasharray:2.0,2.0;" x1="1573.9805" x2="1855.1406" y1="328.0078" y2="328.0078"/><text fill="#000000" font-family="Verdana" font-size="13" font-weight="bold" lengthAdjust="spacing" textLength="9.2422" x="1585.9805" y="323.2783">9</text><text fill="#000000" font-family="Verdana" font-size="13" lengthAdjust="spacing" textLength="244.918" x="1599.2227" y="323.2783">1.7.2: Value objects created/updated</text><polygon fill="#000000" points="1948.4033,353.8071,1958.4033,357.8071,1948.4033,361.8071,1952.4033,357.8071" style="stroke:#000000;stroke-width:1.0;"/><line style="stroke:#000000;stroke-width:1.0;" x1="1568.9805" x2="1954.4033" y1="357.8071" y2="357.8071"/><text fill="#000000" font-family="Verdana" font-size="13" font-weight="bold" lengthAdjust="spacing" textLength="18.4844" x="1575.9805" y="353.0776">10</text><text fill="#000000" font-family="Verdana" font-size="13" lengthAdjust="spacing" textLength="197.4946" x="1598.4648" y="353.0776">1.7.3: Create or update entity</text><polygon fill="#000000" points="1579.9805,383.6064,1569.9805,387.6064,1579.9805,391.6064,1575.9805,387.6064" style="stroke:#000000;stroke-width:1.0;"/><line style="stroke:#000000;stroke-width:1.0;stroke-dasharray:2.0,2.0;" x1="1573.9805" x2="1964.4033" y1="387.6064" y2="387.6064"/><text fill="#000000" font-family="Verdana" font-size="13" font-weight="bold" lengthAdjust="spacing" textLength="18.4844" x="1585.9805" y="382.877">11</text><text fill="#000000" font-family="Verdana" font-size="13" lengthAdjust="spacing" textLength="195.1904" x="1608.4648" y="382.877">1.7.4: Entity created/updated</text><polygon fill="#000000" points="1282.3608,413.4058,1272.3608,417.4058,1282.3608,421.4058,1278.3608,417.4058" style="stroke:#000000;stroke-width:1.0;"/><line style="stroke:#000000;stroke-width:1.0;stroke-dasharray:2.0,2.0;" x1="1276.3608" x2="1562.9805" y1="417.4058" y2="417.4058"/><text fill="#000000" font-family="Verdana" font-size="13" font-weight="bold" lengthAdjust="spacing" textLength="18.4844" x="1288.3608" y="412.6763">12</text><text fill="#000000" font-family="Verdana" font-size="13" lengthAdjust="spacing" textLength="224.3896" x="1310.8452" y="412.6763">1.7.5: Aggregate created/updated</text><polygon fill="#000000" points="2084.4253,443.2051,2094.4253,447.2051,2084.4253,451.2051,2088.4253,447.2051" style="stroke:#000000;stroke-width:1.0;"/><line style="stroke:#000000;stroke-width:1.0;" x1="1271.3608" x2="2090.4253" y1="447.2051" y2="447.2051"/><text fill="#000000" font-family="Verdana" font-size="13" font-weight="bold" lengthAdjust="spacing" textLength="18.4844" x="1278.3608" y="442.4756">13</text><text fill="#000000" font-family="Verdana" font-size="13" lengthAdjust="spacing" textLength="180.4956" x="1300.8452" y="442.4756">1.8: Call repository method</text><polygon fill="#000000" points="2349.6162,473.0044,2359.6162,477.0044,2349.6162,481.0044,2353.6162,477.0044" style="stroke:#000000;stroke-width:1.0;"/><line style="stroke:#000000;stroke-width:1.0;" x1="2106.4253" x2="2355.6162" y1="477.0044" y2="477.0044"/><text fill="#000000" font-family="Verdana" font-size="13" font-weight="bold" lengthAdjust="spacing" textLength="18.4844" x="2113.4253" y="472.2749">14</text><text fill="#000000" font-family="Verdana" font-size="13" lengthAdjust="spacing" textLength="213.7065" x="2135.9097" y="472.2749">1.9: Delegate to implementation</text><polygon fill="#000000" points="1460.2007,502.8037,1450.2007,506.8037,1460.2007,510.8037,1456.2007,506.8037" style="stroke:#000000;stroke-width:1.0;"/><line style="stroke:#000000;stroke-width:1.0;" x1="1454.2007" x2="2360.6162" y1="506.8037" y2="506.8037"/><text fill="#000000" font-family="Verdana" font-size="13" font-weight="bold" lengthAdjust="spacing" textLength="18.4844" x="1466.2007" y="502.0742">15</text><text fill="#000000" font-family="Verdana" font-size="13" lengthAdjust="spacing" textLength="237.7388" x="1488.6851" y="502.0742">1.9.1: Map aggregate to data model</text><polygon fill="#000000" points="2349.6162,532.603,2359.6162,536.603,2349.6162,540.603,2353.6162,536.603" style="stroke:#000000;stroke-width:1.0;"/><line style="stroke:#000000;stroke-width:1.0;stroke-dasharray:2.0,2.0;" x1="1444.2007" x2="2355.6162" y1="536.603" y2="536.603"/><text fill="#000000" font-family="Verdana" font-size="13" font-weight="bold" lengthAdjust="spacing" textLength="18.4844" x="1451.2007" y="531.8735">16</text><text fill="#000000" font-family="Verdana" font-size="13" lengthAdjust="spacing" textLength="177.0615" x="1473.6851" y="531.8735">1.9.2: Data model mapped</text><polygon fill="#000000" points="2117.4253,562.4023,2107.4253,566.4023,2117.4253,570.4023,2113.4253,566.4023" style="stroke:#000000;stroke-width:1.0;"/><line style="stroke:#000000;stroke-width:1.0;stroke-dasharray:2.0,2.0;" x1="2111.4253" x2="2365.6162" y1="566.4023" y2="566.4023"/><text fill="#000000" font-family="Verdana" font-size="13" font-weight="bold" lengthAdjust="spacing" textLength="18.4844" x="2123.4253" y="561.6729">17</text><text fill="#000000" font-family="Verdana" font-size="13" lengthAdjust="spacing" textLength="134.7925" x="2145.9097" y="561.6729">1.10: Data persisted</text><polygon fill="#000000" points="1282.3608,592.2017,1272.3608,596.2017,1282.3608,600.2017,1278.3608,596.2017" style="stroke:#000000;stroke-width:1.0;"/><line style="stroke:#000000;stroke-width:1.0;stroke-dasharray:2.0,2.0;" x1="1276.3608" x2="2100.4253" y1="596.2017" y2="596.2017"/><text fill="#000000" font-family="Verdana" font-size="13" font-weight="bold" lengthAdjust="spacing" textLength="18.4844" x="1288.3608" y="591.4722">18</text><text fill="#000000" font-family="Verdana" font-size="13" lengthAdjust="spacing" textLength="134.7925" x="1310.8452" y="591.4722">1.11: Data persisted</text><polygon fill="#000000" points="1026.4121,622.001,1016.4121,626.001,1026.4121,630.001,1022.4121,626.001" style="stroke:#000000;stroke-width:1.0;"/><line style="stroke:#000000;stroke-width:1.0;stroke-dasharray:2.0,2.0;" x1="1020.4121" x2="1265.3608" y1="626.001" y2="626.001"/><text fill="#000000" font-family="Verdana" font-size="13" font-weight="bold" lengthAdjust="spacing" textLength="18.4844" x="1032.4121" y="621.2715">19</text><text fill="#000000" font-family="Verdana" font-size="13" lengthAdjust="spacing" textLength="135.6938" x="1054.8965" y="621.2715">1.12: Response data</text><polygon fill="#000000" points="721.1196,651.8003,711.1196,655.8003,721.1196,659.8003,717.1196,655.8003" style="stroke:#000000;stroke-width:1.0;"/><line style="stroke:#000000;stroke-width:1.0;stroke-dasharray:2.0,2.0;" x1="715.1196" x2="1009.4121" y1="655.8003" y2="655.8003"/><text fill="#000000" font-family="Verdana" font-size="13" font-weight="bold" lengthAdjust="spacing" textLength="18.4844" x="727.1196" y="651.0708">20</text><text fill="#000000" font-family="Verdana" font-size="13" lengthAdjust="spacing" textLength="135.6938" x="749.604" y="651.0708">1.13: Response data</text><polygon fill="#000000" points="96.9727,681.5996,86.9727,685.5996,96.9727,689.5996,92.9727,685.5996" style="stroke:#000000;stroke-width:1.0;"/><line style="stroke:#000000;stroke-width:1.0;stroke-dasharray:2.0,2.0;" x1="90.9727" x2="704.1196" y1="685.5996" y2="685.5996"/><text fill="#000000" font-family="Verdana" font-size="13" font-weight="bold" lengthAdjust="spacing" textLength="18.4844" x="102.9727" y="680.8701">21</text><text fill="#000000" font-family="Verdana" font-size="13" lengthAdjust="spacing" textLength="222.3521" x="125.457" y="680.8701">1.14: HTTP 201 Created / 200 OK</text><polygon fill="#000000" points="2477.3638,711.3989,2487.3638,715.3989,2477.3638,719.3989,2481.3638,715.3989" style="stroke:#000000;stroke-width:1.0;"/><line style="stroke:#000000;stroke-width:1.0;stroke-dasharray:2.0,2.0;" x1="80.9727" x2="2483.3638" y1="715.3989" y2="715.3989"/><text fill="#000000" font-family="Verdana" font-size="13" font-weight="bold" lengthAdjust="spacing" textLength="18.4844" x="87.9727" y="710.6694">22</text><text fill="#000000" font-family="Verdana" font-size="13" lengthAdjust="spacing" textLength="140.4863" x="110.457" y="710.6694">1.15: HTTP Response</text><!--SRC=[ZPPHSzCm3CVVyob4UO67qcPZ3FB0tRPoR0UxzjfkxsuYkh0a3exReyVntR5bnt7gN5bVMYVIJuhqbz9NyWbBXBfWUHMndUJLhjoWYA8D_msZQvO-OvN1wj18BE7DAjVV3Axkrcz7yFfxldsIryKE8r2VcWcPftdDAWcZs_Lw0KlyjSD6Ze0rS2jbRS-XzPBl998P_GeDRdWb1IyA56JL7KFJsNfEDZF9mvih5FiyHRYh98eVB3L1xLLtyOHVMHUgNfLaCkTLprdT8Jygt095esjLwGYcJby5OaKMOSfCChZd6HOcStMaqx3rrNOhSCjimTnfsFYHgVR0VFCJKzC7kc3EmnvVAfdB0zcQdyDcIwnvaqik3aV5r3VwbJpf6nQK06qrjVfKHQFsE_9q1EFFHY-GGFmkJc0nNwrXmkfyiiUcmK8UQlNiIrWy19SdV_BiRyHIcUzLxNhgD4Z5xbH60SuIzQHx_enm8r0xJU2XpdJb7SQer_DJ5AL3SZzFu9xL86pk6vuTEaTFqDf-74P_J-urPg12iYX3vwk5tWzvh6S2N2Hmmue26Ylb4kKJpxeKWY48A1vPjOUW7nAOOK7w0vLttkjcoDPTzH6AwFHBlCkaBIuNiAFg0dCATxnEz9sxOddQDZGjYe2tfv7WPDPqJ7ymVD0uJ59BuT6dG4f1iea9aVdjyRczRCrqMUBvGA9eni-Hx3XQlw6yb4ZitHC9MOoNoq1ZBxLUEfCJkAuNHvtjBGA2VhGI5Dty7wkmlptwY9RPvlZfPU9p-yGvwwbiTwmXQQ7ewNHQqq0zQ53I8kw6pUtcZZ0E4jC2cJblA6bmUpFhC5rIWoMBfvPKspTA3zD_jAvG0msDu_-2WiblqnhS9x5wnYKsDQyQ37RIqC3tqZlQRl7v2s0kFt_RAPR_IY2O6WFw_t4sZUrKPMfPdqsdCF_cWxsjwzU2bdZlFQE24FZ2WjjKVJV_5V8F]--></g></svg>