<svg xmlns="http://www.w3.org/2000/svg" xmlns:xlink="http://www.w3.org/1999/xlink" contentStyleType="text/css" height="655px" preserveAspectRatio="none" style="width:1952px;height:655px;background:#FFFFFF;" version="1.1" viewBox="0 0 1952 655" width="1952px" zoomAndPan="magnify"><defs/><g><rect fill="#ADD8E6" height="643.2163" style="stroke:#000000;stroke-width:1.0;" width="1012.0005" x="11" y="6"/><text fill="#000000" font-family="Verdana" font-size="13" font-weight="bold" lengthAdjust="spacing" textLength="227.5571" x="403.2217" y="19.0698">Backend System (Sistema AIT)</text><rect fill="#90EE90" height="643.2163" style="stroke:#000000;stroke-width:1.0;" width="664.9102" x="1035.0005" y="6"/><text fill="#000000" font-family="Verdana" font-size="13" font-weight="bold" lengthAdjust="spacing" textLength="84.5889" x="1325.1611" y="19.0698">Persistence</text><rect fill="#ADD8E6" height="643.2163" style="stroke:#000000;stroke-width:1.0;" width="233.5571" x="1711.9106" y="6"/><text fill="#000000" font-family="Verdana" font-size="13" font-weight="bold" lengthAdjust="spacing" textLength="227.5571" x="1714.9106" y="19.0698">Backend System (Sistema AIT)</text><rect fill="#FFFFFF" height="506.5884" style="stroke:#000000;stroke-width:1.0;" width="10" x="75.9727" y="89.6133"/><rect fill="#FFFFFF" height="446.9897" style="stroke:#000000;stroke-width:1.0;" width="10" x="477.3799" y="119.4126"/><rect fill="#FFFFFF" height="417.1904" style="stroke:#000000;stroke-width:1.0;" width="10" x="700.1196" y="149.2119"/><rect fill="#FFFFFF" height="327.7925" style="stroke:#000000;stroke-width:1.0;" width="10" x="971.1777" y="208.8105"/><rect fill="#FFFFFF" height="29.7993" style="stroke:#000000;stroke-width:1.0;" width="10" x="1090.6216" y="447.2051"/><rect fill="#FFFFFF" height="148.9966" style="stroke:#000000;stroke-width:1.0;" width="10" x="1252.0518" y="238.6099"/><rect fill="#FFFFFF" height="29.7993" style="stroke:#000000;stroke-width:1.0;" width="10" x="1544.2119" y="268.4092"/><rect fill="#FFFFFF" height="29.7993" style="stroke:#000000;stroke-width:1.0;" width="10" x="1653.4746" y="328.0078"/><rect fill="#FFFFFF" height="89.3979" style="stroke:#000000;stroke-width:1.0;" width="10" x="1823.6892" y="417.4058"/><line style="stroke:#000000;stroke-width:1.0;" x1="80" x2="80" y1="57.814" y2="614.2017"/><line style="stroke:#000000;stroke-width:1.0;" x1="481.9063" x2="481.9063" y1="57.814" y2="614.2017"/><line style="stroke:#000000;stroke-width:1.0;" x1="704.5605" x2="704.5605" y1="57.814" y2="614.2017"/><line style="stroke:#000000;stroke-width:1.0;" x1="890.9214" x2="890.9214" y1="57.814" y2="614.2017"/><line style="stroke:#000000;stroke-width:1.0;" x1="975.355" x2="975.355" y1="57.814" y2="614.2017"/><line style="stroke:#000000;stroke-width:1.0;" x1="1095.0005" x2="1095.0005" y1="57.814" y2="614.2017"/><line style="stroke:#000000;stroke-width:1.0;" x1="1256.8931" x2="1256.8931" y1="57.814" y2="614.2017"/><line style="stroke:#000000;stroke-width:1.0;" x1="1548.3853" x2="1548.3853" y1="57.814" y2="614.2017"/><line style="stroke:#000000;stroke-width:1.0;" x1="1658.0386" x2="1658.0386" y1="57.814" y2="614.2017"/><line style="stroke:#000000;stroke-width:1.0;" x1="1828.3376" x2="1828.3376" y1="57.814" y2="614.2017"/><rect fill="#FFFFFF" height="31.0146" rx="2.5" ry="2.5" style="stroke:#000000;stroke-width:1.0;" width="111.9453" x="25" y="25.7993"/><text fill="#000000" font-family="Verdana" font-size="14" lengthAdjust="spacing" textLength="97.9453" x="32" y="46.8745">HTTP Request</text><rect fill="#FFFFFF" height="31.0146" rx="2.5" ry="2.5" style="stroke:#000000;stroke-width:1.0;" width="111.9453" x="25" y="613.2017"/><text fill="#000000" font-family="Verdana" font-size="14" lengthAdjust="spacing" textLength="97.9453" x="32" y="634.2769">HTTP Request</text><rect fill="#FFFFFF" height="31.0146" rx="2.5" ry="2.5" style="stroke:#000000;stroke-width:1.0;" width="54.9473" x="454.9063" y="25.7993"/><text fill="#000000" font-family="Verdana" font-size="14" lengthAdjust="spacing" textLength="40.9473" x="461.9063" y="46.8745">Route</text><rect fill="#FFFFFF" height="31.0146" rx="2.5" ry="2.5" style="stroke:#000000;stroke-width:1.0;" width="54.9473" x="454.9063" y="613.2017"/><text fill="#000000" font-family="Verdana" font-size="14" lengthAdjust="spacing" textLength="40.9473" x="461.9063" y="634.2769">Route</text><rect fill="#FFFFFF" height="31.0146" rx="2.5" ry="2.5" style="stroke:#000000;stroke-width:1.0;" width="83.1182" x="663.5605" y="25.7993"/><text fill="#000000" font-family="Verdana" font-size="14" lengthAdjust="spacing" textLength="69.1182" x="670.5605" y="46.8745">Controller</text><rect fill="#FFFFFF" height="31.0146" rx="2.5" ry="2.5" style="stroke:#000000;stroke-width:1.0;" width="83.1182" x="663.5605" y="613.2017"/><text fill="#000000" font-family="Verdana" font-size="14" lengthAdjust="spacing" textLength="69.1182" x="670.5605" y="634.2769">Controller</text><rect fill="#FFFFFF" height="31.0146" rx="2.5" ry="2.5" style="stroke:#000000;stroke-width:1.0;" width="44.4336" x="868.9214" y="25.7993"/><text fill="#000000" font-family="Verdana" font-size="14" lengthAdjust="spacing" textLength="30.4336" x="875.9214" y="46.8745">DTO</text><rect fill="#FFFFFF" height="31.0146" rx="2.5" ry="2.5" style="stroke:#000000;stroke-width:1.0;" width="44.4336" x="868.9214" y="613.2017"/><text fill="#000000" font-family="Verdana" font-size="14" lengthAdjust="spacing" textLength="30.4336" x="875.9214" y="634.2769">DTO</text><rect fill="#FFFFFF" height="31.0146" rx="2.5" ry="2.5" style="stroke:#000000;stroke-width:1.0;" width="65.6455" x="943.355" y="25.7993"/><text fill="#000000" font-family="Verdana" font-size="14" lengthAdjust="spacing" textLength="51.6455" x="950.355" y="46.8745">Service</text><rect fill="#FFFFFF" height="31.0146" rx="2.5" ry="2.5" style="stroke:#000000;stroke-width:1.0;" width="65.6455" x="943.355" y="613.2017"/><text fill="#000000" font-family="Verdana" font-size="14" lengthAdjust="spacing" textLength="51.6455" x="950.355" y="634.2769">Service</text><rect fill="#FFFFFF" height="31.0146" rx="2.5" ry="2.5" style="stroke:#000000;stroke-width:1.0;" width="93.2422" x="1049.0005" y="25.7993"/><text fill="#000000" font-family="Verdana" font-size="14" lengthAdjust="spacing" textLength="79.2422" x="1056.0005" y="46.8745">Data Model</text><rect fill="#FFFFFF" height="31.0146" rx="2.5" ry="2.5" style="stroke:#000000;stroke-width:1.0;" width="93.2422" x="1049.0005" y="613.2017"/><text fill="#000000" font-family="Verdana" font-size="14" lengthAdjust="spacing" textLength="79.2422" x="1056.0005" y="634.2769">Data Model</text><rect fill="#FFFFFF" height="31.0146" rx="2.5" ry="2.5" style="stroke:#000000;stroke-width:1.0;" width="86.3174" x="1213.8931" y="25.7993"/><text fill="#000000" font-family="Verdana" font-size="14" lengthAdjust="spacing" textLength="72.3174" x="1220.8931" y="46.8745">Aggregate</text><rect fill="#FFFFFF" height="31.0146" rx="2.5" ry="2.5" style="stroke:#000000;stroke-width:1.0;" width="86.3174" x="1213.8931" y="613.2017"/><text fill="#000000" font-family="Verdana" font-size="14" lengthAdjust="spacing" textLength="72.3174" x="1220.8931" y="634.2769">Aggregate</text><rect fill="#FFFFFF" height="31.0146" rx="2.5" ry="2.5" style="stroke:#000000;stroke-width:1.0;" width="103.6533" x="1497.3853" y="25.7993"/><text fill="#000000" font-family="Verdana" font-size="14" lengthAdjust="spacing" textLength="89.6533" x="1504.3853" y="46.8745">Value Object</text><rect fill="#FFFFFF" height="31.0146" rx="2.5" ry="2.5" style="stroke:#000000;stroke-width:1.0;" width="103.6533" x="1497.3853" y="613.2017"/><text fill="#000000" font-family="Verdana" font-size="14" lengthAdjust="spacing" textLength="89.6533" x="1504.3853" y="634.2769">Value Object</text><rect fill="#FFFFFF" height="31.0146" rx="2.5" ry="2.5" style="stroke:#000000;stroke-width:1.0;" width="54.8721" x="1631.0386" y="25.7993"/><text fill="#000000" font-family="Verdana" font-size="14" lengthAdjust="spacing" textLength="40.8721" x="1638.0386" y="46.8745">Entity</text><rect fill="#FFFFFF" height="31.0146" rx="2.5" ry="2.5" style="stroke:#000000;stroke-width:1.0;" width="54.8721" x="1631.0386" y="613.2017"/><text fill="#000000" font-family="Verdana" font-size="14" lengthAdjust="spacing" textLength="40.8721" x="1638.0386" y="634.2769">Entity</text><rect fill="#FFFFFF" height="31.0146" rx="2.5" ry="2.5" style="stroke:#000000;stroke-width:1.0;" width="88.7031" x="1784.3376" y="25.7993"/><text fill="#000000" font-family="Verdana" font-size="14" lengthAdjust="spacing" textLength="74.7031" x="1791.3376" y="46.8745">Repository</text><rect fill="#FFFFFF" height="31.0146" rx="2.5" ry="2.5" style="stroke:#000000;stroke-width:1.0;" width="88.7031" x="1784.3376" y="613.2017"/><text fill="#000000" font-family="Verdana" font-size="14" lengthAdjust="spacing" textLength="74.7031" x="1791.3376" y="634.2769">Repository</text><rect fill="#FFFFFF" height="506.5884" style="stroke:#000000;stroke-width:1.0;" width="10" x="75.9727" y="89.6133"/><rect fill="#FFFFFF" height="446.9897" style="stroke:#000000;stroke-width:1.0;" width="10" x="477.3799" y="119.4126"/><rect fill="#FFFFFF" height="417.1904" style="stroke:#000000;stroke-width:1.0;" width="10" x="700.1196" y="149.2119"/><rect fill="#FFFFFF" height="327.7925" style="stroke:#000000;stroke-width:1.0;" width="10" x="971.1777" y="208.8105"/><rect fill="#FFFFFF" height="29.7993" style="stroke:#000000;stroke-width:1.0;" width="10" x="1090.6216" y="447.2051"/><rect fill="#FFFFFF" height="148.9966" style="stroke:#000000;stroke-width:1.0;" width="10" x="1252.0518" y="238.6099"/><rect fill="#FFFFFF" height="29.7993" style="stroke:#000000;stroke-width:1.0;" width="10" x="1544.2119" y="268.4092"/><rect fill="#FFFFFF" height="29.7993" style="stroke:#000000;stroke-width:1.0;" width="10" x="1653.4746" y="328.0078"/><rect fill="#FFFFFF" height="89.3979" style="stroke:#000000;stroke-width:1.0;" width="10" x="1823.6892" y="417.4058"/><polygon fill="#000000" points="470.3799,85.6133,480.3799,89.6133,470.3799,93.6133,474.3799,89.6133" style="stroke:#000000;stroke-width:1.0;"/><line style="stroke:#000000;stroke-width:1.0;" x1="85.9727" x2="476.3799" y1="89.6133" y2="89.6133"/><text fill="#000000" font-family="Verdana" font-size="13" font-weight="bold" lengthAdjust="spacing" textLength="9.2422" x="92.9727" y="84.8838">1</text><text fill="#000000" font-family="Verdana" font-size="13" lengthAdjust="spacing" textLength="364.165" x="106.2148" y="84.8838">1.1: POST /api/vesseltype OR PUT /api/vesseltype/{id}</text><polygon fill="#000000" points="693.1196,115.4126,703.1196,119.4126,693.1196,123.4126,697.1196,119.4126" style="stroke:#000000;stroke-width:1.0;"/><line style="stroke:#000000;stroke-width:1.0;" x1="487.3799" x2="699.1196" y1="119.4126" y2="119.4126"/><text fill="#000000" font-family="Verdana" font-size="13" font-weight="bold" lengthAdjust="spacing" textLength="9.2422" x="494.3799" y="114.6831">2</text><text fill="#000000" font-family="Verdana" font-size="13" lengthAdjust="spacing" textLength="185.4976" x="507.6221" y="114.6831">1.2: Invoke Create / Update</text><polygon fill="#000000" points="879.1382,145.2119,889.1382,149.2119,879.1382,153.2119,883.1382,149.2119" style="stroke:#000000;stroke-width:1.0;"/><line style="stroke:#000000;stroke-width:1.0;" x1="710.1196" x2="885.1382" y1="149.2119" y2="149.2119"/><text fill="#000000" font-family="Verdana" font-size="13" font-weight="bold" lengthAdjust="spacing" textLength="9.2422" x="717.1196" y="144.4824">3</text><text fill="#000000" font-family="Verdana" font-size="13" lengthAdjust="spacing" textLength="148.7764" x="730.3618" y="144.4824">1.3: Map request body</text><polygon fill="#000000" points="721.1196,175.0112,711.1196,179.0112,721.1196,183.0112,717.1196,179.0112" style="stroke:#000000;stroke-width:1.0;"/><line style="stroke:#000000;stroke-width:1.0;stroke-dasharray:2.0,2.0;" x1="715.1196" x2="890.1382" y1="179.0112" y2="179.0112"/><text fill="#000000" font-family="Verdana" font-size="13" font-weight="bold" lengthAdjust="spacing" textLength="9.2422" x="727.1196" y="174.2817">4</text><text fill="#000000" font-family="Verdana" font-size="13" lengthAdjust="spacing" textLength="115.9463" x="740.3618" y="174.2817">1.4: Mapped data</text><polygon fill="#000000" points="959.1777,204.8105,969.1777,208.8105,959.1777,212.8105,963.1777,208.8105" style="stroke:#000000;stroke-width:1.0;"/><line style="stroke:#000000;stroke-width:1.0;" x1="710.1196" x2="965.1777" y1="208.8105" y2="208.8105"/><text fill="#000000" font-family="Verdana" font-size="13" font-weight="bold" lengthAdjust="spacing" textLength="9.2422" x="717.1196" y="204.0811">5</text><text fill="#000000" font-family="Verdana" font-size="13" lengthAdjust="spacing" textLength="114.48" x="730.3618" y="204.0811">1.5: Process data</text><polygon fill="#000000" points="1240.0518,234.6099,1250.0518,238.6099,1240.0518,242.6099,1244.0518,238.6099" style="stroke:#000000;stroke-width:1.0;"/><line style="stroke:#000000;stroke-width:1.0;" x1="981.1777" x2="1246.0518" y1="238.6099" y2="238.6099"/><text fill="#000000" font-family="Verdana" font-size="13" font-weight="bold" lengthAdjust="spacing" textLength="9.2422" x="988.1777" y="233.8804">6</text><text fill="#000000" font-family="Verdana" font-size="13" lengthAdjust="spacing" textLength="213.0972" x="1001.4199" y="233.8804">1.6: Create or update aggregate</text><polygon fill="#000000" points="1532.2119,264.4092,1542.2119,268.4092,1532.2119,272.4092,1536.2119,268.4092" style="stroke:#000000;stroke-width:1.0;"/><line style="stroke:#000000;stroke-width:1.0;" x1="1262.0518" x2="1538.2119" y1="268.4092" y2="268.4092"/><text fill="#000000" font-family="Verdana" font-size="13" font-weight="bold" lengthAdjust="spacing" textLength="9.2422" x="1269.0518" y="263.6797">7</text><text fill="#000000" font-family="Verdana" font-size="13" lengthAdjust="spacing" textLength="246.5049" x="1282.2939" y="263.6797">1.6.1: Create or update value objects</text><polygon fill="#000000" points="1273.0518,294.2085,1263.0518,298.2085,1273.0518,302.2085,1269.0518,298.2085" style="stroke:#000000;stroke-width:1.0;"/><line style="stroke:#000000;stroke-width:1.0;stroke-dasharray:2.0,2.0;" x1="1267.0518" x2="1548.2119" y1="298.2085" y2="298.2085"/><text fill="#000000" font-family="Verdana" font-size="13" font-weight="bold" lengthAdjust="spacing" textLength="9.2422" x="1279.0518" y="293.479">8</text><text fill="#000000" font-family="Verdana" font-size="13" lengthAdjust="spacing" textLength="244.918" x="1292.2939" y="293.479">1.6.2: Value objects created/updated</text><polygon fill="#000000" points="1641.4746,324.0078,1651.4746,328.0078,1641.4746,332.0078,1645.4746,328.0078" style="stroke:#000000;stroke-width:1.0;"/><line style="stroke:#000000;stroke-width:1.0;" x1="1262.0518" x2="1647.4746" y1="328.0078" y2="328.0078"/><text fill="#000000" font-family="Verdana" font-size="13" font-weight="bold" lengthAdjust="spacing" textLength="9.2422" x="1269.0518" y="323.2783">9</text><text fill="#000000" font-family="Verdana" font-size="13" lengthAdjust="spacing" textLength="197.4946" x="1282.2939" y="323.2783">1.6.3: Create or update entity</text><polygon fill="#000000" points="1273.0518,353.8071,1263.0518,357.8071,1273.0518,361.8071,1269.0518,357.8071" style="stroke:#000000;stroke-width:1.0;"/><line style="stroke:#000000;stroke-width:1.0;stroke-dasharray:2.0,2.0;" x1="1267.0518" x2="1657.4746" y1="357.8071" y2="357.8071"/><text fill="#000000" font-family="Verdana" font-size="13" font-weight="bold" lengthAdjust="spacing" textLength="18.4844" x="1279.0518" y="353.0776">10</text><text fill="#000000" font-family="Verdana" font-size="13" lengthAdjust="spacing" textLength="195.1904" x="1301.5361" y="353.0776">1.6.4: Entity created/updated</text><polygon fill="#000000" points="992.1777,383.6064,982.1777,387.6064,992.1777,391.6064,988.1777,387.6064" style="stroke:#000000;stroke-width:1.0;"/><line style="stroke:#000000;stroke-width:1.0;stroke-dasharray:2.0,2.0;" x1="986.1777" x2="1256.0518" y1="387.6064" y2="387.6064"/><text fill="#000000" font-family="Verdana" font-size="13" font-weight="bold" lengthAdjust="spacing" textLength="18.4844" x="998.1777" y="382.877">11</text><text fill="#000000" font-family="Verdana" font-size="13" lengthAdjust="spacing" textLength="224.3896" x="1020.6621" y="382.877">1.6.5: Aggregate created/updated</text><polygon fill="#000000" points="1811.6892,413.4058,1821.6892,417.4058,1811.6892,421.4058,1815.6892,417.4058" style="stroke:#000000;stroke-width:1.0;"/><line style="stroke:#000000;stroke-width:1.0;" x1="981.1777" x2="1817.6892" y1="417.4058" y2="417.4058"/><text fill="#000000" font-family="Verdana" font-size="13" font-weight="bold" lengthAdjust="spacing" textLength="18.4844" x="988.1777" y="412.6763">12</text><text fill="#000000" font-family="Verdana" font-size="13" lengthAdjust="spacing" textLength="145.7422" x="1010.6621" y="412.6763">1.7: Persist aggregate</text><polygon fill="#000000" points="1111.6216,443.2051,1101.6216,447.2051,1111.6216,451.2051,1107.6216,447.2051" style="stroke:#000000;stroke-width:1.0;"/><line style="stroke:#000000;stroke-width:1.0;" x1="1105.6216" x2="1822.6892" y1="447.2051" y2="447.2051"/><text fill="#000000" font-family="Verdana" font-size="13" font-weight="bold" lengthAdjust="spacing" textLength="18.4844" x="1117.6216" y="442.4756">13</text><text fill="#000000" font-family="Verdana" font-size="13" lengthAdjust="spacing" textLength="237.7388" x="1140.106" y="442.4756">1.7.1: Map aggregate to data model</text><polygon fill="#000000" points="1811.6892,473.0044,1821.6892,477.0044,1811.6892,481.0044,1815.6892,477.0044" style="stroke:#000000;stroke-width:1.0;"/><line style="stroke:#000000;stroke-width:1.0;stroke-dasharray:2.0,2.0;" x1="1095.6216" x2="1817.6892" y1="477.0044" y2="477.0044"/><text fill="#000000" font-family="Verdana" font-size="13" font-weight="bold" lengthAdjust="spacing" textLength="18.4844" x="1102.6216" y="472.2749">14</text><text fill="#000000" font-family="Verdana" font-size="13" lengthAdjust="spacing" textLength="177.0615" x="1125.106" y="472.2749">1.7.2: Data model mapped</text><polygon fill="#000000" points="992.1777,502.8037,982.1777,506.8037,992.1777,510.8037,988.1777,506.8037" style="stroke:#000000;stroke-width:1.0;"/><line style="stroke:#000000;stroke-width:1.0;stroke-dasharray:2.0,2.0;" x1="986.1777" x2="1827.6892" y1="506.8037" y2="506.8037"/><text fill="#000000" font-family="Verdana" font-size="13" font-weight="bold" lengthAdjust="spacing" textLength="18.4844" x="998.1777" y="502.0742">15</text><text fill="#000000" font-family="Verdana" font-size="13" lengthAdjust="spacing" textLength="126.5278" x="1020.6621" y="502.0742">1.8: Data persisted</text><polygon fill="#000000" points="721.1196,532.603,711.1196,536.603,721.1196,540.603,717.1196,536.603" style="stroke:#000000;stroke-width:1.0;"/><line style="stroke:#000000;stroke-width:1.0;stroke-dasharray:2.0,2.0;" x1="715.1196" x2="975.1777" y1="536.603" y2="536.603"/><text fill="#000000" font-family="Verdana" font-size="13" font-weight="bold" lengthAdjust="spacing" textLength="18.4844" x="727.1196" y="531.8735">16</text><text fill="#000000" font-family="Verdana" font-size="13" lengthAdjust="spacing" textLength="127.4292" x="749.604" y="531.8735">1.9: Response data</text><polygon fill="#000000" points="96.9727,562.4023,86.9727,566.4023,96.9727,570.4023,92.9727,566.4023" style="stroke:#000000;stroke-width:1.0;"/><line style="stroke:#000000;stroke-width:1.0;stroke-dasharray:2.0,2.0;" x1="90.9727" x2="704.1196" y1="566.4023" y2="566.4023"/><text fill="#000000" font-family="Verdana" font-size="13" font-weight="bold" lengthAdjust="spacing" textLength="18.4844" x="102.9727" y="561.6729">17</text><text fill="#000000" font-family="Verdana" font-size="13" lengthAdjust="spacing" textLength="222.3521" x="125.457" y="561.6729">1.10: HTTP 201 Created / 200 OK</text><polygon fill="#000000" points="1939.4678,592.2017,1949.4678,596.2017,1939.4678,600.2017,1943.4678,596.2017" style="stroke:#000000;stroke-width:1.0;"/><line style="stroke:#000000;stroke-width:1.0;stroke-dasharray:2.0,2.0;" x1="80.9727" x2="1945.4678" y1="596.2017" y2="596.2017"/><text fill="#000000" font-family="Verdana" font-size="13" font-weight="bold" lengthAdjust="spacing" textLength="18.4844" x="87.9727" y="591.4722">18</text><text fill="#000000" font-family="Verdana" font-size="13" lengthAdjust="spacing" textLength="140.4863" x="110.457" y="591.4722">1.11: HTTP Response</text><!--SRC=[VLNBRjim4BphAxRkfJsuVgHDKXqA977H16rWmtPofwM5eqOMMOeoQWJzzv9BYgGY8RvOj6PcNyFrE_M41mHHig9AMADurHnsA9Dan__2w9fbprZbi3dL2W_mOLEORmPNTzkF8tZ_gzW_gUkomGJqHp2fYgmGh58mkjrkLx36FmtMQWIiXbkbX3ltqMlUA2GOFVK1DxnIafSbIaA5On-ws2u9ir2y_tA3ybXaDfHx9X1Lkq9Pcm8h0x35_P285I7wSPXYSCzpB6quVQJJCFfglvUuPwvAVne6FpBTKrZkVcDccqS_sFCmutkb2dKYh7qac1cThcoWtoXuNIWkBIKSavQIHFE2yJSx5qXXzccMmcgvsSA4YM9onBh6Kfs4JdSDguVUpvEN8l-Ni4mLHrrknmLMKck7QLA0UGftrP4_8zn8DAG9F8ZSDClBM9T4FAsYvqtqinJkcG3fSj_n_1I8aN4CVjoF_fde0dFG8LcIe-SQGtL3EWSHxujkY-IPBjmIFQsrMGlMF3z-OfwdRQ5SGaEL0lC6yJh1Cu6kjI9hM3Kpe9xUaHp52LO7pTXNiT2udwGPosEi0Xa5oISsH1wtAjRjP6lDwHJF1X95wrwlvDpiU4DvwO6vjsyav6IYN5wDxzmCCBn-GohC8Pfek46aTg7DO9V9q2IZwnRnZ8NR7M95p2IDbRq4QCiQSy615armfjyzGM4ya9MPuSBpuK0-xrZS2yM9lMhLfHCHRbrs5ABQV7lwb-nhge6ru5MDlMlMtfVugcc5U1_H6fgcG7yoy-dCsIZNcs8-dSBoPwmNNVauJzeWdIMdWv3mp0ct6SQqU7_z1m00]--></g></svg>