<svg xmlns="http://www.w3.org/2000/svg" xmlns:xlink="http://www.w3.org/1999/xlink" contentStyleType="text/css" data-diagram-type="SEQUENCE" height="244px" preserveAspectRatio="none" style="width:475px;height:244px;background:#FFFFFF;" version="1.1" viewBox="0 0 475 244" width="475px" zoomAndPan="magnify"><defs/><g><g><title>..system .C4...</title><rect fill="#FFFFFF" height="29.7993" style="stroke:#000000;stroke-width:1;" width="10" x="404.6636" y="114.814"/></g><g><title>Port Authority Officer</title><rect fill="#000000" fill-opacity="0.00000" height="79.5986" width="8" x="83.7544" y="83.0146"/><line style="stroke:#000000;stroke-width:1;" x1="87" x2="87" y1="83.0146" y2="162.6133"/></g><g><title>..system .C4...</title><rect fill="#000000" fill-opacity="0.00000" height="79.5986" width="8" x="405.6636" y="83.0146"/><line style="stroke:#000000;stroke-width:1;" x1="409.3105" x2="409.3105" y1="83.0146" y2="162.6133"/></g><g class="participant participant-head" data-participant="Officer"><text fill="#000000" font-family="Verdana" font-size="14" lengthAdjust="spacing" textLength="149.5088" x="10" y="80.0752">Port Authority Officer</text><ellipse cx="87.7544" cy="14" fill="#FFFFFF" rx="8" ry="8" style="stroke:#000000;stroke-width:1;"/><path d="M87.7544,22 L87.7544,49 M74.7544,30 L100.7544,30 M87.7544,49 L74.7544,64 M87.7544,49 L100.7544,64" fill="none" style="stroke:#000000;stroke-width:1;"/></g><g class="participant participant-tail" data-participant="Officer"><text fill="#000000" font-family="Verdana" font-size="14" lengthAdjust="spacing" textLength="149.5088" x="10" y="175.6885">Port Authority Officer</text><ellipse cx="87.7544" cy="187.6279" fill="#FFFFFF" rx="8" ry="8" style="stroke:#000000;stroke-width:1;"/><path d="M87.7544,195.6279 L87.7544,222.6279 M74.7544,203.6279 L100.7544,203.6279 M87.7544,222.6279 L74.7544,237.6279 M87.7544,222.6279 L100.7544,237.6279" fill="none" style="stroke:#000000;stroke-width:1;"/></g><g class="participant participant-head" data-participant="AIT"><rect fill="#FFFFFF" height="48.0293" rx="2.5" ry="2.5" style="stroke:#000000;stroke-width:1;" width="118.7061" x="350.3105" y="33.9854"/><text fill="#000000" font-family="Verdana" font-size="14" lengthAdjust="spacing" textLength="104.7061" x="357.3105" y="55.0605">&#171;system (C4)&#187;</text><text fill="#000000" font-family="Verdana" font-size="14" lengthAdjust="spacing" textLength="85.9756" x="366.6758" y="72.0752">Port System</text></g><g class="participant participant-tail" data-participant="AIT"><rect fill="#FFFFFF" height="48.0293" rx="2.5" ry="2.5" style="stroke:#000000;stroke-width:1;" width="118.7061" x="350.3105" y="161.6133"/><text fill="#000000" font-family="Verdana" font-size="14" lengthAdjust="spacing" textLength="104.7061" x="357.3105" y="182.6885">&#171;system (C4)&#187;</text><text fill="#000000" font-family="Verdana" font-size="14" lengthAdjust="spacing" textLength="85.9756" x="366.6758" y="199.7031">Port System</text></g><g><title>..system .C4...</title><rect fill="#FFFFFF" height="29.7993" style="stroke:#000000;stroke-width:1;" width="10" x="404.6636" y="114.814"/></g><g class="message" data-participant-1="Officer" data-participant-2="AIT"><polygon fill="#000000" points="392.6636,110.814,402.6636,114.814,392.6636,118.814,396.6636,114.814" style="stroke:#000000;stroke-width:1;"/><line style="stroke:#000000;stroke-width:1;" x1="87.7544" x2="398.6636" y1="114.814" y2="114.814"/><text fill="#000000" font-family="Verdana" font-size="13" font-weight="bold" lengthAdjust="spacing" textLength="9.2422" x="94.7544" y="110.0845">1</text><text fill="#000000" font-family="Verdana" font-size="13" lengthAdjust="spacing" textLength="284.667" x="107.9966" y="110.0845">1: approve or reject vessel visit notification</text></g><g class="message" data-participant-1="AIT" data-participant-2="Officer"><polygon fill="#000000" points="98.7544,140.6133,88.7544,144.6133,98.7544,148.6133,94.7544,144.6133" style="stroke:#000000;stroke-width:1;"/><line style="stroke:#000000;stroke-width:1;stroke-dasharray:2,2;" x1="92.7544" x2="408.6636" y1="144.6133" y2="144.6133"/><text fill="#000000" font-family="Verdana" font-size="13" font-weight="bold" lengthAdjust="spacing" textLength="9.2422" x="104.7544" y="139.8838">2</text><text fill="#000000" font-family="Verdana" font-size="13" lengthAdjust="spacing" textLength="230.7817" x="117.9966" y="139.8838">1.1: decision confirmed and logged</text></g><!--SRC=[LSunQmCn38RXtR_Ywqtja4AWKmW7eLEd5jAnYshh4fKxoTYwW_px-evcw6O9taT-y2jFZ3oIQA3PJUVfcqi85DqAkWyhZjFiLolYDxmFWqGk7QZUto5JSOcIIHtTyLXlrNd2u-lBKzz_wGQSjzrMdTu-G_XBiUlN6GVi3w2SYosCThNm3qV7mhNoY4MgEDHSMaGkfkldP27dJLk5NPFkQDEUcvSujj0KqNIGCd42QS9ebmkdaFYVyGi0]--></g></svg>