<svg xmlns="http://www.w3.org/2000/svg" xmlns:xlink="http://www.w3.org/1999/xlink" contentStyleType="text/css" data-diagram-type="SEQUENCE" height="244px" preserveAspectRatio="none" style="width:417px;height:244px;background:#FFFFFF;" version="1.1" viewBox="0 0 417 244" width="417px" zoomAndPan="magnify"><defs/><g><g><title>..system .C4...</title><rect fill="#FFFFFF" height="29.7993" style="stroke:#000000;stroke-width:1;" width="10" x="347.2671" y="114.814"/></g><g><title>Shipping Agent Rep.</title><rect fill="#000000" fill-opacity="0.00000" height="79.5986" width="8" x="80.9414" y="83.0146"/><line style="stroke:#000000;stroke-width:1;" x1="84" x2="84" y1="83.0146" y2="162.6133"/></g><g><title>..system .C4...</title><rect fill="#000000" fill-opacity="0.00000" height="79.5986" width="8" x="348.2671" y="83.0146"/><line style="stroke:#000000;stroke-width:1;" x1="351.9141" x2="351.9141" y1="83.0146" y2="162.6133"/></g><g class="participant participant-head" data-participant="Actor"><text fill="#000000" font-family="Verdana" font-size="14" lengthAdjust="spacing" textLength="143.8828" x="10" y="80.0752">Shipping Agent Rep.</text><ellipse cx="84.9414" cy="14" fill="#FFFFFF" rx="8" ry="8" style="stroke:#000000;stroke-width:1;"/><path d="M84.9414,22 L84.9414,49 M71.9414,30 L97.9414,30 M84.9414,49 L71.9414,64 M84.9414,49 L97.9414,64" fill="none" style="stroke:#000000;stroke-width:1;"/></g><g class="participant participant-tail" data-participant="Actor"><text fill="#000000" font-family="Verdana" font-size="14" lengthAdjust="spacing" textLength="143.8828" x="10" y="175.6885">Shipping Agent Rep.</text><ellipse cx="84.9414" cy="187.6279" fill="#FFFFFF" rx="8" ry="8" style="stroke:#000000;stroke-width:1;"/><path d="M84.9414,195.6279 L84.9414,222.6279 M71.9414,203.6279 L97.9414,203.6279 M84.9414,222.6279 L71.9414,237.6279 M84.9414,222.6279 L97.9414,237.6279" fill="none" style="stroke:#000000;stroke-width:1;"/></g><g class="participant participant-head" data-participant="System"><rect fill="#FFFFFF" height="48.0293" rx="2.5" ry="2.5" style="stroke:#000000;stroke-width:1;" width="118.7061" x="292.9141" y="33.9854"/><text fill="#000000" font-family="Verdana" font-size="14" lengthAdjust="spacing" textLength="104.7061" x="299.9141" y="55.0605">&#171;system (C4)&#187;</text><text fill="#000000" font-family="Verdana" font-size="14" lengthAdjust="spacing" textLength="85.9756" x="309.2793" y="72.0752">Port System</text></g><g class="participant participant-tail" data-participant="System"><rect fill="#FFFFFF" height="48.0293" rx="2.5" ry="2.5" style="stroke:#000000;stroke-width:1;" width="118.7061" x="292.9141" y="161.6133"/><text fill="#000000" font-family="Verdana" font-size="14" lengthAdjust="spacing" textLength="104.7061" x="299.9141" y="182.6885">&#171;system (C4)&#187;</text><text fill="#000000" font-family="Verdana" font-size="14" lengthAdjust="spacing" textLength="85.9756" x="309.2793" y="199.7031">Port System</text></g><g><title>..system .C4...</title><rect fill="#FFFFFF" height="29.7993" style="stroke:#000000;stroke-width:1;" width="10" x="347.2671" y="114.814"/></g><g class="message" data-participant-1="Actor" data-participant-2="System"><polygon fill="#000000" points="335.2671,110.814,345.2671,114.814,335.2671,118.814,339.2671,114.814" style="stroke:#000000;stroke-width:1;"/><line style="stroke:#000000;stroke-width:1;" x1="84.9414" x2="341.2671" y1="114.814" y2="114.814"/><text fill="#000000" font-family="Verdana" font-size="13" font-weight="bold" lengthAdjust="spacing" textLength="9.2422" x="91.9414" y="110.0845">1</text><text fill="#000000" font-family="Verdana" font-size="13" lengthAdjust="spacing" textLength="230.0835" x="105.1836" y="110.0845">1: update "in progress" notification</text></g><g class="message" data-participant-1="System" data-participant-2="Actor"><polygon fill="#000000" points="95.9414,140.6133,85.9414,144.6133,95.9414,148.6133,91.9414,144.6133" style="stroke:#000000;stroke-width:1;"/><line style="stroke:#000000;stroke-width:1;stroke-dasharray:2,2;" x1="89.9414" x2="351.2671" y1="144.6133" y2="144.6133"/><text fill="#000000" font-family="Verdana" font-size="13" font-weight="bold" lengthAdjust="spacing" textLength="9.2422" x="101.9414" y="139.8838">2</text><text fill="#000000" font-family="Verdana" font-size="13" lengthAdjust="spacing" textLength="161.8335" x="115.1836" y="139.8838">1.1: notification updated</text></g><!--SRC=[NOv12i9034NtSueuArrO45oLKYXUGEpMJMnZ6x0pOIOLlBtJTXRYBlp_toCx7MaYa1UoCpYhT_Fqe60CTke3s7Pa4NO3D0CvXHj9OG4ZD4jj18DonuAfibKLFr5fWltbVAZhkxlweD2ksSfifp4h2ySw1r32gOHPUbG2omua-25GZ1QSLtvoXyhUBH_nUzbaJwQFIRGPawT8fbyeQtlJqp_-1G00]--></g></svg>