<svg xmlns="http://www.w3.org/2000/svg" xmlns:xlink="http://www.w3.org/1999/xlink" contentStyleType="text/css" data-diagram-type="CLASS" height="721px" preserveAspectRatio="none" style="width:1779px;height:721px;background:#FFFFFF;" version="1.1" viewBox="0 0 1779 721" width="1779px" zoomAndPan="magnify"><title>US 2.2.11 - Manage Staff Members Class Diagram</title><defs/><g><g class="title" data-source-line="2"><text fill="#000000" font-family="sans-serif" font-size="14" font-weight="bold" lengthAdjust="spacing" textLength="358.8457" x="703.4163" y="23.5352">US 2.2.11 - Manage Staff Members Class Diagram</text></g><!--class StaffMembersController--><g class="entity" data-entity="StaffMembersController" data-source-line="9" data-uid="ent0002" id="entity_StaffMembersController"><rect fill="#F1F1F1" height="139.0625" rx="2.5" ry="2.5" style="stroke:#181818;stroke-width:0.5;" width="400.5137" x="716.93" y="44.4883"/><ellipse cx="832.2523" cy="64.7988" fill="#C2C2C2" rx="11" ry="11" style="stroke:#181818;stroke-width:1;"/><path d="M835.2254,70.4419 Q834.6444,70.7407 834.0052,70.8901 Q833.366,71.0396 832.6605,71.0396 Q830.1536,71.0396 828.8338,69.3877 Q827.514,67.7358 827.514,64.6147 Q827.514,61.4854 828.8338,59.8335 Q830.1536,58.1816 832.6605,58.1816 Q833.366,58.1816 834.0135,58.3311 Q834.661,58.4805 835.2254,58.7793 L835.2254,61.502 Q834.5946,60.9209 834.001,60.6511 Q833.4075,60.3813 832.7767,60.3813 Q831.432,60.3813 830.7471,61.448 Q830.0623,62.5146 830.0623,64.6147 Q830.0623,66.7065 830.7471,67.7732 Q831.432,68.8398 832.7767,68.8398 Q833.4075,68.8398 834.001,68.5701 Q834.5946,68.3003 835.2254,67.7192 Z " fill="#000000"/><text fill="#000000" font-family="sans-serif" font-size="12" font-style="italic" lengthAdjust="spacing" textLength="70.998" x="897.9378" y="61.0898">&#171;Controller&#187;</text><text fill="#000000" font-family="sans-serif" font-size="14" lengthAdjust="spacing" textLength="161.3691" x="852.7523" y="77.1563">StaffMembersController</text><line style="stroke:#181818;stroke-width:0.5;" x1="717.93" x2="1116.4437" y1="85.1094" y2="85.1094"/><line style="stroke:#181818;stroke-width:0.5;" x1="717.93" x2="1116.4437" y1="93.1094" y2="93.1094"/><text fill="#000000" font-family="sans-serif" font-size="14" lengthAdjust="spacing" textLength="321.1182" x="722.93" y="110.6445">+CreateStaffMember(dto): Task&lt;ActionResult&gt;</text><text fill="#000000" font-family="sans-serif" font-size="14" lengthAdjust="spacing" textLength="388.5137" x="722.93" y="127.1328">+UpdateStaffMemberStatus(id, dto): Task&lt;ActionResult&gt;</text><text fill="#000000" font-family="sans-serif" font-size="14" lengthAdjust="spacing" textLength="326.1221" x="722.93" y="143.6211">+AddQualification(id, dto): Task&lt;ActionResult&gt;</text><text fill="#000000" font-family="sans-serif" font-size="14" lengthAdjust="spacing" textLength="361.9424" x="722.93" y="160.1094">+RemoveQualification(id, code): Task&lt;ActionResult&gt;</text><text fill="#000000" font-family="sans-serif" font-size="14" lengthAdjust="spacing" textLength="315.8203" x="722.93" y="176.5977">+GetAllStaffMembers(...): Task&lt;ActionResult&gt;</text></g><!--class IStaffMemberService--><g class="entity" data-entity="IStaffMemberService" data-source-line="17" data-uid="ent0003" id="entity_IStaffMemberService"><rect fill="#F1F1F1" height="139.0625" rx="2.5" ry="2.5" style="stroke:#181818;stroke-width:0.5;" width="445.0498" x="1152.66" y="44.4883"/><ellipse cx="1302.2166" cy="64.7988" fill="#B1B1B1" rx="11" ry="11" style="stroke:#181818;stroke-width:1;"/><path d="M1298.1444,60.564 L1298.1444,58.4058 L1305.5238,58.4058 L1305.5238,60.564 L1303.0584,60.564 L1303.0584,68.6406 L1305.5238,68.6406 L1305.5238,70.7988 L1298.1444,70.7988 L1298.1444,68.6406 L1300.6097,68.6406 L1300.6097,60.564 Z " fill="#000000"/><text fill="#000000" font-family="sans-serif" font-size="12" font-style="italic" lengthAdjust="spacing" textLength="53.1445" x="1364.8626" y="61.0898">&#171;Service&#187;</text><text fill="#000000" font-family="sans-serif" font-size="14" font-style="italic" lengthAdjust="spacing" textLength="137.4365" x="1322.7166" y="77.1563">IStaffMemberService</text><line style="stroke:#181818;stroke-width:0.5;" x1="1153.66" x2="1596.7098" y1="85.1094" y2="85.1094"/><line style="stroke:#181818;stroke-width:0.5;" x1="1153.66" x2="1596.7098" y1="93.1094" y2="93.1094"/><text fill="#000000" font-family="sans-serif" font-size="14" lengthAdjust="spacing" textLength="386.3193" x="1158.66" y="110.6445">+CreateStaffMemberAsync(dto): Task&lt;StaffMemberDto&gt;</text><text fill="#000000" font-family="sans-serif" font-size="14" lengthAdjust="spacing" textLength="373.5498" x="1158.66" y="127.1328">+UpdateStatusAsync(id, dto): Task&lt;StaffMemberDto?&gt;</text><text fill="#000000" font-family="sans-serif" font-size="14" lengthAdjust="spacing" textLength="406.9639" x="1158.66" y="143.6211">+AddQualificationAsync(id, code): Task&lt;StaffMemberDto?&gt;</text><text fill="#000000" font-family="sans-serif" font-size="14" lengthAdjust="spacing" textLength="433.0498" x="1158.66" y="160.1094">+RemoveQualificationAsync(id, code): Task&lt;StaffMemberDto?&gt;</text><text fill="#000000" font-family="sans-serif" font-size="14" lengthAdjust="spacing" textLength="394.0576" x="1158.66" y="176.5977">+GetAllAsync(...): Task&lt;IEnumerable&lt;StaffMemberDto&gt;&gt;</text></g><!--class StaffMemberService--><g class="entity" data-entity="StaffMemberService" data-source-line="25" data-uid="ent0004" id="entity_StaffMemberService"><rect fill="#F1F1F1" height="56.6211" rx="2.5" ry="2.5" style="stroke:#181818;stroke-width:0.5;" width="165.4033" x="228.49" y="268.2883"/><ellipse cx="243.49" cy="288.5988" fill="#C2C2C2" rx="11" ry="11" style="stroke:#181818;stroke-width:1;"/><path d="M246.4631,294.2419 Q245.8821,294.5407 245.2429,294.6901 Q244.6038,294.8396 243.8982,294.8396 Q241.3914,294.8396 240.0715,293.1877 Q238.7517,291.5358 238.7517,288.4147 Q238.7517,285.2854 240.0715,283.6335 Q241.3914,281.9816 243.8982,281.9816 Q244.6038,281.9816 245.2512,282.1311 Q245.8987,282.2805 246.4631,282.5793 L246.4631,285.302 Q245.8323,284.7209 245.2388,284.4511 Q244.6453,284.1813 244.0144,284.1813 Q242.6697,284.1813 241.9849,285.248 Q241.3001,286.3146 241.3001,288.4147 Q241.3001,290.5065 241.9849,291.5732 Q242.6697,292.6398 244.0144,292.6398 Q244.6453,292.6398 245.2388,292.3701 Q245.8323,292.1003 246.4631,291.5192 Z " fill="#000000"/><text fill="#000000" font-family="sans-serif" font-size="12" font-style="italic" lengthAdjust="spacing" textLength="53.1445" x="297.6194" y="284.8898">&#171;Service&#187;</text><text fill="#000000" font-family="sans-serif" font-size="14" lengthAdjust="spacing" textLength="133.4033" x="257.49" y="300.9562">StaffMemberService</text><line style="stroke:#181818;stroke-width:0.5;" x1="229.49" x2="392.8933" y1="308.9094" y2="308.9094"/><line style="stroke:#181818;stroke-width:0.5;" x1="229.49" x2="392.8933" y1="316.9094" y2="316.9094"/></g><!--class IStaffMemberRepository--><g class="entity" data-entity="IStaffMemberRepository" data-source-line="27" data-uid="ent0005" id="entity_IStaffMemberRepository"><rect fill="#F1F1F1" height="106.0859" rx="2.5" ry="2.5" style="stroke:#181818;stroke-width:0.5;" width="381.7354" x="429.32" y="243.5583"/><ellipse cx="534.8224" cy="263.8688" fill="#B1B1B1" rx="11" ry="11" style="stroke:#181818;stroke-width:1;"/><path d="M530.7502,259.634 L530.7502,257.4758 L538.1296,257.4758 L538.1296,259.634 L535.6642,259.634 L535.6642,267.7106 L538.1296,267.7106 L538.1296,269.8688 L530.7502,269.8688 L530.7502,267.7106 L533.2155,267.7106 L533.2155,259.634 Z " fill="#000000"/><text fill="#000000" font-family="sans-serif" font-size="12" font-style="italic" lengthAdjust="spacing" textLength="74.3965" x="599.2394" y="260.1598">&#171;Repository&#187;</text><text fill="#000000" font-family="sans-serif" font-size="14" font-style="italic" lengthAdjust="spacing" textLength="162.2305" x="555.3224" y="276.2262">IStaffMemberRepository</text><line style="stroke:#181818;stroke-width:0.5;" x1="430.32" x2="810.0554" y1="284.1794" y2="284.1794"/><line style="stroke:#181818;stroke-width:0.5;" x1="430.32" x2="810.0554" y1="292.1794" y2="292.1794"/><text fill="#000000" font-family="sans-serif" font-size="14" lengthAdjust="spacing" textLength="213.917" x="435.32" y="309.7145">+AddAsync(staffMember): Task</text><text fill="#000000" font-family="sans-serif" font-size="14" lengthAdjust="spacing" textLength="279.4258" x="435.32" y="326.2028">+GetByIdAsync(id): Task&lt;StaffMember?&gt;</text><text fill="#000000" font-family="sans-serif" font-size="14" lengthAdjust="spacing" textLength="369.7354" x="435.32" y="342.6911">+GetAllAsync(...): Task&lt;IEnumerable&lt;StaffMember&gt;&gt;</text></g><!--class IQualificationRepository--><g class="entity" data-entity="IQualificationRepository" data-source-line="34" data-uid="ent0006" id="entity_IQualificationRepository"><rect fill="#F1F1F1" height="73.1094" rx="2.5" ry="2.5" style="stroke:#181818;stroke-width:0.5;" width="332.9883" x="1439.69" y="260.0383"/><ellipse cx="1520.8257" cy="280.3488" fill="#B1B1B1" rx="11" ry="11" style="stroke:#181818;stroke-width:1;"/><path d="M1516.7535,276.114 L1516.7535,273.9558 L1524.1329,273.9558 L1524.1329,276.114 L1521.6675,276.114 L1521.6675,284.1906 L1524.1329,284.1906 L1524.1329,286.3488 L1516.7535,286.3488 L1516.7535,284.1906 L1519.2188,284.1906 L1519.2188,276.114 Z " fill="#000000"/><text fill="#000000" font-family="sans-serif" font-size="12" font-style="italic" lengthAdjust="spacing" textLength="74.3965" x="1585.2359" y="276.6398">&#171;Repository&#187;</text><text fill="#000000" font-family="sans-serif" font-size="14" font-style="italic" lengthAdjust="spacing" textLength="162.2168" x="1541.3257" y="292.7062">IQualificationRepository</text><line style="stroke:#181818;stroke-width:0.5;" x1="1440.69" x2="1771.6783" y1="300.6594" y2="300.6594"/><line style="stroke:#181818;stroke-width:0.5;" x1="1440.69" x2="1771.6783" y1="308.6594" y2="308.6594"/><text fill="#000000" font-family="sans-serif" font-size="14" lengthAdjust="spacing" textLength="320.9883" x="1445.69" y="326.1945">+GetByCodeAsync(code): Task&lt;Qualification?&gt;</text></g><!--class StaffMember--><g class="entity" data-entity="StaffMember" data-source-line="39" data-uid="ent0007" id="entity_StaffMember"><rect fill="#F1F1F1" height="188.5273" rx="2.5" ry="2.5" style="stroke:#181818;stroke-width:0.5;" width="369.5742" x="280.4" y="409.6383"/><ellipse cx="417.9015" cy="429.9488" fill="#9B9B9B" rx="11" ry="11" style="stroke:#181818;stroke-width:1;"/><path d="M418.0147,425.297 L416.8609,430.3688 L419.1769,430.3688 Z M416.5206,423.0558 L419.5172,423.0558 L422.8624,435.4488 L420.4137,435.4488 L419.65,432.3858 L416.3712,432.3858 L415.6241,435.4488 L413.1754,435.4488 Z " fill="#000000"/><text fill="#000000" font-family="sans-serif" font-size="12" font-style="italic" lengthAdjust="spacing" textLength="72.6973" x="445.0885" y="426.2398">&#171;Aggregate&#187;</text><text fill="#000000" font-family="sans-serif" font-size="14" lengthAdjust="spacing" textLength="86.0713" x="438.4015" y="442.3063">StaffMember</text><line style="stroke:#181818;stroke-width:0.5;" x1="281.4" x2="648.9742" y1="450.2594" y2="450.2594"/><text fill="#000000" font-family="sans-serif" font-size="14" lengthAdjust="spacing" textLength="168.5264" x="286.4" y="467.7945">+MecanographicNumber</text><text fill="#000000" font-family="sans-serif" font-size="14" lengthAdjust="spacing" textLength="85.8662" x="286.4" y="484.2828">+ShortName</text><text fill="#000000" font-family="sans-serif" font-size="14" lengthAdjust="spacing" textLength="104.2549" x="286.4" y="500.7711">+CurrentStatus</text><text fill="#000000" font-family="sans-serif" font-size="14" lengthAdjust="spacing" textLength="357.5742" x="286.4" y="517.2594">+Qualifications: IReadOnlyCollection&lt;Qualification&gt;</text><line style="stroke:#181818;stroke-width:1;" x1="281.4" x2="648.9742" y1="524.2125" y2="524.2125"/><text fill="#000000" font-family="sans-serif" font-size="14" lengthAdjust="spacing" textLength="119.5947" x="286.4" y="541.7477">+StaffMember(...)</text><text fill="#000000" font-family="sans-serif" font-size="14" lengthAdjust="spacing" textLength="178.7393" x="286.4" y="558.2359">+UpdateStatus(newStatus)</text><text fill="#000000" font-family="sans-serif" font-size="14" lengthAdjust="spacing" textLength="219.6318" x="286.4" y="574.7242">+AddQualification(Qualification)</text><text fill="#000000" font-family="sans-serif" font-size="14" lengthAdjust="spacing" textLength="245.7178" x="286.4" y="591.2125">+RemoveQualification(Qualification)</text></g><!--class Qualification--><g class="entity" data-entity="Qualification" data-source-line="51" data-uid="ent0008" id="entity_Qualification"><rect fill="#F1F1F1" height="56.6211" rx="2.5" ry="2.5" style="stroke:#181818;stroke-width:0.5;" width="118.0576" x="406.16" y="658.1683"/><ellipse cx="421.16" cy="678.4788" fill="#9B9B9B" rx="11" ry="11" style="stroke:#181818;stroke-width:1;"/><path d="M421.2733,673.827 L420.1195,678.8988 L422.4354,678.8988 Z M419.7791,671.5858 L422.7757,671.5858 L426.1209,683.9788 L423.6722,683.9788 L422.9085,680.9158 L419.6297,680.9158 L418.8827,683.9788 L416.4339,683.9788 Z " fill="#000000"/><text fill="#000000" font-family="sans-serif" font-size="12" font-style="italic" lengthAdjust="spacing" textLength="72.6973" x="441.8402" y="674.7698">&#171;Aggregate&#187;</text><text fill="#000000" font-family="sans-serif" font-size="14" lengthAdjust="spacing" textLength="86.0576" x="435.16" y="690.8363">Qualification</text><line style="stroke:#181818;stroke-width:0.5;" x1="407.16" x2="523.2176" y1="698.7894" y2="698.7894"/><line style="stroke:#181818;stroke-width:0.5;" x1="407.16" x2="523.2176" y1="706.7894" y2="706.7894"/></g><!--class CreateStaffMemberDto--><g class="entity" data-entity="CreateStaffMemberDto" data-source-line="53" data-uid="ent0009" id="entity_CreateStaffMemberDto"><rect fill="#F1F1F1" height="56.6211" rx="2.5" ry="2.5" style="stroke:#181818;stroke-width:0.5;" width="186.376" x="7" y="268.2883"/><ellipse cx="22" cy="288.5988" fill="#C2C2C2" rx="11" ry="11" style="stroke:#181818;stroke-width:1;"/><path d="M24.9731,294.2419 Q24.3921,294.5407 23.7529,294.6901 Q23.1138,294.8396 22.4082,294.8396 Q19.9014,294.8396 18.5815,293.1877 Q17.2617,291.5358 17.2617,288.4147 Q17.2617,285.2854 18.5815,283.6335 Q19.9014,281.9816 22.4082,281.9816 Q23.1138,281.9816 23.7612,282.1311 Q24.4087,282.2805 24.9731,282.5793 L24.9731,285.302 Q24.3423,284.7209 23.7488,284.4511 Q23.1553,284.1813 22.5244,284.1813 Q21.1797,284.1813 20.4949,285.248 Q19.8101,286.3146 19.8101,288.4147 Q19.8101,290.5065 20.4949,291.5732 Q21.1797,292.6398 22.5244,292.6398 Q23.1553,292.6398 23.7488,292.3701 Q24.3423,292.1003 24.9731,291.5192 Z " fill="#000000"/><text fill="#000000" font-family="sans-serif" font-size="12" font-style="italic" lengthAdjust="spacing" textLength="38.4727" x="93.9517" y="284.8898">&#171;DTO&#187;</text><text fill="#000000" font-family="sans-serif" font-size="14" lengthAdjust="spacing" textLength="154.376" x="36" y="300.9562">CreateStaffMemberDto</text><line style="stroke:#181818;stroke-width:0.5;" x1="8" x2="192.376" y1="308.9094" y2="308.9094"/><line style="stroke:#181818;stroke-width:0.5;" x1="8" x2="192.376" y1="316.9094" y2="316.9094"/></g><!--class UpdateStaffStatusDto--><g class="entity" data-entity="UpdateStaffStatusDto" data-source-line="54" data-uid="ent0010" id="entity_UpdateStaffStatusDto"><rect fill="#F1F1F1" height="56.6211" rx="2.5" ry="2.5" style="stroke:#181818;stroke-width:0.5;" width="176.7852" x="1023.8" y="268.2883"/><ellipse cx="1038.8" cy="288.5988" fill="#C2C2C2" rx="11" ry="11" style="stroke:#181818;stroke-width:1;"/><path d="M1041.7731,294.2419 Q1041.1921,294.5407 1040.5529,294.6901 Q1039.9138,294.8396 1039.2082,294.8396 Q1036.7014,294.8396 1035.3815,293.1877 Q1034.0617,291.5358 1034.0617,288.4147 Q1034.0617,285.2854 1035.3815,283.6335 Q1036.7014,281.9816 1039.2082,281.9816 Q1039.9138,281.9816 1040.5612,282.1311 Q1041.2087,282.2805 1041.7731,282.5793 L1041.7731,285.302 Q1041.1423,284.7209 1040.5488,284.4511 Q1039.9553,284.1813 1039.3244,284.1813 Q1037.9797,284.1813 1037.2949,285.248 Q1036.6101,286.3146 1036.6101,288.4147 Q1036.6101,290.5065 1037.2949,291.5732 Q1037.9797,292.6398 1039.3244,292.6398 Q1039.9553,292.6398 1040.5488,292.3701 Q1041.1423,292.1003 1041.7731,291.5192 Z " fill="#000000"/><text fill="#000000" font-family="sans-serif" font-size="12" font-style="italic" lengthAdjust="spacing" textLength="38.4727" x="1105.9563" y="284.8898">&#171;DTO&#187;</text><text fill="#000000" font-family="sans-serif" font-size="14" lengthAdjust="spacing" textLength="144.7852" x="1052.8" y="300.9562">UpdateStaffStatusDto</text><line style="stroke:#181818;stroke-width:0.5;" x1="1024.8" x2="1199.5852" y1="308.9094" y2="308.9094"/><line style="stroke:#181818;stroke-width:0.5;" x1="1024.8" x2="1199.5852" y1="316.9094" y2="316.9094"/></g><!--class AddQualificationDto--><g class="entity" data-entity="AddQualificationDto" data-source-line="55" data-uid="ent0011" id="entity_AddQualificationDto"><rect fill="#F1F1F1" height="56.6211" rx="2.5" ry="2.5" style="stroke:#181818;stroke-width:0.5;" width="169.6621" x="1235.36" y="268.2883"/><ellipse cx="1250.36" cy="288.5988" fill="#C2C2C2" rx="11" ry="11" style="stroke:#181818;stroke-width:1;"/><path d="M1253.3331,294.2419 Q1252.7521,294.5407 1252.1129,294.6901 Q1251.4738,294.8396 1250.7682,294.8396 Q1248.2614,294.8396 1246.9415,293.1877 Q1245.6217,291.5358 1245.6217,288.4147 Q1245.6217,285.2854 1246.9415,283.6335 Q1248.2614,281.9816 1250.7682,281.9816 Q1251.4738,281.9816 1252.1212,282.1311 Q1252.7687,282.2805 1253.3331,282.5793 L1253.3331,285.302 Q1252.7023,284.7209 1252.1088,284.4511 Q1251.5153,284.1813 1250.8844,284.1813 Q1249.5397,284.1813 1248.8549,285.248 Q1248.1701,286.3146 1248.1701,288.4147 Q1248.1701,290.5065 1248.8549,291.5732 Q1249.5397,292.6398 1250.8844,292.6398 Q1251.5153,292.6398 1252.1088,292.3701 Q1252.7023,292.1003 1253.3331,291.5192 Z " fill="#000000"/><text fill="#000000" font-family="sans-serif" font-size="12" font-style="italic" lengthAdjust="spacing" textLength="38.4727" x="1313.9547" y="284.8898">&#171;DTO&#187;</text><text fill="#000000" font-family="sans-serif" font-size="14" lengthAdjust="spacing" textLength="137.6621" x="1264.36" y="300.9562">AddQualificationDto</text><line style="stroke:#181818;stroke-width:0.5;" x1="1236.36" x2="1404.0221" y1="308.9094" y2="308.9094"/><line style="stroke:#181818;stroke-width:0.5;" x1="1236.36" x2="1404.0221" y1="316.9094" y2="316.9094"/></g><!--class StaffMemberDto--><g class="entity" data-entity="StaffMemberDto" data-source-line="56" data-uid="ent0012" id="entity_StaffMemberDto"><rect fill="#F1F1F1" height="56.6211" rx="2.5" ry="2.5" style="stroke:#181818;stroke-width:0.5;" width="142.3936" x="845.99" y="268.2883"/><ellipse cx="860.99" cy="288.5988" fill="#C2C2C2" rx="11" ry="11" style="stroke:#181818;stroke-width:1;"/><path d="M863.9631,294.2419 Q863.3821,294.5407 862.7429,294.6901 Q862.1038,294.8396 861.3982,294.8396 Q858.8914,294.8396 857.5715,293.1877 Q856.2517,291.5358 856.2517,288.4147 Q856.2517,285.2854 857.5715,283.6335 Q858.8914,281.9816 861.3982,281.9816 Q862.1038,281.9816 862.7512,282.1311 Q863.3987,282.2805 863.9631,282.5793 L863.9631,285.302 Q863.3323,284.7209 862.7388,284.4511 Q862.1453,284.1813 861.5144,284.1813 Q860.1697,284.1813 859.4849,285.248 Q858.8001,286.3146 858.8001,288.4147 Q858.8001,290.5065 859.4849,291.5732 Q860.1697,292.6398 861.5144,292.6398 Q862.1453,292.6398 862.7388,292.3701 Q863.3323,292.1003 863.9631,291.5192 Z " fill="#000000"/><text fill="#000000" font-family="sans-serif" font-size="12" font-style="italic" lengthAdjust="spacing" textLength="38.4727" x="910.9504" y="284.8898">&#171;DTO&#187;</text><text fill="#000000" font-family="sans-serif" font-size="14" lengthAdjust="spacing" textLength="110.3936" x="874.99" y="300.9562">StaffMemberDto</text><line style="stroke:#181818;stroke-width:0.5;" x1="846.99" x2="987.3836" y1="308.9094" y2="308.9094"/><line style="stroke:#181818;stroke-width:0.5;" x1="846.99" x2="987.3836" y1="316.9094" y2="316.9094"/></g><!--link StaffMembersController to IStaffMemberService--><g class="link" data-entity-1="StaffMembersController" data-entity-2="IStaffMemberService" data-source-line="58" data-uid="lnk13" id="link_StaffMembersController_IStaffMemberService"><path codeLine="58" d="M1117.74,113.7883 C1129.17,113.7883 1134.69,113.7883 1146.19,113.7883" fill="none" id="StaffMembersController-to-IStaffMemberService" style="stroke:#181818;stroke-width:1;stroke-dasharray:7,7;"/><polygon fill="#181818" points="1152.19,113.7883,1143.19,109.7883,1147.19,113.7883,1143.19,117.7883,1152.19,113.7883" style="stroke:#181818;stroke-width:1;"/><text fill="#000000" font-family="sans-serif" font-size="13" lengthAdjust="spacing" textLength="28.5645" x="1120.96" y="127.3566">uses</text></g><!--reverse link IStaffMemberService to StaffMemberService--><g class="link" data-entity-1="IStaffMemberService" data-entity-2="StaffMemberService" data-source-line="59" data-uid="lnk15" id="link_IStaffMemberService_StaffMemberService"><path codeLine="59" d="M1176.62,202.0183 C1176.62,202.0183 283.62,198.7883 283.62,198.7883 C283.62,198.7883 283.62,239.1783 283.62,268.0483" fill="none" id="IStaffMemberService-backto-StaffMemberService" style="stroke:#181818;stroke-width:1;stroke-dasharray:7,7;"/><polygon fill="none" points="1176.62,184.0183,1170.62,202.0183,1182.62,202.0183,1176.62,184.0183" style="stroke:#181818;stroke-width:1;"/></g><!--link StaffMemberService to IStaffMemberRepository--><g class="link" data-entity-1="StaffMemberService" data-entity-2="IStaffMemberRepository" data-source-line="60" data-uid="lnk16" id="link_StaffMemberService_IStaffMemberRepository"><path codeLine="60" d="M393.99,296.7883 C405.08,296.7883 410.79,296.7883 422.83,296.7883" fill="none" id="StaffMemberService-to-IStaffMemberRepository" style="stroke:#181818;stroke-width:1;stroke-dasharray:7,7;"/><polygon fill="#181818" points="428.83,296.7883,419.83,292.7883,423.83,296.7883,419.83,300.7883,428.83,296.7883" style="stroke:#181818;stroke-width:1;"/><text fill="#000000" font-family="sans-serif" font-size="13" lengthAdjust="spacing" textLength="28.5645" x="397.41" y="310.3566">uses</text></g><!--link StaffMemberService to IQualificationRepository--><g class="link" data-entity-1="StaffMemberService" data-entity-2="IQualificationRepository" data-source-line="61" data-uid="lnk17" id="link_StaffMemberService_IQualificationRepository"><path codeLine="61" d="M338.76,268.0983 C338.76,244.1483 338.76,213.7883 338.76,213.7883 C338.76,213.7883 1518.7,213.7883 1518.7,213.7883 C1518.7,213.7883 1518.7,231.5083 1518.7,253.5483" fill="none" id="StaffMemberService-to-IQualificationRepository" style="stroke:#181818;stroke-width:1;stroke-dasharray:7,7;"/><polygon fill="#181818" points="1518.7,259.5483,1522.7,250.5483,1518.7,254.5483,1514.7,250.5483,1518.7,259.5483" style="stroke:#181818;stroke-width:1;"/><text fill="#000000" font-family="sans-serif" font-size="13" lengthAdjust="spacing" textLength="80.5264" x="925.46" y="210.3566">uses ' Added</text></g><!--link IStaffMemberRepository to StaffMember--><g class="link" data-entity-1="IStaffMemberRepository" data-entity-2="StaffMember" data-source-line="62" data-uid="lnk18" id="link_IStaffMemberRepository_StaffMember"><path codeLine="62" d="M539.65,349.9883 C539.65,368.0983 539.65,382.9183 539.65,403.2683" fill="none" id="IStaffMemberRepository-to-StaffMember" style="stroke:#181818;stroke-width:1;stroke-dasharray:7,7;"/><polygon fill="#181818" points="539.65,409.2683,543.65,400.2683,539.65,404.2683,535.65,400.2683,539.65,409.2683" style="stroke:#181818;stroke-width:1;"/><text fill="#000000" font-family="sans-serif" font-size="13" lengthAdjust="spacing" textLength="56.5386" x="482.65" y="376.1966">manages</text></g><!--link StaffMemberService to StaffMember--><g class="link" data-entity-1="StaffMemberService" data-entity-2="StaffMember" data-source-line="63" data-uid="lnk19" id="link_StaffMemberService_StaffMember"><path codeLine="63" d="M337.15,324.9883 C337.15,346.9483 337.15,372.6783 337.15,403.3383" fill="none" id="StaffMemberService-to-StaffMember" style="stroke:#181818;stroke-width:1;stroke-dasharray:7,7;"/><polygon fill="#181818" points="337.15,409.3383,341.15,400.3383,337.15,404.3383,333.15,400.3383,337.15,409.3383" style="stroke:#181818;stroke-width:1;"/><text fill="#000000" font-family="sans-serif" font-size="13" lengthAdjust="spacing" textLength="90.9873" x="246.15" y="363.7266">creates &amp; uses</text></g><!--link StaffMember to Qualification--><g class="link" data-entity-1="StaffMember" data-entity-2="Qualification" data-source-line="64" data-uid="lnk20" id="link_StaffMember_Qualification"><path codeLine="64" d="M465.19,598.6683 C465.19,620.1983 465.19,635.4783 465.19,651.6883" fill="none" id="StaffMember-to-Qualification" style="stroke:#181818;stroke-width:1;stroke-dasharray:7,7;"/><polygon fill="#181818" points="465.19,657.6883,469.19,648.6883,465.19,652.6883,461.19,648.6883,465.19,657.6883" style="stroke:#181818;stroke-width:1;"/><text fill="#000000" font-family="sans-serif" font-size="13" lengthAdjust="spacing" textLength="65.7427" x="399.19" y="624.7466">references</text></g><!--link StaffMembersController to CreateStaffMemberDto--><g class="link" data-entity-1="StaffMembersController" data-entity-2="CreateStaffMemberDto" data-source-line="65" data-uid="lnk21" id="link_StaffMembersController_CreateStaffMemberDto"><path codeLine="65" d="M716.54,113.7883 C474.64,113.7883 100.19,113.7883 100.19,113.7883 C100.19,113.7883 100.19,210.6183 100.19,262.0283" fill="none" id="StaffMembersController-to-CreateStaffMemberDto" style="stroke:#181818;stroke-width:1;stroke-dasharray:7,7;"/><polygon fill="#181818" points="100.19,268.0283,104.19,259.0283,100.19,263.0283,96.19,259.0283,100.19,268.0283" style="stroke:#181818;stroke-width:1;"/><text fill="#000000" font-family="sans-serif" font-size="13" lengthAdjust="spacing" textLength="50.8193" x="280.24" y="110.3566">receives</text></g><!--link StaffMembersController to UpdateStaffStatusDto--><g class="link" data-entity-1="StaffMembersController" data-entity-2="UpdateStaffStatusDto" data-source-line="66" data-uid="lnk22" id="link_StaffMembersController_UpdateStaffStatusDto"><path codeLine="66" d="M1086.23,183.8283 C1086.23,213.0183 1086.23,239.3183 1086.23,261.8483" fill="none" id="StaffMembersController-to-UpdateStaffStatusDto" style="stroke:#181818;stroke-width:1;stroke-dasharray:7,7;"/><polygon fill="#181818" points="1086.23,267.8483,1090.23,258.8483,1086.23,262.8483,1082.23,258.8483,1086.23,267.8483" style="stroke:#181818;stroke-width:1;"/><text fill="#000000" font-family="sans-serif" font-size="13" lengthAdjust="spacing" textLength="50.8193" x="1035.23" y="222.4066">receives</text></g><!--link StaffMembersController to AddQualificationDto--><g class="link" data-entity-1="StaffMembersController" data-entity-2="AddQualificationDto" data-source-line="67" data-uid="lnk23" id="link_StaffMembersController_AddQualificationDto"><path codeLine="67" d="M1055.01,183.7583 C1055.01,207.7883 1055.01,228.7883 1055.01,228.7883 C1055.01,228.7883 1320.19,228.7883 1320.19,228.7883 C1320.19,228.7883 1320.19,243.3583 1320.19,261.8383" fill="none" id="StaffMembersController-to-AddQualificationDto" style="stroke:#181818;stroke-width:1;stroke-dasharray:7,7;"/><polygon fill="#181818" points="1320.19,267.8383,1324.19,258.8383,1320.19,262.8383,1316.19,258.8383,1320.19,267.8383" style="stroke:#181818;stroke-width:1;"/><text fill="#000000" font-family="sans-serif" font-size="13" lengthAdjust="spacing" textLength="50.8193" x="1133.61" y="225.3566">receives</text></g><!--link StaffMembersController to StaffMemberDto--><g class="link" data-entity-1="StaffMembersController" data-entity-2="StaffMemberDto" data-source-line="68" data-uid="lnk24" id="link_StaffMembersController_StaffMemberDto"><path codeLine="68" d="M917.19,183.8283 C917.19,213.0183 917.19,239.3183 917.19,261.8483" fill="none" id="StaffMembersController-to-StaffMemberDto" style="stroke:#181818;stroke-width:1;stroke-dasharray:7,7;"/><polygon fill="#181818" points="917.19,267.8483,921.19,258.8483,917.19,262.8483,913.19,258.8483,917.19,267.8483" style="stroke:#181818;stroke-width:1;"/><text fill="#000000" font-family="sans-serif" font-size="13" lengthAdjust="spacing" textLength="45.5063" x="871.19" y="222.4066">returns</text></g><!--SRC=[dLNBRjim4BphA_RKs6WiD3aQXWBLBWeVdA1syW4qjPA9IAHAKWxSnx-N4lsW9CfDUwEuCzpPuN9r0oyRk0_lmxixcC0y9qh1Wf5CaYBGJEVOYgy89nd2HfCqXHKMMvIgGmhKA-CbCKl86KTzA164r3lX10h11Tr9KI1eMQ4JKJkIY3V6CqX9hjm8hRF4MakshJGkgU0RzWFXKn0q4QlfA6akk9OYpr72R7RvY2Bu6G1yXBb4ej5XZ18jnbDu9kfr5bFD15-Zgd8TDV2NCcd3pL9NQiIIMxXAZ9FaMqLobZ9AwjZV6Miin1xx92eI76PzHHtdkUl0A0n3F_vt432kKQQ48YpTeb3kcTcRpOwhORjYTU3KzSo9BRJek6QiieHEzMtIWz-o2zErm4lrUFSFREkX9JZcBR_mga19jZbsgsoyx3MVnyOXnzTO2iMqa0U3ldoSVJTUM3tgmZdgEad-V5Wcfo8zvVrNRRQmcpez9f0A2TzTJo714dc2d1xSkbg-NwtiA7nkRiHASk-cTSn3ewJliJbq5DyAINUcQeYpJ69cUkrit0efuSACetB7w6DLKvhzpSvCeaTIe6thIahasdPeizDAhgQmN2D9ddXkj9hvqJoZji3QtibaOWztnabjSkyHZ3Y-sTNOFnrQN-F1UT21dPkmjJzeqGdTUzIcfGrfyVnaC1RYp3shkm_frj1736G81kPr67c7qXGgXIhmHCAg37zvILvqDFG2hsI8XhlRik3uM8A1iqDpXDk-KoYQ7wa_NGzCcwjIyA4diG6txtqA4bCqZKtRq9R9XkMz_vfCaUslKxrzyJwghr_Un_GerPNaAlW3]--></g></svg>