<svg xmlns="http://www.w3.org/2000/svg" xmlns:xlink="http://www.w3.org/1999/xlink" contentStyleType="text/css" data-diagram-type="CLASS" height="522px" preserveAspectRatio="none" style="width:1320px;height:522px;background:#FFFFFF;" version="1.1" viewBox="0 0 1320 522" width="1320px" zoomAndPan="magnify"><title>US 2.2.11 - Manage Staff Members Class Diagram</title><defs/><g><g class="title" data-source-line="2"><text fill="#000000" font-family="sans-serif" font-size="14" font-weight="bold" lengthAdjust="spacing" textLength="358.8457" x="473.941" y="23.5352">US 2.2.11 - Manage Staff Members Class Diagram</text></g><!--class StaffMembersController--><g class="entity" data-entity="StaffMembersController" data-source-line="9" data-uid="ent0002" id="entity_StaffMembersController"><rect fill="#F1F1F1" height="106.0859" rx="2.5" ry="2.5" style="stroke:#181818;stroke-width:0.5;" width="400.5137" x="472.44" y="44.4883"/><ellipse cx="587.7623" cy="64.7988" fill="#C2C2C2" rx="11" ry="11" style="stroke:#181818;stroke-width:1;"/><path d="M590.7354,70.4419 Q590.1544,70.7407 589.5152,70.8901 Q588.876,71.0396 588.1705,71.0396 Q585.6636,71.0396 584.3438,69.3877 Q583.024,67.7358 583.024,64.6147 Q583.024,61.4854 584.3438,59.8335 Q585.6636,58.1816 588.1705,58.1816 Q588.876,58.1816 589.5235,58.3311 Q590.171,58.4805 590.7354,58.7793 L590.7354,61.502 Q590.1046,60.9209 589.511,60.6511 Q588.9175,60.3813 588.2867,60.3813 Q586.942,60.3813 586.2571,61.448 Q585.5723,62.5146 585.5723,64.6147 Q585.5723,66.7065 586.2571,67.7732 Q586.942,68.8398 588.2867,68.8398 Q588.9175,68.8398 589.511,68.5701 Q590.1046,68.3003 590.7354,67.7192 Z " fill="#000000"/><text fill="#000000" font-family="sans-serif" font-size="12" font-style="italic" lengthAdjust="spacing" textLength="70.998" x="653.4478" y="61.0898">&#171;Controller&#187;</text><text fill="#000000" font-family="sans-serif" font-size="14" lengthAdjust="spacing" textLength="161.3691" x="608.2623" y="77.1563">StaffMembersController</text><line style="stroke:#181818;stroke-width:0.5;" x1="473.44" x2="871.9537" y1="85.1094" y2="85.1094"/><line style="stroke:#181818;stroke-width:0.5;" x1="473.44" x2="871.9537" y1="93.1094" y2="93.1094"/><text fill="#000000" font-family="sans-serif" font-size="14" lengthAdjust="spacing" textLength="321.1182" x="478.44" y="110.6445">+CreateStaffMember(dto): Task&lt;ActionResult&gt;</text><text fill="#000000" font-family="sans-serif" font-size="14" lengthAdjust="spacing" textLength="388.5137" x="478.44" y="127.1328">+UpdateStaffMemberStatus(id, dto): Task&lt;ActionResult&gt;</text><text fill="#000000" font-family="sans-serif" font-size="14" lengthAdjust="spacing" textLength="315.8203" x="478.44" y="143.6211">+GetAllStaffMembers(...): Task&lt;ActionResult&gt;</text></g><!--class IStaffMemberService--><g class="entity" data-entity="IStaffMemberService" data-source-line="15" data-uid="ent0003" id="entity_IStaffMemberService"><rect fill="#F1F1F1" height="106.0859" rx="2.5" ry="2.5" style="stroke:#181818;stroke-width:0.5;" width="406.0576" x="907.67" y="44.4883"/><ellipse cx="1037.7305" cy="64.7988" fill="#B1B1B1" rx="11" ry="11" style="stroke:#181818;stroke-width:1;"/><path d="M1033.6583,60.564 L1033.6583,58.4058 L1041.0377,58.4058 L1041.0377,60.564 L1038.5723,60.564 L1038.5723,68.6406 L1041.0377,68.6406 L1041.0377,70.7988 L1033.6583,70.7988 L1033.6583,68.6406 L1036.1236,68.6406 L1036.1236,60.564 Z " fill="#000000"/><text fill="#000000" font-family="sans-serif" font-size="12" font-style="italic" lengthAdjust="spacing" textLength="53.1445" x="1100.3765" y="61.0898">&#171;Service&#187;</text><text fill="#000000" font-family="sans-serif" font-size="14" font-style="italic" lengthAdjust="spacing" textLength="137.4365" x="1058.2305" y="77.1563">IStaffMemberService</text><line style="stroke:#181818;stroke-width:0.5;" x1="908.67" x2="1312.7276" y1="85.1094" y2="85.1094"/><line style="stroke:#181818;stroke-width:0.5;" x1="908.67" x2="1312.7276" y1="93.1094" y2="93.1094"/><text fill="#000000" font-family="sans-serif" font-size="14" lengthAdjust="spacing" textLength="386.3193" x="913.67" y="110.6445">+CreateStaffMemberAsync(dto): Task&lt;StaffMemberDto&gt;</text><text fill="#000000" font-family="sans-serif" font-size="14" lengthAdjust="spacing" textLength="373.5498" x="913.67" y="127.1328">+UpdateStatusAsync(id, dto): Task&lt;StaffMemberDto?&gt;</text><text fill="#000000" font-family="sans-serif" font-size="14" lengthAdjust="spacing" textLength="394.0576" x="913.67" y="143.6211">+GetAllAsync(...): Task&lt;IEnumerable&lt;StaffMemberDto&gt;&gt;</text></g><!--class StaffMemberService--><g class="entity" data-entity="StaffMemberService" data-source-line="21" data-uid="ent0004" id="entity_StaffMemberService"><rect fill="#F1F1F1" height="56.6211" rx="2.5" ry="2.5" style="stroke:#181818;stroke-width:0.5;" width="165.4033" x="7" y="235.2983"/><ellipse cx="22" cy="255.6088" fill="#C2C2C2" rx="11" ry="11" style="stroke:#181818;stroke-width:1;"/><path d="M24.9731,261.2519 Q24.3921,261.5507 23.7529,261.7001 Q23.1138,261.8496 22.4082,261.8496 Q19.9014,261.8496 18.5815,260.1977 Q17.2617,258.5458 17.2617,255.4247 Q17.2617,252.2954 18.5815,250.6435 Q19.9014,248.9916 22.4082,248.9916 Q23.1138,248.9916 23.7612,249.1411 Q24.4087,249.2905 24.9731,249.5893 L24.9731,252.312 Q24.3423,251.7309 23.7488,251.4611 Q23.1553,251.1913 22.5244,251.1913 Q21.1797,251.1913 20.4949,252.258 Q19.8101,253.3246 19.8101,255.4247 Q19.8101,257.5165 20.4949,258.5832 Q21.1797,259.6498 22.5244,259.6498 Q23.1553,259.6498 23.7488,259.3801 Q24.3423,259.1103 24.9731,258.5292 Z " fill="#000000"/><text fill="#000000" font-family="sans-serif" font-size="12" font-style="italic" lengthAdjust="spacing" textLength="53.1445" x="76.1294" y="251.8998">&#171;Service&#187;</text><text fill="#000000" font-family="sans-serif" font-size="14" lengthAdjust="spacing" textLength="133.4033" x="36" y="267.9663">StaffMemberService</text><line style="stroke:#181818;stroke-width:0.5;" x1="8" x2="171.4033" y1="275.9194" y2="275.9194"/><line style="stroke:#181818;stroke-width:0.5;" x1="8" x2="171.4033" y1="283.9194" y2="283.9194"/></g><!--class IStaffMemberRepository--><g class="entity" data-entity="IStaffMemberRepository" data-source-line="23" data-uid="ent0005" id="entity_IStaffMemberRepository"><rect fill="#F1F1F1" height="106.0859" rx="2.5" ry="2.5" style="stroke:#181818;stroke-width:0.5;" width="336.8779" x="207.26" y="210.5683"/><ellipse cx="290.3337" cy="230.8788" fill="#B1B1B1" rx="11" ry="11" style="stroke:#181818;stroke-width:1;"/><path d="M286.2615,226.644 L286.2615,224.4858 L293.6409,224.4858 L293.6409,226.644 L291.1755,226.644 L291.1755,234.7206 L293.6409,234.7206 L293.6409,236.8788 L286.2615,236.8788 L286.2615,234.7206 L288.7268,234.7206 L288.7268,226.644 Z " fill="#000000"/><text fill="#000000" font-family="sans-serif" font-size="12" font-style="italic" lengthAdjust="spacing" textLength="74.3965" x="354.7507" y="227.1698">&#171;Repository&#187;</text><text fill="#000000" font-family="sans-serif" font-size="14" font-style="italic" lengthAdjust="spacing" textLength="162.2305" x="310.8337" y="243.2363">IStaffMemberRepository</text><line style="stroke:#181818;stroke-width:0.5;" x1="208.26" x2="543.1379" y1="251.1894" y2="251.1894"/><line style="stroke:#181818;stroke-width:0.5;" x1="208.26" x2="543.1379" y1="259.1894" y2="259.1894"/><text fill="#000000" font-family="sans-serif" font-size="14" lengthAdjust="spacing" textLength="320.3184" x="213.26" y="276.7245">+addAsync(staffMember): Task&lt;StaffMember&gt;</text><text fill="#000000" font-family="sans-serif" font-size="14" lengthAdjust="spacing" textLength="282.9668" x="213.26" y="293.2128">+findByIdAsync(id): Task&lt;StaffMember?&gt;</text><text fill="#000000" font-family="sans-serif" font-size="14" lengthAdjust="spacing" textLength="324.8779" x="213.26" y="309.7011">+saveAsync(staffMember): Task&lt;StaffMember&gt;</text></g><!--class StaffMember--><g class="entity" data-entity="StaffMember" data-source-line="29" data-uid="ent0006" id="entity_StaffMember"><rect fill="#F1F1F1" height="139.0625" rx="2.5" ry="2.5" style="stroke:#181818;stroke-width:0.5;" width="190.7393" x="137.33" y="376.6583"/><ellipse cx="185.414" cy="396.9688" fill="#9B9B9B" rx="11" ry="11" style="stroke:#181818;stroke-width:1;"/><path d="M184.9999,392.7838 L184.9999,400.7608 L185.664,400.7608 Q187.1083,400.7608 187.7226,399.8519 Q188.3368,398.9429 188.3368,396.7598 Q188.3368,394.5933 187.7226,393.6886 Q187.1083,392.7838 185.664,392.7838 Z M182.5512,390.5758 L185.1742,390.5758 Q188.2123,390.5758 189.5488,392.0242 Q190.8852,393.4727 190.8852,396.7598 Q190.8852,400.0553 189.5488,401.512 Q188.2123,402.9688 185.1742,402.9688 L182.5512,402.9688 Z " fill="#000000"/><text fill="#000000" font-family="sans-serif" font-size="12" font-style="italic" lengthAdjust="spacing" textLength="57.6797" x="220.1098" y="393.2598">&#171;Domain&#187;</text><text fill="#000000" font-family="sans-serif" font-size="14" lengthAdjust="spacing" textLength="86.0713" x="205.914" y="409.3263">StaffMember</text><line style="stroke:#181818;stroke-width:0.5;" x1="138.33" x2="327.0693" y1="417.2794" y2="417.2794"/><text fill="#000000" font-family="sans-serif" font-size="14" lengthAdjust="spacing" textLength="168.5264" x="143.33" y="434.8145">+MecanographicNumber</text><text fill="#000000" font-family="sans-serif" font-size="14" lengthAdjust="spacing" textLength="85.8662" x="143.33" y="451.3028">+ShortName</text><text fill="#000000" font-family="sans-serif" font-size="14" lengthAdjust="spacing" textLength="104.2549" x="143.33" y="467.7911">+CurrentStatus</text><line style="stroke:#181818;stroke-width:1;" x1="138.33" x2="327.0693" y1="474.7442" y2="474.7442"/><text fill="#000000" font-family="sans-serif" font-size="14" lengthAdjust="spacing" textLength="119.5947" x="143.33" y="492.2794">+StaffMember(...)</text><text fill="#000000" font-family="sans-serif" font-size="14" lengthAdjust="spacing" textLength="178.7393" x="143.33" y="508.7677">+UpdateStatus(newStatus)</text></g><!--class CreateStaffMemberDto--><g class="entity" data-entity="CreateStaffMemberDto" data-source-line="38" data-uid="ent0007" id="entity_CreateStaffMemberDto"><rect fill="#F1F1F1" height="56.6211" rx="2.5" ry="2.5" style="stroke:#181818;stroke-width:0.5;" width="186.376" x="579.51" y="235.2983"/><ellipse cx="594.51" cy="255.6088" fill="#C2C2C2" rx="11" ry="11" style="stroke:#181818;stroke-width:1;"/><path d="M597.4831,261.2519 Q596.9021,261.5507 596.2629,261.7001 Q595.6238,261.8496 594.9182,261.8496 Q592.4114,261.8496 591.0915,260.1977 Q589.7717,258.5458 589.7717,255.4247 Q589.7717,252.2954 591.0915,250.6435 Q592.4114,248.9916 594.9182,248.9916 Q595.6238,248.9916 596.2712,249.1411 Q596.9187,249.2905 597.4831,249.5893 L597.4831,252.312 Q596.8523,251.7309 596.2588,251.4611 Q595.6653,251.1913 595.0344,251.1913 Q593.6897,251.1913 593.0049,252.258 Q592.3201,253.3246 592.3201,255.4247 Q592.3201,257.5165 593.0049,258.5832 Q593.6897,259.6498 595.0344,259.6498 Q595.6653,259.6498 596.2588,259.3801 Q596.8523,259.1103 597.4831,258.5292 Z " fill="#000000"/><text fill="#000000" font-family="sans-serif" font-size="12" font-style="italic" lengthAdjust="spacing" textLength="38.4727" x="666.4617" y="251.8998">&#171;DTO&#187;</text><text fill="#000000" font-family="sans-serif" font-size="14" lengthAdjust="spacing" textLength="154.376" x="608.51" y="267.9663">CreateStaffMemberDto</text><line style="stroke:#181818;stroke-width:0.5;" x1="580.51" x2="764.886" y1="275.9194" y2="275.9194"/><line style="stroke:#181818;stroke-width:0.5;" x1="580.51" x2="764.886" y1="283.9194" y2="283.9194"/></g><!--class UpdateStaffStatusDto--><g class="entity" data-entity="UpdateStaffStatusDto" data-source-line="39" data-uid="ent0008" id="entity_UpdateStaffStatusDto"><rect fill="#F1F1F1" height="56.6211" rx="2.5" ry="2.5" style="stroke:#181818;stroke-width:0.5;" width="176.7852" x="801.31" y="235.2983"/><ellipse cx="816.31" cy="255.6088" fill="#C2C2C2" rx="11" ry="11" style="stroke:#181818;stroke-width:1;"/><path d="M819.2831,261.2519 Q818.7021,261.5507 818.0629,261.7001 Q817.4238,261.8496 816.7182,261.8496 Q814.2114,261.8496 812.8915,260.1977 Q811.5717,258.5458 811.5717,255.4247 Q811.5717,252.2954 812.8915,250.6435 Q814.2114,248.9916 816.7182,248.9916 Q817.4238,248.9916 818.0712,249.1411 Q818.7187,249.2905 819.2831,249.5893 L819.2831,252.312 Q818.6523,251.7309 818.0588,251.4611 Q817.4653,251.1913 816.8344,251.1913 Q815.4897,251.1913 814.8049,252.258 Q814.1201,253.3246 814.1201,255.4247 Q814.1201,257.5165 814.8049,258.5832 Q815.4897,259.6498 816.8344,259.6498 Q817.4653,259.6498 818.0588,259.3801 Q818.6523,259.1103 819.2831,258.5292 Z " fill="#000000"/><text fill="#000000" font-family="sans-serif" font-size="12" font-style="italic" lengthAdjust="spacing" textLength="38.4727" x="883.4663" y="251.8998">&#171;DTO&#187;</text><text fill="#000000" font-family="sans-serif" font-size="14" lengthAdjust="spacing" textLength="144.7852" x="830.31" y="267.9663">UpdateStaffStatusDto</text><line style="stroke:#181818;stroke-width:0.5;" x1="802.31" x2="977.0952" y1="275.9194" y2="275.9194"/><line style="stroke:#181818;stroke-width:0.5;" x1="802.31" x2="977.0952" y1="283.9194" y2="283.9194"/></g><!--link StaffMembersController to IStaffMemberService--><g class="link" data-entity-1="StaffMembersController" data-entity-2="IStaffMemberService" data-source-line="41" data-uid="lnk9" id="link_StaffMembersController_IStaffMemberService"><path codeLine="41" d="M873.43,97.7183 C884.69,97.7183 890.01,97.7183 901.27,97.7183" fill="none" id="StaffMembersController-to-IStaffMemberService" style="stroke:#181818;stroke-width:1;stroke-dasharray:7,7;"/><polygon fill="#181818" points="907.27,97.7183,898.27,93.7183,902.27,97.7183,898.27,101.7183,907.27,97.7183" style="stroke:#181818;stroke-width:1;"/><text fill="#000000" font-family="sans-serif" font-size="13" lengthAdjust="spacing" textLength="28.5645" x="876.35" y="111.2866">uses</text></g><!--reverse link IStaffMemberService to StaffMemberService--><g class="link" data-entity-1="IStaffMemberService" data-entity-2="StaffMemberService" data-source-line="42" data-uid="lnk11" id="link_IStaffMemberService_StaffMemberService"><path codeLine="42" d="M942.88,168.6883 C942.88,184.9883 942.88,180.7183 942.88,180.7183 C942.88,180.7183 89.7,180.7183 89.7,180.7183 C89.7,180.7183 89.7,211.1083 89.7,235.0883" fill="none" id="IStaffMemberService-backto-StaffMemberService" style="stroke:#181818;stroke-width:1;stroke-dasharray:7,7;"/><polygon fill="none" points="942.88,150.6883,936.88,168.6883,948.88,168.6883,942.88,150.6883" style="stroke:#181818;stroke-width:1;"/></g><!--link StaffMemberService to IStaffMemberRepository--><g class="link" data-entity-1="StaffMemberService" data-entity-2="IStaffMemberRepository" data-source-line="43" data-uid="lnk12" id="link_StaffMemberService_IStaffMemberRepository"><path codeLine="43" d="M172.81,263.7183 C183.69,263.7183 189.14,263.7183 200.83,263.7183" fill="none" id="StaffMemberService-to-IStaffMemberRepository" style="stroke:#181818;stroke-width:1;stroke-dasharray:7,7;"/><polygon fill="#181818" points="206.83,263.7183,197.83,259.7183,201.83,263.7183,197.83,267.7183,206.83,263.7183" style="stroke:#181818;stroke-width:1;"/><text fill="#000000" font-family="sans-serif" font-size="13" lengthAdjust="spacing" textLength="28.5645" x="175.82" y="277.2866">uses</text></g><!--link IStaffMemberRepository to StaffMember--><g class="link" data-entity-1="IStaffMemberRepository" data-entity-2="StaffMember" data-source-line="44" data-uid="lnk13" id="link_IStaffMemberRepository_StaffMember"><path codeLine="44" d="M267.67,316.9083 C267.67,335.4383 267.67,350.4983 267.67,370.1683" fill="none" id="IStaffMemberRepository-to-StaffMember" style="stroke:#181818;stroke-width:1;stroke-dasharray:7,7;"/><polygon fill="#181818" points="267.67,376.1683,271.67,367.1683,267.67,371.1683,263.67,367.1683,267.67,376.1683" style="stroke:#181818;stroke-width:1;"/><text fill="#000000" font-family="sans-serif" font-size="13" lengthAdjust="spacing" textLength="56.5386" x="210.67" y="343.1066">manages</text></g><!--link StaffMemberService to StaffMember--><g class="link" data-entity-1="StaffMemberService" data-entity-2="StaffMember" data-source-line="45" data-uid="lnk14" id="link_StaffMemberService_StaffMember"><path codeLine="45" d="M154.87,292.1383 C154.87,314.7083 154.87,341.1883 154.87,370.5083" fill="none" id="StaffMemberService-to-StaffMember" style="stroke:#181818;stroke-width:1;stroke-dasharray:7,7;"/><polygon fill="#181818" points="154.87,376.5083,158.87,367.5083,154.87,371.5083,150.87,367.5083,154.87,376.5083" style="stroke:#181818;stroke-width:1;"/><text fill="#000000" font-family="sans-serif" font-size="13" lengthAdjust="spacing" textLength="90.9873" x="63.87" y="330.8966">creates &amp; uses</text></g><!--link StaffMembersController to CreateStaffMemberDto--><g class="link" data-entity-1="StaffMembersController" data-entity-2="CreateStaffMemberDto" data-source-line="46" data-uid="lnk15" id="link_StaffMembersController_CreateStaffMemberDto"><path codeLine="46" d="M672.7,150.9883 C672.7,178.8683 672.7,205.8683 672.7,228.9083" fill="none" id="StaffMembersController-to-CreateStaffMemberDto" style="stroke:#181818;stroke-width:1;stroke-dasharray:7,7;"/><polygon fill="#181818" points="672.7,234.9083,676.7,225.9083,672.7,229.9083,668.7,225.9083,672.7,234.9083" style="stroke:#181818;stroke-width:1;"/><text fill="#000000" font-family="sans-serif" font-size="13" lengthAdjust="spacing" textLength="50.8193" x="621.7" y="189.5166">receives</text></g><!--link StaffMembersController to UpdateStaffStatusDto--><g class="link" data-entity-1="StaffMembersController" data-entity-2="UpdateStaffStatusDto" data-source-line="47" data-uid="lnk16" id="link_StaffMembersController_UpdateStaffStatusDto"><path codeLine="47" d="M837.13,150.9883 C837.13,178.8683 837.13,205.8683 837.13,228.9083" fill="none" id="StaffMembersController-to-UpdateStaffStatusDto" style="stroke:#181818;stroke-width:1;stroke-dasharray:7,7;"/><polygon fill="#181818" points="837.13,234.9083,841.13,225.9083,837.13,229.9083,833.13,225.9083,837.13,234.9083" style="stroke:#181818;stroke-width:1;"/><text fill="#000000" font-family="sans-serif" font-size="13" lengthAdjust="spacing" textLength="50.8193" x="786.13" y="189.5166">receives</text></g><!--SRC=[ZLHDRzim3BtxL_2qkLXZh3q6XeSi7eOSqW5D-mCKcOw5of8XqIcoZ_y-nSeQ9PQBtIZnFVCzal97UDx0VNQVtTt139QIMGkbO3l3seG4IRp8hvbYEuGDiRg6DRPRDFQAbDWNeJhcGf128Hqw16seqK6YrKhpnkWMWKoFGSOshDAlGksWPjA66NwiiY0oOjiJhhXM6_4JuNEI31clwIHfgHKPBIKQoFFpeIZWLmBm2PO66M70I2lIDtDuOlObNt0IMZsYxIKL0_ovgoxXBgJUfgAwXNU9tv4MKeRAqYpBulW_II8KeQaPHrY5nT3iXRlByrCqRMDX3ug7Ne9SIVhAZRFW2LS-BabVGYiU7tXOVLDzYuPj9LuN6ooDPXDnCsNy4Jjj1MbpSEZpuSq-goglnvuv4GzUVorKzVMmgluvZW1FJYtRu_zzD-RFIKtBMsruusf0gLicr9lYDNAcj7icNIFuGt_43_URnhsG1zQY7sjl32ho4t8tizdCeu9zFOvWDCrKuQkFRixQHalYPkD4bay_NESz9DXlJmyXoSJ3oehebiwXjsYJI2Rhk-ntb1H55rExSAemaSqSCHp77DhXdnMND0BpeLiMFeniN7Xtl6XVvs2GezY_JutsEw3-1G00]--></g></svg>