<svg xmlns="http://www.w3.org/2000/svg" xmlns:xlink="http://www.w3.org/1999/xlink" contentStyleType="text/css" data-diagram-type="SEQUENCE" height="244px" preserveAspectRatio="none" style="width:425px;height:244px;background:#FFFFFF;" version="1.1" viewBox="0 0 425 244" width="425px" zoomAndPan="magnify"><defs/><g><g><title>..system .C4...</title><rect fill="#FFFFFF" height="29.7993" style="stroke:#000000;stroke-width:1;" width="10" x="354.7881" y="114.814"/></g><g><title>Logistics Operator</title><rect fill="#000000" fill-opacity="0.00000" height="79.5986" width="8" x="72.7349" y="83.0146"/><line style="stroke:#000000;stroke-width:1;" x1="76" x2="76" y1="83.0146" y2="162.6133"/></g><g><title>..system .C4...</title><rect fill="#000000" fill-opacity="0.00000" height="79.5986" width="8" x="355.7881" y="83.0146"/><line style="stroke:#000000;stroke-width:1;" x1="359.4351" x2="359.4351" y1="83.0146" y2="162.6133"/></g><g class="participant participant-head" data-participant="Actor"><text fill="#000000" font-family="Verdana" font-size="14" lengthAdjust="spacing" textLength="127.4697" x="10" y="80.0752">Logistics Operator</text><ellipse cx="76.7349" cy="14" fill="#FFFFFF" rx="8" ry="8" style="stroke:#000000;stroke-width:1;"/><path d="M76.7349,22 L76.7349,49 M63.7349,30 L89.7349,30 M76.7349,49 L63.7349,64 M76.7349,49 L89.7349,64" fill="none" style="stroke:#000000;stroke-width:1;"/></g><g class="participant participant-tail" data-participant="Actor"><text fill="#000000" font-family="Verdana" font-size="14" lengthAdjust="spacing" textLength="127.4697" x="10" y="175.6885">Logistics Operator</text><ellipse cx="76.7349" cy="187.6279" fill="#FFFFFF" rx="8" ry="8" style="stroke:#000000;stroke-width:1;"/><path d="M76.7349,195.6279 L76.7349,222.6279 M63.7349,203.6279 L89.7349,203.6279 M76.7349,222.6279 L63.7349,237.6279 M76.7349,222.6279 L89.7349,237.6279" fill="none" style="stroke:#000000;stroke-width:1;"/></g><g class="participant participant-head" data-participant="System"><rect fill="#FFFFFF" height="48.0293" rx="2.5" ry="2.5" style="stroke:#000000;stroke-width:1;" width="118.7061" x="300.4351" y="33.9854"/><text fill="#000000" font-family="Verdana" font-size="14" lengthAdjust="spacing" textLength="104.7061" x="307.4351" y="55.0605">&#171;system (C4)&#187;</text><text fill="#000000" font-family="Verdana" font-size="14" lengthAdjust="spacing" textLength="85.9756" x="316.8003" y="72.0752">Port System</text></g><g class="participant participant-tail" data-participant="System"><rect fill="#FFFFFF" height="48.0293" rx="2.5" ry="2.5" style="stroke:#000000;stroke-width:1;" width="118.7061" x="300.4351" y="161.6133"/><text fill="#000000" font-family="Verdana" font-size="14" lengthAdjust="spacing" textLength="104.7061" x="307.4351" y="182.6885">&#171;system (C4)&#187;</text><text fill="#000000" font-family="Verdana" font-size="14" lengthAdjust="spacing" textLength="85.9756" x="316.8003" y="199.7031">Port System</text></g><g><title>..system .C4...</title><rect fill="#FFFFFF" height="29.7993" style="stroke:#000000;stroke-width:1;" width="10" x="354.7881" y="114.814"/></g><g class="message" data-participant-1="Actor" data-participant-2="System"><polygon fill="#000000" points="342.7881,110.814,352.7881,114.814,342.7881,118.814,346.7881,114.814" style="stroke:#000000;stroke-width:1;"/><line style="stroke:#000000;stroke-width:1;" x1="76.7349" x2="348.7881" y1="114.814" y2="114.814"/><text fill="#000000" font-family="Verdana" font-size="13" font-weight="bold" lengthAdjust="spacing" textLength="9.2422" x="83.7349" y="110.0845">1</text><text fill="#000000" font-family="Verdana" font-size="13" lengthAdjust="spacing" textLength="236.1646" x="96.9771" y="110.0845">1: create/update/view qualifications</text></g><g class="message" data-participant-1="System" data-participant-2="Actor"><polygon fill="#000000" points="87.7349,140.6133,77.7349,144.6133,87.7349,148.6133,83.7349,144.6133" style="stroke:#000000;stroke-width:1;"/><line style="stroke:#000000;stroke-width:1;stroke-dasharray:2,2;" x1="81.7349" x2="358.7881" y1="144.6133" y2="144.6133"/><text fill="#000000" font-family="Verdana" font-size="13" font-weight="bold" lengthAdjust="spacing" textLength="9.2422" x="93.7349" y="139.8838">2</text><text fill="#000000" font-family="Verdana" font-size="13" lengthAdjust="spacing" textLength="240.811" x="106.9771" y="139.8838">1.1: qualification data / confirmation</text></g><!--SRC=[NOwx2i9044Nx_OenbHOQ1AiG0c8hADZQZ9k93cGVxauY_hsRXuLMEvpBEUn27cG8V8ji5NRYR6Tk59H2BIv0TdHtZi8wmibJmCGom0ZxOLKUGvhOenN8oZA-ev21vM6tggghFRiWS1dPw4odKgCBwse6KC2s01q8XVBEryFJCxtWsM7B3MiKTZOE7-8-ZT_ERAzJQ2gcpYQLVZH8EOGSjBCD1pCoLTD_wmC0]--></g></svg>