<svg xmlns="http://www.w3.org/2000/svg" xmlns:xlink="http://www.w3.org/1999/xlink" contentStyleType="text/css" data-diagram-type="CLASS" height="572px" preserveAspectRatio="none" style="width:1439px;height:572px;background:#FFFFFF;" version="1.1" viewBox="0 0 1439 572" width="1439px" zoomAndPan="magnify"><title>US 2.2.13 - Manage Qualifications - Class Diagram</title><defs/><g><g class="title" data-source-line="2"><text fill="#000000" font-family="sans-serif" font-size="14" font-weight="bold" lengthAdjust="spacing" textLength="368.4092" x="528.3329" y="23.5352">US 2.2.13 - Manage Qualifications - Class Diagram</text></g><!--class QualificationsController--><g class="entity" data-entity="QualificationsController" data-source-line="9" data-uid="ent0002" id="entity_QualificationsController"><rect fill="#F1F1F1" height="122.5742" rx="2.5" ry="2.5" style="stroke:#181818;stroke-width:0.5;" width="378.4541" x="625.47" y="44.4883"/><ellipse cx="729.7693" cy="64.7988" fill="#C2C2C2" rx="11" ry="11" style="stroke:#181818;stroke-width:1;"/><path d="M732.7425,70.4419 Q732.1614,70.7407 731.5222,70.8901 Q730.8831,71.0396 730.1775,71.0396 Q727.6707,71.0396 726.3509,69.3877 Q725.031,67.7358 725.031,64.6147 Q725.031,61.4854 726.3509,59.8335 Q727.6707,58.1816 730.1775,58.1816 Q730.8831,58.1816 731.5305,58.3311 Q732.178,58.4805 732.7425,58.7793 L732.7425,61.502 Q732.1116,60.9209 731.5181,60.6511 Q730.9246,60.3813 730.2937,60.3813 Q728.949,60.3813 728.2642,61.448 Q727.5794,62.5146 727.5794,64.6147 Q727.5794,66.7065 728.2642,67.7732 Q728.949,68.8398 730.2937,68.8398 Q730.9246,68.8398 731.5181,68.5701 Q732.1116,68.3003 732.7425,67.7192 Z " fill="#000000"/><text fill="#000000" font-family="sans-serif" font-size="12" font-style="italic" lengthAdjust="spacing" textLength="70.998" x="795.448" y="61.0898">&#171;Controller&#187;</text><text fill="#000000" font-family="sans-serif" font-size="14" lengthAdjust="spacing" textLength="161.3555" x="750.2693" y="77.1563">QualificationsController</text><line style="stroke:#181818;stroke-width:0.5;" x1="626.47" x2="1002.9241" y1="85.1094" y2="85.1094"/><line style="stroke:#181818;stroke-width:0.5;" x1="626.47" x2="1002.9241" y1="93.1094" y2="93.1094"/><text fill="#000000" font-family="sans-serif" font-size="14" lengthAdjust="spacing" textLength="321.1045" x="631.47" y="110.6445">+CreateQualification(dto): Task&lt;ActionResult&gt;</text><text fill="#000000" font-family="sans-serif" font-size="14" lengthAdjust="spacing" textLength="366.4541" x="631.47" y="127.1328">+UpdateQualification(code, dto): Task&lt;ActionResult&gt;</text><text fill="#000000" font-family="sans-serif" font-size="14" lengthAdjust="spacing" textLength="302.5176" x="631.47" y="143.6211">+GetAllQualifications(): Task&lt;ActionResult&gt;</text><text fill="#000000" font-family="sans-serif" font-size="14" lengthAdjust="spacing" textLength="360.2744" x="631.47" y="160.1094">+GetQualificationByCode(code): Task&lt;ActionResult&gt;</text></g><!--class IQualificationService--><g class="entity" data-entity="IQualificationService" data-source-line="16" data-uid="ent0003" id="entity_IQualificationService"><rect fill="#F1F1F1" height="122.5742" rx="2.5" ry="2.5" style="stroke:#181818;stroke-width:0.5;" width="392.7549" x="1039.32" y="44.4883"/><ellipse cx="1162.736" cy="64.7988" fill="#B1B1B1" rx="11" ry="11" style="stroke:#181818;stroke-width:1;"/><path d="M1158.6638,60.564 L1158.6638,58.4058 L1166.0431,58.4058 L1166.0431,60.564 L1163.5778,60.564 L1163.5778,68.6406 L1166.0431,68.6406 L1166.0431,70.7988 L1158.6638,70.7988 L1158.6638,68.6406 L1161.1291,68.6406 L1161.1291,60.564 Z " fill="#000000"/><text fill="#000000" font-family="sans-serif" font-size="12" font-style="italic" lengthAdjust="spacing" textLength="53.1445" x="1225.3752" y="61.0898">&#171;Service&#187;</text><text fill="#000000" font-family="sans-serif" font-size="14" font-style="italic" lengthAdjust="spacing" textLength="137.4229" x="1183.236" y="77.1563">IQualificationService</text><line style="stroke:#181818;stroke-width:0.5;" x1="1040.32" x2="1431.0749" y1="85.1094" y2="85.1094"/><line style="stroke:#181818;stroke-width:0.5;" x1="1040.32" x2="1431.0749" y1="93.1094" y2="93.1094"/><text fill="#000000" font-family="sans-serif" font-size="14" lengthAdjust="spacing" textLength="300.2344" x="1045.32" y="110.6445">+CreateAsync(dto): Task&lt;QualificationDto&gt;</text><text fill="#000000" font-family="sans-serif" font-size="14" lengthAdjust="spacing" textLength="351.4902" x="1045.32" y="127.1328">+UpdateAsync(code, dto): Task&lt;QualificationDto?&gt;</text><text fill="#000000" font-family="sans-serif" font-size="14" lengthAdjust="spacing" textLength="380.7549" x="1045.32" y="143.6211">+GetAllAsync(): Task&lt;IEnumerable&lt;QualificationDto&gt;&gt;</text><text fill="#000000" font-family="sans-serif" font-size="14" lengthAdjust="spacing" textLength="345.3105" x="1045.32" y="160.1094">+GetByCodeAsync(code): Task&lt;QualificationDto?&gt;</text></g><!--class QualificationService--><g class="entity" data-entity="QualificationService" data-source-line="23" data-uid="ent0004" id="entity_QualificationService"><rect fill="#F1F1F1" height="56.6211" rx="2.5" ry="2.5" style="stroke:#181818;stroke-width:0.5;" width="165.3896" x="7" y="260.0383"/><ellipse cx="22" cy="280.3488" fill="#C2C2C2" rx="11" ry="11" style="stroke:#181818;stroke-width:1;"/><path d="M24.9731,285.9919 Q24.3921,286.2907 23.7529,286.4401 Q23.1138,286.5896 22.4082,286.5896 Q19.9014,286.5896 18.5815,284.9377 Q17.2617,283.2858 17.2617,280.1647 Q17.2617,277.0354 18.5815,275.3835 Q19.9014,273.7316 22.4082,273.7316 Q23.1138,273.7316 23.7612,273.8811 Q24.4087,274.0305 24.9731,274.3293 L24.9731,277.052 Q24.3423,276.4709 23.7488,276.2011 Q23.1553,275.9313 22.5244,275.9313 Q21.1797,275.9313 20.4949,276.998 Q19.8101,278.0646 19.8101,280.1647 Q19.8101,282.2565 20.4949,283.3232 Q21.1797,284.3898 22.5244,284.3898 Q23.1553,284.3898 23.7488,284.1201 Q24.3423,283.8503 24.9731,283.2692 Z " fill="#000000"/><text fill="#000000" font-family="sans-serif" font-size="12" font-style="italic" lengthAdjust="spacing" textLength="53.1445" x="76.1226" y="276.6398">&#171;Service&#187;</text><text fill="#000000" font-family="sans-serif" font-size="14" lengthAdjust="spacing" textLength="133.3896" x="36" y="292.7063">QualificationService</text><line style="stroke:#181818;stroke-width:0.5;" x1="8" x2="171.3896" y1="300.6594" y2="300.6594"/><line style="stroke:#181818;stroke-width:0.5;" x1="8" x2="171.3896" y1="308.6594" y2="308.6594"/></g><!--class IQualificationRepository--><g class="entity" data-entity="IQualificationRepository" data-source-line="25" data-uid="ent0005" id="entity_IQualificationRepository"><rect fill="#F1F1F1" height="122.5742" rx="2.5" ry="2.5" style="stroke:#181818;stroke-width:0.5;" width="368.4326" x="207.48" y="227.0583"/><ellipse cx="306.3379" cy="247.3688" fill="#B1B1B1" rx="11" ry="11" style="stroke:#181818;stroke-width:1;"/><path d="M302.2656,243.134 L302.2656,240.9758 L309.645,240.9758 L309.645,243.134 L307.1797,243.134 L307.1797,251.2106 L309.645,251.2106 L309.645,253.3688 L302.2656,253.3688 L302.2656,251.2106 L304.731,251.2106 L304.731,243.134 Z " fill="#000000"/><text fill="#000000" font-family="sans-serif" font-size="12" font-style="italic" lengthAdjust="spacing" textLength="74.3965" x="370.7481" y="243.6598">&#171;Repository&#187;</text><text fill="#000000" font-family="sans-serif" font-size="14" font-style="italic" lengthAdjust="spacing" textLength="162.2168" x="326.8379" y="259.7263">IQualificationRepository</text><line style="stroke:#181818;stroke-width:0.5;" x1="208.48" x2="574.9126" y1="267.6794" y2="267.6794"/><line style="stroke:#181818;stroke-width:0.5;" x1="208.48" x2="574.9126" y1="275.6794" y2="275.6794"/><text fill="#000000" font-family="sans-serif" font-size="14" lengthAdjust="spacing" textLength="212.2422" x="213.48" y="293.2145">+AddAsync(qualification): Task</text><text fill="#000000" font-family="sans-serif" font-size="14" lengthAdjust="spacing" textLength="320.9883" x="213.48" y="309.7028">+GetByCodeAsync(code): Task&lt;Qualification?&gt;</text><text fill="#000000" font-family="sans-serif" font-size="14" lengthAdjust="spacing" textLength="356.4326" x="213.48" y="326.1911">+GetAllAsync(): Task&lt;IEnumerable&lt;Qualification&gt;&gt;</text><text fill="#000000" font-family="sans-serif" font-size="14" lengthAdjust="spacing" textLength="233.0508" x="213.48" y="342.6794">+UpdateAsync(qualification): Task</text></g><!--class Qualification--><g class="entity" data-entity="Qualification" data-source-line="32" data-uid="ent0006" id="entity_Qualification"><rect fill="#F1F1F1" height="155.5508" rx="2.5" ry="2.5" style="stroke:#181818;stroke-width:0.5;" width="273.5498" x="103.92" y="409.6383"/><ellipse cx="193.4161" cy="429.9488" fill="#9B9B9B" rx="11" ry="11" style="stroke:#181818;stroke-width:1;"/><path d="M193.5294,425.297 L192.3756,430.3688 L194.6915,430.3688 Z M192.0352,423.0558 L195.0318,423.0558 L198.377,435.4488 L195.9283,435.4488 L195.1646,432.3858 L191.8858,432.3858 L191.1388,435.4488 L188.69,435.4488 Z " fill="#000000"/><text fill="#000000" font-family="sans-serif" font-size="12" font-style="italic" lengthAdjust="spacing" textLength="72.6973" x="220.5963" y="426.2398">&#171;Aggregate&#187;</text><text fill="#000000" font-family="sans-serif" font-size="14" lengthAdjust="spacing" textLength="86.0576" x="213.9161" y="442.3063">Qualification</text><line style="stroke:#181818;stroke-width:0.5;" x1="104.92" x2="376.4698" y1="450.2594" y2="450.2594"/><text fill="#000000" font-family="sans-serif" font-size="14" lengthAdjust="spacing" textLength="175.8408" x="109.92" y="467.7945">+Code: QualificationCode</text><text fill="#000000" font-family="sans-serif" font-size="14" lengthAdjust="spacing" textLength="183.9346" x="109.92" y="484.2828">+Name: QualificationName</text><text fill="#000000" font-family="sans-serif" font-size="14" lengthAdjust="spacing" textLength="261.5498" x="109.92" y="500.7711">+Description: QualificationDescription</text><line style="stroke:#181818;stroke-width:1;" x1="104.92" x2="376.4698" y1="507.7242" y2="507.7242"/><text fill="#000000" font-family="sans-serif" font-size="14" lengthAdjust="spacing" textLength="119.5811" x="109.92" y="525.2594">+Qualification(...)</text><text fill="#000000" font-family="sans-serif" font-size="14" lengthAdjust="spacing" textLength="120.5586" x="109.92" y="541.7477">+UpdateName(...)</text><text fill="#000000" font-family="sans-serif" font-size="14" lengthAdjust="spacing" textLength="159.3662" x="109.92" y="558.2359">+UpdateDescription(...)</text></g><!--class CreateQualificationDto--><g class="entity" data-entity="CreateQualificationDto" data-source-line="42" data-uid="ent0007" id="entity_CreateQualificationDto"><rect fill="#F1F1F1" height="56.6211" rx="2.5" ry="2.5" style="stroke:#181818;stroke-width:0.5;" width="186.3623" x="610.51" y="260.0383"/><ellipse cx="625.51" cy="280.3488" fill="#C2C2C2" rx="11" ry="11" style="stroke:#181818;stroke-width:1;"/><path d="M628.4831,285.9919 Q627.9021,286.2907 627.2629,286.4401 Q626.6238,286.5896 625.9182,286.5896 Q623.4114,286.5896 622.0915,284.9377 Q620.7717,283.2858 620.7717,280.1647 Q620.7717,277.0354 622.0915,275.3835 Q623.4114,273.7316 625.9182,273.7316 Q626.6238,273.7316 627.2712,273.8811 Q627.9187,274.0305 628.4831,274.3293 L628.4831,277.052 Q627.8523,276.4709 627.2588,276.2011 Q626.6653,275.9313 626.0344,275.9313 Q624.6897,275.9313 624.0049,276.998 Q623.3201,278.0646 623.3201,280.1647 Q623.3201,282.2565 624.0049,283.3232 Q624.6897,284.3898 626.0344,284.3898 Q626.6653,284.3898 627.2588,284.1201 Q627.8523,283.8503 628.4831,283.2692 Z " fill="#000000"/><text fill="#000000" font-family="sans-serif" font-size="12" font-style="italic" lengthAdjust="spacing" textLength="38.4727" x="697.4548" y="276.6398">&#171;DTO&#187;</text><text fill="#000000" font-family="sans-serif" font-size="14" lengthAdjust="spacing" textLength="154.3623" x="639.51" y="292.7063">CreateQualificationDto</text><line style="stroke:#181818;stroke-width:0.5;" x1="611.51" x2="795.8723" y1="300.6594" y2="300.6594"/><line style="stroke:#181818;stroke-width:0.5;" x1="611.51" x2="795.8723" y1="308.6594" y2="308.6594"/></g><!--class UpdateQualificationDto--><g class="entity" data-entity="UpdateQualificationDto" data-source-line="43" data-uid="ent0008" id="entity_UpdateQualificationDto"><rect fill="#F1F1F1" height="56.6211" rx="2.5" ry="2.5" style="stroke:#181818;stroke-width:0.5;" width="190.4707" x="831.46" y="260.0383"/><ellipse cx="846.46" cy="280.3488" fill="#C2C2C2" rx="11" ry="11" style="stroke:#181818;stroke-width:1;"/><path d="M849.4331,285.9919 Q848.8521,286.2907 848.2129,286.4401 Q847.5738,286.5896 846.8682,286.5896 Q844.3614,286.5896 843.0415,284.9377 Q841.7217,283.2858 841.7217,280.1647 Q841.7217,277.0354 843.0415,275.3835 Q844.3614,273.7316 846.8682,273.7316 Q847.5738,273.7316 848.2212,273.8811 Q848.8687,274.0305 849.4331,274.3293 L849.4331,277.052 Q848.8023,276.4709 848.2088,276.2011 Q847.6153,275.9313 846.9844,275.9313 Q845.6397,275.9313 844.9549,276.998 Q844.2701,278.0646 844.2701,280.1647 Q844.2701,282.2565 844.9549,283.3232 Q845.6397,284.3898 846.9844,284.3898 Q847.6153,284.3898 848.2088,284.1201 Q848.8023,283.8503 849.4331,283.2692 Z " fill="#000000"/><text fill="#000000" font-family="sans-serif" font-size="12" font-style="italic" lengthAdjust="spacing" textLength="38.4727" x="920.459" y="276.6398">&#171;DTO&#187;</text><text fill="#000000" font-family="sans-serif" font-size="14" lengthAdjust="spacing" textLength="158.4707" x="860.46" y="292.7063">UpdateQualificationDto</text><line style="stroke:#181818;stroke-width:0.5;" x1="832.46" x2="1020.9307" y1="300.6594" y2="300.6594"/><line style="stroke:#181818;stroke-width:0.5;" x1="832.46" x2="1020.9307" y1="308.6594" y2="308.6594"/></g><!--class QualificationDto--><g class="entity" data-entity="QualificationDto" data-source-line="44" data-uid="ent0009" id="entity_QualificationDto"><rect fill="#F1F1F1" height="56.6211" rx="2.5" ry="2.5" style="stroke:#181818;stroke-width:0.5;" width="142.3799" x="1056.5" y="260.0383"/><ellipse cx="1071.5" cy="280.3488" fill="#C2C2C2" rx="11" ry="11" style="stroke:#181818;stroke-width:1;"/><path d="M1074.4731,285.9919 Q1073.8921,286.2907 1073.2529,286.4401 Q1072.6138,286.5896 1071.9082,286.5896 Q1069.4014,286.5896 1068.0815,284.9377 Q1066.7617,283.2858 1066.7617,280.1647 Q1066.7617,277.0354 1068.0815,275.3835 Q1069.4014,273.7316 1071.9082,273.7316 Q1072.6138,273.7316 1073.2612,273.8811 Q1073.9087,274.0305 1074.4731,274.3293 L1074.4731,277.052 Q1073.8423,276.4709 1073.2488,276.2011 Q1072.6553,275.9313 1072.0244,275.9313 Q1070.6797,275.9313 1069.9949,276.998 Q1069.3101,278.0646 1069.3101,280.1647 Q1069.3101,282.2565 1069.9949,283.3232 Q1070.6797,284.3898 1072.0244,284.3898 Q1072.6553,284.3898 1073.2488,284.1201 Q1073.8423,283.8503 1074.4731,283.2692 Z " fill="#000000"/><text fill="#000000" font-family="sans-serif" font-size="12" font-style="italic" lengthAdjust="spacing" textLength="38.4727" x="1121.4536" y="276.6398">&#171;DTO&#187;</text><text fill="#000000" font-family="sans-serif" font-size="14" lengthAdjust="spacing" textLength="110.3799" x="1085.5" y="292.7063">QualificationDto</text><line style="stroke:#181818;stroke-width:0.5;" x1="1057.5" x2="1197.8799" y1="300.6594" y2="300.6594"/><line style="stroke:#181818;stroke-width:0.5;" x1="1057.5" x2="1197.8799" y1="308.6594" y2="308.6594"/></g><!--link QualificationsController to IQualificationService--><g class="link" data-entity-1="QualificationsController" data-entity-2="IQualificationService" data-source-line="46" data-uid="lnk10" id="link_QualificationsController_IQualificationService"><path codeLine="46" d="M1004.26,85.1883 C1015.83,85.1883 1021.48,85.1883 1033.07,85.1883" fill="none" id="QualificationsController-to-IQualificationService" style="stroke:#181818;stroke-width:1;stroke-dasharray:7,7;"/><polygon fill="#181818" points="1039.07,85.1883,1030.07,81.1883,1034.07,85.1883,1030.07,89.1883,1039.07,85.1883" style="stroke:#181818;stroke-width:1;"/><text fill="#000000" font-family="sans-serif" font-size="13" lengthAdjust="spacing" textLength="28.5645" x="1007.67" y="98.7566">uses</text></g><!--reverse link IQualificationService to QualificationService--><g class="link" data-entity-1="IQualificationService" data-entity-2="QualificationService" data-source-line="47" data-uid="lnk12" id="link_IQualificationService_QualificationService"><path codeLine="47" d="M1047.91,185.5083 C1047.91,201.9283 1047.91,197.1883 1047.91,197.1883 C1047.91,197.1883 89.69,197.1883 89.69,197.1883 C89.69,197.1883 89.69,233.2483 89.69,260.0083" fill="none" id="IQualificationService-backto-QualificationService" style="stroke:#181818;stroke-width:1;stroke-dasharray:7,7;"/><polygon fill="none" points="1047.91,167.5083,1041.91,185.5083,1053.91,185.5083,1047.91,167.5083" style="stroke:#181818;stroke-width:1;"/></g><!--link QualificationService to IQualificationRepository--><g class="link" data-entity-1="QualificationService" data-entity-2="IQualificationRepository" data-source-line="48" data-uid="lnk13" id="link_QualificationService_IQualificationRepository"><path codeLine="48" d="M172.62,288.1883 C183.62,288.1883 189.23,288.1883 201.13,288.1883" fill="none" id="QualificationService-to-IQualificationRepository" style="stroke:#181818;stroke-width:1;stroke-dasharray:7,7;"/><polygon fill="#181818" points="207.13,288.1883,198.13,284.1883,202.13,288.1883,198.13,292.1883,207.13,288.1883" style="stroke:#181818;stroke-width:1;"/><text fill="#000000" font-family="sans-serif" font-size="13" lengthAdjust="spacing" textLength="28.5645" x="175.87" y="301.7566">uses</text></g><!--link IQualificationRepository to Qualification--><g class="link" data-entity-1="IQualificationRepository" data-entity-2="Qualification" data-source-line="49" data-uid="lnk14" id="link_IQualificationRepository_Qualification"><path codeLine="49" d="M292.47,349.9683 C292.47,368.6983 292.47,383.5283 292.47,403.1983" fill="none" id="IQualificationRepository-to-Qualification" style="stroke:#181818;stroke-width:1;stroke-dasharray:7,7;"/><polygon fill="#181818" points="292.47,409.1983,296.47,400.1983,292.47,404.1983,288.47,400.1983,292.47,409.1983" style="stroke:#181818;stroke-width:1;"/><text fill="#000000" font-family="sans-serif" font-size="13" lengthAdjust="spacing" textLength="56.5386" x="235.47" y="376.1566">manages</text></g><!--link QualificationService to Qualification--><g class="link" data-entity-1="QualificationService" data-entity-2="Qualification" data-source-line="50" data-uid="lnk15" id="link_QualificationService_Qualification"><path codeLine="50" d="M138.15,316.8683 C138.15,341.0583 138.15,370.9283 138.15,403.5283" fill="none" id="QualificationService-to-Qualification" style="stroke:#181818;stroke-width:1;stroke-dasharray:7,7;"/><polygon fill="#181818" points="138.15,409.5283,142.15,400.5283,138.15,404.5283,134.15,400.5283,138.15,409.5283" style="stroke:#181818;stroke-width:1;"/><text fill="#000000" font-family="sans-serif" font-size="13" lengthAdjust="spacing" textLength="90.9873" x="47.15" y="359.7666">creates &amp; uses</text></g><!--link QualificationsController to CreateQualificationDto--><g class="link" data-entity-1="QualificationsController" data-entity-2="CreateQualificationDto" data-source-line="51" data-uid="lnk16" id="link_QualificationsController_CreateQualificationDto"><path codeLine="51" d="M711.17,167.3283 C711.17,198.5983 711.17,229.0783 711.17,253.7583" fill="none" id="QualificationsController-to-CreateQualificationDto" style="stroke:#181818;stroke-width:1;stroke-dasharray:7,7;"/><polygon fill="#181818" points="711.17,259.7583,715.17,250.7583,711.17,254.7583,707.17,250.7583,711.17,259.7583" style="stroke:#181818;stroke-width:1;"/><text fill="#000000" font-family="sans-serif" font-size="13" lengthAdjust="spacing" textLength="50.8193" x="660.17" y="210.1066">receives</text></g><!--link QualificationsController to UpdateQualificationDto--><g class="link" data-entity-1="QualificationsController" data-entity-2="UpdateQualificationDto" data-source-line="52" data-uid="lnk17" id="link_QualificationsController_UpdateQualificationDto"><path codeLine="52" d="M917.69,167.3283 C917.69,198.5983 917.69,229.0783 917.69,253.7583" fill="none" id="QualificationsController-to-UpdateQualificationDto" style="stroke:#181818;stroke-width:1;stroke-dasharray:7,7;"/><polygon fill="#181818" points="917.69,259.7583,921.69,250.7583,917.69,254.7583,913.69,250.7583,917.69,259.7583" style="stroke:#181818;stroke-width:1;"/><text fill="#000000" font-family="sans-serif" font-size="13" lengthAdjust="spacing" textLength="50.8193" x="866.69" y="210.1066">receives</text></g><!--link QualificationsController to QualificationDto--><g class="link" data-entity-1="QualificationsController" data-entity-2="QualificationDto" data-source-line="53" data-uid="lnk18" id="link_QualificationsController_QualificationDto"><path codeLine="53" d="M1004.15,126.1883 C1020.29,126.1883 1030.62,126.1883 1030.62,126.1883 C1030.62,126.1883 1030.62,288.1883 1030.62,288.1883 C1030.62,288.1883 1035.58,288.1883 1050.13,288.1883" fill="none" id="QualificationsController-to-QualificationDto" style="stroke:#181818;stroke-width:1;stroke-dasharray:7,7;"/><polygon fill="#181818" points="1056.13,288.1883,1047.13,284.1883,1051.13,288.1883,1047.13,292.1883,1056.13,288.1883" style="stroke:#181818;stroke-width:1;"/><text fill="#000000" font-family="sans-serif" font-size="13" lengthAdjust="spacing" textLength="45.5063" x="984.62" y="203.2666">returns</text></g><!--SRC=[dPJFSjCm4CRlUeezGJ8q7YYtZCUCIHWc1s1esWTGvOsZgImPIIuJeE-ERAU9R4lXpytQRt_Q_LQINyBT5gwJw-JDMrZ0Ib1ZOCrfgMb5BBS21_edAcc9yBMXWkyuevOhQIOSCGzSrjHzWk0IxQ56KDhkbITKIYgsrwf2iBf1Jp5xMgZlN9QmeyBu2ckhvDPgVjzOt30bj_m7mcj2EcNKraf9gvKGg25DpuiiWvy4u1MiD5AB0sPMM3LVmYqr3sdEsiWDcaROh0Fkwc82C5NW5Lp4FgBDXHZsDhkOFiXzVrYv6bsXCFH429SMzOuoXCs0tQ9-v2wQfiUlaVdS72JpJG_ejLM-yJvvOdYClFDTzynpwkQ3R2hKz5xWjD89wmsVgrqez1Gy-O3h-8Xki5Q6MwKFBl-yE0qgBug-bMy-TUpfdrh-dy5aqmC8zX4UX7Cqow-KPdjUp24lIusbs-Ty2Lohoo7IXZhjCwt6MXlgj3KQfddTnaOfdk8o5uj5bpzyCacIp3rNxQxZcBTDBvty1HwjkmhEwFhsYnjMdnHugDEag4oYlv4aYxol9JG63GbgILCdlo9WXCZYT_HOAQed3XxUWILKtKyxrbu0ODsG3Rm8s1hCmx6H0rc2HeRyyKzuvAZ-5W-2jj7IaDy0]--></g></svg>