<svg xmlns="http://www.w3.org/2000/svg" xmlns:xlink="http://www.w3.org/1999/xlink" contentStyleType="text/css" data-diagram-type="SEQUENCE" height="300px" preserveAspectRatio="none" style="width:741px;height:300px;background:#FFFFFF;" version="1.1" viewBox="0 0 741 300" width="741px" zoomAndPan="magnify"><defs/><g><g><title>User Interface</title><rect fill="#FFFFFF" height="87.3984" style="stroke:#000000;stroke-width:1;" width="10" x="399.6992" y="113.4297"/></g><g><title>Backend Service</title><rect fill="#FFFFFF" height="29.1328" style="stroke:#000000;stroke-width:1;" width="10" x="665.417" y="142.5625"/></g><g><title>Port Authority Officer</title><rect fill="#000000" fill-opacity="0.00000" height="136.5313" width="8" x="83.3921" y="82.2969"/><line style="stroke:#000000;stroke-width:1;" x1="87" x2="87" y1="82.2969" y2="218.8281"/></g><g><title>User Interface</title><rect fill="#000000" fill-opacity="0.00000" height="136.5313" width="8" x="400.6992" y="82.2969"/><line style="stroke:#000000;stroke-width:1;" x1="404.1797" x2="404.1797" y1="82.2969" y2="218.8281"/></g><g><title>Backend Service</title><rect fill="#000000" fill-opacity="0.00000" height="136.5313" width="8" x="666.417" y="82.2969"/><line style="stroke:#000000;stroke-width:1;" x1="670.1406" x2="670.1406" y1="82.2969" y2="218.8281"/></g><g class="participant participant-head" data-participant="Officer"><text fill="#000000" font-family="Verdana" font-size="14" lengthAdjust="spacing" textLength="148.7842" x="10" y="78.9951">Port Authority Officer</text><ellipse cx="87.3921" cy="14" fill="#FFFFFF" rx="8" ry="8" style="stroke:#000000;stroke-width:1;"/><path d="M87.3921,22 L87.3921,49 M74.3921,30 L100.3921,30 M87.3921,49 L74.3921,64 M87.3921,49 L100.3921,64" fill="none" style="stroke:#000000;stroke-width:1;"/></g><g class="participant participant-tail" data-participant="Officer"><text fill="#000000" font-family="Verdana" font-size="14" lengthAdjust="spacing" textLength="148.7842" x="10" y="230.8232">Port Authority Officer</text><ellipse cx="87.3921" cy="243.125" fill="#FFFFFF" rx="8" ry="8" style="stroke:#000000;stroke-width:1;"/><path d="M87.3921,251.125 L87.3921,278.125 M74.3921,259.125 L100.3921,259.125 M87.3921,278.125 L74.3921,293.125 M87.3921,278.125 L100.3921,293.125" fill="none" style="stroke:#000000;stroke-width:1;"/></g><g class="participant participant-head" data-participant="UI"><rect fill="#FFFFFF" height="46.5938" rx="2.5" ry="2.5" style="stroke:#000000;stroke-width:1;" width="113.0391" x="348.1797" y="34.7031"/><text fill="#000000" font-family="Verdana" font-size="14" lengthAdjust="spacing" textLength="99.0391" x="355.1797" y="54.6982">User Interface</text><text fill="#000000" font-family="Verdana" font-size="14" lengthAdjust="spacing" textLength="25.2998" x="392.0493" y="70.9951">(UI)</text></g><g class="participant participant-tail" data-participant="UI"><rect fill="#FFFFFF" height="46.5938" rx="2.5" ry="2.5" style="stroke:#000000;stroke-width:1;" width="113.0391" x="348.1797" y="217.8281"/><text fill="#000000" font-family="Verdana" font-size="14" lengthAdjust="spacing" textLength="99.0391" x="355.1797" y="237.8232">User Interface</text><text fill="#000000" font-family="Verdana" font-size="14" lengthAdjust="spacing" textLength="25.2998" x="392.0493" y="254.1201">(UI)</text></g><g class="participant participant-head" data-participant="Backend"><rect fill="#FFFFFF" height="46.5938" rx="2.5" ry="2.5" style="stroke:#000000;stroke-width:1;" width="130.5527" x="605.1406" y="34.7031"/><text fill="#000000" font-family="Verdana" font-size="14" lengthAdjust="spacing" textLength="116.5527" x="612.1406" y="54.6982">Backend Service</text><text fill="#000000" font-family="Verdana" font-size="14" lengthAdjust="spacing" textLength="95.833" x="622.5005" y="70.9951">(Port System)</text></g><g class="participant participant-tail" data-participant="Backend"><rect fill="#FFFFFF" height="46.5938" rx="2.5" ry="2.5" style="stroke:#000000;stroke-width:1;" width="130.5527" x="605.1406" y="217.8281"/><text fill="#000000" font-family="Verdana" font-size="14" lengthAdjust="spacing" textLength="116.5527" x="612.1406" y="237.8232">Backend Service</text><text fill="#000000" font-family="Verdana" font-size="14" lengthAdjust="spacing" textLength="95.833" x="622.5005" y="254.1201">(Port System)</text></g><g><title>User Interface</title><rect fill="#FFFFFF" height="87.3984" style="stroke:#000000;stroke-width:1;" width="10" x="399.6992" y="113.4297"/></g><g><title>Backend Service</title><rect fill="#FFFFFF" height="29.1328" style="stroke:#000000;stroke-width:1;" width="10" x="665.417" y="142.5625"/></g><g class="message" data-participant-1="Officer" data-participant-2="UI"><polygon fill="#000000" points="387.6992,109.4297,397.6992,113.4297,387.6992,117.4297,391.6992,113.4297" style="stroke:#000000;stroke-width:1;"/><line style="stroke:#000000;stroke-width:1;" x1="87.3921" x2="393.6992" y1="113.4297" y2="113.4297"/><text fill="#000000" font-family="Verdana" font-size="13" font-weight="bold" lengthAdjust="spacing" textLength="9.0454" x="94.3921" y="108.3638">1</text><text fill="#000000" font-family="Verdana" font-size="13" lengthAdjust="spacing" textLength="280.2617" x="107.4375" y="108.3638">1: create new Shipping Agent Organization</text></g><g class="message" data-participant-1="UI" data-participant-2="Backend"><polygon fill="#000000" points="653.417,138.5625,663.417,142.5625,653.417,146.5625,657.417,142.5625" style="stroke:#000000;stroke-width:1;"/><line style="stroke:#000000;stroke-width:1;" x1="409.6992" x2="659.417" y1="142.5625" y2="142.5625"/><text fill="#000000" font-family="Verdana" font-size="13" font-weight="bold" lengthAdjust="spacing" textLength="9.0454" x="416.6992" y="137.4966">2</text><text fill="#000000" font-family="Verdana" font-size="13" lengthAdjust="spacing" textLength="223.6724" x="429.7446" y="137.4966">1.1: Request (CreateOrganization)</text></g><g class="message" data-participant-1="Backend" data-participant-2="UI"><polygon fill="#000000" points="420.6992,167.6953,410.6992,171.6953,420.6992,175.6953,416.6992,171.6953" style="stroke:#000000;stroke-width:1;"/><line style="stroke:#000000;stroke-width:1;stroke-dasharray:2,2;" x1="414.6992" x2="669.417" y1="171.6953" y2="171.6953"/><text fill="#000000" font-family="Verdana" font-size="13" font-weight="bold" lengthAdjust="spacing" textLength="9.0454" x="426.6992" y="166.6294">3</text><text fill="#000000" font-family="Verdana" font-size="13" lengthAdjust="spacing" textLength="212.8813" x="439.7446" y="166.6294">1.2: Response (OrganizationDto)</text></g><g class="message" data-participant-1="UI" data-participant-2="Officer"><polygon fill="#000000" points="98.3921,196.8281,88.3921,200.8281,98.3921,204.8281,94.3921,200.8281" style="stroke:#000000;stroke-width:1;"/><line style="stroke:#000000;stroke-width:1;stroke-dasharray:2,2;" x1="92.3921" x2="403.6992" y1="200.8281" y2="200.8281"/><text fill="#000000" font-family="Verdana" font-size="13" font-weight="bold" lengthAdjust="spacing" textLength="9.0454" x="104.3921" y="195.7622">4</text><text fill="#000000" font-family="Verdana" font-size="13" lengthAdjust="spacing" textLength="192.8291" x="117.4375" y="195.7622">1.3: 1.3: Display confirmation</text></g><!--SRC=[PP4nJuH048Nx_HKZ5HHtYTfTONBUDLHd97Gswzu04sKMPuSp-EjTE52C3Q5ut_VcPM-qmHQXUxV4nlRgkMzVKOonJhr0ykH5OTzhuuLqW5DLaKD9m8RbttHMb1nrbXMICg10pefIMOSld9PvDgNB_6_mqRetv3CKA1UQabDLCGJ5zehC4MFc9jWyH0tiu7O7Jj0g0kCd50rr7N4D-ngZ-IIrPVgoIfx75NGPWx4-eb6mz4RBDdgUyQF7e90U9k4QpdxfvP85tlnSihqR7Q7p713IDNvKdvap_dECPqHysJGwxkVFaK9yY06SvugalKvOAUA8Rm00]--></g></svg>