<svg xmlns="http://www.w3.org/2000/svg" xmlns:xlink="http://www.w3.org/1999/xlink" contentStyleType="text/css" height="819px" preserveAspectRatio="none" style="width:824px;height:819px;background:#FFFFFF;" version="1.1" viewBox="0 0 824 819" width="824px" zoomAndPan="magnify"><title>US220: Register Customer - Analysis</title><defs/><g><text fill="#000000" font-family="sans-serif" font-size="14" font-weight="bold" lengthAdjust="spacing" textLength="267.3535" x="271.8132" y="23.5352">US220: Register Customer - Analysis</text><!--class Customer--><g id="elem_Customer"><rect codeLine="15" fill="#F1F1F1" height="34.4883" id="Customer" rx="2.5" ry="2.5" style="stroke:#181818;stroke-width:0.5;" width="71.9463" x="7" y="436.5383"/><text fill="#000000" font-family="sans-serif" font-size="14" lengthAdjust="spacing" textLength="65.9463" x="10" y="455.0734">Customer</text><line style="stroke:#181818;stroke-width:0.5;" x1="8" x2="77.9463" y1="463.0266" y2="463.0266"/></g><!--class CustomerRepresentative--><g id="elem_CustomerRepresentative"><rect codeLine="22" fill="#F1F1F1" height="34.4883" id="CustomerRepresentative" rx="2.5" ry="2.5" style="stroke:#181818;stroke-width:0.5;" width="171.8604" x="276.95" y="199.5383"/><text fill="#000000" font-family="sans-serif" font-size="14" lengthAdjust="spacing" textLength="165.8604" x="279.95" y="218.0734">CustomerRepresentative</text><line style="stroke:#181818;stroke-width:0.5;" x1="277.95" x2="447.8104" y1="226.0266" y2="226.0266"/></g><!--class Address--><g id="elem_Address"><rect codeLine="27" fill="#F1F1F1" height="34.4883" id="Address" rx="2.5" ry="2.5" style="stroke:#181818;stroke-width:0.5;" width="61.084" x="332.33" y="401.5383"/><text fill="#000000" font-family="sans-serif" font-size="14" lengthAdjust="spacing" textLength="55.084" x="335.33" y="420.0734">Address</text><line style="stroke:#181818;stroke-width:0.5;" x1="333.33" x2="392.414" y1="428.0266" y2="428.0266"/></g><!--class Email--><g id="elem_Email"><rect codeLine="30" fill="#F1F1F1" height="34.4883" id="Email" rx="2.5" ry="2.5" style="stroke:#181818;stroke-width:0.5;" width="42.4834" x="729.15" y="205.5383"/><text fill="#000000" font-family="sans-serif" font-size="14" lengthAdjust="spacing" textLength="36.4834" x="732.15" y="224.0734">Email</text><line style="stroke:#181818;stroke-width:0.5;" x1="730.15" x2="770.6334" y1="232.0266" y2="232.0266"/></g><!--class PhoneNumber--><g id="elem_PhoneNumber"><rect codeLine="34" fill="#F1F1F1" height="34.4883" id="PhoneNumber" rx="2.5" ry="2.5" style="stroke:#181818;stroke-width:0.5;" width="101.9561" x="699.41" y="53.5383"/><text fill="#000000" font-family="sans-serif" font-size="14" lengthAdjust="spacing" textLength="95.9561" x="702.41" y="72.0734">PhoneNumber</text><line style="stroke:#181818;stroke-width:0.5;" x1="700.41" x2="800.3661" y1="80.0266" y2="80.0266"/></g><!--class VATNumber--><g id="elem_VATNumber"><rect codeLine="38" fill="#F1F1F1" height="34.4883" id="VATNumber" rx="2.5" ry="2.5" style="stroke:#181818;stroke-width:0.5;" width="88.1064" x="318.82" y="470.5383"/><text fill="#000000" font-family="sans-serif" font-size="14" lengthAdjust="spacing" textLength="82.1064" x="321.82" y="489.0734">VATNumber</text><line style="stroke:#181818;stroke-width:0.5;" x1="319.82" x2="405.9264" y1="497.0266" y2="497.0266"/></g><!--class Position--><g id="elem_Position"><rect codeLine="42" fill="#F1F1F1" height="34.4883" id="Position" rx="2.5" ry="2.5" style="stroke:#181818;stroke-width:0.5;" width="60.0928" x="720.35" y="136.5383"/><text fill="#000000" font-family="sans-serif" font-size="14" lengthAdjust="spacing" textLength="54.0928" x="723.35" y="155.0734">Position</text><line style="stroke:#181818;stroke-width:0.5;" x1="721.35" x2="779.4428" y1="163.0266" y2="163.0266"/></g><!--class CustomerStatus--><g id="elem_CustomerStatus"><rect codeLine="46" fill="#F1F1F1" height="83.9531" id="CustomerStatus" rx="2.5" ry="2.5" style="stroke:#181818;stroke-width:0.5;" width="113.5156" x="306.12" y="539.8083"/><text fill="#000000" font-family="sans-serif" font-size="14" lengthAdjust="spacing" textLength="107.5156" x="309.12" y="558.3434">CustomerStatus</text><line style="stroke:#181818;stroke-width:0.5;" x1="307.12" x2="418.6356" y1="566.2966" y2="566.2966"/><text fill="#000000" font-family="sans-serif" font-size="14" lengthAdjust="spacing" textLength="51.9805" x="312.12" y="583.8317">Deleted</text><text fill="#000000" font-family="sans-serif" font-size="14" lengthAdjust="spacing" textLength="87.6572" x="312.12" y="600.32">Infringement</text><text fill="#000000" font-family="sans-serif" font-size="14" lengthAdjust="spacing" textLength="52.7939" x="312.12" y="616.8083">Created</text></g><!--class CustomerType--><g id="elem_CustomerType"><rect codeLine="51" fill="#F1F1F1" height="67.4648" id="CustomerType" rx="2.5" ry="2.5" style="stroke:#181818;stroke-width:0.5;" width="104.7246" x="310.51" y="659.0483"/><text fill="#000000" font-family="sans-serif" font-size="14" lengthAdjust="spacing" textLength="98.7246" x="313.51" y="677.5834">CustomerType</text><line style="stroke:#181818;stroke-width:0.5;" x1="311.51" x2="414.2346" y1="685.5366" y2="685.5366"/><text fill="#000000" font-family="sans-serif" font-size="14" lengthAdjust="spacing" textLength="20.9248" x="316.51" y="703.0717">VIP</text><text fill="#000000" font-family="sans-serif" font-size="14" lengthAdjust="spacing" textLength="62.2344" x="316.51" y="719.56">REGULAR</text></g><!--class Name--><g id="elem_Name"><rect codeLine="59" fill="#F1F1F1" height="67.4648" id="Name" rx="2.5" ry="2.5" style="stroke:#181818;stroke-width:0.5;" width="135.1699" x="682.81" y="283.0483"/><text fill="#000000" font-family="sans-serif" font-size="14" lengthAdjust="spacing" textLength="38.9443" x="730.9228" y="301.5834">Name</text><line style="stroke:#181818;stroke-width:0.5;" x1="683.81" x2="816.9799" y1="309.5366" y2="309.5366"/><text fill="#000000" font-family="sans-serif" font-size="14" lengthAdjust="spacing" textLength="123.1699" x="688.81" y="327.0717">-firstName: String</text><text fill="#000000" font-family="sans-serif" font-size="14" lengthAdjust="spacing" textLength="120.0254" x="688.81" y="343.56">-lastName: String</text></g><!--class EmailAddress--><g id="elem_EmailAddress"><rect codeLine="64" fill="#F1F1F1" height="50.9766" id="EmailAddress" rx="2.5" ry="2.5" style="stroke:#181818;stroke-width:0.5;" width="122.0859" x="301.83" y="761.2883"/><text fill="#000000" font-family="sans-serif" font-size="14" lengthAdjust="spacing" textLength="91.5674" x="317.0893" y="779.8234">EmailAddress</text><line style="stroke:#181818;stroke-width:0.5;" x1="302.83" x2="422.9159" y1="787.7766" y2="787.7766"/><text fill="#000000" font-family="sans-serif" font-size="14" lengthAdjust="spacing" textLength="110.0859" x="307.83" y="805.3117">-address: String</text></g><!--reverse link Customer to Address--><g id="link_Customer_Address"><path codeLine="71" d="M91.138,448.5854 C154.188,441.6454 273.26,428.5383 332.12,422.0583 " fill="none" id="Customer-backto-Address" style="stroke:#181818;stroke-width:1.0;"/><polygon fill="#181818" points="79.21,449.8983,85.6116,453.2178,91.138,448.5854,84.7363,445.2658,79.21,449.8983" style="stroke:#181818;stroke-width:1.0;"/><polygon fill="#000000" points="121.42,423.2265,112.1076,421.2949,112.7508,427.1374,121.42,423.2265" style="stroke:#000000;stroke-width:1.0;"/><text fill="#000000" font-family="sans-serif" font-size="13" lengthAdjust="spacing" textLength="118.8472" x="125.45" y="428.6866">has billing address</text><text fill="#000000" font-family="sans-serif" font-size="13" lengthAdjust="spacing" textLength="8.2202" x="86.9011" y="463.1855">1</text><text fill="#000000" font-family="sans-serif" font-size="13" lengthAdjust="spacing" textLength="8.2202" x="316.1091" y="437.1545">1</text></g><!--reverse link Customer to VATNumber--><g id="link_Customer_VATNumber"><path codeLine="72" d="M90.6318,474.1257 C100.0418,477.7157 99.12,476.7683 108.95,478.7783 C181.27,493.5483 267.6,492.8083 318.4,490.5583 " fill="none" id="Customer-backto-VATNumber" style="stroke:#181818;stroke-width:1.0;"/><polygon fill="#181818" points="79.42,469.8483,83.6001,475.7242,90.6318,474.1257,86.4517,468.2497,79.42,469.8483" style="stroke:#181818;stroke-width:1.0;"/><polygon fill="#000000" points="141.437,470.7934,132.6269,467.2112,132.2039,473.0738,141.437,470.7934" style="stroke:#000000;stroke-width:1.0;"/><text fill="#000000" font-family="sans-serif" font-size="13" lengthAdjust="spacing" textLength="78.9204" x="145.45" y="475.3466">identified by</text><text fill="#000000" font-family="sans-serif" font-size="13" lengthAdjust="spacing" textLength="8.2202" x="86.8977" y="486.7902">1</text><text fill="#000000" font-family="sans-serif" font-size="13" lengthAdjust="spacing" textLength="8.2202" x="302.6921" y="504.7891">1</text></g><!--reverse link Customer to CustomerStatus--><g id="link_Customer_CustomerStatus"><path codeLine="73" d="M65.3113,480.4942 C77.3313,494.7942 88.39,505.2583 108.95,516.7783 C171.14,551.6283 252.36,568.1883 305.77,575.7883 " fill="none" id="Customer-backto-CustomerStatus" style="stroke:#181818;stroke-width:1.0;"/><polygon fill="#181818" points="57.59,471.3083,58.3887,478.475,65.3113,480.4942,64.5126,473.3275,57.59,471.3083" style="stroke:#181818;stroke-width:1.0;"/><polygon fill="#000000" points="148.0983,510.2757,140.7722,504.2111,138.6067,509.6754,148.0983,510.2757" style="stroke:#000000;stroke-width:1.0;"/><text fill="#000000" font-family="sans-serif" font-size="13" lengthAdjust="spacing" textLength="64.2129" x="152.45" y="513.3466">has status</text><text fill="#000000" font-family="sans-serif" font-size="13" lengthAdjust="spacing" textLength="8.2202" x="52.8751" y="491.5884">1</text><text fill="#000000" font-family="sans-serif" font-size="13" lengthAdjust="spacing" textLength="8.2202" x="289.9547" y="588.5692">1</text></g><!--reverse link Customer to CustomerType--><g id="link_Customer_CustomerType"><path codeLine="74" d="M51.0398,482.7069 C58.4398,510.9669 73.75,555.5883 108.95,588.7783 C165.85,642.4483 254.27,670.1183 310.07,683.0183 " fill="none" id="Customer-backto-CustomerType" style="stroke:#181818;stroke-width:1.0;"/><polygon fill="#181818" points="48,471.0983,45.6503,477.9158,51.0398,482.7069,53.3894,475.8893,48,471.0983" style="stroke:#181818;stroke-width:1.0;"/><polygon fill="#000000" points="152.9053,583.4922,147.5479,575.6342,143.9522,580.2839,152.9053,583.4922" style="stroke:#000000;stroke-width:1.0;"/><text fill="#000000" font-family="sans-serif" font-size="13" lengthAdjust="spacing" textLength="53.0664" x="157.95" y="585.3466">has type</text><text fill="#000000" font-family="sans-serif" font-size="13" lengthAdjust="spacing" textLength="8.2202" x="40.3624" y="491.6262">1</text><text fill="#000000" font-family="sans-serif" font-size="13" lengthAdjust="spacing" textLength="8.2202" x="294.452" y="695.3035">1</text></g><!--reverse link Customer to CustomerRepresentative--><g id="link_Customer_CustomerRepresentative"><path codeLine="75" d="M49.3637,424.3234 C55.5437,393.5634 70.06,341.8483 108.95,305.7783 C155.03,263.0483 222.84,240.6383 276.66,228.9983 " fill="none" id="Customer-backto-CustomerRepresentative" style="stroke:#181818;stroke-width:1.0;"/><polygon fill="#181818" points="47,436.0883,52.1035,430.9937,49.3637,424.3234,44.2602,429.4179,47,436.0883" style="stroke:#181818;stroke-width:1.0;"/><polygon fill="#000000" points="118.2422,225.9148,109.4666,229.581,113.2975,234.0389,118.2422,225.9148" style="stroke:#000000;stroke-width:1.0;"/><text fill="#000000" font-family="sans-serif" font-size="13" lengthAdjust="spacing" textLength="122.4907" x="123.45" y="234.0866">has representatives</text><text fill="#000000" font-family="sans-serif" font-size="13" lengthAdjust="spacing" textLength="8.2202" x="39.0437" y="425.6755">1</text><text fill="#000000" font-family="sans-serif" font-size="13" lengthAdjust="spacing" textLength="22.7119" x="246.3357" y="243.2743">1..*</text></g><!--reverse link Customer to PhoneNumber--><g id="link_Customer_PhoneNumber"><path codeLine="76" d="M43.3875,424.3086 C43.0875,380.6486 48.51,277.5883 108.95,212.7783 C266.81,43.4883 577.71,53.4983 699.13,64.8183 " fill="none" id="Customer-backto-PhoneNumber" style="stroke:#181818;stroke-width:1.0;"/><polygon fill="#181818" points="43.47,436.3083,47.4287,430.2809,43.3875,424.3086,39.4289,430.3359,43.47,436.3083" style="stroke:#181818;stroke-width:1.0;"/><polygon fill="#000000" points="307.2644,56.13,297.9202,57.901,300.7458,63.0552,307.2644,56.13" style="stroke:#000000;stroke-width:1.0;"/><text fill="#000000" font-family="sans-serif" font-size="13" lengthAdjust="spacing" textLength="115.9209" x="311.88" y="63.4466">has contact phone</text><text fill="#000000" font-family="sans-serif" font-size="13" lengthAdjust="spacing" textLength="8.2202" x="34.3461" y="425.6554">1</text><text fill="#000000" font-family="sans-serif" font-size="13" lengthAdjust="spacing" textLength="8.2202" x="683.0301" y="77.635">1</text></g><!--reverse link Customer to Name--><g id="link_Customer_Name"><path codeLine="77" d="M72.1191,428.4889 C84.3391,418.1989 91.9,413.6483 108.95,406.7783 C306.57,327.1783 563.09,316.1283 682.62,315.7483 " fill="none" id="Customer-backto-Name" style="stroke:#181818;stroke-width:1.0;"/><polygon fill="#181818" points="62.94,436.2183,70.106,435.4133,72.1191,428.4889,64.9531,429.2939,62.94,436.2183" style="stroke:#181818;stroke-width:1.0;"/><text fill="#000000" font-family="sans-serif" font-size="13" lengthAdjust="spacing" textLength="149.4302" x="288.38" y="326.3066">has customer name &gt; e</text><text fill="#000000" font-family="sans-serif" font-size="13" lengthAdjust="spacing" textLength="8.2202" x="60.0645" y="425.8469">1</text><text fill="#000000" font-family="sans-serif" font-size="13" lengthAdjust="spacing" textLength="8.2202" x="666.7817" y="329.041">1</text></g><!--reverse link Customer to EmailAddress--><g id="link_Customer_EmailAddress"><path codeLine="78" d="M43.8806,483.3177 C44.3106,526.0877 51.15,624.9083 108.95,688.7783 C159.02,744.1283 244.05,768.5083 301.55,779.0483 " fill="none" id="Customer-backto-EmailAddress" style="stroke:#181818;stroke-width:1.0;"/><polygon fill="#181818" points="43.76,471.3183,39.8205,477.3582,43.8806,483.3177,47.8201,477.2778,43.76,471.3183" style="stroke:#181818;stroke-width:1.0;"/><polygon fill="#000000" points="117.2346,684.2033,113.5085,675.4531,109.0769,679.3144,117.2346,684.2033" style="stroke:#000000;stroke-width:1.0;"/><text fill="#000000" font-family="sans-serif" font-size="13" lengthAdjust="spacing" textLength="123.0747" x="122.95" y="685.3466">has customer email</text><text fill="#000000" font-family="sans-serif" font-size="13" lengthAdjust="spacing" textLength="8.2202" x="34.8097" y="491.6014">1</text><text fill="#000000" font-family="sans-serif" font-size="13" lengthAdjust="spacing" textLength="8.2202" x="285.6022" y="791.6077">1</text></g><!--reverse link CustomerRepresentative to Email--><g id="link_CustomerRepresentative_Email"><path codeLine="80" d="M461.2265,219.4371 C471.1965,219.6771 469.23,219.5983 478.81,219.7783 C572.04,221.5183 683.37,222.3583 728.68,222.6583 " fill="none" id="CustomerRepresentative-backto-Email" style="stroke:#181818;stroke-width:1.0;"/><polygon fill="#181818" points="449.23,219.1483,455.132,223.2915,461.2265,219.4371,455.3245,215.2938,449.23,219.1483" style="stroke:#181818;stroke-width:1.0;"/><polygon fill="#000000" points="491.3096,211.4938,482.3006,208.4461,482.2298,214.3236,491.3096,211.4938" style="stroke:#000000;stroke-width:1.0;"/><text fill="#000000" font-family="sans-serif" font-size="13" lengthAdjust="spacing" textLength="154.0513" x="495.31" y="216.3466">has representative email</text><text fill="#000000" font-family="sans-serif" font-size="13" lengthAdjust="spacing" textLength="8.2202" x="456.7212" y="232.5465">1</text><text fill="#000000" font-family="sans-serif" font-size="13" lengthAdjust="spacing" textLength="8.2202" x="712.8395" y="237.5331">1</text></g><!--reverse link CustomerRepresentative to PhoneNumber--><g id="link_CustomerRepresentative_PhoneNumber"><path codeLine="81" d="M397.0342,192.1046 C419.4342,176.0046 444.96,159.6783 478.81,145.7783 C552.21,115.6383 576.7,128.2283 652.81,105.7783 C669.74,100.7883 688.02,94.4183 704.08,88.4883 " fill="none" id="CustomerRepresentative-backto-PhoneNumber" style="stroke:#181818;stroke-width:1.0;"/><polygon fill="#181818" points="387.29,199.1083,394.4966,198.8545,397.0342,192.1046,389.8275,192.3584,387.29,199.1083" style="stroke:#181818;stroke-width:1.0;"/><polygon fill="#000000" points="488.5475,95.8348,479.0376,95.9423,480.917,101.5116,488.5475,95.8348" style="stroke:#000000;stroke-width:1.0;"/><text fill="#000000" font-family="sans-serif" font-size="13" lengthAdjust="spacing" textLength="159.5229" x="492.81" y="102.3466">has representative phone</text><text fill="#000000" font-family="sans-serif" font-size="13" lengthAdjust="spacing" textLength="8.2202" x="385.8307" y="188.7019">1</text><text fill="#000000" font-family="sans-serif" font-size="13" lengthAdjust="spacing" textLength="8.2202" x="683.2168" y="107.5554">1</text></g><!--reverse link CustomerRepresentative to Position--><g id="link_CustomerRepresentative_Position"><path codeLine="82" d="M460.8029,200.9428 C546.8329,186.8828 663.16,167.8683 720.2,158.5483 " fill="none" id="CustomerRepresentative-backto-Position" style="stroke:#181818;stroke-width:1.0;"/><polygon fill="#181818" points="448.96,202.8783,455.5266,205.8582,460.8029,200.9428,454.2363,197.9629,448.96,202.8783" style="stroke:#181818;stroke-width:1.0;"/><polygon fill="#000000" points="523.7445,161.5271,514.3438,160.0856,515.2919,165.8865,523.7445,161.5271" style="stroke:#000000;stroke-width:1.0;"/><text fill="#000000" font-family="sans-serif" font-size="13" lengthAdjust="spacing" textLength="89.959" x="527.81" y="167.2466">holds position</text><text fill="#000000" font-family="sans-serif" font-size="13" lengthAdjust="spacing" textLength="8.2202" x="456.7107" y="214.9096">1</text><text fill="#000000" font-family="sans-serif" font-size="13" lengthAdjust="spacing" textLength="8.2202" x="704.3175" y="173.989">1</text></g><!--reverse link CustomerRepresentative to Name--><g id="link_CustomerRepresentative_Name"><path codeLine="83" d="M443.2402,237.5219 C458.7402,241.5719 463.54,242.8083 478.81,246.7783 C548.19,264.8083 627.62,285.3483 682.38,299.4883 " fill="none" id="CustomerRepresentative-backto-Name" style="stroke:#181818;stroke-width:1.0;"/><polygon fill="#181818" points="431.63,234.4883,436.4239,239.8752,443.2402,237.5219,438.4463,232.135,431.63,234.4883" style="stroke:#181818;stroke-width:1.0;"/><polygon fill="#000000" points="491.1501,239.6877,483.1314,234.5739,481.657,240.2639,491.1501,239.6877" style="stroke:#000000;stroke-width:1.0;"/><text fill="#000000" font-family="sans-serif" font-size="13" lengthAdjust="spacing" textLength="154.6035" x="495.31" y="243.3466">has representative name</text><text fill="#000000" font-family="sans-serif" font-size="13" lengthAdjust="spacing" textLength="8.2202" x="442.6826" y="254.5065">1</text><text fill="#000000" font-family="sans-serif" font-size="13" lengthAdjust="spacing" textLength="8.2202" x="666.5154" y="311.0026">1</text></g><!--SRC=[bLHDJ-Cm4BtdLunwe80eOZdsWDG5TbM9XQe5xcuoQRmuTcHFGDtL_lSTsqcRXfPbJ_77l3TldcSoXAV5vUN56EQuaexGmdNjo9Iy6C542xLsqi6DAONKyCDagE3ugt2OWT4mi-PLPhmE5oT9Gf8KVeOnIToBr9MmeeJIQ9CMbYE0R8sTcqgaBsA52repgyMKX5wfRe0hH6RUf5v1BfJhtgHAE3SXid9P4qvJenVo5y95Kh1WIALDcIYiIwJ2P2vHc1EG0IjN1K4cVJvfT98COJGQmQt24ZKvo5afK84mQEiQm2mAzO594b9lY_wT00nXMbPAibEYbUHWsTfeKGcVoXMoSd04ARiv3gWHt0ksvVWRbuHlnhx0yyD9StFBJw8cMMQHi-sDc1L6utrTBj4cV_gwvbWnaYlYrAy8NkP_g1md1zLjChNQ8hKZYqXdR3sjpw0oZeIwvaBvnDIQx9g14HSAQr0YScn9EpN52Dshxtdo-D7rp3ZfgsZugsRh0v1ZD_Ois9SwQeSRL4YOyMggSylT5Zg1jzSMXR_uiujzN5VeSG3Fqrdupc-_FzrDvc7DcTgUcZFngz047GU5gX4UbZ-v-_XPdxpvopLufqv2UyKoWl5Ut0XoQHtv_HWMvDNvGmxQFTiOiDCsaQ4nkHkx5TZfpEtWiomxxFqMZe98k3ChcK9kR3F_DX14xSbcA0PV1d3A2Vot5JE6Gd2_IQNyG3UYu6e_QFlCO-0frYHp6Qqw0EWzR4pcukOV4F-U3O3ySc_u-VdfuD1mHQpTEJoOjTlX4SW_Bn8fGULl3i52HpJnxRtsPrU0-n4xdT13OfZ1g-sBzIfwnxEtnWtD9rZUbztZwbV_4LSxv4naLEOsO_uvUCVAdePeA8_7Nm00]--></g></svg>