<svg xmlns="http://www.w3.org/2000/svg" xmlns:xlink="http://www.w3.org/1999/xlink" contentStyleType="text/css" height="477px" preserveAspectRatio="none" style="width:794px;height:477px;background:#FFFFFF;" version="1.1" viewBox="0 0 794 477" width="794px" zoomAndPan="magnify"><title>US2.2.1: Create and Update Vessel Types - System Sequence Diagram (SSD)</title><defs/><g><text fill="#000000" font-family="sans-serif" font-size="14" font-weight="bold" lengthAdjust="spacing" textLength="543.6006" x="124.3948" y="28.5352">US2.2.1: Create and Update Vessel Types - System Sequence Diagram (SSD)</text><rect fill="#FFFFFF" height="58.6211" style="stroke:#FFFFFF;stroke-width:1.0;" width="10" x="75.6387" y="128.9766"/><line style="stroke:#181818;stroke-width:1.0;" x1="75.6387" x2="75.6387" y1="128.9766" y2="187.5977"/><line style="stroke:#181818;stroke-width:1.0;" x1="85.6387" x2="85.6387" y1="128.9766" y2="187.5977"/><line style="stroke:#181818;stroke-width:1.0;" x1="75.6387" x2="85.6387" y1="128.9766" y2="128.9766"/><rect fill="#FFFFFF" height="58.6211" style="stroke:#FFFFFF;stroke-width:1.0;" width="10" x="75.6387" y="228.5527"/><line style="stroke:#181818;stroke-width:1.0;" x1="75.6387" x2="75.6387" y1="228.5527" y2="287.1738"/><line style="stroke:#181818;stroke-width:1.0;" x1="85.6387" x2="85.6387" y1="228.5527" y2="287.1738"/><rect fill="#FFFFFF" height="50.6211" style="stroke:#FFFFFF;stroke-width:1.0;" width="10" x="75.6387" y="328.1289"/><line style="stroke:#181818;stroke-width:1.0;" x1="75.6387" x2="75.6387" y1="328.1289" y2="378.75"/><line style="stroke:#181818;stroke-width:1.0;" x1="85.6387" x2="85.6387" y1="328.1289" y2="378.75"/><line style="stroke:#181818;stroke-width:1.0;" x1="75.6387" x2="85.6387" y1="378.75" y2="378.75"/><rect fill="#FFFFFF" height="29.3105" style="stroke:#181818;stroke-width:1.0;" width="10" x="750.1265" y="150.2871"/><rect fill="#FFFFFF" height="29.3105" style="stroke:#181818;stroke-width:1.0;" width="10" x="750.1265" y="249.8633"/><rect fill="#FFFFFF" height="29.3105" style="stroke:#181818;stroke-width:1.0;" width="10" x="750.1265" y="349.4395"/><line style="stroke:#181818;stroke-width:0.5;stroke-dasharray:5.0,5.0;" x1="80" x2="80" y1="118.9766" y2="187.5977"/><line style="stroke:#383838;stroke-width:1.0;stroke-dasharray:1.0,4.0;" x1="80" x2="80" y1="187.5977" y2="228.5527"/><line style="stroke:#181818;stroke-width:0.5;stroke-dasharray:5.0,5.0;" x1="80" x2="80" y1="228.5527" y2="287.1738"/><line style="stroke:#383838;stroke-width:1.0;stroke-dasharray:1.0,4.0;" x1="80" x2="80" y1="287.1738" y2="328.1289"/><line style="stroke:#181818;stroke-width:0.5;stroke-dasharray:5.0,5.0;" x1="80" x2="80" y1="328.1289" y2="396.75"/><line style="stroke:#181818;stroke-width:0.5;stroke-dasharray:5.0,5.0;" x1="754.8628" x2="754.8628" y1="118.9766" y2="187.5977"/><line style="stroke:#383838;stroke-width:1.0;stroke-dasharray:1.0,4.0;" x1="754.8628" x2="754.8628" y1="187.5977" y2="228.5527"/><line style="stroke:#181818;stroke-width:0.5;stroke-dasharray:5.0,5.0;" x1="754.8628" x2="754.8628" y1="228.5527" y2="287.1738"/><line style="stroke:#383838;stroke-width:1.0;stroke-dasharray:1.0,4.0;" x1="754.8628" x2="754.8628" y1="287.1738" y2="328.1289"/><line style="stroke:#181818;stroke-width:0.5;stroke-dasharray:5.0,5.0;" x1="754.8628" x2="754.8628" y1="328.1289" y2="396.75"/><text fill="#000000" font-family="sans-serif" font-size="14" lengthAdjust="spacing" textLength="145.2773" x="5" y="116.0234">Port Authority Officer</text><ellipse cx="80.6387" cy="50.9883" fill="#E3E3E3" rx="8" ry="8" style="stroke:#181818;stroke-width:0.5;"/><path d="M80.6387,58.9883 L80.6387,85.9883 M67.6387,66.9883 L93.6387,66.9883 M80.6387,85.9883 L67.6387,100.9883 M80.6387,85.9883 L93.6387,100.9883 " fill="none" style="stroke:#181818;stroke-width:0.5;"/><text fill="#000000" font-family="sans-serif" font-size="14" lengthAdjust="spacing" textLength="145.2773" x="5" y="409.2852">Port Authority Officer</text><ellipse cx="80.6387" cy="420.7383" fill="#E3E3E3" rx="8" ry="8" style="stroke:#181818;stroke-width:0.5;"/><path d="M80.6387,428.7383 L80.6387,455.7383 M67.6387,436.7383 L93.6387,436.7383 M80.6387,455.7383 L67.6387,470.7383 M80.6387,455.7383 L93.6387,470.7383 " fill="none" style="stroke:#181818;stroke-width:0.5;"/><rect fill="#E3E3E3" height="30.4883" rx="2.5" ry="2.5" style="stroke:#181818;stroke-width:0.5;" width="66.5273" x="721.8628" y="87.4883"/><text fill="#000000" font-family="sans-serif" font-size="14" lengthAdjust="spacing" textLength="52.5273" x="728.8628" y="108.0234">:System</text><rect fill="#E3E3E3" height="30.4883" rx="2.5" ry="2.5" style="stroke:#181818;stroke-width:0.5;" width="66.5273" x="721.8628" y="395.75"/><text fill="#000000" font-family="sans-serif" font-size="14" lengthAdjust="spacing" textLength="52.5273" x="728.8628" y="416.2852">:System</text><rect fill="#FFFFFF" height="58.6211" style="stroke:#FFFFFF;stroke-width:1.0;" width="10" x="75.6387" y="128.9766"/><line style="stroke:#181818;stroke-width:1.0;" x1="75.6387" x2="75.6387" y1="128.9766" y2="187.5977"/><line style="stroke:#181818;stroke-width:1.0;" x1="85.6387" x2="85.6387" y1="128.9766" y2="187.5977"/><line style="stroke:#181818;stroke-width:1.0;" x1="75.6387" x2="85.6387" y1="128.9766" y2="128.9766"/><rect fill="#FFFFFF" height="58.6211" style="stroke:#FFFFFF;stroke-width:1.0;" width="10" x="75.6387" y="228.5527"/><line style="stroke:#181818;stroke-width:1.0;" x1="75.6387" x2="75.6387" y1="228.5527" y2="287.1738"/><line style="stroke:#181818;stroke-width:1.0;" x1="85.6387" x2="85.6387" y1="228.5527" y2="287.1738"/><rect fill="#FFFFFF" height="50.6211" style="stroke:#FFFFFF;stroke-width:1.0;" width="10" x="75.6387" y="328.1289"/><line style="stroke:#181818;stroke-width:1.0;" x1="75.6387" x2="75.6387" y1="328.1289" y2="378.75"/><line style="stroke:#181818;stroke-width:1.0;" x1="85.6387" x2="85.6387" y1="328.1289" y2="378.75"/><line style="stroke:#181818;stroke-width:1.0;" x1="75.6387" x2="85.6387" y1="378.75" y2="378.75"/><rect fill="#FFFFFF" height="29.3105" style="stroke:#181818;stroke-width:1.0;" width="10" x="750.1265" y="150.2871"/><rect fill="#FFFFFF" height="29.3105" style="stroke:#181818;stroke-width:1.0;" width="10" x="750.1265" y="249.8633"/><rect fill="#FFFFFF" height="29.3105" style="stroke:#181818;stroke-width:1.0;" width="10" x="750.1265" y="349.4395"/><polygon fill="#181818" points="738.1265,146.2871,748.1265,150.2871,738.1265,154.2871,742.1265,150.2871" style="stroke:#181818;stroke-width:1.0;"/><line style="stroke:#181818;stroke-width:1.0;" x1="85.6387" x2="744.1265" y1="150.2871" y2="150.2871"/><text fill="#000000" font-family="sans-serif" font-size="13" font-weight="bold" lengthAdjust="spacing" textLength="8.5757" x="92.6387" y="145.5449">1</text><text fill="#000000" font-family="sans-serif" font-size="13" lengthAdjust="spacing" textLength="572.5776" x="105.2144" y="145.5449">attempts to create a new vessel type with details (name, description, capacity, dimensions)</text><polygon fill="#181818" points="96.6387,175.5977,86.6387,179.5977,96.6387,183.5977,92.6387,179.5977" style="stroke:#181818;stroke-width:1.0;"/><line style="stroke:#181818;stroke-width:1.0;stroke-dasharray:2.0,2.0;" x1="90.6387" x2="754.1265" y1="179.5977" y2="179.5977"/><text fill="#000000" font-family="sans-serif" font-size="13" font-weight="bold" lengthAdjust="spacing" textLength="8.5757" x="102.6387" y="174.8555">2</text><text fill="#000000" font-family="sans-serif" font-size="13" lengthAdjust="spacing" textLength="294.4424" x="115.2144" y="174.8555">confirms successful creation of the vessel type</text><text fill="#000000" font-family="sans-serif" font-size="11" lengthAdjust="spacing" textLength="269.0811" x="283.342" y="212.2324">Authority selects an existing vessel type to update</text><polygon fill="#181818" points="738.1265,245.8633,748.1265,249.8633,738.1265,253.8633,742.1265,249.8633" style="stroke:#181818;stroke-width:1.0;"/><line style="stroke:#181818;stroke-width:1.0;" x1="85.6387" x2="744.1265" y1="249.8633" y2="249.8633"/><text fill="#000000" font-family="sans-serif" font-size="13" font-weight="bold" lengthAdjust="spacing" textLength="8.5757" x="92.6387" y="245.1211">3</text><text fill="#000000" font-family="sans-serif" font-size="13" lengthAdjust="spacing" textLength="632.9121" x="105.2144" y="245.1211">requests to update vessel type details (id, newName, newDescription, newCapacity, newDimensions)</text><polygon fill="#181818" points="96.6387,275.1738,86.6387,279.1738,96.6387,283.1738,92.6387,279.1738" style="stroke:#181818;stroke-width:1.0;"/><line style="stroke:#181818;stroke-width:1.0;stroke-dasharray:2.0,2.0;" x1="90.6387" x2="754.1265" y1="279.1738" y2="279.1738"/><text fill="#000000" font-family="sans-serif" font-size="13" font-weight="bold" lengthAdjust="spacing" textLength="8.5757" x="102.6387" y="274.4316">4</text><text fill="#000000" font-family="sans-serif" font-size="13" lengthAdjust="spacing" textLength="287.0854" x="115.2144" y="274.4316">confirms successful update of the vessel type</text><text fill="#000000" font-family="sans-serif" font-size="11" lengthAdjust="spacing" textLength="235.5815" x="300.0918" y="311.8086">Authority wants to search/filter vessel types</text><polygon fill="#181818" points="738.1265,345.4395,748.1265,349.4395,738.1265,353.4395,742.1265,349.4395" style="stroke:#181818;stroke-width:1.0;"/><line style="stroke:#181818;stroke-width:1.0;" x1="85.6387" x2="744.1265" y1="349.4395" y2="349.4395"/><text fill="#000000" font-family="sans-serif" font-size="13" font-weight="bold" lengthAdjust="spacing" textLength="8.5757" x="92.6387" y="344.6973">5</text><text fill="#000000" font-family="sans-serif" font-size="13" lengthAdjust="spacing" textLength="293.5791" x="105.2144" y="344.6973">searches vessel types by (name or description)</text><polygon fill="#181818" points="91.6387,374.75,81.6387,378.75,91.6387,382.75,87.6387,378.75" style="stroke:#181818;stroke-width:1.0;"/><line style="stroke:#181818;stroke-width:1.0;stroke-dasharray:2.0,2.0;" x1="85.6387" x2="754.1265" y1="378.75" y2="378.75"/><text fill="#000000" font-family="sans-serif" font-size="13" font-weight="bold" lengthAdjust="spacing" textLength="8.5757" x="97.6387" y="374.0078">6</text><text fill="#000000" font-family="sans-serif" font-size="13" lengthAdjust="spacing" textLength="188.6143" x="110.2144" y="374.0078">returns matching vessel types</text><!--SRC=[hLFDRjim3BxxAOXScW2nX_MOmu2XmOxR02-xip8T2xKbJwIR-Ur7HMwj5bkn0Rl95FdzKRw14nC83MEFGi0ozzQTOOlCqn1FWtVUTC4Fj0SIK-qAVh1kn813TWSI9ifkHZGFUAPQuGW26K5txlC6xh3nbqZGOizK5695Mq_rRNLRlJ_0NQ2e1rq3fx69n-_4J3rycqTYAA6UMLL3JJycSeRWQF4SWRTrVTmL1KxYtJJSKoZGY0-m-Ug3mCT9EX-ipF2bRQsXi07ajLgeEB76ZkW4DeV4SMr9noA2sSSePvsvASloIMzjo66m7hHMh6JbXoUz1q29QGk3U32BIt1qWSTaKDGWNAnqq92WxHcs3cFw3R49TXJhtHuCQiGAhMKxa6CjycvLjyXTI4lbNyKSm7ZNsZ0my6ICihPJdwGe2lWMfADSJT7GQ-1aUjdC2zDLLMLS2g7BPzqZq4_B4XUU-zGCfWIYSty8BCGLSmfiQSuXdbEopJxc-FaQbXwEULxwVVSSMRpyFwajUluXivemcExT9ziBXRUYk-WRl7hcDD6cYOo3tmWj3MdBY_xxEJqcq1yYUqv_7K4WcO9Z651CzsgN_3lBMMdzONu1]--></g></svg>