<svg xmlns="http://www.w3.org/2000/svg" xmlns:xlink="http://www.w3.org/1999/xlink" contentStyleType="text/css" height="244px" preserveAspectRatio="none" style="width:400px;height:244px;background:#FFFFFF;" version="1.1" viewBox="0 0 400 244" width="400px" zoomAndPan="magnify"><defs/><g><rect fill="#FFFFFF" height="29.7993" style="stroke:#000000;stroke-width:1.0;" width="10" x="329.9961" y="114.814"/><line style="stroke:#000000;stroke-width:1.0;" x1="87" x2="87" y1="83.0146" y2="162.6133"/><line style="stroke:#000000;stroke-width:1.0;" x1="334.6431" x2="334.6431" y1="83.0146" y2="162.6133"/><text fill="#000000" font-family="Verdana" font-size="14" lengthAdjust="spacing" textLength="149.5088" x="10" y="80.0752">Port Authority Officer</text><ellipse cx="87.7544" cy="14" fill="#FFFFFF" rx="8" ry="8" style="stroke:#000000;stroke-width:1.0;"/><path d="M87.7544,22 L87.7544,49 M74.7544,30 L100.7544,30 M87.7544,49 L74.7544,64 M87.7544,49 L100.7544,64 " fill="none" style="stroke:#000000;stroke-width:1.0;"/><text fill="#000000" font-family="Verdana" font-size="14" lengthAdjust="spacing" textLength="149.5088" x="10" y="175.6885">Port Authority Officer</text><ellipse cx="87.7544" cy="187.6279" fill="#FFFFFF" rx="8" ry="8" style="stroke:#000000;stroke-width:1.0;"/><path d="M87.7544,195.6279 L87.7544,222.6279 M74.7544,203.6279 L100.7544,203.6279 M87.7544,222.6279 L74.7544,237.6279 M87.7544,222.6279 L100.7544,237.6279 " fill="none" style="stroke:#000000;stroke-width:1.0;"/><rect fill="#FFFFFF" height="48.0293" rx="2.5" ry="2.5" style="stroke:#000000;stroke-width:1.0;" width="118.7061" x="275.6431" y="33.9854"/><text fill="#000000" font-family="Verdana" font-size="14" lengthAdjust="spacing" textLength="104.7061" x="282.6431" y="55.0605">&#171;system (C4)&#187;</text><text fill="#000000" font-family="Verdana" font-size="14" lengthAdjust="spacing" textLength="85.9756" x="292.0083" y="72.0752">Port System</text><rect fill="#FFFFFF" height="48.0293" rx="2.5" ry="2.5" style="stroke:#000000;stroke-width:1.0;" width="118.7061" x="275.6431" y="161.6133"/><text fill="#000000" font-family="Verdana" font-size="14" lengthAdjust="spacing" textLength="104.7061" x="282.6431" y="182.6885">&#171;system (C4)&#187;</text><text fill="#000000" font-family="Verdana" font-size="14" lengthAdjust="spacing" textLength="85.9756" x="292.0083" y="199.7031">Port System</text><rect fill="#FFFFFF" height="29.7993" style="stroke:#000000;stroke-width:1.0;" width="10" x="329.9961" y="114.814"/><polygon fill="#000000" points="317.9961,110.814,327.9961,114.814,317.9961,118.814,321.9961,114.814" style="stroke:#000000;stroke-width:1.0;"/><line style="stroke:#000000;stroke-width:1.0;" x1="87.7544" x2="323.9961" y1="114.814" y2="114.814"/><text fill="#000000" font-family="Verdana" font-size="13" font-weight="bold" lengthAdjust="spacing" textLength="9.2422" x="94.7544" y="110.0845">1</text><text fill="#000000" font-family="Verdana" font-size="13" lengthAdjust="spacing" textLength="209.9995" x="107.9966" y="110.0845">1: create or update vessel  data</text><polygon fill="#000000" points="98.7544,140.6133,88.7544,144.6133,98.7544,148.6133,94.7544,144.6133" style="stroke:#000000;stroke-width:1.0;"/><line style="stroke:#000000;stroke-width:1.0;stroke-dasharray:2.0,2.0;" x1="92.7544" x2="333.9961" y1="144.6133" y2="144.6133"/><text fill="#000000" font-family="Verdana" font-size="13" font-weight="bold" lengthAdjust="spacing" textLength="9.2422" x="104.7544" y="139.8838">2</text><text fill="#000000" font-family="Verdana" font-size="13" lengthAdjust="spacing" textLength="175.0684" x="117.9966" y="139.8838">1.1: vessel data confirmed</text><!--SRC=[LSwn2eD030RW_PuYTMe72uLE8e9qwjH2EtP9puW7UdVaSe9ltplHeLiIylt9GGQQ2Fo8nYgCucoSliHAeHR7K3mT2xHH1iT65dZqlT741M3OQ-MHnMZZqGeKTHsM83J1yNOzDSt7hW6lTRQgzlvMQgDGDhc72YuLQ2OKWdGq-YvNCuL08q1gCBzZvZpDFfiosJqc-NDAs43U1-riRtYYJdNqPty0]--></g></svg>