<svg xmlns="http://www.w3.org/2000/svg" xmlns:xlink="http://www.w3.org/1999/xlink" contentStyleType="text/css" height="304px" preserveAspectRatio="none" style="width:698px;height:304px;background:#FFFFFF;" version="1.1" viewBox="0 0 698 304" width="698px" zoomAndPan="magnify"><defs/><g><rect fill="#FFFFFF" height="89.3979" style="stroke:#000000;stroke-width:1.0;" width="10" x="292.0181" y="114.814"/><rect fill="#FFFFFF" height="29.7993" style="stroke:#000000;stroke-width:1.0;" width="10" x="622.5708" y="144.6133"/><line style="stroke:#000000;stroke-width:1.0;" x1="87" x2="87" y1="83.0146" y2="222.2119"/><line style="stroke:#000000;stroke-width:1.0;" x1="296.856" x2="296.856" y1="83.0146" y2="222.2119"/><line style="stroke:#000000;stroke-width:1.0;" x1="627.5337" x2="627.5337" y1="83.0146" y2="222.2119"/><text fill="#000000" font-family="Verdana" font-size="14" lengthAdjust="spacing" textLength="149.5088" x="10" y="80.0752">Port Authority Officer</text><ellipse cx="87.7544" cy="14" fill="#FFFFFF" rx="8" ry="8" style="stroke:#000000;stroke-width:1.0;"/><path d="M87.7544,22 L87.7544,49 M74.7544,30 L100.7544,30 M87.7544,49 L74.7544,64 M87.7544,49 L100.7544,64 " fill="none" style="stroke:#000000;stroke-width:1.0;"/><text fill="#000000" font-family="Verdana" font-size="14" lengthAdjust="spacing" textLength="149.5088" x="10" y="235.2871">Port Authority Officer</text><ellipse cx="87.7544" cy="247.2266" fill="#FFFFFF" rx="8" ry="8" style="stroke:#000000;stroke-width:1.0;"/><path d="M87.7544,255.2266 L87.7544,282.2266 M74.7544,263.2266 L100.7544,263.2266 M87.7544,282.2266 L74.7544,297.2266 M87.7544,282.2266 L100.7544,297.2266 " fill="none" style="stroke:#000000;stroke-width:1.0;"/><rect fill="#FFFFFF" height="48.0293" rx="2.5" ry="2.5" style="stroke:#000000;stroke-width:1.0;" width="114.3242" x="239.856" y="33.9854"/><text fill="#000000" font-family="Verdana" font-size="14" lengthAdjust="spacing" textLength="100.3242" x="246.856" y="55.0605">User Interface</text><text fill="#000000" font-family="Verdana" font-size="14" lengthAdjust="spacing" textLength="28.8545" x="282.5908" y="72.0752">(UI)</text><rect fill="#FFFFFF" height="48.0293" rx="2.5" ry="2.5" style="stroke:#000000;stroke-width:1.0;" width="114.3242" x="239.856" y="221.2119"/><text fill="#000000" font-family="Verdana" font-size="14" lengthAdjust="spacing" textLength="100.3242" x="246.856" y="242.2871">User Interface</text><text fill="#000000" font-family="Verdana" font-size="14" lengthAdjust="spacing" textLength="28.8545" x="282.5908" y="259.3018">(UI)</text><rect fill="#FFFFFF" height="48.0293" rx="2.5" ry="2.5" style="stroke:#000000;stroke-width:1.0;" width="130.0742" x="562.5337" y="33.9854"/><text fill="#000000" font-family="Verdana" font-size="14" lengthAdjust="spacing" textLength="116.0742" x="569.5337" y="55.0605">Backend Service</text><text fill="#000000" font-family="Verdana" font-size="14" lengthAdjust="spacing" textLength="98.6904" x="578.2256" y="72.0752">(Port System)</text><rect fill="#FFFFFF" height="48.0293" rx="2.5" ry="2.5" style="stroke:#000000;stroke-width:1.0;" width="130.0742" x="562.5337" y="221.2119"/><text fill="#000000" font-family="Verdana" font-size="14" lengthAdjust="spacing" textLength="116.0742" x="569.5337" y="242.2871">Backend Service</text><text fill="#000000" font-family="Verdana" font-size="14" lengthAdjust="spacing" textLength="98.6904" x="578.2256" y="259.3018">(Port System)</text><rect fill="#FFFFFF" height="89.3979" style="stroke:#000000;stroke-width:1.0;" width="10" x="292.0181" y="114.814"/><rect fill="#FFFFFF" height="29.7993" style="stroke:#000000;stroke-width:1.0;" width="10" x="622.5708" y="144.6133"/><polygon fill="#000000" points="280.0181,110.814,290.0181,114.814,280.0181,118.814,284.0181,114.814" style="stroke:#000000;stroke-width:1.0;"/><line style="stroke:#000000;stroke-width:1.0;" x1="87.7544" x2="286.0181" y1="114.814" y2="114.814"/><text fill="#000000" font-family="Verdana" font-size="13" font-weight="bold" lengthAdjust="spacing" textLength="9.2422" x="94.7544" y="110.0845">1</text><text fill="#000000" font-family="Verdana" font-size="13" lengthAdjust="spacing" textLength="172.0215" x="107.9966" y="110.0845">1: create or update vessel</text><polygon fill="#000000" points="610.5708,140.6133,620.5708,144.6133,610.5708,148.6133,614.5708,144.6133" style="stroke:#000000;stroke-width:1.0;"/><line style="stroke:#000000;stroke-width:1.0;" x1="302.0181" x2="616.5708" y1="144.6133" y2="144.6133"/><text fill="#000000" font-family="Verdana" font-size="13" font-weight="bold" lengthAdjust="spacing" textLength="9.2422" x="309.0181" y="139.8838">2</text><text fill="#000000" font-family="Verdana" font-size="13" lengthAdjust="spacing" textLength="288.3105" x="322.2603" y="139.8838">1.1: Request (CreateVessel / UpdateVessel)</text><polygon fill="#000000" points="313.0181,170.4126,303.0181,174.4126,313.0181,178.4126,309.0181,174.4126" style="stroke:#000000;stroke-width:1.0;"/><line style="stroke:#000000;stroke-width:1.0;stroke-dasharray:2.0,2.0;" x1="307.0181" x2="626.5708" y1="174.4126" y2="174.4126"/><text fill="#000000" font-family="Verdana" font-size="13" font-weight="bold" lengthAdjust="spacing" textLength="9.2422" x="319.0181" y="169.6831">3</text><text fill="#000000" font-family="Verdana" font-size="13" lengthAdjust="spacing" textLength="174.916" x="332.2603" y="169.6831">1.2: Response (VesselDto)</text><polygon fill="#000000" points="98.7544,200.2119,88.7544,204.2119,98.7544,208.2119,94.7544,204.2119" style="stroke:#000000;stroke-width:1.0;"/><line style="stroke:#000000;stroke-width:1.0;stroke-dasharray:2.0,2.0;" x1="92.7544" x2="296.0181" y1="204.2119" y2="204.2119"/><text fill="#000000" font-family="Verdana" font-size="13" font-weight="bold" lengthAdjust="spacing" textLength="9.2422" x="104.7544" y="199.4824">4</text><text fill="#000000" font-family="Verdana" font-size="13" lengthAdjust="spacing" textLength="165.6611" x="117.9966" y="199.4824">1.3: Display confirmation</text><!--SRC=[PP0_JyCm4CLtVueZKpAq2DWo856wP6f55IOMurnKYyOsvtEaV7jif-QFsEwaztlltTtm6IS4Tv7Q21dOcZ2z8maX5Lk2wcY9uIdmsPBc1GxZg1LI1TANMJX9h9LsqZ1KlKU2pZ3IA1M-cRhlcgpkkx_2dLGVQ0Ou8SqwAtFKQV6CqufS9K9Sas3p66sWXRiM5A5aX5Wnk25DCtgFbrHRpscFUL4RYH8KiMq4N_0pe6UedxF3QyRW5lfiiwxDZqtfK5mstnsszydCEsiyGhs2UxQD6F0VdPf4iDoHw8SMzjh7lo-Wh1arJPArDR_fUC8N]--></g></svg>