<?xml version="1.0" encoding="us-ascii" standalone="no"?><svg xmlns="http://www.w3.org/2000/svg" xmlns:xlink="http://www.w3.org/1999/xlink" contentStyleType="text/css" height="765px" preserveAspectRatio="none" style="width:1033px;height:765px;background:#FFFFFF;" version="1.1" viewBox="0 0 1033 765" width="1033.8px" zoomAndPan="magnify"><defs/><g><!--class US01_UI--><g id="elem_US01_UI"><rect codeLine="9" fill="#F1F1F1" height="28.8" id="US01_UI" rx="1.5" ry="1.5" style="stroke:#181818;stroke-width:0.3;" width="51.6" x="389.1" y="4.2"/><ellipse cx="398.1" cy="13.8" fill="#ADD1B2" rx="6.6" ry="6.6" style="stroke:#181818;stroke-width:0.6;"/><path d="M399.7594,11.325 Q399.8531,11.1938 399.9656,11.1281 Q400.0781,11.0625 400.2094,11.0625 Q400.4344,11.0625 400.575,11.2219 Q400.7156,11.3719 400.7156,11.7375 L400.7156,12.6094 Q400.7156,12.975 400.575,13.1344 Q400.4344,13.2938 400.2094,13.2938 Q400.0031,13.2938 399.8812,13.1719 Q399.7594,13.0594 399.6937,12.75 Q399.6656,12.5344 399.5531,12.4219 Q399.3563,12.1969 398.9906,12.0656 Q398.625,11.9344 398.25,11.9344 Q397.7906,11.9344 397.4063,12.1313 Q397.0313,12.3281 396.7313,12.7781 Q396.4406,13.2281 396.4406,13.8469 L396.4406,14.5031 Q396.4406,15.2437 396.975,15.7406 Q397.5094,16.2281 398.4656,16.2281 Q399.0281,16.2281 399.4219,16.0781 Q399.6563,15.9844 399.9094,15.7219 Q400.0687,15.5625 400.1531,15.5156 Q400.2469,15.4688 400.3688,15.4688 Q400.5656,15.4688 400.7156,15.6281 Q400.875,15.7781 400.875,15.9844 Q400.875,16.1906 400.6688,16.4344 Q400.3688,16.7813 399.8906,16.9781 Q399.2438,17.25 398.4656,17.25 Q397.5563,17.25 396.8344,16.875 Q396.2438,16.575 395.8313,15.9375 Q395.4188,15.2906 395.4188,14.5219 L395.4188,13.8281 Q395.4188,13.0313 395.7844,12.3469 Q396.1594,11.6531 396.8156,11.2875 Q397.4719,10.9125 398.2125,10.9125 Q398.6531,10.9125 399.0375,11.0156 Q399.4313,11.1094 399.7594,11.325 Z " fill="#000000"/><text fill="#000000" font-family="sans-serif" font-size="8.4" lengthAdjust="spacing" textLength="32.4" x="406.5" y="17.2781">US01_UI</text><line style="stroke:#181818;stroke-width:0.3;" x1="389.7" x2="440.1" y1="23.4" y2="23.4"/><line style="stroke:#181818;stroke-width:0.3;" x1="389.7" x2="440.1" y1="28.2" y2="28.2"/></g><!--class SimulationController--><g id="elem_SimulationController"><rect codeLine="12" fill="#F1F1F1" height="73.4906" id="SimulationController" rx="1.5" ry="1.5" style="stroke:#181818;stroke-width:0.3;" width="150.6" x="339.6" y="75.3"/><ellipse cx="374.25" cy="84.9" fill="#ADD1B2" rx="6.6" ry="6.6" style="stroke:#181818;stroke-width:0.6;"/><path d="M375.9094,82.425 Q376.0031,82.2938 376.1156,82.2281 Q376.2281,82.1625 376.3594,82.1625 Q376.5844,82.1625 376.725,82.3219 Q376.8656,82.4719 376.8656,82.8375 L376.8656,83.7094 Q376.8656,84.075 376.725,84.2344 Q376.5844,84.3938 376.3594,84.3938 Q376.1531,84.3938 376.0313,84.2719 Q375.9094,84.1594 375.8438,83.85 Q375.8156,83.6344 375.7031,83.5219 Q375.5062,83.2969 375.1406,83.1656 Q374.775,83.0344 374.4,83.0344 Q373.9406,83.0344 373.5563,83.2313 Q373.1813,83.4281 372.8812,83.8781 Q372.5906,84.3281 372.5906,84.9469 L372.5906,85.6031 Q372.5906,86.3438 373.125,86.8406 Q373.6594,87.3281 374.6156,87.3281 Q375.1781,87.3281 375.5719,87.1781 Q375.8063,87.0844 376.0594,86.8219 Q376.2188,86.6625 376.3031,86.6156 Q376.3969,86.5688 376.5188,86.5688 Q376.7156,86.5688 376.8656,86.7281 Q377.025,86.8781 377.025,87.0844 Q377.025,87.2906 376.8187,87.5344 Q376.5188,87.8813 376.0406,88.0781 Q375.3938,88.35 374.6156,88.35 Q373.7063,88.35 372.9844,87.975 Q372.3938,87.675 371.9813,87.0375 Q371.5687,86.3906 371.5687,85.6219 L371.5687,84.9281 Q371.5687,84.1313 371.9344,83.4469 Q372.3094,82.7531 372.9656,82.3875 Q373.6219,82.0125 374.3625,82.0125 Q374.8031,82.0125 375.1875,82.1156 Q375.5813,82.2094 375.9094,82.425 Z " fill="#000000"/><text fill="#000000" font-family="sans-serif" font-size="8.4" lengthAdjust="spacing" textLength="76.2" x="386.55" y="88.3781">SimulationController</text><line style="stroke:#181818;stroke-width:0.3;" x1="340.2" x2="489.6" y1="94.5" y2="94.5"/><text fill="#000000" font-family="sans-serif" font-size="8.4" lengthAdjust="spacing" textLength="81" x="343.2" y="105.9645">-simulator: Simulation</text><line style="stroke:#181818;stroke-width:0.3;" x1="340.2" x2="489.6" y1="110.4727" y2="110.4727"/><text fill="#000000" font-family="sans-serif" font-size="8.4" lengthAdjust="spacing" textLength="87" x="343.2" y="121.9371">+SimulationController()</text><text fill="#000000" font-family="sans-serif" font-size="8.4" lengthAdjust="spacing" textLength="127.2" x="343.2" y="133.1098">+loadItemsFromCSV(path: String)</text><text fill="#000000" font-family="sans-serif" font-size="8.4" lengthAdjust="spacing" textLength="143.4" x="343.2" y="144.2824">+loadMachinesFromCSV(path: String)</text></g><!--class Repositories--><g id="elem_Repositories"><rect codeLine="19" fill="#F1F1F1" height="84.6633" id="Repositories" rx="1.5" ry="1.5" style="stroke:#181818;stroke-width:0.3;" width="223.8" x="552.6" y="69.6"/><ellipse cx="638.25" cy="79.2" fill="#ADD1B2" rx="6.6" ry="6.6" style="stroke:#181818;stroke-width:0.6;"/><path d="M639.9094,76.725 Q640.0031,76.5938 640.1156,76.5281 Q640.2281,76.4625 640.3594,76.4625 Q640.5844,76.4625 640.725,76.6219 Q640.8656,76.7719 640.8656,77.1375 L640.8656,78.0094 Q640.8656,78.375 640.725,78.5344 Q640.5844,78.6938 640.3594,78.6938 Q640.1531,78.6938 640.0313,78.5719 Q639.9094,78.4594 639.8438,78.15 Q639.8156,77.9344 639.7031,77.8219 Q639.5063,77.5969 639.1406,77.4656 Q638.775,77.3344 638.4,77.3344 Q637.9406,77.3344 637.5563,77.5313 Q637.1813,77.7281 636.8813,78.1781 Q636.5906,78.6281 636.5906,79.2469 L636.5906,79.9031 Q636.5906,80.6438 637.125,81.1406 Q637.6594,81.6281 638.6156,81.6281 Q639.1781,81.6281 639.5719,81.4781 Q639.8063,81.3844 640.0594,81.1219 Q640.2188,80.9625 640.3031,80.9156 Q640.3969,80.8687 640.5188,80.8687 Q640.7156,80.8687 640.8656,81.0281 Q641.025,81.1781 641.025,81.3844 Q641.025,81.5906 640.8188,81.8344 Q640.5188,82.1812 640.0406,82.3781 Q639.3938,82.65 638.6156,82.65 Q637.7063,82.65 636.9844,82.275 Q636.3938,81.975 635.9812,81.3375 Q635.5688,80.6906 635.5688,79.9219 L635.5688,79.2281 Q635.5688,78.4312 635.9344,77.7469 Q636.3094,77.0531 636.9656,76.6875 Q637.6219,76.3125 638.3625,76.3125 Q638.8031,76.3125 639.1875,76.4156 Q639.5813,76.5094 639.9094,76.725 Z " fill="#000000"/><text fill="#000000" font-family="sans-serif" font-size="8.4" lengthAdjust="spacing" textLength="47.4" x="650.55" y="82.6781">Repositories</text><line style="stroke:#181818;stroke-width:0.3;" x1="553.2" x2="775.8" y1="88.8" y2="88.8"/><line style="stroke:#181818;stroke-width:0.3;" x1="553.2" x2="775.8" y1="93.6" y2="93.6"/><text fill="#000000" font-family="sans-serif" font-size="8.4" lengthAdjust="spacing" textLength="56.4" x="556.2" y="105.0645">-Repositories()</text><text fill="#000000" font-family="sans-serif" font-size="8.4" lengthAdjust="spacing" textLength="103.8" x="556.2" y="116.2371">+getInstance(): repositories</text><text fill="#000000" font-family="sans-serif" font-size="8.4" lengthAdjust="spacing" textLength="216.6" x="556.2" y="127.4098">+getAuthenticationRepository(): authenticationRepository</text><text fill="#000000" font-family="sans-serif" font-size="8.4" lengthAdjust="spacing" textLength="148.8" x="556.2" y="138.5824">+getItemsRepository(): itemsRepository</text><text fill="#000000" font-family="sans-serif" font-size="8.4" lengthAdjust="spacing" textLength="196.8" x="556.2" y="149.7551">+getWorkstationRepository(): workstationRepository</text></g><!--class ItemsRepository--><g id="elem_ItemsRepository"><rect codeLine="27" fill="#F1F1F1" height="39.9727" id="ItemsRepository" rx="1.5" ry="1.5" style="stroke:#181818;stroke-width:0.3;" width="79.8" x="616.2" y="201.6"/><ellipse cx="625.2" cy="211.2" fill="#ADD1B2" rx="6.6" ry="6.6" style="stroke:#181818;stroke-width:0.6;"/><path d="M626.8594,208.725 Q626.9531,208.5938 627.0656,208.5281 Q627.1781,208.4625 627.3094,208.4625 Q627.5344,208.4625 627.675,208.6219 Q627.8156,208.7719 627.8156,209.1375 L627.8156,210.0094 Q627.8156,210.375 627.675,210.5344 Q627.5344,210.6938 627.3094,210.6938 Q627.1031,210.6938 626.9812,210.5719 Q626.8594,210.4594 626.7937,210.15 Q626.7656,209.9344 626.6531,209.8219 Q626.4563,209.5969 626.0906,209.4656 Q625.725,209.3344 625.35,209.3344 Q624.8906,209.3344 624.5063,209.5313 Q624.1313,209.7281 623.8313,210.1781 Q623.5406,210.6281 623.5406,211.2469 L623.5406,211.9031 Q623.5406,212.6437 624.075,213.1406 Q624.6094,213.6281 625.5656,213.6281 Q626.1281,213.6281 626.5219,213.4781 Q626.7563,213.3844 627.0094,213.1219 Q627.1687,212.9625 627.2531,212.9156 Q627.3469,212.8688 627.4688,212.8688 Q627.6656,212.8688 627.8156,213.0281 Q627.975,213.1781 627.975,213.3844 Q627.975,213.5906 627.7688,213.8344 Q627.4688,214.1813 626.9906,214.3781 Q626.3438,214.65 625.5656,214.65 Q624.6563,214.65 623.9344,214.275 Q623.3438,213.975 622.9313,213.3375 Q622.5188,212.6906 622.5188,211.9219 L622.5188,211.2281 Q622.5188,210.4313 622.8844,209.7469 Q623.2594,209.0531 623.9156,208.6875 Q624.5719,208.3125 625.3125,208.3125 Q625.7531,208.3125 626.1375,208.4156 Q626.5313,208.5094 626.8594,208.725 Z " fill="#000000"/><text fill="#000000" font-family="sans-serif" font-size="8.4" lengthAdjust="spacing" textLength="60.6" x="633.6" y="214.6781">ItemsRepository</text><line style="stroke:#181818;stroke-width:0.3;" x1="616.8" x2="695.4" y1="220.8" y2="220.8"/><line style="stroke:#181818;stroke-width:0.3;" x1="616.8" x2="695.4" y1="225.6" y2="225.6"/><text fill="#000000" font-family="sans-serif" font-size="8.4" lengthAdjust="spacing" textLength="51.6" x="619.8" y="237.0645">+getItemList()</text></g><!--class WorkstationRepository--><g id="elem_WorkstationRepository"><rect codeLine="31" fill="#F1F1F1" height="39.9727" id="WorkstationRepository" rx="1.5" ry="1.5" style="stroke:#181818;stroke-width:0.3;" width="105" x="447" y="201.6"/><ellipse cx="456" cy="211.2" fill="#ADD1B2" rx="6.6" ry="6.6" style="stroke:#181818;stroke-width:0.6;"/><path d="M457.6594,208.725 Q457.7531,208.5938 457.8656,208.5281 Q457.9781,208.4625 458.1094,208.4625 Q458.3344,208.4625 458.475,208.6219 Q458.6156,208.7719 458.6156,209.1375 L458.6156,210.0094 Q458.6156,210.375 458.475,210.5344 Q458.3344,210.6938 458.1094,210.6938 Q457.9031,210.6938 457.7813,210.5719 Q457.6594,210.4594 457.5938,210.15 Q457.5656,209.9344 457.4531,209.8219 Q457.2562,209.5969 456.8906,209.4656 Q456.525,209.3344 456.15,209.3344 Q455.6906,209.3344 455.3063,209.5313 Q454.9313,209.7281 454.6312,210.1781 Q454.3406,210.6281 454.3406,211.2469 L454.3406,211.9031 Q454.3406,212.6437 454.875,213.1406 Q455.4094,213.6281 456.3656,213.6281 Q456.9281,213.6281 457.3219,213.4781 Q457.5563,213.3844 457.8094,213.1219 Q457.9688,212.9625 458.0531,212.9156 Q458.1469,212.8688 458.2688,212.8688 Q458.4656,212.8688 458.6156,213.0281 Q458.775,213.1781 458.775,213.3844 Q458.775,213.5906 458.5687,213.8344 Q458.2688,214.1813 457.7906,214.3781 Q457.1438,214.65 456.3656,214.65 Q455.4563,214.65 454.7344,214.275 Q454.1438,213.975 453.7313,213.3375 Q453.3187,212.6906 453.3187,211.9219 L453.3187,211.2281 Q453.3187,210.4313 453.6844,209.7469 Q454.0594,209.0531 454.7156,208.6875 Q455.3719,208.3125 456.1125,208.3125 Q456.5531,208.3125 456.9375,208.4156 Q457.3313,208.5094 457.6594,208.725 Z " fill="#000000"/><text fill="#000000" font-family="sans-serif" font-size="8.4" lengthAdjust="spacing" textLength="85.8" x="464.4" y="214.6781">WorkstationRepository</text><line style="stroke:#181818;stroke-width:0.3;" x1="447.6" x2="551.4" y1="220.8" y2="220.8"/><line style="stroke:#181818;stroke-width:0.3;" x1="447.6" x2="551.4" y1="225.6" y2="225.6"/><text fill="#000000" font-family="sans-serif" font-size="8.4" lengthAdjust="spacing" textLength="67.8" x="450.6" y="237.0645">+getMachineList()</text></g><!--class ApplicationSession--><g id="elem_ApplicationSession"><rect codeLine="36" fill="#F1F1F1" height="51.1453" id="ApplicationSession" rx="1.5" ry="1.5" style="stroke:#181818;stroke-width:0.3;" width="90.6" x="844.8" y="86.4"/><ellipse cx="853.8" cy="96" fill="#ADD1B2" rx="6.6" ry="6.6" style="stroke:#181818;stroke-width:0.6;"/><path d="M855.4594,93.525 Q855.5531,93.3938 855.6656,93.3281 Q855.7781,93.2625 855.9094,93.2625 Q856.1344,93.2625 856.275,93.4219 Q856.4156,93.5719 856.4156,93.9375 L856.4156,94.8094 Q856.4156,95.175 856.275,95.3344 Q856.1344,95.4937 855.9094,95.4937 Q855.7031,95.4937 855.5813,95.3719 Q855.4594,95.2594 855.3938,94.95 Q855.3656,94.7344 855.2531,94.6219 Q855.0563,94.3969 854.6906,94.2656 Q854.325,94.1344 853.95,94.1344 Q853.4906,94.1344 853.1062,94.3313 Q852.7312,94.5281 852.4313,94.9781 Q852.1406,95.4281 852.1406,96.0469 L852.1406,96.7031 Q852.1406,97.4438 852.675,97.9406 Q853.2094,98.4281 854.1656,98.4281 Q854.7281,98.4281 855.1219,98.2781 Q855.3562,98.1844 855.6094,97.9219 Q855.7688,97.7625 855.8531,97.7156 Q855.9469,97.6688 856.0688,97.6688 Q856.2656,97.6688 856.4156,97.8281 Q856.575,97.9781 856.575,98.1844 Q856.575,98.3906 856.3688,98.6344 Q856.0688,98.9813 855.5906,99.1781 Q854.9438,99.45 854.1656,99.45 Q853.2563,99.45 852.5344,99.075 Q851.9438,98.775 851.5313,98.1375 Q851.1188,97.4906 851.1188,96.7219 L851.1188,96.0281 Q851.1188,95.2313 851.4844,94.5469 Q851.8594,93.8531 852.5156,93.4875 Q853.1719,93.1125 853.9125,93.1125 Q854.3531,93.1125 854.7375,93.2156 Q855.1313,93.3094 855.4594,93.525 Z " fill="#000000"/><text fill="#000000" font-family="sans-serif" font-size="8.4" lengthAdjust="spacing" textLength="71.4" x="862.2" y="99.4781">ApplicationSession</text><line style="stroke:#181818;stroke-width:0.3;" x1="845.4" x2="934.8" y1="105.6" y2="105.6"/><line style="stroke:#181818;stroke-width:0.3;" x1="845.4" x2="934.8" y1="110.4" y2="110.4"/><text fill="#000000" font-family="sans-serif" font-size="8.4" lengthAdjust="spacing" textLength="76.8" x="848.4" y="121.8645">+static getInstance()</text><text fill="#000000" font-family="sans-serif" font-size="8.4" lengthAdjust="spacing" textLength="81.6" x="848.4" y="133.0371">+getCurrentSession()</text></g><!--class UserSession--><g id="elem_UserSession"><rect codeLine="41" fill="#F1F1F1" height="39.9727" id="UserSession" rx="1.5" ry="1.5" style="stroke:#181818;stroke-width:0.3;" width="67.8" x="468.6" y="322.5"/><ellipse cx="478.14" cy="332.1" fill="#ADD1B2" rx="6.6" ry="6.6" style="stroke:#181818;stroke-width:0.6;"/><path d="M479.7994,329.625 Q479.8931,329.4938 480.0056,329.4281 Q480.1181,329.3625 480.2494,329.3625 Q480.4744,329.3625 480.615,329.5219 Q480.7556,329.6719 480.7556,330.0375 L480.7556,330.9094 Q480.7556,331.275 480.615,331.4344 Q480.4744,331.5938 480.2494,331.5938 Q480.0431,331.5938 479.9213,331.4719 Q479.7994,331.3594 479.7338,331.05 Q479.7056,330.8344 479.5931,330.7219 Q479.3962,330.4969 479.0306,330.3656 Q478.665,330.2344 478.29,330.2344 Q477.8306,330.2344 477.4462,330.4313 Q477.0712,330.6281 476.7712,331.0781 Q476.4806,331.5281 476.4806,332.1469 L476.4806,332.8031 Q476.4806,333.5438 477.015,334.0406 Q477.5494,334.5281 478.5056,334.5281 Q479.0681,334.5281 479.4619,334.3781 Q479.6962,334.2844 479.9494,334.0219 Q480.1088,333.8625 480.1931,333.8156 Q480.2869,333.7688 480.4087,333.7688 Q480.6056,333.7688 480.7556,333.9281 Q480.915,334.0781 480.915,334.2844 Q480.915,334.4906 480.7087,334.7344 Q480.4087,335.0813 479.9306,335.2781 Q479.2837,335.55 478.5056,335.55 Q477.5962,335.55 476.8744,335.175 Q476.2837,334.875 475.8713,334.2375 Q475.4587,333.5906 475.4587,332.8219 L475.4587,332.1281 Q475.4587,331.3313 475.8244,330.6469 Q476.1994,329.9531 476.8556,329.5875 Q477.5119,329.2125 478.2525,329.2125 Q478.6931,329.2125 479.0775,329.3156 Q479.4712,329.4094 479.7994,329.625 Z " fill="#000000"/><text fill="#000000" font-family="sans-serif" font-size="8.4" lengthAdjust="spacing" textLength="47.4" x="486.66" y="335.5781">UserSession</text><line style="stroke:#181818;stroke-width:0.3;" x1="469.2" x2="535.8" y1="341.7" y2="341.7"/><line style="stroke:#181818;stroke-width:0.3;" x1="469.2" x2="535.8" y1="346.5" y2="346.5"/><text fill="#000000" font-family="sans-serif" font-size="8.4" lengthAdjust="spacing" textLength="60.6" x="472.2" y="357.9645">+getUserEmail()</text></g><!--class Workstation--><g id="elem_Workstation"><rect codeLine="46" fill="#F1F1F1" height="140.5266" id="Workstation" rx="1.5" ry="1.5" style="stroke:#181818;stroke-width:0.3;" width="120.6" x="211.2" y="620.4"/><ellipse cx="246.45" cy="630" fill="#ADD1B2" rx="6.6" ry="6.6" style="stroke:#181818;stroke-width:0.6;"/><path d="M248.1094,627.525 Q248.2031,627.3938 248.3156,627.3281 Q248.4281,627.2625 248.5594,627.2625 Q248.7844,627.2625 248.925,627.4219 Q249.0656,627.5719 249.0656,627.9375 L249.0656,628.8094 Q249.0656,629.175 248.925,629.3344 Q248.7844,629.4938 248.5594,629.4938 Q248.3531,629.4938 248.2313,629.3719 Q248.1094,629.2594 248.0438,628.95 Q248.0156,628.7344 247.9031,628.6219 Q247.7062,628.3969 247.3406,628.2656 Q246.975,628.1344 246.6,628.1344 Q246.1406,628.1344 245.7563,628.3313 Q245.3813,628.5281 245.0812,628.9781 Q244.7906,629.4281 244.7906,630.0469 L244.7906,630.7031 Q244.7906,631.4438 245.325,631.9406 Q245.8594,632.4281 246.8156,632.4281 Q247.3781,632.4281 247.7719,632.2781 Q248.0063,632.1844 248.2594,631.9219 Q248.4188,631.7625 248.5031,631.7156 Q248.5969,631.6687 248.7188,631.6687 Q248.9156,631.6687 249.0656,631.8281 Q249.225,631.9781 249.225,632.1844 Q249.225,632.3906 249.0187,632.6344 Q248.7188,632.9812 248.2406,633.1781 Q247.5938,633.45 246.8156,633.45 Q245.9063,633.45 245.1844,633.075 Q244.5938,632.775 244.1812,632.1375 Q243.7687,631.4906 243.7687,630.7219 L243.7687,630.0281 Q243.7687,629.2312 244.1344,628.5469 Q244.5094,627.8531 245.1656,627.4875 Q245.8219,627.1125 246.5625,627.1125 Q247.0031,627.1125 247.3875,627.2156 Q247.7813,627.3094 248.1094,627.525 Z " fill="#000000"/><text fill="#000000" font-family="sans-serif" font-size="8.4" lengthAdjust="spacing" textLength="45" x="258.75" y="633.4781">Workstation</text><line style="stroke:#181818;stroke-width:0.3;" x1="211.8" x2="331.2" y1="639.6" y2="639.6"/><text fill="#000000" font-family="sans-serif" font-size="8.4" lengthAdjust="spacing" textLength="69.6" x="214.8" y="651.0645">-IDMachine: String</text><text fill="#000000" font-family="sans-serif" font-size="8.4" lengthAdjust="spacing" textLength="66" x="214.8" y="662.2371">-operation: String</text><text fill="#000000" font-family="sans-serif" font-size="8.4" lengthAdjust="spacing" textLength="32.4" x="214.8" y="673.4098">-time: int</text><text fill="#000000" font-family="sans-serif" font-size="8.4" lengthAdjust="spacing" textLength="113.4" x="214.8" y="684.5824">-operationPercentage: double</text><text fill="#000000" font-family="sans-serif" font-size="8.4" lengthAdjust="spacing" textLength="72" x="214.8" y="695.7551">-available: boolean</text><line style="stroke:#181818;stroke-width:0.3;" x1="211.8" x2="331.2" y1="700.2633" y2="700.2633"/><text fill="#000000" font-family="sans-serif" font-size="8.4" lengthAdjust="spacing" textLength="62.4" x="214.8" y="711.7277">+getIDMachine()</text><text fill="#000000" font-family="sans-serif" font-size="8.4" lengthAdjust="spacing" textLength="60.6" x="214.8" y="722.9004">+getOperation()</text><text fill="#000000" font-family="sans-serif" font-size="8.4" lengthAdjust="spacing" textLength="41.4" x="214.8" y="734.073">+getTime()</text><text fill="#000000" font-family="sans-serif" font-size="8.4" lengthAdjust="spacing" textLength="104.4" x="214.8" y="745.2457">+getOperationPercentage()</text><text fill="#000000" font-family="sans-serif" font-size="8.4" lengthAdjust="spacing" textLength="57" x="214.8" y="756.4184">+getAvailable()</text></g><!--class Item--><g id="elem_Item"><rect codeLine="60" fill="#F1F1F1" height="129.3539" id="Item" rx="1.5" ry="1.5" style="stroke:#181818;stroke-width:0.3;" width="154.8" x="194.1" y="443.4"/><ellipse cx="261.15" cy="453" fill="#ADD1B2" rx="6.6" ry="6.6" style="stroke:#181818;stroke-width:0.6;"/><path d="M262.8094,450.525 Q262.9031,450.3938 263.0156,450.3281 Q263.1281,450.2625 263.2594,450.2625 Q263.4844,450.2625 263.625,450.4219 Q263.7656,450.5719 263.7656,450.9375 L263.7656,451.8094 Q263.7656,452.175 263.625,452.3344 Q263.4844,452.4938 263.2594,452.4938 Q263.0531,452.4938 262.9313,452.3719 Q262.8094,452.2594 262.7438,451.95 Q262.7156,451.7344 262.6031,451.6219 Q262.4063,451.3969 262.0406,451.2656 Q261.675,451.1344 261.3,451.1344 Q260.8406,451.1344 260.4563,451.3313 Q260.0813,451.5281 259.7813,451.9781 Q259.4906,452.4281 259.4906,453.0469 L259.4906,453.7031 Q259.4906,454.4437 260.025,454.9406 Q260.5594,455.4281 261.5156,455.4281 Q262.0781,455.4281 262.4719,455.2781 Q262.7063,455.1844 262.9594,454.9219 Q263.1188,454.7625 263.2031,454.7156 Q263.2969,454.6688 263.4188,454.6688 Q263.6156,454.6688 263.7656,454.8281 Q263.925,454.9781 263.925,455.1844 Q263.925,455.3906 263.7188,455.6344 Q263.4188,455.9813 262.9406,456.1781 Q262.2938,456.45 261.5156,456.45 Q260.6063,456.45 259.8844,456.075 Q259.2938,455.775 258.8812,455.1375 Q258.4688,454.4906 258.4688,453.7219 L258.4688,453.0281 Q258.4688,452.2313 258.8344,451.5469 Q259.2094,450.8531 259.8656,450.4875 Q260.5219,450.1125 261.2625,450.1125 Q261.7031,450.1125 262.0875,450.2156 Q262.4813,450.3094 262.8094,450.525 Z " fill="#000000"/><text fill="#000000" font-family="sans-serif" font-size="8.4" lengthAdjust="spacing" textLength="15.6" x="273.45" y="456.4781">Item</text><line style="stroke:#181818;stroke-width:0.3;" x1="194.7" x2="348.3" y1="462.6" y2="462.6"/><text fill="#000000" font-family="sans-serif" font-size="8.4" lengthAdjust="spacing" textLength="53.4" x="197.7" y="474.0645">-IDItem: String</text><text fill="#000000" font-family="sans-serif" font-size="8.4" lengthAdjust="spacing" textLength="80.4" x="197.7" y="485.2371">-priority: PriorityLevel</text><text fill="#000000" font-family="sans-serif" font-size="8.4" lengthAdjust="spacing" textLength="118.2" x="197.7" y="496.4098">-operations: LinkedList&lt;String&gt;</text><text fill="#000000" font-family="sans-serif" font-size="8.4" lengthAdjust="spacing" textLength="147.6" x="197.7" y="507.5824">-originalOperations: LinkedList&lt;String&gt;</text><line style="stroke:#181818;stroke-width:0.3;" x1="194.7" x2="348.3" y1="512.0906" y2="512.0906"/><text fill="#000000" font-family="sans-serif" font-size="8.4" lengthAdjust="spacing" textLength="46.2" x="197.7" y="523.5551">+getIDItem()</text><text fill="#000000" font-family="sans-serif" font-size="8.4" lengthAdjust="spacing" textLength="49.2" x="197.7" y="534.7277">+getPriority()</text><text fill="#000000" font-family="sans-serif" font-size="8.4" lengthAdjust="spacing" textLength="64.8" x="197.7" y="545.9004">+getOperations()</text><text fill="#000000" font-family="sans-serif" font-size="8.4" lengthAdjust="spacing" textLength="82.8" x="197.7" y="557.073">+completeOperation()</text><text fill="#000000" font-family="sans-serif" font-size="8.4" lengthAdjust="spacing" textLength="76.8" x="197.7" y="568.2457">+getNextOperation()</text></g><!--class Simulation--><g id="elem_Simulation"><rect codeLine="72" fill="#F1F1F1" height="107.0086" id="Simulation" rx="1.5" ry="1.5" style="stroke:#181818;stroke-width:0.3;" width="276.6" x="4.2" y="289.2"/><ellipse cx="120.45" cy="298.8" fill="#ADD1B2" rx="6.6" ry="6.6" style="stroke:#181818;stroke-width:0.6;"/><path d="M122.1094,296.325 Q122.2031,296.1937 122.3156,296.1281 Q122.4281,296.0625 122.5594,296.0625 Q122.7844,296.0625 122.925,296.2219 Q123.0656,296.3719 123.0656,296.7375 L123.0656,297.6094 Q123.0656,297.975 122.925,298.1344 Q122.7844,298.2938 122.5594,298.2938 Q122.3531,298.2938 122.2312,298.1719 Q122.1094,298.0594 122.0437,297.75 Q122.0156,297.5344 121.9031,297.4219 Q121.7063,297.1969 121.3406,297.0656 Q120.975,296.9344 120.6,296.9344 Q120.1406,296.9344 119.7563,297.1312 Q119.3813,297.3281 119.0813,297.7781 Q118.7906,298.2281 118.7906,298.8469 L118.7906,299.5031 Q118.7906,300.2438 119.325,300.7406 Q119.8594,301.2281 120.8156,301.2281 Q121.3781,301.2281 121.7719,301.0781 Q122.0063,300.9844 122.2594,300.7219 Q122.4187,300.5625 122.5031,300.5156 Q122.5969,300.4688 122.7188,300.4688 Q122.9156,300.4688 123.0656,300.6281 Q123.225,300.7781 123.225,300.9844 Q123.225,301.1906 123.0188,301.4344 Q122.7188,301.7813 122.2406,301.9781 Q121.5938,302.25 120.8156,302.25 Q119.9063,302.25 119.1844,301.875 Q118.5938,301.575 118.1812,300.9375 Q117.7688,300.2906 117.7688,299.5219 L117.7688,298.8281 Q117.7688,298.0313 118.1344,297.3469 Q118.5094,296.6531 119.1656,296.2875 Q119.8219,295.9125 120.5625,295.9125 Q121.0031,295.9125 121.3875,296.0156 Q121.7813,296.1094 122.1094,296.325 Z " fill="#000000"/><text fill="#000000" font-family="sans-serif" font-size="8.4" lengthAdjust="spacing" textLength="39" x="132.75" y="302.2781">Simulation</text><line style="stroke:#181818;stroke-width:0.3;" x1="4.8" x2="280.2" y1="308.4" y2="308.4"/><text fill="#000000" font-family="sans-serif" font-size="8.4" lengthAdjust="spacing" textLength="79.2" x="7.8" y="319.8645">-currentTime: double</text><text fill="#000000" font-family="sans-serif" font-size="8.4" lengthAdjust="spacing" textLength="107.4" x="7.8" y="331.0371">-eventos: LinkedList&lt;Event&gt;</text><text fill="#000000" font-family="sans-serif" font-size="8.4" lengthAdjust="spacing" textLength="146.4" x="7.8" y="342.2098">-executionTimes: Map&lt;String, Double&gt;</text><text fill="#000000" font-family="sans-serif" font-size="8.4" lengthAdjust="spacing" textLength="194.4" x="7.8" y="353.3824">-averageTimes: Map&lt;String, Map&lt;String, Double&gt;&gt;</text><line style="stroke:#181818;stroke-width:0.3;" x1="4.8" x2="280.2" y1="357.8906" y2="357.8906"/><text fill="#000000" font-family="sans-serif" font-size="8.4" lengthAdjust="spacing" textLength="260.4" x="7.8" y="369.3551">+criarQueuesOperacoes(Map&lt;String, LinkedList&lt;Item&gt;&gt; artigosMap)</text><text fill="#000000" font-family="sans-serif" font-size="8.4" lengthAdjust="spacing" textLength="267" x="7.8" y="380.5277">+processarItens(Map&lt;String, LinkedList&lt;Workstation&gt;&gt; maquinasMap,</text><text fill="#000000" font-family="sans-serif" font-size="8.4" lengthAdjust="spacing" textLength="187.8" x="7.8" y="391.7004">Map&lt;String, LinkedList&lt;Item&gt;&gt; operationQueues)</text></g><!--class Event--><g id="elem_Event"><rect codeLine="81" fill="#F1F1F1" height="118.1812" id="Event" rx="1.5" ry="1.5" style="stroke:#181818;stroke-width:0.3;" width="92.4" x="80.7" y="449.1"/><ellipse cx="113.55" cy="458.7" fill="#ADD1B2" rx="6.6" ry="6.6" style="stroke:#181818;stroke-width:0.6;"/><path d="M115.2094,456.225 Q115.3031,456.0938 115.4156,456.0281 Q115.5281,455.9625 115.6594,455.9625 Q115.8844,455.9625 116.025,456.1219 Q116.1656,456.2719 116.1656,456.6375 L116.1656,457.5094 Q116.1656,457.875 116.025,458.0344 Q115.8844,458.1937 115.6594,458.1937 Q115.4531,458.1937 115.3313,458.0719 Q115.2094,457.9594 115.1438,457.65 Q115.1156,457.4344 115.0031,457.3219 Q114.8062,457.0969 114.4406,456.9656 Q114.075,456.8344 113.7,456.8344 Q113.2406,456.8344 112.8563,457.0313 Q112.4813,457.2281 112.1812,457.6781 Q111.8906,458.1281 111.8906,458.7469 L111.8906,459.4031 Q111.8906,460.1438 112.425,460.6406 Q112.9594,461.1281 113.9156,461.1281 Q114.4781,461.1281 114.8719,460.9781 Q115.1063,460.8844 115.3594,460.6219 Q115.5188,460.4625 115.6031,460.4156 Q115.6969,460.3688 115.8188,460.3688 Q116.0156,460.3688 116.1656,460.5281 Q116.325,460.6781 116.325,460.8844 Q116.325,461.0906 116.1187,461.3344 Q115.8188,461.6813 115.3406,461.8781 Q114.6938,462.15 113.9156,462.15 Q113.0063,462.15 112.2844,461.775 Q111.6938,461.475 111.2813,460.8375 Q110.8687,460.1906 110.8687,459.4219 L110.8687,458.7281 Q110.8687,457.9313 111.2344,457.2469 Q111.6094,456.5531 112.2656,456.1875 Q112.9219,455.8125 113.6625,455.8125 Q114.1031,455.8125 114.4875,455.9156 Q114.8813,456.0094 115.2094,456.225 Z " fill="#000000"/><text fill="#000000" font-family="sans-serif" font-size="8.4" lengthAdjust="spacing" textLength="21.6" x="125.85" y="462.1781">Event</text><line style="stroke:#181818;stroke-width:0.3;" x1="81.3" x2="172.5" y1="468.3" y2="468.3"/><text fill="#000000" font-family="sans-serif" font-size="8.4" lengthAdjust="spacing" textLength="85.2" x="84.3" y="479.7645">-maquina: Workstation</text><text fill="#000000" font-family="sans-serif" font-size="8.4" lengthAdjust="spacing" textLength="45" x="84.3" y="490.9371">-artigo: Item</text><text fill="#000000" font-family="sans-serif" font-size="8.4" lengthAdjust="spacing" textLength="76.2" x="84.3" y="502.1098">-tempoInicio: double</text><text fill="#000000" font-family="sans-serif" font-size="8.4" lengthAdjust="spacing" textLength="70.8" x="84.3" y="513.2824">-tempoFim: double</text><line style="stroke:#181818;stroke-width:0.3;" x1="81.3" x2="172.5" y1="517.7906" y2="517.7906"/><text fill="#000000" font-family="sans-serif" font-size="8.4" lengthAdjust="spacing" textLength="55.2" x="84.3" y="529.2551">+getMaquina()</text><text fill="#000000" font-family="sans-serif" font-size="8.4" lengthAdjust="spacing" textLength="38.4" x="84.3" y="540.4277">+getItem()</text><text fill="#000000" font-family="sans-serif" font-size="8.4" lengthAdjust="spacing" textLength="68.4" x="84.3" y="551.6004">+getTempoInicio()</text><text fill="#000000" font-family="sans-serif" font-size="8.4" lengthAdjust="spacing" textLength="63" x="84.3" y="562.773">+getTempoFim()</text></g><!--link US01_UI to SimulationController--><g id="link_US01_UI_SimulationController"><path codeLine="92" d="M414.9,33.186 C414.9,44.358 414.9,56.928 414.9,71.658 " fill="none" id="US01_UI-to-SimulationController" style="stroke:#181818;stroke-width:0.6;stroke-dasharray:7.0,7.0;"/><polygon fill="#181818" points="414.9,75.258,417.3,69.858,414.9,72.258,412.5,69.858,414.9,75.258" style="stroke:#181818;stroke-width:0.6;"/></g><!--link SimulationController to Repositories--><g id="link_SimulationController_Repositories"><path codeLine="94" d="M490.296,111.9 C509.886,111.9 527.814,111.9 548.85,111.9 " fill="none" id="SimulationController-to-Repositories" style="stroke:#181818;stroke-width:0.6;stroke-dasharray:7.0,7.0;"/><polygon fill="#181818" points="552.45,111.9,547.05,109.5,549.45,111.9,547.05,114.3,552.45,111.9" style="stroke:#181818;stroke-width:0.6;"/><text fill="#000000" font-family="sans-serif" font-size="7.8" lengthAdjust="spacing" textLength="40.2" x="501.3" y="107.717">repositories</text></g><!--link SimulationController to ItemsRepository--><g id="link_SimulationController_ItemsRepository"><path codeLine="95" d="M490.362,145.146 C522.576,159.084 552.9,172.2 552.9,172.2 C552.9,172.2 583.6728,186.7803 612.6528,200.5143 " fill="none" id="SimulationController-to-ItemsRepository" style="stroke:#181818;stroke-width:0.6;stroke-dasharray:7.0,7.0;"/><polygon fill="#181818" points="615.906,202.056,612.0541,197.5746,613.195,200.7712,609.9984,201.9122,615.906,202.056" style="stroke:#181818;stroke-width:0.6;"/><text fill="#000000" font-family="sans-serif" font-size="7.8" lengthAdjust="spacing" textLength="56.4" x="576.3" y="181.217">itemsRepository</text></g><!--link SimulationController to WorkstationRepository--><g id="link_SimulationController_WorkstationRepository"><path codeLine="96" d="M442.956,148.512 C456.708,166.17 470.528,183.9098 482,198.6398 " fill="none" id="SimulationController-to-WorkstationRepository" style="stroke:#181818;stroke-width:0.6;stroke-dasharray:7.0,7.0;"/><polygon fill="#181818" points="484.212,201.48,482.7874,195.745,482.3686,199.1131,479.0005,198.6943,484.212,201.48" style="stroke:#181818;stroke-width:0.6;"/><text fill="#000000" font-family="sans-serif" font-size="7.8" lengthAdjust="spacing" textLength="76.8" x="470.7" y="181.217">workstationRepository</text></g><!--link SimulationController to Workstation--><g id="link_SimulationController_Workstation"><path codeLine="97" d="M410.52,148.632 C397.368,257.196 359.1,573 359.1,573 C359.1,573 344.6373,592.312 325.8813,617.368 " fill="none" id="SimulationController-to-Workstation" style="stroke:#181818;stroke-width:0.6;stroke-dasharray:7.0,7.0;"/><polygon fill="#181818" points="323.724,620.25,328.8813,617.3653,325.5218,617.8483,325.0387,614.4888,323.724,620.25" style="stroke:#181818;stroke-width:0.6;"/><text fill="#000000" font-family="sans-serif" font-size="7.8" lengthAdjust="spacing" textLength="39.6" x="394.5" y="345.917">workstation</text></g><!--link SimulationController to ApplicationSession--><g id="link_SimulationController_ApplicationSession"><path codeLine="98" d="M490.398,78.672 C522.468,64.56 552.6,51.3 552.6,51.3 C552.6,51.3 823.8,51.3 823.8,51.3 C823.8,51.3 841.3986,67.3874 859.5186,83.9474 " fill="none" id="SimulationController-to-ApplicationSession" style="stroke:#181818;stroke-width:0.6;stroke-dasharray:7.0,7.0;"/><polygon fill="#181818" points="862.176,86.376,859.809,80.9615,859.9615,84.3521,856.5708,84.5047,862.176,86.376" style="stroke:#181818;stroke-width:0.6;"/></g><!--link SimulationController to UserSession--><g id="link_SimulationController_UserSession"><path codeLine="99" d="M420.918,148.518 C427.308,186.774 436.5,241.8 436.5,241.8 C436.5,241.8 468.4318,290.2735 487.6378,319.4335 " fill="none" id="SimulationController-to-UserSession" style="stroke:#181818;stroke-width:0.6;stroke-dasharray:7.0,7.0;"/><polygon fill="#181818" points="489.618,322.44,488.652,316.6102,487.9678,319.9346,484.6434,319.2504,489.618,322.44" style="stroke:#181818;stroke-width:0.6;"/></g><!--link SimulationController to Simulation--><g id="link_SimulationController_Simulation"><path codeLine="100" d="M348.654,148.518 C325.464,161.13 305.1,172.2 305.1,172.2 C305.1,172.2 256.5,201.6 256.5,201.6 C256.5,201.6 220.0213,246.5293 187.7053,286.3273 " fill="none" id="SimulationController-to-Simulation" style="stroke:#181818;stroke-width:0.6;"/><polygon fill="#181818" points="185.436,289.122,190.7031,286.4428,187.3271,286.7931,186.9768,283.4171,185.436,289.122" style="stroke:#181818;stroke-width:0.6;"/><text fill="#000000" font-family="sans-serif" font-size="7.8" lengthAdjust="spacing" textLength="47.4" x="257.1" y="225.017">runSimulation</text></g><!--link SimulationController to Item--><g id="link_SimulationController_Item"><path codeLine="102" d="M379.704,148.602 C367.446,161.178 356.7,172.2 356.7,172.2 C356.7,172.2 313.4503,342.4528 288.7123,439.8388 " fill="none" id="SimulationController-to-Item" style="stroke:#181818;stroke-width:0.6;stroke-dasharray:7.0,7.0;"/><polygon fill="#181818" points="287.826,443.328,291.4816,438.6851,288.5646,440.4203,286.8294,437.5033,287.826,443.328" style="stroke:#181818;stroke-width:0.6;"/><text fill="#000000" font-family="sans-serif" font-size="7.8" lengthAdjust="spacing" textLength="15" x="335.1" y="268.817">Item</text></g><!--link Simulation to Workstation--><g id="link_Simulation_Workstation"><path codeLine="104" d="M92.64,396.234 C70.044,420.27 48.3,443.4 48.3,443.4 C48.3,443.4 48.3,573 48.3,573 C48.3,573 141.8075,622.0166 207.9095,656.6666 " fill="none" id="Simulation-to-Workstation" style="stroke:#181818;stroke-width:0.6;"/><polygon fill="#181818" points="211.098,658.338,207.4295,653.7053,208.4409,656.9452,205.201,657.9566,211.098,658.338" style="stroke:#181818;stroke-width:0.6;"/><polygon fill="#000000" points="52.5142,511.0306,51.9302,505.3542,48.7052,506.7816,52.5142,511.0306" style="stroke:#000000;stroke-width:0.6;"/><text fill="#000000" font-family="sans-serif" font-size="7.8" lengthAdjust="spacing" textLength="12.6" x="56.7" y="511.517">has</text><text fill="#000000" font-family="sans-serif" font-size="7.8" lengthAdjust="spacing" textLength="4.2" x="84.1371" y="409.5135">1</text><text fill="#000000" font-family="sans-serif" font-size="7.8" lengthAdjust="spacing" textLength="14.4" x="191.9447" y="653.9297">1...*</text></g><!--link Simulation to Item--><g id="link_Simulation_Item"><path codeLine="105" d="M184.026,396.12 C195.81,411.138 206.5475,424.83 218.7995,440.442 " fill="none" id="Simulation-to-Item" style="stroke:#181818;stroke-width:0.6;"/><polygon fill="#181818" points="221.022,443.274,219.5762,437.5443,219.1699,440.914,215.8002,440.5076,221.022,443.274" style="stroke:#181818;stroke-width:0.6;"/><polygon fill="#000000" points="212.1518,422.1476,210.1892,416.7894,207.4145,418.9663,212.1518,422.1476" style="stroke:#000000;stroke-width:0.6;"/><text fill="#000000" font-family="sans-serif" font-size="7.8" lengthAdjust="spacing" textLength="36" x="215.7" y="423.017">processes</text><text fill="#000000" font-family="sans-serif" font-size="7.8" lengthAdjust="spacing" textLength="4.2" x="183.091" y="409.3901">1</text><text fill="#000000" font-family="sans-serif" font-size="7.8" lengthAdjust="spacing" textLength="14.4" x="202.5665" y="436.5821">1...*</text></g><!--link Simulation to Event--><g id="link_Simulation_Event"><path codeLine="106" d="M137.478,396.12 C135.876,413.016 134.4352,428.2302 132.7912,445.4982 " fill="none" id="Simulation-to-Event" style="stroke:#181818;stroke-width:0.6;"/><polygon fill="#181818" points="132.45,449.082,135.351,443.9338,132.7343,446.0955,130.5726,443.4788,132.45,449.082" style="stroke:#181818;stroke-width:0.6;"/><polygon fill="#000000" points="138.6165,422.7739,140.8848,417.5377,137.3739,417.2045,138.6165,422.7739" style="stroke:#000000;stroke-width:0.6;"/><text fill="#000000" font-family="sans-serif" font-size="7.8" lengthAdjust="spacing" textLength="34.2" x="144.3" y="423.017">generates</text><text fill="#000000" font-family="sans-serif" font-size="7.8" lengthAdjust="spacing" textLength="4.2" x="132.6882" y="409.3901">1</text><text fill="#000000" font-family="sans-serif" font-size="7.8" lengthAdjust="spacing" textLength="12" x="120.4155" y="442.3897">1..*</text></g><!--link Event to Workstation--><g id="link_Event_Workstation"><path codeLine="108" d="M173.25,566.88 C186.84,583.908 199.588,599.8925 213.694,617.5625 " fill="none" id="Event-to-Workstation" style="stroke:#181818;stroke-width:0.6;"/><polygon fill="#181818" points="215.94,620.376,214.4467,614.6585,214.0683,618.0315,210.6954,617.6531,215.94,620.376" style="stroke:#181818;stroke-width:0.6;"/><polygon fill="#000000" points="204.3712,599.1322,202.3645,593.7904,199.6079,595.9901,204.3712,599.1322" style="stroke:#000000;stroke-width:0.6;"/><text fill="#000000" font-family="sans-serif" font-size="7.8" lengthAdjust="spacing" textLength="16.8" x="207.9" y="600.017">uses</text></g><!--link ApplicationSession to ApplicationSession--><g id="link_ApplicationSession_ApplicationSession"><path codeLine="110" d="M935.496,106.326 C947.4,106.662 956.4,108.516 956.4,111.9 C956.4,115.284 950.9986,117.0364 939.0946,117.3724 " fill="none" id="ApplicationSession-to-ApplicationSession" style="stroke:#181818;stroke-width:0.6;"/><polygon fill="#181818" points="935.496,117.474,940.9616,119.7207,938.4948,117.3894,940.8261,114.9226,935.496,117.474" style="stroke:#181818;stroke-width:0.6;"/><text fill="#000000" font-family="sans-serif" font-size="7.8" lengthAdjust="spacing" textLength="29.4" x="960" y="115.217">instance</text></g><!--link ApplicationSession to ApplicationSession--><g id="link_ApplicationSession_ApplicationSession"><path codeLine="121" d="M935.448,101.352 C964.17,99.012 993,102.528 993,111.9 C993,121.272 967.7581,125.0803 939.0361,122.7403 " fill="none" id="ApplicationSession-to-ApplicationSession-1" style="stroke:#181818;stroke-width:0.6;"/><polygon fill="#181818" points="935.448,122.448,940.6353,125.2786,938.4381,122.6916,941.0251,120.4944,935.448,122.448" style="stroke:#181818;stroke-width:0.6;"/><text fill="#000000" font-family="sans-serif" font-size="7.8" lengthAdjust="spacing" textLength="29.4" x="996.6" y="115.217">instance</text></g><!--link Item to Workstation--><g id="link_Item_Workstation"><path codeLine="112" d="M271.5,573.192 C271.5,588.45 271.5,601.194 271.5,616.68 " fill="none" id="Item-to-Workstation" style="stroke:#181818;stroke-width:0.6;"/><polygon fill="#181818" points="271.5,620.28,273.9,614.88,271.5,617.28,269.1,614.88,271.5,620.28" style="stroke:#181818;stroke-width:0.6;"/><text fill="#000000" font-family="sans-serif" font-size="7.8" lengthAdjust="spacing" textLength="4.2" x="267.172" y="585.893">1</text><text fill="#000000" font-family="sans-serif" font-size="7.8" lengthAdjust="spacing" textLength="14.4" x="256.6387" y="613.6669">0...*</text></g><!--link Repositories to ItemsRepository--><g id="link_Repositories_ItemsRepository"><path codeLine="114" d="M682.56,154.29 C686.898,164.322 690.3,172.2 690.3,172.2 C690.3,172.2 690.3,183.6 690.3,183.6 C690.3,183.6 684.703,189.7353 676.429,198.8133 " fill="none" id="Repositories-to-ItemsRepository" style="stroke:#181818;stroke-width:0.6;"/><polygon fill="#181818" points="674.004,201.474,679.4153,199.0997,676.0249,199.2568,675.8678,195.8663,674.004,201.474" style="stroke:#181818;stroke-width:0.6;"/></g><!--link Repositories to WorkstationRepository--><g id="link_Repositories_WorkstationRepository"><path codeLine="115" d="M665.34,154.29 C665.544,164.322 665.7,172.2 665.7,172.2 C665.7,172.2 665.7,183.6 665.7,183.6 C665.7,183.6 604.2917,197.4537 555.5957,208.4397 " fill="none" id="Repositories-to-WorkstationRepository" style="stroke:#181818;stroke-width:0.6;"/><polygon fill="#181818" points="552.084,209.232,557.8798,210.3848,555.0105,208.5718,556.8234,205.7024,552.084,209.232" style="stroke:#181818;stroke-width:0.6;"/></g><!--link Repositories to Repositories--><g id="link_Repositories_Repositories"><path codeLine="116" d="M776.484,102.366 C789.174,104.154 797.4,107.328 797.4,111.9 C797.4,116.472 792.7388,119.1437 780.0488,120.9317 " fill="none" id="Repositories-to-Repositories" style="stroke:#181818;stroke-width:0.6;"/><polygon fill="#181818" points="776.484,121.434,782.166,123.0571,779.4547,121.0154,781.4963,118.3041,776.484,121.434" style="stroke:#181818;stroke-width:0.6;"/><text fill="#000000" font-family="sans-serif" font-size="7.8" lengthAdjust="spacing" textLength="29.4" x="801" y="115.217">instance</text></g><!--link Repositories to Item--><g id="link_Repositories_Item"><path codeLine="117" d="M609.48,154.29 C596.274,164.322 585.9,172.2 585.9,172.2 C585.9,172.2 546.9,396 546.9,396 C546.9,396 433.7405,441.856 352.2845,474.862 " fill="none" id="Repositories-to-Item" style="stroke:#181818;stroke-width:0.6;"/><polygon fill="#181818" points="348.948,476.214,354.854,476.4104,351.7284,475.0874,353.0514,471.9617,348.948,476.214" style="stroke:#181818;stroke-width:0.6;"/><text fill="#000000" font-family="sans-serif" font-size="7.8" lengthAdjust="spacing" textLength="4.2" x="599.3895" y="167.6101">1</text><text fill="#000000" font-family="sans-serif" font-size="7.8" lengthAdjust="spacing" textLength="3" x="353.7589" y="472.1839">*</text></g><!--link Repositories to Workstation--><g id="link_Repositories_Workstation"><path codeLine="118" d="M693.48,154.29 C700.434,164.322 705.9,172.2 705.9,172.2 C705.9,172.2 728.1,221.1 728.1,221.1 C728.1,221.1 728.1,221.1 728.1,508.8 C728.1,508.8 459.3401,615.4541 335.2421,664.7021 " fill="none" id="Repositories-to-Workstation" style="stroke:#181818;stroke-width:0.6;"/><polygon fill="#181818" points="331.896,666.03,337.8005,666.2689,334.6845,664.9234,336.0299,661.8074,331.896,666.03" style="stroke:#181818;stroke-width:0.6;"/><text fill="#000000" font-family="sans-serif" font-size="7.8" lengthAdjust="spacing" textLength="4.2" x="692.052" y="167.6101">1</text><text fill="#000000" font-family="sans-serif" font-size="7.8" lengthAdjust="spacing" textLength="3" x="336.6349" y="661.9772">*</text></g><!--link ApplicationSession to UserSession--><g id="link_ApplicationSession_UserSession"><path codeLine="122" d="M856.674,137.478 C844.788,146.358 834.3,154.2 834.3,154.2 C834.3,154.2 706.5,241.8 706.5,241.8 C706.5,241.8 597.6572,295.2628 539.6492,323.7568 " fill="none" id="ApplicationSession-to-UserSession" style="stroke:#181818;stroke-width:0.6;"/><polygon fill="#181818" points="536.418,325.344,542.323,325.1173,539.1107,324.0213,540.2067,320.809,536.418,325.344" style="stroke:#181818;stroke-width:0.6;"/></g><!--SRC=[dLLDRzim3BtxLmWvfLjJj5TZ213q0mZGhjtIRfS1WwfmZX1PyYIvRJRilu-IPKUEvM1OBh79nqVoYQBDbikAQbgIYh8jBM1bTmA81cQfB0HafWEO3LshLouByeCA4ti4bs1t5P1AYPrxoRB8omGrPc6jvi-rXILJSiL_0JdFCkyXJwlpY-zFI_8x-zEQLhoi1RLSoKibhLP2W4R_Z9Z6eNGUORBtoO3f2Jg4ekkbXTBSQ5LUhhvCAset68pLoA85t56smQf7C5rLdw5IXcDo3iOL4x_xP0NOfJGe78FfIOuYxlsDTr7R3KZBcI-rYzyvD1tn1LxNGp-0zqqDxglIMwnWIF-QSknxE-3_lSzwousTHYeaCmHy478V4c8MLIL2Ooim1lzSW6TXVTKQdijQQzGYOEFiJmPqH85OPxakAHUzZ56LVd2MLw6szbpHfYhG7X7PB2yHmgMD_G-W6PQ3joCdQrK_uxMO4Vg2EIa-v-HPAG5K1itQJ6qpzorDQtZ470FdFaVhMhG9Uesv8maTkSUez4fp73Mxoyb3UBg55n1n8oOdjrnkOUrEw4CJENS0pGikgRW_3WpzkRnjaMsgGJ_DZM2gh0HO66Zm4TvwmYIklckIDOFmw4-banxRabRrQxnsDjSBl06hNRmBGimThK83f-JACypzwM7k0XAO1DvrpZId-bCDDHXVDrDuwMDiL8iJQ3udL5jUA8CWrtIb5SF1fHgzSZGqcbjaAEdF6i_5KPoIR_9ukkwKcoeZJRqsVcW2OHxV3wU6hpJtm-Kk0PILMahEk8fKzzORNdQcSEKzOxV_ejbutDFqJCZHd7Yx-S_EviaDdcN93m6YuzLB3ZPjEWQ33dRSS8EEHYPttjXE_HSMqWiURNEuDyVO4HojnZHgDfl5EgDijOo-eaUecqtZfoD2aSd5X3ZEoGMYtatY1dEoeORCZw0Rpd0hu0WMYVq0vpX0qesu1sVDK3jGBstTS6L3wSWi9IXnsxxv-cIPNwvTxlD1LrdM6po7EXYg8I0vEmUmmK1t9VNiRMLaWcNvqqYw9uT5_vSOgHZ77ezP-Fq5]--></g></svg>