<?xml version="1.0" encoding="us-ascii" standalone="no"?><svg xmlns="http://www.w3.org/2000/svg" xmlns:xlink="http://www.w3.org/1999/xlink" contentStyleType="text/css" height="493px" preserveAspectRatio="none" style="width:958px;height:493px;background:#FFFFFF;" version="1.1" viewBox="0 0 958 493" width="958px" zoomAndPan="magnify"><defs/><g><rect fill="#FFFFFF" height="298.3281" style="stroke:#181818;stroke-width:1.0;" width="10" x="57.5" y="93.6211"/><rect fill="#FFFFFF" height="298.3281" style="stroke:#181818;stroke-width:1.0;" width="10" x="262.5" y="93.6211"/><rect fill="#FFFFFF" height="61.291" style="stroke:#181818;stroke-width:1.0;" width="10" x="544.5" y="236.7852"/><rect fill="#FFFFFF" height="31.291" style="stroke:#181818;stroke-width:1.0;" width="10" x="544.5" y="329.3672"/><rect fill="#FFFFFF" height="31.291" style="stroke:#181818;stroke-width:1.0;" width="10" x="750.5" y="360.6582"/><rect fill="#FFFFFF" height="123.873" style="stroke:#181818;stroke-width:1.0;" width="10" x="893" y="268.0762"/><line style="stroke:#181818;stroke-width:0.5;stroke-dasharray:5.0,5.0;" x1="62" x2="62" y1="83.6211" y2="409.9492"/><line style="stroke:#181818;stroke-width:0.5;stroke-dasharray:5.0,5.0;" x1="267.5" x2="267.5" y1="83.6211" y2="409.9492"/><line style="stroke:#181818;stroke-width:0.5;stroke-dasharray:5.0,5.0;" x1="549" x2="549" y1="83.6211" y2="409.9492"/><line style="stroke:#181818;stroke-width:0.5;stroke-dasharray:5.0,5.0;" x1="755" x2="755" y1="83.6211" y2="409.9492"/><line style="stroke:#181818;stroke-width:0.5;stroke-dasharray:5.0,5.0;" x1="898" x2="898" y1="83.6211" y2="409.9492"/><text fill="#000000" font-family="sans-serif" font-size="14" lengthAdjust="spacing" textLength="109" x="5" y="80.1074">Product Manager</text><ellipse cx="62.5" cy="13.5" fill="#E3E3E3" rx="8" ry="8" style="stroke:#181818;stroke-width:0.5;"/><path d="M62.5,21.5 L62.5,48.5 M49.5,29.5 L75.5,29.5 M62.5,48.5 L49.5,63.5 M62.5,48.5 L75.5,63.5 " fill="none" style="stroke:#181818;stroke-width:0.5;"/><text fill="#000000" font-family="sans-serif" font-size="14" lengthAdjust="spacing" textLength="109" x="5" y="424.0566">Product Manager</text><ellipse cx="62.5" cy="436.0703" fill="#E3E3E3" rx="8" ry="8" style="stroke:#181818;stroke-width:0.5;"/><path d="M62.5,444.0703 L62.5,471.0703 M49.5,452.0703 L75.5,452.0703 M62.5,471.0703 L49.5,486.0703 M62.5,471.0703 L75.5,486.0703 " fill="none" style="stroke:#181818;stroke-width:0.5;"/><rect fill="#E3E3E3" height="32.6211" rx="2.5" ry="2.5" style="stroke:#181818;stroke-width:0.5;" width="76" x="229.5" y="50"/><text fill="#000000" font-family="sans-serif" font-size="14" lengthAdjust="spacing" textLength="62" x="236.5" y="72.1074">:USEI01UI</text><rect fill="#E3E3E3" height="32.6211" rx="2.5" ry="2.5" style="stroke:#181818;stroke-width:0.5;" width="76" x="229.5" y="408.9492"/><text fill="#000000" font-family="sans-serif" font-size="14" lengthAdjust="spacing" textLength="62" x="236.5" y="431.0566">:USEI01UI</text><rect fill="#E3E3E3" height="32.6211" rx="2.5" ry="2.5" style="stroke:#181818;stroke-width:0.5;" width="141" x="479" y="50"/><text fill="#000000" font-family="sans-serif" font-size="14" lengthAdjust="spacing" textLength="127" x="486" y="72.1074">SimulationController</text><rect fill="#E3E3E3" height="32.6211" rx="2.5" ry="2.5" style="stroke:#181818;stroke-width:0.5;" width="141" x="479" y="408.9492"/><text fill="#000000" font-family="sans-serif" font-size="14" lengthAdjust="spacing" textLength="127" x="486" y="431.0566">SimulationController</text><rect fill="#E3E3E3" height="32.6211" rx="2.5" ry="2.5" style="stroke:#181818;stroke-width:0.5;" width="157" x="677" y="50"/><text fill="#000000" font-family="sans-serif" font-size="14" lengthAdjust="spacing" textLength="143" x="684" y="72.1074">WorkstationRepository</text><rect fill="#E3E3E3" height="32.6211" rx="2.5" ry="2.5" style="stroke:#181818;stroke-width:0.5;" width="157" x="677" y="408.9492"/><text fill="#000000" font-family="sans-serif" font-size="14" lengthAdjust="spacing" textLength="143" x="684" y="431.0566">WorkstationRepository</text><rect fill="#E3E3E3" height="32.6211" rx="2.5" ry="2.5" style="stroke:#181818;stroke-width:0.5;" width="108" x="844" y="50"/><text fill="#000000" font-family="sans-serif" font-size="14" lengthAdjust="spacing" textLength="94" x="851" y="72.1074">ItemRepository</text><rect fill="#E3E3E3" height="32.6211" rx="2.5" ry="2.5" style="stroke:#181818;stroke-width:0.5;" width="108" x="844" y="408.9492"/><text fill="#000000" font-family="sans-serif" font-size="14" lengthAdjust="spacing" textLength="94" x="851" y="431.0566">ItemRepository</text><rect fill="#FFFFFF" height="298.3281" style="stroke:#181818;stroke-width:1.0;" width="10" x="57.5" y="93.6211"/><rect fill="#FFFFFF" height="298.3281" style="stroke:#181818;stroke-width:1.0;" width="10" x="262.5" y="93.6211"/><rect fill="#FFFFFF" height="61.291" style="stroke:#181818;stroke-width:1.0;" width="10" x="544.5" y="236.7852"/><rect fill="#FFFFFF" height="31.291" style="stroke:#181818;stroke-width:1.0;" width="10" x="544.5" y="329.3672"/><rect fill="#FFFFFF" height="31.291" style="stroke:#181818;stroke-width:1.0;" width="10" x="750.5" y="360.6582"/><rect fill="#FFFFFF" height="123.873" style="stroke:#181818;stroke-width:1.0;" width="10" x="893" y="268.0762"/><polygon fill="#181818" points="250.5,112.9121,260.5,116.9121,250.5,120.9121,254.5,116.9121" style="stroke:#181818;stroke-width:1.0;"/><line style="stroke:#181818;stroke-width:1.0;" x1="67.5" x2="256.5" y1="116.9121" y2="116.9121"/><text fill="#000000" font-family="sans-serif" font-size="13" font-weight="bold" lengthAdjust="spacing" textLength="7" x="74.5" y="111.6494">1</text><text fill="#000000" font-family="sans-serif" font-size="13" lengthAdjust="spacing" textLength="124" x="85.5" y="111.6494">Requests data import</text><line style="stroke:#181818;stroke-width:1.0;" x1="272.5" x2="314.5" y1="148.2031" y2="148.2031"/><line style="stroke:#181818;stroke-width:1.0;" x1="314.5" x2="314.5" y1="148.2031" y2="161.2031"/><line style="stroke:#181818;stroke-width:1.0;" x1="273.5" x2="314.5" y1="161.2031" y2="161.2031"/><polygon fill="#181818" points="283.5,157.2031,273.5,161.2031,283.5,165.2031,279.5,161.2031" style="stroke:#181818;stroke-width:1.0;"/><text fill="#000000" font-family="sans-serif" font-size="13" font-weight="bold" lengthAdjust="spacing" textLength="7" x="279.5" y="142.9404">2</text><text fill="#000000" font-family="sans-serif" font-size="13" lengthAdjust="spacing" textLength="138" x="290.5" y="142.9404">Prompt for item file path</text><line style="stroke:#181818;stroke-width:1.0;" x1="272.5" x2="314.5" y1="192.4941" y2="192.4941"/><line style="stroke:#181818;stroke-width:1.0;" x1="314.5" x2="314.5" y1="192.4941" y2="205.4941"/><line style="stroke:#181818;stroke-width:1.0;" x1="273.5" x2="314.5" y1="205.4941" y2="205.4941"/><polygon fill="#181818" points="283.5,201.4941,273.5,205.4941,283.5,209.4941,279.5,205.4941" style="stroke:#181818;stroke-width:1.0;"/><text fill="#000000" font-family="sans-serif" font-size="13" font-weight="bold" lengthAdjust="spacing" textLength="7" x="279.5" y="187.2314">3</text><text fill="#000000" font-family="sans-serif" font-size="13" lengthAdjust="spacing" textLength="179" x="290.5" y="187.2314">Prompt for workstation file path</text><polygon fill="#181818" points="532.5,232.7852,542.5,236.7852,532.5,240.7852,536.5,236.7852" style="stroke:#181818;stroke-width:1.0;"/><line style="stroke:#181818;stroke-width:1.0;" x1="272.5" x2="538.5" y1="236.7852" y2="236.7852"/><text fill="#000000" font-family="sans-serif" font-size="13" font-weight="bold" lengthAdjust="spacing" textLength="7" x="279.5" y="231.5225">4</text><text fill="#000000" font-family="sans-serif" font-size="13" lengthAdjust="spacing" textLength="194" x="290.5" y="231.5225">loadItemsFromCSV(itemFilePath)</text><polygon fill="#181818" points="881,264.0762,891,268.0762,881,272.0762,885,268.0762" style="stroke:#181818;stroke-width:1.0;"/><line style="stroke:#181818;stroke-width:1.0;" x1="554.5" x2="887" y1="268.0762" y2="268.0762"/><text fill="#000000" font-family="sans-serif" font-size="13" font-weight="bold" lengthAdjust="spacing" textLength="7" x="561.5" y="262.8135">5</text><text fill="#000000" font-family="sans-serif" font-size="13" lengthAdjust="spacing" textLength="104" x="572.5" y="262.8135">setItems(itemList)</text><polygon fill="#181818" points="532.5,325.3672,542.5,329.3672,532.5,333.3672,536.5,329.3672" style="stroke:#181818;stroke-width:1.0;"/><line style="stroke:#181818;stroke-width:1.0;" x1="272.5" x2="538.5" y1="329.3672" y2="329.3672"/><text fill="#000000" font-family="sans-serif" font-size="13" font-weight="bold" lengthAdjust="spacing" textLength="7" x="279.5" y="324.1045">6</text><text fill="#000000" font-family="sans-serif" font-size="13" lengthAdjust="spacing" textLength="242" x="290.5" y="324.1045">loadMachinesFromCSV(machineFilePath)</text><polygon fill="#181818" points="738.5,356.6582,748.5,360.6582,738.5,364.6582,742.5,360.6582" style="stroke:#181818;stroke-width:1.0;"/><line style="stroke:#181818;stroke-width:1.0;" x1="549.5" x2="744.5" y1="360.6582" y2="360.6582"/><text fill="#000000" font-family="sans-serif" font-size="13" font-weight="bold" lengthAdjust="spacing" textLength="7" x="556.5" y="355.3955">7</text><text fill="#000000" font-family="sans-serif" font-size="13" lengthAdjust="spacing" textLength="166" x="567.5" y="355.3955">setWorkstation(machineList)</text><polygon fill="#181818" points="73.5,387.9492,63.5,391.9492,73.5,395.9492,69.5,391.9492" style="stroke:#181818;stroke-width:1.0;"/><line style="stroke:#181818;stroke-width:1.0;stroke-dasharray:2.0,2.0;" x1="67.5" x2="266.5" y1="391.9492" y2="391.9492"/><text fill="#000000" font-family="sans-serif" font-size="13" font-weight="bold" lengthAdjust="spacing" textLength="7" x="79.5" y="386.6865">8</text><text fill="#000000" font-family="sans-serif" font-size="13" lengthAdjust="spacing" textLength="160" x="90.5" y="386.6865">Data imported successfully!</text><!--SRC=[VP8zRuD038PtVeMRgHqgjIj35zf8I8s4G6bczp39AVT1xqoZ_FiQyWL9bPiE-_LxZstYLhiM0rgmtdcr2TuISEWeYUTCYsgBQwfuRmW2AKQtDcD1t63jTzgjeK4JAKcmO-yw-qr1xefzW5aHVDqfXWKwyGepm0Z58X43ragtw1XcwRBwo5zUb_cGNURJRALjPv2rTvbt7BmnHvigcmfNFcmZ3ygIMX-r0Em7vQgSAdCcUoN9om5P_o9JZt2-2sm2moaMyFmcEKYXf9-E8aUeaH6qRNtWaqm4Wom5wTss38tCGSkBq6WPP8kykQVSNReO5KpDgom5ux7k-uXpgSsghyV-YRaK5A9_EihFNSYi3f4gwmtoKfg8n8F1KFcf8zzKoL0EaPh6JbSiS81PeDfeHsSUU_Y-XpHXMXsPHciyUOpXfYXNdhBe4PoOoivIUByiYMg8dL8KOzCPit-uDPNTtyGk_y0e-Dzm-lSlvmy0]--></g></svg>