<svg xmlns="http://www.w3.org/2000/svg" xmlns:xlink="http://www.w3.org/1999/xlink" contentStyleType="text/css" height="536px" preserveAspectRatio="none" style="width:975px;height:536px;background:#FFFFFF;" version="1.1" viewBox="0 0 975 536" width="975px" zoomAndPan="magnify"><title>US2.2.6 - Create a Shipping Agent Representative - System Sequence Diagram (SSD)</title><defs/><g><text fill="#000000" font-family="sans-serif" font-size="14" font-weight="bold" lengthAdjust="spacing" textLength="564.0537" x="212.7007" y="30.1074">US2.2.6 - Create a Shipping Agent Representative - System Sequence Diagram (SSD)</text><rect fill="#FFFFFF" height="301.9102" style="stroke:#181818;stroke-width:1.0;" width="10" x="67.9653" y="133.2422"/><rect fill="#FFFFFF" height="48.582" style="stroke:#181818;stroke-width:1.0;" width="10" x="504.6426" y="156.5332"/><rect fill="#FFFFFF" height="198.7461" style="stroke:#181818;stroke-width:1.0;" width="10" x="504.6426" y="236.4063"/><line style="stroke:#181818;stroke-width:0.5;stroke-dasharray:5.0,5.0;" x1="72" x2="72" y1="123.2422" y2="453.1523"/><line style="stroke:#181818;stroke-width:0.5;stroke-dasharray:5.0,5.0;" x1="509.3599" x2="509.3599" y1="123.2422" y2="453.1523"/><text fill="#000000" font-family="sans-serif" font-size="14" lengthAdjust="spacing" textLength="129.9307" x="5" y="119.7285">Port Authority Officer</text><ellipse cx="72.9653" cy="53.1211" fill="#E3E3E3" rx="8" ry="8" style="stroke:#181818;stroke-width:0.5;"/><path d="M72.9653,61.1211 L72.9653,88.1211 M59.9653,69.1211 L85.9653,69.1211 M72.9653,88.1211 L59.9653,103.1211 M72.9653,88.1211 L85.9653,103.1211 " fill="none" style="stroke:#181818;stroke-width:0.5;"/><text fill="#000000" font-family="sans-serif" font-size="14" lengthAdjust="spacing" textLength="129.9307" x="5" y="467.2598">Port Authority Officer</text><ellipse cx="72.9653" cy="479.2734" fill="#E3E3E3" rx="8" ry="8" style="stroke:#181818;stroke-width:0.5;"/><path d="M72.9653,487.2734 L72.9653,514.2734 M59.9653,495.2734 L85.9653,495.2734 M72.9653,514.2734 L59.9653,529.2734 M72.9653,514.2734 L85.9653,529.2734 " fill="none" style="stroke:#181818;stroke-width:0.5;"/><rect fill="#E3E3E3" height="32.6211" rx="2.5" ry="2.5" style="stroke:#181818;stroke-width:0.5;" width="64.5654" x="477.3599" y="89.6211"/><text fill="#000000" font-family="sans-serif" font-size="14" lengthAdjust="spacing" textLength="50.5654" x="484.3599" y="111.7285">:System</text><rect fill="#E3E3E3" height="32.6211" rx="2.5" ry="2.5" style="stroke:#181818;stroke-width:0.5;" width="64.5654" x="477.3599" y="452.1523"/><text fill="#000000" font-family="sans-serif" font-size="14" lengthAdjust="spacing" textLength="50.5654" x="484.3599" y="474.2598">:System</text><rect fill="#FFFFFF" height="301.9102" style="stroke:#181818;stroke-width:1.0;" width="10" x="67.9653" y="133.2422"/><rect fill="#FFFFFF" height="48.582" style="stroke:#181818;stroke-width:1.0;" width="10" x="504.6426" y="156.5332"/><rect fill="#FFFFFF" height="198.7461" style="stroke:#181818;stroke-width:1.0;" width="10" x="504.6426" y="236.4063"/><polygon fill="#181818" points="492.6426,152.5332,502.6426,156.5332,492.6426,160.5332,496.6426,156.5332" style="stroke:#181818;stroke-width:1.0;"/><line style="stroke:#181818;stroke-width:1.0;" x1="77.9653" x2="498.6426" y1="156.5332" y2="156.5332"/><text fill="#000000" font-family="sans-serif" font-size="13" font-weight="bold" lengthAdjust="spacing" textLength="7.23" x="84.9653" y="151.2705">1</text><text fill="#000000" font-family="sans-serif" font-size="13" lengthAdjust="spacing" textLength="328.8086" x="96.1953" y="151.2705">Requests to register a new shipping agent representative</text><polygon fill="#181818" points="88.9653,201.1152,78.9653,205.1152,88.9653,209.1152,84.9653,205.1152" style="stroke:#181818;stroke-width:1.0;"/><line style="stroke:#181818;stroke-width:1.0;stroke-dasharray:2.0,2.0;" x1="82.9653" x2="508.6426" y1="205.1152" y2="205.1152"/><text fill="#000000" font-family="sans-serif" font-size="13" font-weight="bold" lengthAdjust="spacing" textLength="7.23" x="94.9653" y="191.207">2</text><text fill="#000000" font-family="sans-serif" font-size="13" lengthAdjust="spacing" textLength="324.4858" x="106.1953" y="182.5615">Requests organization selection and representative data</text><text fill="#000000" font-family="sans-serif" font-size="13" lengthAdjust="spacing" textLength="249.2852" x="106.1953" y="199.8525">(name, citizen ID, nationality, email, phone)</text><polygon fill="#181818" points="492.6426,232.4063,502.6426,236.4063,492.6426,240.4063,496.6426,236.4063" style="stroke:#181818;stroke-width:1.0;"/><line style="stroke:#181818;stroke-width:1.0;" x1="77.9653" x2="498.6426" y1="236.4063" y2="236.4063"/><text fill="#000000" font-family="sans-serif" font-size="13" font-weight="bold" lengthAdjust="spacing" textLength="7.23" x="84.9653" y="231.1436">3</text><text fill="#000000" font-family="sans-serif" font-size="13" lengthAdjust="spacing" textLength="259.7842" x="96.1953" y="231.1436">Submits organization + representative details</text><line style="stroke:#181818;stroke-width:1.0;" x1="514.6426" x2="556.6426" y1="302.2793" y2="302.2793"/><line style="stroke:#181818;stroke-width:1.0;" x1="556.6426" x2="556.6426" y1="302.2793" y2="315.2793"/><line style="stroke:#181818;stroke-width:1.0;" x1="515.6426" x2="556.6426" y1="315.2793" y2="315.2793"/><polygon fill="#181818" points="525.6426,311.2793,515.6426,315.2793,525.6426,319.2793,521.6426,315.2793" style="stroke:#181818;stroke-width:1.0;"/><text fill="#000000" font-family="sans-serif" font-size="13" font-weight="bold" lengthAdjust="spacing" textLength="7.23" x="521.6426" y="279.7256">4</text><text fill="#000000" font-family="sans-serif" font-size="13" lengthAdjust="spacing" textLength="294.0996" x="532.8726" y="262.4346">Validates required fields and formats (email/phone)</text><text fill="#000000" font-family="sans-serif" font-size="13" lengthAdjust="spacing" textLength="342.5259" x="532.8726" y="279.7256">Ensures representative is linked to exactly one organization</text><text fill="#000000" font-family="sans-serif" font-size="13" lengthAdjust="spacing" textLength="230.4707" x="532.8726" y="297.0166">Checks duplicates (by citizen ID / email)</text><line style="stroke:#181818;stroke-width:1.0;" x1="514.6426" x2="556.6426" y1="346.5703" y2="346.5703"/><line style="stroke:#181818;stroke-width:1.0;" x1="556.6426" x2="556.6426" y1="346.5703" y2="359.5703"/><line style="stroke:#181818;stroke-width:1.0;" x1="515.6426" x2="556.6426" y1="359.5703" y2="359.5703"/><polygon fill="#181818" points="525.6426,355.5703,515.6426,359.5703,525.6426,363.5703,521.6426,359.5703" style="stroke:#181818;stroke-width:1.0;"/><text fill="#000000" font-family="sans-serif" font-size="13" font-weight="bold" lengthAdjust="spacing" textLength="7.23" x="521.6426" y="341.3076">5</text><text fill="#000000" font-family="sans-serif" font-size="13" lengthAdjust="spacing" textLength="363.4731" x="532.8726" y="341.3076">Creates representative record and associates with organization</text><line style="stroke:#181818;stroke-width:1.0;" x1="514.6426" x2="556.6426" y1="390.8613" y2="390.8613"/><line style="stroke:#181818;stroke-width:1.0;" x1="556.6426" x2="556.6426" y1="390.8613" y2="403.8613"/><line style="stroke:#181818;stroke-width:1.0;" x1="515.6426" x2="556.6426" y1="403.8613" y2="403.8613"/><polygon fill="#181818" points="525.6426,399.8613,515.6426,403.8613,525.6426,407.8613,521.6426,403.8613" style="stroke:#181818;stroke-width:1.0;"/><text fill="#000000" font-family="sans-serif" font-size="13" font-weight="bold" lengthAdjust="spacing" textLength="7.23" x="521.6426" y="385.5986">6</text><text fill="#000000" font-family="sans-serif" font-size="13" lengthAdjust="spacing" textLength="435.5825" x="532.8726" y="385.5986">Grants role "Shipping Agent Representative" to user account (authorization)</text><polygon fill="#181818" points="83.9653,431.1523,73.9653,435.1523,83.9653,439.1523,79.9653,435.1523" style="stroke:#181818;stroke-width:1.0;"/><line style="stroke:#181818;stroke-width:1.0;stroke-dasharray:2.0,2.0;" x1="77.9653" x2="508.6426" y1="435.1523" y2="435.1523"/><text fill="#000000" font-family="sans-serif" font-size="13" font-weight="bold" lengthAdjust="spacing" textLength="7.23" x="89.9653" y="429.8896">7</text><text fill="#000000" font-family="sans-serif" font-size="13" lengthAdjust="spacing" textLength="391.4473" x="101.1953" y="429.8896">Displays success message "Representative registered successfully"</text><!--SRC=[XPF1Rjim38RlVWh2boLOqW8zxD33WA8PXfqsrEXEkJ0oRHEH9LUKchbFFzfE1YTTDXyCGYR__oDDVO1d8OZKTXOZWSJUigipsRFhC60BhNVUDC6tcXKIpRvqQFPOKw4b185CH5VRUO8qMFg3oa65LYZB8aTDVIxkRkvkFi4Q7WCDfWX5mrqt93xKv28yKHT8DCB8hwI9HI-A20Mz97A6OCDO3mwBejWiimnJz2wrEmeQc-W3v3zyYF2GOkC3nnw-LnKR2ZcWdE9C8ICRxb0Ty_l9OaoOmb6ANmV0KqK6fn3MdqzGzughM185ejSvrAp7GPjoTD0H71l3iR5mrfZA_R4uUe8-HzsrMfpSPXu-rEZuJGMy0o6hSnyYTEM5EfGO4RPkuR2b5HYE_4OElcrMuCPgj3gP5L2BR5VGDTxHKW5AkeIwqdQHTYrV4dryHq5HzUK_lSvaVogNefEeqalYG2LKJBQKiSVAXnRLT35YtqxKM_V5IGfZoPav2-WwxrL2VmtzKWBRWrQSCM_TOqDcBr2cph8PhHUxVZOnk9scjBp6F2toEtkz53wK8pUAUCDZqe5ZSmPmJVLhqDLKKQ-N9l_d5Sc7_f8CQsUCJ_fzWTFkJmxBwukrOT6htmj8CeP4eDMNRYlaJvVDJ9kjmpocLidQFl_xoioEZbw_0G00]--></g></svg>