<?xml version="1.0" encoding="us-ascii" standalone="no"?><svg xmlns="http://www.w3.org/2000/svg" xmlns:xlink="http://www.w3.org/1999/xlink" contentStyleType="text/css" height="447px" preserveAspectRatio="none" style="width:583px;height:447px;background:#FFFFFF;" version="1.1" viewBox="0 0 583 447" width="583px" zoomAndPan="magnify"><defs/><g><text fill="#000000" font-family="sans-serif" font-size="14" font-weight="bold" lengthAdjust="spacing" textLength="555" x="10" y="29.5332">US2.2.13: Register and manage qualifications - System Sequence Diagram (SSD)</text><rect fill="#FFFFFF" height="60.7031" style="stroke:#FFFFFF;stroke-width:1.0;" width="10" x="129.5" y="131.2188"/><line style="stroke:#181818;stroke-width:1.0;" x1="129.5" x2="129.5" y1="131.2188" y2="191.9219"/><line style="stroke:#181818;stroke-width:1.0;" x1="139.5" x2="139.5" y1="131.2188" y2="191.9219"/><line style="stroke:#181818;stroke-width:1.0;" x1="129.5" x2="139.5" y1="131.2188" y2="131.2188"/><rect fill="#FFFFFF" height="122.4063" style="stroke:#FFFFFF;stroke-width:1.0;" width="10" x="129.5" y="233.7578"/><line style="stroke:#181818;stroke-width:1.0;" x1="129.5" x2="129.5" y1="233.7578" y2="356.1641"/><line style="stroke:#181818;stroke-width:1.0;" x1="139.5" x2="139.5" y1="233.7578" y2="356.1641"/><rect fill="#FFFFFF" height="30.3516" style="stroke:#181818;stroke-width:1.0;" width="10" x="465.5" y="153.5703"/><rect fill="#FFFFFF" height="30.3516" style="stroke:#181818;stroke-width:1.0;" width="10" x="465.5" y="256.1094"/><rect fill="#FFFFFF" height="30.3516" style="stroke:#181818;stroke-width:1.0;" width="10" x="465.5" y="316.8125"/><line style="stroke:#181818;stroke-width:0.5;stroke-dasharray:5.0,5.0;" x1="134.5" x2="134.5" y1="121.2188" y2="191.9219"/><line style="stroke:#383838;stroke-width:1.0;stroke-dasharray:1.0,4.0;" x1="134.5" x2="134.5" y1="191.9219" y2="233.7578"/><line style="stroke:#181818;stroke-width:0.5;stroke-dasharray:5.0,5.0;" x1="134.5" x2="134.5" y1="233.7578" y2="365.1641"/><line style="stroke:#181818;stroke-width:0.5;stroke-dasharray:5.0,5.0;" x1="470.5" x2="470.5" y1="121.2188" y2="191.9219"/><line style="stroke:#383838;stroke-width:1.0;stroke-dasharray:1.0,4.0;" x1="470.5" x2="470.5" y1="191.9219" y2="233.7578"/><line style="stroke:#181818;stroke-width:0.5;stroke-dasharray:5.0,5.0;" x1="470.5" x2="470.5" y1="233.7578" y2="365.1641"/><text fill="#000000" font-family="sans-serif" font-size="14" lengthAdjust="spacing" textLength="116" x="73.5" y="118.1426">Logistics Operator</text><ellipse cx="134.5" cy="52.1094" fill="#E3E3E3" rx="8" ry="8" style="stroke:#181818;stroke-width:0.5;"/><path d="M134.5,60.1094 L134.5,87.1094 M121.5,68.1094 L147.5,68.1094 M134.5,87.1094 L121.5,102.1094 M134.5,87.1094 L147.5,102.1094 " fill="none" style="stroke:#181818;stroke-width:0.5;"/><text fill="#000000" font-family="sans-serif" font-size="14" lengthAdjust="spacing" textLength="116" x="73.5" y="378.6973">Logistics Operator</text><ellipse cx="134.5" cy="390.2734" fill="#E3E3E3" rx="8" ry="8" style="stroke:#181818;stroke-width:0.5;"/><path d="M134.5,398.2734 L134.5,425.2734 M121.5,406.2734 L147.5,406.2734 M134.5,425.2734 L121.5,440.2734 M134.5,425.2734 L147.5,440.2734 " fill="none" style="stroke:#181818;stroke-width:0.5;"/><rect fill="#E3E3E3" height="31.6094" rx="2.5" ry="2.5" style="stroke:#181818;stroke-width:0.5;" width="64" x="438.5" y="88.6094"/><text fill="#000000" font-family="sans-serif" font-size="14" lengthAdjust="spacing" textLength="50" x="445.5" y="110.1426">:System</text><rect fill="#E3E3E3" height="31.6094" rx="2.5" ry="2.5" style="stroke:#181818;stroke-width:0.5;" width="64" x="438.5" y="364.1641"/><text fill="#000000" font-family="sans-serif" font-size="14" lengthAdjust="spacing" textLength="50" x="445.5" y="385.6973">:System</text><rect fill="#FFFFFF" height="60.7031" style="stroke:#FFFFFF;stroke-width:1.0;" width="10" x="129.5" y="131.2188"/><line style="stroke:#181818;stroke-width:1.0;" x1="129.5" x2="129.5" y1="131.2188" y2="191.9219"/><line style="stroke:#181818;stroke-width:1.0;" x1="139.5" x2="139.5" y1="131.2188" y2="191.9219"/><line style="stroke:#181818;stroke-width:1.0;" x1="129.5" x2="139.5" y1="131.2188" y2="131.2188"/><rect fill="#FFFFFF" height="122.4063" style="stroke:#FFFFFF;stroke-width:1.0;" width="10" x="129.5" y="233.7578"/><line style="stroke:#181818;stroke-width:1.0;" x1="129.5" x2="129.5" y1="233.7578" y2="356.1641"/><line style="stroke:#181818;stroke-width:1.0;" x1="139.5" x2="139.5" y1="233.7578" y2="356.1641"/><rect fill="#FFFFFF" height="30.3516" style="stroke:#181818;stroke-width:1.0;" width="10" x="465.5" y="153.5703"/><rect fill="#FFFFFF" height="30.3516" style="stroke:#181818;stroke-width:1.0;" width="10" x="465.5" y="256.1094"/><rect fill="#FFFFFF" height="30.3516" style="stroke:#181818;stroke-width:1.0;" width="10" x="465.5" y="316.8125"/><polygon fill="#181818" points="453.5,149.5703,463.5,153.5703,453.5,157.5703,457.5,153.5703" style="stroke:#181818;stroke-width:1.0;"/><line style="stroke:#181818;stroke-width:1.0;" x1="139.5" x2="459.5" y1="153.5703" y2="153.5703"/><text fill="#000000" font-family="sans-serif" font-size="13" font-weight="bold" lengthAdjust="spacing" textLength="7" x="146.5" y="148.7139">1</text><text fill="#000000" font-family="sans-serif" font-size="13" lengthAdjust="spacing" textLength="296" x="157.5" y="148.7139">attempts to register a new qualification with details.</text><polygon fill="#181818" points="150.5,179.9219,140.5,183.9219,150.5,187.9219,146.5,183.9219" style="stroke:#181818;stroke-width:1.0;"/><line style="stroke:#181818;stroke-width:1.0;stroke-dasharray:2.0,2.0;" x1="144.5" x2="469.5" y1="183.9219" y2="183.9219"/><text fill="#000000" font-family="sans-serif" font-size="13" font-weight="bold" lengthAdjust="spacing" textLength="7" x="156.5" y="179.0654">2</text><text fill="#000000" font-family="sans-serif" font-size="13" lengthAdjust="spacing" textLength="291" x="167.5" y="179.0654">confirms successful registration of the qualification</text><text fill="#000000" font-family="sans-serif" font-size="11" lengthAdjust="spacing" textLength="236" x="184.5" y="217.3408">Logistics selects an existing resource to manage</text><polygon fill="#181818" points="453.5,252.1094,463.5,256.1094,453.5,260.1094,457.5,256.1094" style="stroke:#181818;stroke-width:1.0;"/><line style="stroke:#181818;stroke-width:1.0;" x1="139.5" x2="459.5" y1="256.1094" y2="256.1094"/><text fill="#000000" font-family="sans-serif" font-size="13" font-weight="bold" lengthAdjust="spacing" textLength="7" x="146.5" y="251.2529">3</text><text fill="#000000" font-family="sans-serif" font-size="13" lengthAdjust="spacing" textLength="190" x="157.5" y="251.2529">selects a qualification to manage</text><polygon fill="#181818" points="150.5,282.4609,140.5,286.4609,150.5,290.4609,146.5,286.4609" style="stroke:#181818;stroke-width:1.0;"/><line style="stroke:#181818;stroke-width:1.0;stroke-dasharray:2.0,2.0;" x1="144.5" x2="469.5" y1="286.4609" y2="286.4609"/><text fill="#000000" font-family="sans-serif" font-size="13" font-weight="bold" lengthAdjust="spacing" textLength="7" x="156.5" y="281.6045">4</text><text fill="#000000" font-family="sans-serif" font-size="13" lengthAdjust="spacing" textLength="273" x="167.5" y="281.6045">displays the details of the selected qualification</text><polygon fill="#181818" points="453.5,312.8125,463.5,316.8125,453.5,320.8125,457.5,316.8125" style="stroke:#181818;stroke-width:1.0;"/><line style="stroke:#181818;stroke-width:1.0;" x1="139.5" x2="459.5" y1="316.8125" y2="316.8125"/><text fill="#000000" font-family="sans-serif" font-size="13" font-weight="bold" lengthAdjust="spacing" textLength="7" x="146.5" y="311.9561">5</text><text fill="#000000" font-family="sans-serif" font-size="13" lengthAdjust="spacing" textLength="225" x="157.5" y="311.9561">manages the details of the qualification</text><polygon fill="#181818" points="150.5,343.1641,140.5,347.1641,150.5,351.1641,146.5,347.1641" style="stroke:#181818;stroke-width:1.0;"/><line style="stroke:#181818;stroke-width:1.0;stroke-dasharray:2.0,2.0;" x1="144.5" x2="469.5" y1="347.1641" y2="347.1641"/><text fill="#000000" font-family="sans-serif" font-size="13" font-weight="bold" lengthAdjust="spacing" textLength="7" x="156.5" y="342.3076">6</text><text fill="#000000" font-family="sans-serif" font-size="13" lengthAdjust="spacing" textLength="266" x="167.5" y="342.3076">confirms successful update of the qualification</text><!--SRC=[fLB1JkCm4BtxAqQz01A917lhOIMa7dU5HCG73CuajOZju1dJxMM_dJ59sr2nMYHEjiOpxyrxpnVmo0H2VXnG25ZsWmizN29pzkNcOuXscwAdQo2nzPNXPnT6JEWNRo0fq-9bHFkCFJKAHv382eP-M3Rm5jkuAmGT3ap6Y1DjVMnkwzlwviSQ7gXtB9G0GmiUWwB1IyR1TSwYk1WOAcZsskAXePTCmH9i7FO5_R9fDbV6O9OOid-YPD1AJB3w5Gkgimpt8oNKsWgGuLWskfsURiGWi5fF-EyjqzMOEolkjLXrchcegkgqRsCfO78Hj6fEVDNFmxPhG2c62uD4DUUW4mBjFag4dPCjj2Je1gwBXebwtcN6gnJwnBC66qFdacVWR2qnTtcOMTA46ZkGxPcRfgLp-4dNxydwfQg_fgxh1INJe0cp9WNqfzGqrKGSSz98LEASdWxzmuyZm9dyu-nNfRUEzH_l-LtVxDj1xaH2xNzrVxxZjCYdo1y1lv5I7jio-BLytW00]--></g></svg>