<svg xmlns="http://www.w3.org/2000/svg" xmlns:xlink="http://www.w3.org/1999/xlink" contentStyleType="text/css" height="1539px" preserveAspectRatio="none" style="width:2239px;height:1539px;background:#FFFFFF;" version="1.1" viewBox="0 0 2239 1539" width="2239px" zoomAndPan="magnify"><title>US220: Register Customer</title><defs/><g><text fill="#000000" font-family="sans-serif" font-size="14" font-weight="bold" lengthAdjust="spacing" textLength="188.3506" x="1027.2944" y="28.5352">US220: Register Customer</text><rect fill="#FFFFFF" height="1289.8145" style="stroke:#181818;stroke-width:1.0;" width="10" x="268.6709" y="150.2871"/><rect fill="#FFFFFF" height="29.3105" style="stroke:#181818;stroke-width:1.0;" width="10" x="543.1284" y="179.5977"/><rect fill="#FFFFFF" height="145.9082" style="stroke:#181818;stroke-width:1.0;" width="10" x="543.1284" y="342.7715"/><rect fill="#FFFFFF" height="742.3164" style="stroke:#181818;stroke-width:1.0;" width="10" x="543.1284" y="637.8535"/><rect fill="#FFFFFF" height="528.5215" style="stroke:#181818;stroke-width:1.0;" width="10" x="783.4927" y="822.3379"/><rect fill="#FFFFFF" height="14" style="stroke:#181818;stroke-width:1.0;" width="10" x="1179.8315" y="387.3926"/><rect fill="#FFFFFF" height="14" style="stroke:#181818;stroke-width:1.0;" width="10" x="1179.8315" y="733.0957"/><rect fill="#FFFFFF" height="14" style="stroke:#181818;stroke-width:1.0;" width="10" x="1179.8315" y="866.959"/><rect fill="#FFFFFF" height="86.9316" style="stroke:#181818;stroke-width:1.0;" width="10" x="1346.6924" y="910.2695"/><rect fill="#FFFFFF" height="199.7949" style="stroke:#181818;stroke-width:1.0;" width="10" x="1533.2266" y="1121.7539"/><rect fill="#FFFFFF" height="79.9316" style="stroke:#181818;stroke-width:1.0;" width="10" x="2199.6069" y="1212.3066"/><line style="stroke:#181818;stroke-width:0.5;stroke-dasharray:5.0,5.0;" x1="67" x2="67" y1="118.9766" y2="1458.1016"/><line style="stroke:#181818;stroke-width:0.5;stroke-dasharray:5.0,5.0;" x1="272.9512" x2="272.9512" y1="118.9766" y2="1458.1016"/><line style="stroke:#181818;stroke-width:0.5;stroke-dasharray:5.0,5.0;" x1="547.1948" x2="547.1948" y1="118.9766" y2="1458.1016"/><line style="stroke:#181818;stroke-width:0.5;stroke-dasharray:5.0,5.0;" x1="787.6387" x2="787.6387" y1="118.9766" y2="1458.1016"/><line style="stroke:#181818;stroke-width:0.5;stroke-dasharray:5.0,5.0;" x1="941.3467" x2="941.3467" y1="118.9766" y2="1458.1016"/><line style="stroke:#181818;stroke-width:0.5;stroke-dasharray:5.0,5.0;" x1="1184.4629" x2="1184.4629" y1="118.9766" y2="1458.1016"/><line style="stroke:#181818;stroke-width:0.5;stroke-dasharray:5.0,5.0;" x1="1351.2002" x2="1351.2002" y1="118.9766" y2="1458.1016"/><line style="stroke:#181818;stroke-width:0.5;stroke-dasharray:5.0,5.0;" x1="1537.2422" x2="1537.2422" y1="118.9766" y2="1458.1016"/><line style="stroke:#181818;stroke-width:0.5;stroke-dasharray:5.0,5.0;" x1="1802.2109" x2="1802.2109" y1="448.3809" y2="1458.1016"/><line style="stroke:#181818;stroke-width:0.5;stroke-dasharray:5.0,5.0;" x1="2063.6904" x2="2063.6904" y1="1045.167" y2="1458.1016"/><line style="stroke:#181818;stroke-width:0.5;stroke-dasharray:5.0,5.0;" x1="2204.2744" x2="2204.2744" y1="118.9766" y2="1458.1016"/><text fill="#000000" font-family="sans-serif" font-size="14" lengthAdjust="spacing" text-decoration="underline" textLength="119.5742" x="5" y="116.0234">CRM Collaborator</text><ellipse cx="67.7871" cy="50.9883" fill="#E2E2F0" rx="8" ry="8" style="stroke:#181818;stroke-width:0.5;"/><path d="M67.7871,58.9883 L67.7871,85.9883 M54.7871,66.9883 L80.7871,66.9883 M67.7871,85.9883 L54.7871,100.9883 M67.7871,85.9883 L80.7871,100.9883 " fill="none" style="stroke:#181818;stroke-width:0.5;"/><text fill="#000000" font-family="sans-serif" font-size="14" lengthAdjust="spacing" text-decoration="underline" textLength="119.5742" x="5" y="1470.6367">CRM Collaborator</text><ellipse cx="67.7871" cy="1482.0898" fill="#E2E2F0" rx="8" ry="8" style="stroke:#181818;stroke-width:0.5;"/><path d="M67.7871,1490.0898 L67.7871,1517.0898 M54.7871,1498.0898 L80.7871,1498.0898 M67.7871,1517.0898 L54.7871,1532.0898 M67.7871,1517.0898 L80.7871,1532.0898 " fill="none" style="stroke:#181818;stroke-width:0.5;"/><rect fill="#E2E2F0" height="46.9766" rx="2.5" ry="2.5" style="stroke:#181818;stroke-width:0.5;" width="153.4395" x="196.9512" y="71"/><text fill="#000000" font-family="sans-serif" font-size="14" font-style="italic" lengthAdjust="spacing" textLength="99.1006" x="224.1206" y="91.5352">&#171;Presentation&#187;</text><text fill="#000000" font-family="sans-serif" font-size="14" lengthAdjust="spacing" text-decoration="underline" textLength="139.4395" x="203.9512" y="108.0234">:RegisterCustomerUI</text><rect fill="#E2E2F0" height="46.9766" rx="2.5" ry="2.5" style="stroke:#181818;stroke-width:0.5;" width="153.4395" x="196.9512" y="1457.1016"/><text fill="#000000" font-family="sans-serif" font-size="14" font-style="italic" lengthAdjust="spacing" textLength="99.1006" x="224.1206" y="1477.6367">&#171;Presentation&#187;</text><text fill="#000000" font-family="sans-serif" font-size="14" lengthAdjust="spacing" text-decoration="underline" textLength="139.4395" x="203.9512" y="1494.125">:RegisterCustomerUI</text><rect fill="#E2E2F0" height="46.9766" rx="2.5" ry="2.5" style="stroke:#181818;stroke-width:0.5;" width="207.8672" x="444.1948" y="71"/><text fill="#000000" font-family="sans-serif" font-size="14" font-style="italic" lengthAdjust="spacing" textLength="91.5195" x="502.3687" y="91.5352">&#171;Application&#187;</text><text fill="#000000" font-family="sans-serif" font-size="14" lengthAdjust="spacing" text-decoration="underline" textLength="193.8672" x="451.1948" y="108.0234">:RegisterCustomerController</text><rect fill="#E2E2F0" height="46.9766" rx="2.5" ry="2.5" style="stroke:#181818;stroke-width:0.5;" width="207.8672" x="444.1948" y="1457.1016"/><text fill="#000000" font-family="sans-serif" font-size="14" font-style="italic" lengthAdjust="spacing" textLength="91.5195" x="502.3687" y="1477.6367">&#171;Application&#187;</text><text fill="#000000" font-family="sans-serif" font-size="14" lengthAdjust="spacing" text-decoration="underline" textLength="193.8672" x="451.1948" y="1494.125">:RegisterCustomerController</text><rect fill="#E2E2F0" height="46.9766" rx="2.5" ry="2.5" style="stroke:#181818;stroke-width:0.5;" width="131.708" x="722.6387" y="71"/><text fill="#000000" font-family="sans-serif" font-size="14" font-style="italic" lengthAdjust="spacing" textLength="91.5195" x="742.7329" y="91.5352">&#171;Application&#187;</text><text fill="#000000" font-family="sans-serif" font-size="14" lengthAdjust="spacing" text-decoration="underline" textLength="117.708" x="729.6387" y="108.0234">:CustomerService</text><rect fill="#E2E2F0" height="46.9766" rx="2.5" ry="2.5" style="stroke:#181818;stroke-width:0.5;" width="131.708" x="722.6387" y="1457.1016"/><text fill="#000000" font-family="sans-serif" font-size="14" font-style="italic" lengthAdjust="spacing" textLength="91.5195" x="742.7329" y="1477.6367">&#171;Application&#187;</text><text fill="#000000" font-family="sans-serif" font-size="14" lengthAdjust="spacing" text-decoration="underline" textLength="117.708" x="729.6387" y="1494.125">:CustomerService</text><rect fill="#E2E2F0" height="46.9766" rx="2.5" ry="2.5" style="stroke:#181818;stroke-width:0.5;" width="154.9844" x="864.3467" y="71"/><text fill="#000000" font-family="sans-serif" font-size="14" font-style="italic" lengthAdjust="spacing" textLength="140.9844" x="871.3467" y="91.5352">&#171;Framework Facade&#187;</text><text fill="#000000" font-family="sans-serif" font-size="14" lengthAdjust="spacing" text-decoration="underline" textLength="95.1426" x="894.2676" y="108.0234">AuthzRegistry</text><rect fill="#E2E2F0" height="46.9766" rx="2.5" ry="2.5" style="stroke:#181818;stroke-width:0.5;" width="154.9844" x="864.3467" y="1457.1016"/><text fill="#000000" font-family="sans-serif" font-size="14" font-style="italic" lengthAdjust="spacing" textLength="140.9844" x="871.3467" y="1477.6367">&#171;Framework Facade&#187;</text><text fill="#000000" font-family="sans-serif" font-size="14" lengthAdjust="spacing" text-decoration="underline" textLength="95.1426" x="894.2676" y="1494.125">AuthzRegistry</text><rect fill="#E2E2F0" height="46.9766" rx="2.5" ry="2.5" style="stroke:#181818;stroke-width:0.5;" width="158.7373" x="1105.4629" y="71"/><text fill="#000000" font-family="sans-serif" font-size="14" font-style="italic" lengthAdjust="spacing" textLength="141.5654" x="1114.0488" y="91.5352">&#171;Framework Service&#187;</text><text fill="#000000" font-family="sans-serif" font-size="14" lengthAdjust="spacing" text-decoration="underline" textLength="144.7373" x="1112.4629" y="108.0234">:AuthorizationService</text><rect fill="#E2E2F0" height="46.9766" rx="2.5" ry="2.5" style="stroke:#181818;stroke-width:0.5;" width="158.7373" x="1105.4629" y="1457.1016"/><text fill="#000000" font-family="sans-serif" font-size="14" font-style="italic" lengthAdjust="spacing" textLength="141.5654" x="1114.0488" y="1477.6367">&#171;Framework Service&#187;</text><text fill="#000000" font-family="sans-serif" font-size="14" lengthAdjust="spacing" text-decoration="underline" textLength="144.7373" x="1112.4629" y="1494.125">:AuthorizationService</text><rect fill="#E2E2F0" height="46.9766" rx="2.5" ry="2.5" style="stroke:#181818;stroke-width:0.5;" width="154.9844" x="1274.2002" y="71"/><text fill="#000000" font-family="sans-serif" font-size="14" font-style="italic" lengthAdjust="spacing" textLength="140.9844" x="1281.2002" y="91.5352">&#171;Framework Facade&#187;</text><text fill="#000000" font-family="sans-serif" font-size="14" lengthAdjust="spacing" text-decoration="underline" textLength="130.1152" x="1286.6348" y="108.0234">PersistenceContext</text><rect fill="#E2E2F0" height="46.9766" rx="2.5" ry="2.5" style="stroke:#181818;stroke-width:0.5;" width="154.9844" x="1274.2002" y="1457.1016"/><text fill="#000000" font-family="sans-serif" font-size="14" font-style="italic" lengthAdjust="spacing" textLength="140.9844" x="1281.2002" y="1477.6367">&#171;Framework Facade&#187;</text><text fill="#000000" font-family="sans-serif" font-size="14" lengthAdjust="spacing" text-decoration="underline" textLength="130.1152" x="1286.6348" y="1494.125">PersistenceContext</text><rect fill="#E2E2F0" height="46.9766" rx="2.5" ry="2.5" style="stroke:#181818;stroke-width:0.5;" width="197.9688" x="1439.2422" y="71"/><text fill="#000000" font-family="sans-serif" font-size="14" font-style="italic" lengthAdjust="spacing" textLength="183.9688" x="1446.2422" y="91.5352">&#171;Infrastructure Repository&#187;</text><text fill="#000000" font-family="sans-serif" font-size="14" lengthAdjust="spacing" text-decoration="underline" textLength="142.502" x="1466.9756" y="108.0234">:CustomerRepository</text><rect fill="#E2E2F0" height="46.9766" rx="2.5" ry="2.5" style="stroke:#181818;stroke-width:0.5;" width="197.9688" x="1439.2422" y="1457.1016"/><text fill="#000000" font-family="sans-serif" font-size="14" font-style="italic" lengthAdjust="spacing" textLength="183.9688" x="1446.2422" y="1477.6367">&#171;Infrastructure Repository&#187;</text><text fill="#000000" font-family="sans-serif" font-size="14" lengthAdjust="spacing" text-decoration="underline" textLength="142.502" x="1466.9756" y="1494.125">:CustomerRepository</text><rect fill="#E2E2F0" height="46.9766" rx="2.5" ry="2.5" style="stroke:#181818;stroke-width:0.5;" width="311.4795" x="1647.2109" y="1457.1016"/><text fill="#000000" font-family="sans-serif" font-size="14" font-style="italic" lengthAdjust="spacing" textLength="109.833" x="1748.0342" y="1477.6367">&#171;Domain Entity&#187;</text><text fill="#000000" font-family="sans-serif" font-size="14" lengthAdjust="spacing" text-decoration="underline" textLength="297.4795" x="1654.2109" y="1494.125">newRepresentative:CustomerRepresentative</text><rect fill="#E2E2F0" height="46.9766" rx="2.5" ry="2.5" style="stroke:#181818;stroke-width:0.5;" width="191.584" x="1968.6904" y="1457.1016"/><text fill="#000000" font-family="sans-serif" font-size="14" font-style="italic" lengthAdjust="spacing" textLength="177.584" x="1975.6904" y="1477.6367">&#171;Domain Aggregate Root&#187;</text><text fill="#000000" font-family="sans-serif" font-size="14" lengthAdjust="spacing" text-decoration="underline" textLength="163.5977" x="1982.6836" y="1494.125">newCustomer:Customer</text><text fill="#000000" font-family="sans-serif" font-size="14" lengthAdjust="spacing" text-decoration="underline" textLength="62.665" x="2170.2744" y="116.0234">Database</text><path d="M2186.6069,66.4883 C2186.6069,56.4883 2204.6069,56.4883 2204.6069,56.4883 C2204.6069,56.4883 2222.6069,56.4883 2222.6069,66.4883 L2222.6069,92.4883 C2222.6069,102.4883 2204.6069,102.4883 2204.6069,102.4883 C2204.6069,102.4883 2186.6069,102.4883 2186.6069,92.4883 L2186.6069,66.4883 " fill="#E2E2F0" style="stroke:#181818;stroke-width:1.5;"/><path d="M2186.6069,66.4883 C2186.6069,76.4883 2204.6069,76.4883 2204.6069,76.4883 C2204.6069,76.4883 2222.6069,76.4883 2222.6069,66.4883 " fill="none" style="stroke:#181818;stroke-width:1.5;"/><text fill="#000000" font-family="sans-serif" font-size="14" lengthAdjust="spacing" text-decoration="underline" textLength="62.665" x="2170.2744" y="1470.6367">Database</text><path d="M2186.6069,1483.5898 C2186.6069,1473.5898 2204.6069,1473.5898 2204.6069,1473.5898 C2204.6069,1473.5898 2222.6069,1473.5898 2222.6069,1483.5898 L2222.6069,1509.5898 C2222.6069,1519.5898 2204.6069,1519.5898 2204.6069,1519.5898 C2204.6069,1519.5898 2186.6069,1519.5898 2186.6069,1509.5898 L2186.6069,1483.5898 " fill="#E2E2F0" style="stroke:#181818;stroke-width:1.5;"/><path d="M2186.6069,1483.5898 C2186.6069,1493.5898 2204.6069,1493.5898 2204.6069,1493.5898 C2204.6069,1493.5898 2222.6069,1493.5898 2222.6069,1483.5898 " fill="none" style="stroke:#181818;stroke-width:1.5;"/><rect fill="#FFFFFF" height="1289.8145" style="stroke:#181818;stroke-width:1.0;" width="10" x="268.6709" y="150.2871"/><rect fill="#FFFFFF" height="29.3105" style="stroke:#181818;stroke-width:1.0;" width="10" x="543.1284" y="179.5977"/><rect fill="#FFFFFF" height="145.9082" style="stroke:#181818;stroke-width:1.0;" width="10" x="543.1284" y="342.7715"/><rect fill="#FFFFFF" height="742.3164" style="stroke:#181818;stroke-width:1.0;" width="10" x="543.1284" y="637.8535"/><rect fill="#FFFFFF" height="528.5215" style="stroke:#181818;stroke-width:1.0;" width="10" x="783.4927" y="822.3379"/><rect fill="#FFFFFF" height="14" style="stroke:#181818;stroke-width:1.0;" width="10" x="1179.8315" y="387.3926"/><rect fill="#FFFFFF" height="14" style="stroke:#181818;stroke-width:1.0;" width="10" x="1179.8315" y="733.0957"/><rect fill="#FFFFFF" height="14" style="stroke:#181818;stroke-width:1.0;" width="10" x="1179.8315" y="866.959"/><rect fill="#FFFFFF" height="86.9316" style="stroke:#181818;stroke-width:1.0;" width="10" x="1346.6924" y="910.2695"/><rect fill="#FFFFFF" height="199.7949" style="stroke:#181818;stroke-width:1.0;" width="10" x="1533.2266" y="1121.7539"/><rect fill="#FFFFFF" height="79.9316" style="stroke:#181818;stroke-width:1.0;" width="10" x="2199.6069" y="1212.3066"/><polygon fill="#181818" points="256.6709,146.2871,266.6709,150.2871,256.6709,154.2871,260.6709,150.2871" style="stroke:#181818;stroke-width:1.0;"/><line style="stroke:#181818;stroke-width:2.0;" x1="67.7871" x2="262.6709" y1="150.2871" y2="150.2871"/><text fill="#000000" font-family="sans-serif" font-size="13" lengthAdjust="spacing" textLength="35.8516" x="74.7871" y="145.5449">Starts</text><text fill="#000000" font-family="sans-serif" font-size="13" lengthAdjust="spacing" textLength="4.1133" x="110.6387" y="145.5449">&#160;</text><text fill="#000000" font-family="sans-serif" font-size="13" lengthAdjust="spacing" textLength="58.8999" x="114.752" y="145.5449">customer</text><text fill="#000000" font-family="sans-serif" font-size="13" lengthAdjust="spacing" textLength="4.1133" x="173.6519" y="145.5449">&#160;</text><text fill="#000000" font-family="sans-serif" font-size="13" lengthAdjust="spacing" textLength="73.0869" x="177.7651" y="145.5449">registration</text><polygon fill="#181818" points="531.1284,175.5977,541.1284,179.5977,531.1284,183.5977,535.1284,179.5977" style="stroke:#181818;stroke-width:1.0;"/><line style="stroke:#181818;stroke-width:2.0;" x1="278.6709" x2="537.1284" y1="179.5977" y2="179.5977"/><text fill="#000000" font-family="sans-serif" font-size="13" lengthAdjust="spacing" textLength="46.96" x="285.6709" y="174.8555">create()</text><polygon fill="#181818" points="289.6709,204.9082,279.6709,208.9082,289.6709,212.9082,285.6709,208.9082" style="stroke:#181818;stroke-width:1.0;"/><line style="stroke:#181818;stroke-width:2.0;stroke-dasharray:2.0,2.0;" x1="283.6709" x2="547.1284" y1="208.9082" y2="208.9082"/><text fill="#000000" font-family="sans-serif" font-size="13" lengthAdjust="spacing" textLength="52.4634" x="295.6709" y="204.166">instance</text><polygon fill="#181818" points="78.7871,249.5293,68.7871,253.5293,78.7871,257.5293,74.7871,253.5293" style="stroke:#181818;stroke-width:1.0;"/><line style="stroke:#181818;stroke-width:2.0;stroke-dasharray:2.0,2.0;" x1="72.7871" x2="267.6709" y1="253.5293" y2="253.5293"/><text fill="#000000" font-family="sans-serif" font-size="13" lengthAdjust="spacing" textLength="57.0718" x="84.7871" y="233.4766">Requests</text><text fill="#000000" font-family="sans-serif" font-size="13" lengthAdjust="spacing" textLength="4.1133" x="141.8589" y="233.4766">&#160;</text><text fill="#000000" font-family="sans-serif" font-size="13" lengthAdjust="spacing" textLength="89.8765" x="145.9722" y="233.4766">representative</text><text fill="#000000" font-family="sans-serif" font-size="13" lengthAdjust="spacing" textLength="27.4028" x="84.7871" y="248.7871">data</text><polygon fill="#181818" points="256.6709,294.1504,266.6709,298.1504,256.6709,302.1504,260.6709,298.1504" style="stroke:#181818;stroke-width:1.0;"/><line style="stroke:#181818;stroke-width:2.0;" x1="67.7871" x2="262.6709" y1="298.1504" y2="298.1504"/><text fill="#000000" font-family="sans-serif" font-size="13" lengthAdjust="spacing" textLength="53.0283" x="74.7871" y="278.0977">Provides</text><text fill="#000000" font-family="sans-serif" font-size="13" lengthAdjust="spacing" textLength="4.1133" x="127.8154" y="278.0977">&#160;</text><text fill="#000000" font-family="sans-serif" font-size="13" lengthAdjust="spacing" textLength="27.4028" x="131.9287" y="278.0977">data</text><text fill="#000000" font-family="sans-serif" font-size="13" lengthAdjust="spacing" textLength="4.1133" x="159.3315" y="278.0977">&#160;</text><text fill="#000000" font-family="sans-serif" font-size="13" lengthAdjust="spacing" textLength="42.9673" x="163.4448" y="278.0977">(name,</text><text fill="#000000" font-family="sans-serif" font-size="13" lengthAdjust="spacing" textLength="4.1133" x="206.4121" y="278.0977">&#160;</text><text fill="#000000" font-family="sans-serif" font-size="13" lengthAdjust="spacing" textLength="38.1875" x="210.5254" y="278.0977">email,</text><text fill="#000000" font-family="sans-serif" font-size="13" lengthAdjust="spacing" textLength="43.6592" x="74.7871" y="293.4082">phone,</text><text fill="#000000" font-family="sans-serif" font-size="13" lengthAdjust="spacing" textLength="4.1133" x="118.4463" y="293.4082">&#160;</text><text fill="#000000" font-family="sans-serif" font-size="13" lengthAdjust="spacing" textLength="55.4531" x="122.5596" y="293.4082">position)</text><polygon fill="#181818" points="531.1284,338.7715,541.1284,342.7715,531.1284,346.7715,535.1284,342.7715" style="stroke:#181818;stroke-width:1.0;"/><line style="stroke:#181818;stroke-width:2.0;" x1="278.6709" x2="537.1284" y1="342.7715" y2="342.7715"/><text fill="#000000" font-family="sans-serif" font-size="13" lengthAdjust="spacing" textLength="245.4575" x="285.6709" y="322.7188">registerCustomerRepresentative(name,</text><text fill="#000000" font-family="sans-serif" font-size="13" lengthAdjust="spacing" textLength="38.1875" x="285.6709" y="338.0293">email,</text><text fill="#000000" font-family="sans-serif" font-size="13" lengthAdjust="spacing" textLength="4.1133" x="323.8584" y="338.0293">&#160;</text><text fill="#000000" font-family="sans-serif" font-size="13" lengthAdjust="spacing" textLength="43.6592" x="327.9717" y="338.0293">phone,</text><text fill="#000000" font-family="sans-serif" font-size="13" lengthAdjust="spacing" textLength="4.1133" x="371.6309" y="338.0293">&#160;</text><text fill="#000000" font-family="sans-serif" font-size="13" lengthAdjust="spacing" textLength="27.022" x="375.7441" y="338.0293">pos)</text><polygon fill="#181818" points="1167.8315,383.3926,1177.8315,387.3926,1167.8315,391.3926,1171.8315,387.3926" style="stroke:#181818;stroke-width:1.0;"/><line style="stroke:#181818;stroke-width:2.0;" x1="553.1284" x2="1173.8315" y1="387.3926" y2="387.3926"/><text fill="#000000" font-family="sans-serif" font-size="13" lengthAdjust="spacing" textLength="272.4478" x="560.1284" y="367.3398">ensureAuthenticatedUserHasAnyOf(ADMIN,</text><text fill="#000000" font-family="sans-serif" font-size="13" lengthAdjust="spacing" textLength="142.3716" x="560.1284" y="382.6504">CRM_COLLABORATOR)</text><polygon fill="#181818" points="564.1284,397.3926,554.1284,401.3926,564.1284,405.3926,560.1284,401.3926" style="stroke:#181818;stroke-width:1.0;"/><line style="stroke:#181818;stroke-width:2.0;stroke-dasharray:2.0,2.0;" x1="558.1284" x2="1183.8315" y1="401.3926" y2="401.3926"/><polygon fill="#181818" points="1635.2109,442.0137,1645.2109,446.0137,1635.2109,450.0137,1639.2109,446.0137" style="stroke:#181818;stroke-width:1.0;"/><line style="stroke:#181818;stroke-width:2.0;" x1="553.1284" x2="1641.2109" y1="446.0137" y2="446.0137"/><text fill="#000000" font-family="sans-serif" font-size="13" lengthAdjust="spacing" textLength="81.4722" x="560.1284" y="425.9609">create(name,</text><text fill="#000000" font-family="sans-serif" font-size="13" lengthAdjust="spacing" textLength="4.1133" x="641.6006" y="425.9609">&#160;</text><text fill="#000000" font-family="sans-serif" font-size="13" lengthAdjust="spacing" textLength="38.1875" x="645.7139" y="425.9609">email,</text><text fill="#000000" font-family="sans-serif" font-size="13" lengthAdjust="spacing" textLength="4.1133" x="683.9014" y="425.9609">&#160;</text><text fill="#000000" font-family="sans-serif" font-size="13" lengthAdjust="spacing" textLength="43.6592" x="688.0146" y="425.9609">phone,</text><text fill="#000000" font-family="sans-serif" font-size="13" lengthAdjust="spacing" textLength="27.022" x="560.1284" y="441.2715">pos)</text><rect fill="#E2E2F0" height="46.9766" rx="2.5" ry="2.5" style="stroke:#181818;stroke-width:0.5;" width="311.4795" x="1647.2109" y="409.3926"/><text fill="#000000" font-family="sans-serif" font-size="14" font-style="italic" lengthAdjust="spacing" textLength="109.833" x="1748.0342" y="429.9277">&#171;Domain Entity&#187;</text><text fill="#000000" font-family="sans-serif" font-size="14" lengthAdjust="spacing" text-decoration="underline" textLength="297.4795" x="1654.2109" y="446.416">newRepresentative:CustomerRepresentative</text><polygon fill="#181818" points="289.6709,484.6797,279.6709,488.6797,289.6709,492.6797,285.6709,488.6797" style="stroke:#181818;stroke-width:1.0;"/><line style="stroke:#181818;stroke-width:2.0;stroke-dasharray:2.0,2.0;" x1="283.6709" x2="547.1284" y1="488.6797" y2="488.6797"/><text fill="#000000" font-family="sans-serif" font-size="13" lengthAdjust="spacing" textLength="118.1045" x="295.6709" y="483.9375">newRepresentative</text><polygon fill="#181818" points="78.7871,529.3008,68.7871,533.3008,78.7871,537.3008,74.7871,533.3008" style="stroke:#181818;stroke-width:1.0;"/><line style="stroke:#181818;stroke-width:2.0;stroke-dasharray:2.0,2.0;" x1="72.7871" x2="267.6709" y1="533.3008" y2="533.3008"/><text fill="#000000" font-family="sans-serif" font-size="13" lengthAdjust="spacing" textLength="57.0718" x="84.7871" y="513.248">Requests</text><text fill="#000000" font-family="sans-serif" font-size="13" lengthAdjust="spacing" textLength="4.1133" x="141.8589" y="513.248">&#160;</text><text fill="#000000" font-family="sans-serif" font-size="13" lengthAdjust="spacing" textLength="58.8999" x="145.9722" y="513.248">customer</text><text fill="#000000" font-family="sans-serif" font-size="13" lengthAdjust="spacing" textLength="4.1133" x="204.8721" y="513.248">&#160;</text><text fill="#000000" font-family="sans-serif" font-size="13" lengthAdjust="spacing" textLength="27.4028" x="208.9854" y="513.248">data</text><text fill="#000000" font-family="sans-serif" font-size="13" lengthAdjust="spacing" textLength="57.7002" x="84.7871" y="528.5586">(address,</text><text fill="#000000" font-family="sans-serif" font-size="13" lengthAdjust="spacing" textLength="4.1133" x="142.4873" y="528.5586">&#160;</text><text fill="#000000" font-family="sans-serif" font-size="13" lengthAdjust="spacing" textLength="29.8022" x="146.6006" y="528.5586">VAT,</text><text fill="#000000" font-family="sans-serif" font-size="13" lengthAdjust="spacing" textLength="4.1133" x="176.4028" y="528.5586">&#160;</text><text fill="#000000" font-family="sans-serif" font-size="13" lengthAdjust="spacing" textLength="38.7397" x="180.5161" y="528.5586">name,</text><text fill="#000000" font-family="sans-serif" font-size="13" lengthAdjust="spacing" textLength="4.1133" x="219.2559" y="528.5586">&#160;</text><text fill="#000000" font-family="sans-serif" font-size="13" lengthAdjust="spacing" textLength="38.3018" x="223.3691" y="528.5586">email)</text><polygon fill="#181818" points="256.6709,558.6113,266.6709,562.6113,256.6709,566.6113,260.6709,562.6113" style="stroke:#181818;stroke-width:1.0;"/><line style="stroke:#181818;stroke-width:2.0;" x1="67.7871" x2="262.6709" y1="562.6113" y2="562.6113"/><text fill="#000000" font-family="sans-serif" font-size="13" lengthAdjust="spacing" textLength="53.0283" x="74.7871" y="557.8691">Provides</text><text fill="#000000" font-family="sans-serif" font-size="13" lengthAdjust="spacing" textLength="4.1133" x="127.8154" y="557.8691">&#160;</text><text fill="#000000" font-family="sans-serif" font-size="13" lengthAdjust="spacing" textLength="27.4028" x="131.9287" y="557.8691">data</text><polygon fill="#181818" points="531.1284,633.8535,541.1284,637.8535,531.1284,641.8535,535.1284,637.8535" style="stroke:#181818;stroke-width:1.0;"/><line style="stroke:#181818;stroke-width:2.0;" x1="278.6709" x2="537.1284" y1="637.8535" y2="637.8535"/><text fill="#000000" font-family="sans-serif" font-size="13" lengthAdjust="spacing" textLength="167.4131" x="285.6709" y="587.1797">registerCustomer(address,</text><text fill="#000000" font-family="sans-serif" font-size="13" lengthAdjust="spacing" textLength="22.8833" x="285.6709" y="602.4902">vat,</text><text fill="#000000" font-family="sans-serif" font-size="13" lengthAdjust="spacing" textLength="4.1133" x="308.5542" y="602.4902">&#160;</text><text fill="#000000" font-family="sans-serif" font-size="13" lengthAdjust="spacing" textLength="122.2178" x="312.6675" y="602.4902">newRepresentative,</text><text fill="#000000" font-family="sans-serif" font-size="13" lengthAdjust="spacing" textLength="43.6592" x="285.6709" y="617.8008">phone,</text><text fill="#000000" font-family="sans-serif" font-size="13" lengthAdjust="spacing" textLength="4.1133" x="329.3301" y="617.8008">&#160;</text><text fill="#000000" font-family="sans-serif" font-size="13" lengthAdjust="spacing" textLength="66.4917" x="333.4434" y="617.8008">custName,</text><text fill="#000000" font-family="sans-serif" font-size="13" lengthAdjust="spacing" textLength="64.3208" x="285.6709" y="633.1113">custEmail)</text><path d="M283,655.8535 L283,685.8535 A5,5 0 0 0 288,690.8535 L580,690.8535 A5,5 0 0 0 585,685.8535 L585,660.8535 L575,650.8535 L288,650.8535 A5,5 0 0 0 283,655.8535 " fill="#FEFFDD" style="stroke:#181818;stroke-width:0.5;"/><path d="M575,650.8535 L575,658.3535 A2.5,2.5 0 0 0 577.5,660.8535 L585,660.8535 L575,650.8535 " fill="#FEFFDD" style="stroke:#181818;stroke-width:0.5;"/><text fill="#000000" font-family="sans-serif" font-size="13" lengthAdjust="spacing" textLength="281.2139" x="289" y="668.4219">Passes 'newRepresentative' object (transient)</text><text fill="#000000" font-family="sans-serif" font-size="13" lengthAdjust="spacing" textLength="176.6362" x="289" y="683.7324">and representative's 'phone'</text><polygon fill="#181818" points="1167.8315,729.0957,1177.8315,733.0957,1167.8315,737.0957,1171.8315,733.0957" style="stroke:#181818;stroke-width:1.0;"/><line style="stroke:#181818;stroke-width:2.0;" x1="553.1284" x2="1173.8315" y1="733.0957" y2="733.0957"/><text fill="#000000" font-family="sans-serif" font-size="13" lengthAdjust="spacing" textLength="272.4478" x="560.1284" y="713.043">ensureAuthenticatedUserHasAnyOf(ADMIN,</text><text fill="#000000" font-family="sans-serif" font-size="13" lengthAdjust="spacing" textLength="142.3716" x="560.1284" y="728.3535">CRM_COLLABORATOR)</text><polygon fill="#181818" points="564.1284,743.0957,554.1284,747.0957,564.1284,751.0957,560.1284,747.0957" style="stroke:#181818;stroke-width:1.0;"/><line style="stroke:#181818;stroke-width:2.0;stroke-dasharray:2.0,2.0;" x1="558.1284" x2="1183.8315" y1="747.0957" y2="747.0957"/><polygon fill="#181818" points="771.4927,818.3379,781.4927,822.3379,771.4927,826.3379,775.4927,822.3379" style="stroke:#181818;stroke-width:1.0;"/><line style="stroke:#181818;stroke-width:2.0;" x1="553.1284" x2="777.4927" y1="822.3379" y2="822.3379"/><text fill="#000000" font-family="sans-serif" font-size="13" lengthAdjust="spacing" textLength="211.3643" x="560.1284" y="771.6641">registerCustomerService(address,</text><text fill="#000000" font-family="sans-serif" font-size="13" lengthAdjust="spacing" textLength="22.8833" x="560.1284" y="786.9746">vat,</text><text fill="#000000" font-family="sans-serif" font-size="13" lengthAdjust="spacing" textLength="4.1133" x="583.0117" y="786.9746">&#160;</text><text fill="#000000" font-family="sans-serif" font-size="13" lengthAdjust="spacing" textLength="122.2178" x="587.125" y="786.9746">newRepresentative,</text><text fill="#000000" font-family="sans-serif" font-size="13" lengthAdjust="spacing" textLength="43.6592" x="560.1284" y="802.2852">phone,</text><text fill="#000000" font-family="sans-serif" font-size="13" lengthAdjust="spacing" textLength="4.1133" x="603.7876" y="802.2852">&#160;</text><text fill="#000000" font-family="sans-serif" font-size="13" lengthAdjust="spacing" textLength="66.4917" x="607.9009" y="802.2852">custName,</text><text fill="#000000" font-family="sans-serif" font-size="13" lengthAdjust="spacing" textLength="64.3208" x="560.1284" y="817.5957">custEmail)</text><polygon fill="#181818" points="1167.8315,862.959,1177.8315,866.959,1167.8315,870.959,1171.8315,866.959" style="stroke:#181818;stroke-width:1.0;"/><line style="stroke:#181818;stroke-width:2.0;" x1="793.4927" x2="1173.8315" y1="866.959" y2="866.959"/><text fill="#000000" font-family="sans-serif" font-size="13" lengthAdjust="spacing" textLength="367.3389" x="800.4927" y="846.9063">ensureAuthenticatedUserHasAnyOf(CRM_COLLABORATOR,</text><text fill="#000000" font-family="sans-serif" font-size="13" lengthAdjust="spacing" textLength="47.4805" x="800.4927" y="862.2168">ADMIN)</text><polygon fill="#181818" points="804.4927,876.959,794.4927,880.959,804.4927,884.959,800.4927,880.959" style="stroke:#181818;stroke-width:1.0;"/><line style="stroke:#181818;stroke-width:2.0;stroke-dasharray:2.0,2.0;" x1="798.4927" x2="1183.8315" y1="880.959" y2="880.959"/><polygon fill="#181818" points="1334.6924,906.2695,1344.6924,910.2695,1334.6924,914.2695,1338.6924,910.2695" style="stroke:#181818;stroke-width:1.0;"/><line style="stroke:#181818;stroke-width:2.0;" x1="793.4927" x2="1340.6924" y1="910.2695" y2="910.2695"/><text fill="#000000" font-family="sans-serif" font-size="13" lengthAdjust="spacing" textLength="83.3638" x="800.4927" y="905.5273">repositories()</text><line style="stroke:#181818;stroke-width:2.0;" x1="1356.6924" x2="1398.6924" y1="954.8906" y2="954.8906"/><line style="stroke:#181818;stroke-width:2.0;" x1="1398.6924" x2="1398.6924" y1="954.8906" y2="967.8906"/><line style="stroke:#181818;stroke-width:2.0;" x1="1357.6924" x2="1398.6924" y1="967.8906" y2="967.8906"/><polygon fill="#181818" points="1367.6924,963.8906,1357.6924,967.8906,1367.6924,971.8906,1363.6924,967.8906" style="stroke:#181818;stroke-width:1.0;"/><text fill="#000000" font-family="sans-serif" font-size="13" lengthAdjust="spacing" textLength="20.2109" x="1363.6924" y="934.8379">get</text><text fill="#000000" font-family="sans-serif" font-size="13" lengthAdjust="spacing" textLength="4.1133" x="1383.9033" y="934.8379">&#160;</text><text fill="#000000" font-family="sans-serif" font-size="13" lengthAdjust="spacing" textLength="128.21" x="1388.0166" y="934.8379">CustomerRepository</text><text fill="#000000" font-family="sans-serif" font-size="13" lengthAdjust="spacing" textLength="52.4634" x="1363.6924" y="950.1484">instance</text><polygon fill="#181818" points="804.4927,993.2012,794.4927,997.2012,804.4927,1001.2012,800.4927,997.2012" style="stroke:#181818;stroke-width:1.0;"/><line style="stroke:#181818;stroke-width:2.0;stroke-dasharray:2.0,2.0;" x1="798.4927" x2="1350.6924" y1="997.2012" y2="997.2012"/><text fill="#000000" font-family="sans-serif" font-size="13" lengthAdjust="spacing" textLength="57.8462" x="810.4927" y="992.459">custRepo</text><polygon fill="#181818" points="1956.6904,1053.1328,1966.6904,1057.1328,1956.6904,1061.1328,1960.6904,1057.1328" style="stroke:#181818;stroke-width:1.0;"/><line style="stroke:#181818;stroke-width:2.0;" x1="793.4927" x2="1962.6904" y1="1057.1328" y2="1057.1328"/><text fill="#000000" font-family="sans-serif" font-size="13" lengthAdjust="spacing" textLength="96.2051" x="800.4927" y="1021.7695">create(address,</text><text fill="#000000" font-family="sans-serif" font-size="13" lengthAdjust="spacing" textLength="4.1133" x="896.6978" y="1021.7695">&#160;</text><text fill="#000000" font-family="sans-serif" font-size="13" lengthAdjust="spacing" textLength="22.8833" x="900.811" y="1021.7695">vat,</text><text fill="#000000" font-family="sans-serif" font-size="13" lengthAdjust="spacing" textLength="122.2178" x="800.4927" y="1037.0801">newRepresentative,</text><text fill="#000000" font-family="sans-serif" font-size="13" lengthAdjust="spacing" textLength="4.1133" x="922.7104" y="1037.0801">&#160;</text><text fill="#000000" font-family="sans-serif" font-size="13" lengthAdjust="spacing" textLength="43.6592" x="926.8237" y="1037.0801">phone,</text><text fill="#000000" font-family="sans-serif" font-size="13" lengthAdjust="spacing" textLength="66.4917" x="800.4927" y="1052.3906">custName,</text><text fill="#000000" font-family="sans-serif" font-size="13" lengthAdjust="spacing" textLength="4.1133" x="866.9844" y="1052.3906">&#160;</text><text fill="#000000" font-family="sans-serif" font-size="13" lengthAdjust="spacing" textLength="64.3208" x="871.0977" y="1052.3906">custEmail)</text><rect fill="#E2E2F0" height="46.9766" rx="2.5" ry="2.5" style="stroke:#181818;stroke-width:0.5;" width="191.584" x="1968.6904" y="1007.1563"/><text fill="#000000" font-family="sans-serif" font-size="14" font-style="italic" lengthAdjust="spacing" textLength="177.584" x="1975.6904" y="1027.6914">&#171;Domain Aggregate Root&#187;</text><text fill="#000000" font-family="sans-serif" font-size="14" lengthAdjust="spacing" text-decoration="underline" textLength="163.5977" x="1982.6836" y="1044.1797">newCustomer:Customer</text><path d="M798,1075.1328 L798,1090.1328 A5,5 0 0 0 803,1095.1328 L1136,1095.1328 A5,5 0 0 0 1141,1090.1328 L1141,1080.1328 L1131,1070.1328 L803,1070.1328 A5,5 0 0 0 798,1075.1328 " fill="#FEFFDD" style="stroke:#181818;stroke-width:0.5;"/><path d="M1131,1070.1328 L1131,1077.6328 A2.5,2.5 0 0 0 1133.5,1080.1328 L1141,1080.1328 L1131,1070.1328 " fill="#FEFFDD" style="stroke:#181818;stroke-width:0.5;"/><text fill="#000000" font-family="sans-serif" font-size="13" lengthAdjust="spacing" textLength="322.1563" x="804" y="1087.7012">Associates 'newRepresentative' with 'newCustomer'</text><polygon fill="#181818" points="1521.2266,1117.7539,1531.2266,1121.7539,1521.2266,1125.7539,1525.2266,1121.7539" style="stroke:#181818;stroke-width:1.0;"/><line style="stroke:#181818;stroke-width:2.0;" x1="793.4927" x2="1527.2266" y1="1121.7539" y2="1121.7539"/><text fill="#000000" font-family="sans-serif" font-size="13" lengthAdjust="spacing" textLength="122.7954" x="800.4927" y="1117.0117">save(newCustomer)</text><polygon fill="#181818" points="2187.6069,1208.3066,2197.6069,1212.3066,2187.6069,1216.3066,2191.6069,1212.3066" style="stroke:#181818;stroke-width:1.0;"/><line style="stroke:#181818;stroke-width:2.0;" x1="1543.2266" x2="2193.6069" y1="1212.3066" y2="1212.3066"/><text fill="#000000" font-family="sans-serif" font-size="13" lengthAdjust="spacing" textLength="43.8369" x="1550.2266" y="1146.3223">INSERT</text><text fill="#000000" font-family="sans-serif" font-size="13" lengthAdjust="spacing" textLength="4.1133" x="1594.0635" y="1146.3223">&#160;</text><text fill="#000000" font-family="sans-serif" font-size="13" lengthAdjust="spacing" textLength="31.6685" x="1598.1768" y="1146.3223">INTO</text><text fill="#000000" font-family="sans-serif" font-size="13" lengthAdjust="spacing" textLength="154.0132" x="1550.2266" y="1161.6328">CustomerRepresentative</text><text fill="#000000" font-family="sans-serif" font-size="13" lengthAdjust="spacing" textLength="4.1133" x="1704.2397" y="1161.6328">&#160;</text><text fill="#000000" font-family="sans-serif" font-size="13" lengthAdjust="spacing" textLength="20.7949" x="1708.353" y="1161.6328">(...)</text><text fill="#000000" font-family="sans-serif" font-size="13" lengthAdjust="spacing" textLength="47.4551" x="1550.2266" y="1176.9434">VALUES</text><text fill="#000000" font-family="sans-serif" font-size="13" lengthAdjust="spacing" textLength="4.1133" x="1597.6816" y="1176.9434">&#160;</text><text fill="#000000" font-family="sans-serif" font-size="13" lengthAdjust="spacing" textLength="20.7949" x="1601.7949" y="1176.9434">(...)</text><text fill="#000000" font-family="sans-serif" font-size="13" lengthAdjust="spacing" textLength="4.1133" x="1550.2266" y="1192.2539">&#160;</text><text fill="#000000" font-family="sans-serif" font-size="13" lengthAdjust="spacing" textLength="43.8369" x="1554.3398" y="1192.2539">INSERT</text><text fill="#000000" font-family="sans-serif" font-size="13" lengthAdjust="spacing" textLength="4.1133" x="1598.1768" y="1192.2539">&#160;</text><text fill="#000000" font-family="sans-serif" font-size="13" lengthAdjust="spacing" textLength="31.6685" x="1602.29" y="1192.2539">INTO</text><text fill="#000000" font-family="sans-serif" font-size="13" lengthAdjust="spacing" textLength="4.1133" x="1633.9585" y="1192.2539">&#160;</text><text fill="#000000" font-family="sans-serif" font-size="13" lengthAdjust="spacing" textLength="61.2358" x="1638.0718" y="1192.2539">Customer</text><text fill="#000000" font-family="sans-serif" font-size="13" lengthAdjust="spacing" textLength="4.1133" x="1699.3076" y="1192.2539">&#160;</text><text fill="#000000" font-family="sans-serif" font-size="13" lengthAdjust="spacing" textLength="20.7949" x="1703.4209" y="1192.2539">(...)</text><text fill="#000000" font-family="sans-serif" font-size="13" lengthAdjust="spacing" textLength="47.4551" x="1550.2266" y="1207.5645">VALUES</text><text fill="#000000" font-family="sans-serif" font-size="13" lengthAdjust="spacing" textLength="4.1133" x="1597.6816" y="1207.5645">&#160;</text><text fill="#000000" font-family="sans-serif" font-size="13" lengthAdjust="spacing" textLength="20.7949" x="1601.7949" y="1207.5645">(...)</text><path d="M1548,1230.3066 L1548,1260.3066 A5,5 0 0 0 1553,1265.3066 L1869,1265.3066 A5,5 0 0 0 1874,1260.3066 L1874,1235.3066 L1864,1225.3066 L1553,1225.3066 A5,5 0 0 0 1548,1230.3066 " fill="#FEFFDD" style="stroke:#181818;stroke-width:0.5;"/><path d="M1864,1225.3066 L1864,1232.8066 A2.5,2.5 0 0 0 1866.5,1235.3066 L1874,1235.3066 L1864,1225.3066 " fill="#FEFFDD" style="stroke:#181818;stroke-width:0.5;"/><text fill="#000000" font-family="sans-serif" font-size="13" lengthAdjust="spacing" textLength="305.5952" x="1554" y="1242.875">CascadeType.ALL on Customer-&gt;Representative</text><text fill="#000000" font-family="sans-serif" font-size="13" lengthAdjust="spacing" textLength="244.1563" x="1558.1133" y="1258.1855">triggers saving the Representative too.</text><polygon fill="#181818" points="1554.2266,1288.2383,1544.2266,1292.2383,1554.2266,1296.2383,1550.2266,1292.2383" style="stroke:#181818;stroke-width:1.0;"/><line style="stroke:#181818;stroke-width:2.0;stroke-dasharray:2.0,2.0;" x1="1548.2266" x2="2203.6069" y1="1292.2383" y2="1292.2383"/><text fill="#000000" font-family="sans-serif" font-size="13" lengthAdjust="spacing" textLength="57.3384" x="1560.2266" y="1287.4961">(Success)</text><polygon fill="#181818" points="804.4927,1317.5488,794.4927,1321.5488,804.4927,1325.5488,800.4927,1321.5488" style="stroke:#181818;stroke-width:1.0;"/><line style="stroke:#181818;stroke-width:2.0;stroke-dasharray:2.0,2.0;" x1="798.4927" x2="1537.2266" y1="1321.5488" y2="1321.5488"/><text fill="#000000" font-family="sans-serif" font-size="13" lengthAdjust="spacing" textLength="97.1953" x="810.4927" y="1316.8066">savedCustomer</text><polygon fill="#181818" points="564.1284,1346.8594,554.1284,1350.8594,564.1284,1354.8594,560.1284,1350.8594" style="stroke:#181818;stroke-width:1.0;"/><line style="stroke:#181818;stroke-width:2.0;stroke-dasharray:2.0,2.0;" x1="558.1284" x2="787.4927" y1="1350.8594" y2="1350.8594"/><text fill="#000000" font-family="sans-serif" font-size="13" lengthAdjust="spacing" textLength="97.1953" x="570.1284" y="1346.1172">savedCustomer</text><polygon fill="#181818" points="289.6709,1376.1699,279.6709,1380.1699,289.6709,1384.1699,285.6709,1380.1699" style="stroke:#181818;stroke-width:1.0;"/><line style="stroke:#181818;stroke-width:2.0;stroke-dasharray:2.0,2.0;" x1="283.6709" x2="547.1284" y1="1380.1699" y2="1380.1699"/><text fill="#000000" font-family="sans-serif" font-size="13" lengthAdjust="spacing" textLength="97.1953" x="295.6709" y="1375.4277">savedCustomer</text><polygon fill="#181818" points="78.7871,1436.1016,68.7871,1440.1016,78.7871,1444.1016,74.7871,1440.1016" style="stroke:#181818;stroke-width:1.0;"/><line style="stroke:#181818;stroke-width:2.0;stroke-dasharray:2.0,2.0;" x1="72.7871" x2="272.6709" y1="1440.1016" y2="1440.1016"/><text fill="#000000" font-family="sans-serif" font-size="13" lengthAdjust="spacing" textLength="52.6602" x="84.7871" y="1404.7383">Displays</text><text fill="#000000" font-family="sans-serif" font-size="13" lengthAdjust="spacing" textLength="4.1133" x="137.4473" y="1404.7383">&#160;</text><text fill="#000000" font-family="sans-serif" font-size="13" lengthAdjust="spacing" textLength="55.1611" x="141.5605" y="1404.7383">message</text><text fill="#000000" font-family="sans-serif" font-size="13" lengthAdjust="spacing" textLength="66.0918" x="84.7871" y="1420.0488">"Customer</text><text fill="#000000" font-family="sans-serif" font-size="13" lengthAdjust="spacing" textLength="4.1133" x="150.8789" y="1420.0488">&#160;</text><text fill="#000000" font-family="sans-serif" font-size="13" lengthAdjust="spacing" textLength="63.9019" x="154.9922" y="1420.0488">registered</text><text fill="#000000" font-family="sans-serif" font-size="13" lengthAdjust="spacing" textLength="80.52" x="84.7871" y="1435.3594">successfully"</text><!--SRC=[rLTDRo8v4BtthoXneP40PN9QeH5I1p9QLao8-DZJI2lJNMcy0PkrJJBarq_P_ULkcan6kvSz0RRhLTMhLsNJXStgzlPc14jCkJQeO7BIHXxeomh_EQ684QQSfOeT89oYvgde1O7XPezNBOE0nKOgw4oMNs4YztksbOhHIWUOXiZk1KUc38_vaGa3dL41KI1iPkxePWQVFpygr2WCCroAyVWdXXCfZ2AFcFcgVX9GT3pkUToEKzYlKBtm69rn_lrzo-XaTczP5EgSvUUlaF4NeWvVfNg6Bonc2LxujWPIyJU7xmTWDweWAfnyhGdqY4fRCgXaDc_yRXpAvV97WYe8MU9HQauLovApotQ986RYIJ7AyHIRaqAe3ZQn1BxIPbd55_J1lMNdW9Rk1SdBCZUL1yO5PBzRK0kO4gyCiGaHfQd2b1aAKqf3K0apRCiqGcUQVtEsqxiWqCzSa2VIkyuR859AlgvtF7uMg3NSUaUKF8aabagGmZxTU1i7zlr0XrbABVE6yEctcnRWHoyXma6rvmA3m7K83CPM_oDO6Jgb8IxQKcNIScgnZSPVR5wRMH3GSJBoD3-2M27jXhtgOBKTTFspAPgwufX8W0jjA3XEXXeQFGByOBk29i4vy706HToPROn1WctEoVjWCB3PfKJF22OkKgXB0a8gtW4FfAgUFUvI90SPGtRq496Q0bTrCrlU1esFIhxmXDAmUn0AqdyVaDInxyDn9mNzSW8cLdjjJAh6fAa7UWsldVWQN-CQwoD0eQcVx1g1swc3oKQZ-ftfI9mNJs4q_Jfxw0FDrhycY_aykbiie_LYwNdoy08VUr3BoQ-BRr6NHIOW3HHDipPo-pV61hOd0zF5_GeU5clGZ3QuWJEQ82uhchLZ8-kgqqkPNYMnJLyNO-KZGhjjk-X2A_LZDYPXAytkVQsLdPWfYIK91Q7xy6UqxeENGkyz1Nv4OXKqvTI_JBZao4Rqu1pRR_UPSo691yNJdG7vb4V0j2R_tGkaRb7Ca0QBq9pMUz-4fQNUM5qoTZwx_tTT9xXt5m8fMpfnwnnipyw4KK-aIg9PedpdtrMg3BSCjSpiLqbiijS7H-i7IIpMhp7eXTNogh3iv6y0Zjg_SouF1otsrr3fPeBBvqXrlxH1rOeMvuyMFw-Ma4WWXOq_zSenmOf7H9-U2bh6T2joaRPCncBoLIyHdpdlVL8Ell-mqQkqepp8Ant_oitERHG9Tdq6x22_bdyp6_SW73cJqCFpxxwY0kJ1As7unsFKAoQlzZpHu8cPjWzJNMoxVoBKgmsgI_yKo_IEefWzhEwNQ_fOBw3zhePmE1psQ5pFDtHhPJ- -YLR3bgCDkhty9rd4w_CHXz5y3bAKE8DnFGHoPmWYfTGiRUqoecpbiEAGtgQKuA3EURWwnJ4ff-ThsxvYArvghM1hb9J_q_mBiwnG-rHzpxQS3stNz7MFthtHk6gdN1zf3cl8dz3qJxB- -aM52UWizQVJVd_k-CZq5lu1]--></g></svg>