<svg xmlns="http://www.w3.org/2000/svg" xmlns:xlink="http://www.w3.org/1999/xlink" contentStyleType="text/css" data-diagram-type="SEQUENCE" height="640px" preserveAspectRatio="none" style="width:524px;height:640px;background:#FFFFFF;" version="1.1" viewBox="0 0 524 640" width="524px" zoomAndPan="magnify"><title>US 2.2.8: Create and Submit Vessel Visit Notification (SSD)</title><defs/><g><text fill="#000000" font-family="sans-serif" font-size="14" font-weight="bold" lengthAdjust="spacing" textLength="417.7783" x="55.0178" y="28.5352">US 2.2.8: Create and Submit Vessel Visit Notification (SSD)</text><g><title>Shipping Agent</title><rect fill="#FFFFFF" height="135.8633" style="stroke:#FFFFFF;stroke-width:1;" width="10" x="69.9531" y="145.4648"/><line style="stroke:#181818;stroke-width:1;" x1="69.9531" x2="69.9531" y1="145.4648" y2="281.3281"/><line style="stroke:#181818;stroke-width:1;" x1="79.9531" x2="79.9531" y1="145.4648" y2="281.3281"/><line style="stroke:#181818;stroke-width:1;" x1="69.9531" x2="79.9531" y1="145.4648" y2="145.4648"/></g><g><title>Shipping Agent</title><rect fill="#FFFFFF" height="210.4844" style="stroke:#FFFFFF;stroke-width:1;" width="10" x="69.9531" y="322.2832"/><line style="stroke:#181818;stroke-width:1;" x1="69.9531" x2="69.9531" y1="322.2832" y2="532.7676"/><line style="stroke:#181818;stroke-width:1;" x1="79.9531" x2="79.9531" y1="322.2832" y2="532.7676"/><line style="stroke:#181818;stroke-width:1;" x1="69.9531" x2="79.9531" y1="532.7676" y2="532.7676"/></g><g><title>.System</title><rect fill="#FFFFFF" height="59.9316" style="stroke:#181818;stroke-width:1;" width="10" x="470.5503" y="206.3965"/></g><g><title>.System</title><rect fill="#FFFFFF" height="29.3105" style="stroke:#181818;stroke-width:1;" width="10" x="470.5503" y="367.9043"/></g><g><title>.System</title><rect fill="#FFFFFF" height="44.6211" style="stroke:#181818;stroke-width:1;" width="10" x="470.5503" y="473.1465"/></g><rect fill="none" height="121.8633" style="stroke:#000000;stroke-width:1.5;" width="508.814" x="10" y="152.4648"/><rect fill="none" height="75.9316" style="stroke:#000000;stroke-width:1.5;" width="508.814" x="10" y="329.2832"/><rect fill="none" height="106.5527" style="stroke:#000000;stroke-width:1.5;" width="508.814" x="10" y="419.2148"/><g><title>Shipping Agent</title><rect fill="#000000" fill-opacity="0.00000" height="145.8633" width="8" x="70.9531" y="135.4648"/><line style="stroke:#181818;stroke-width:0.5;stroke-dasharray:5,5;" x1="74" x2="74" y1="135.4648" y2="281.3281"/></g><line style="stroke:#181818;stroke-width:0.5;stroke-dasharray:1,4;" x1="74" x2="74" y1="281.3281" y2="322.2832"/><g><title>Shipping Agent</title><rect fill="#000000" fill-opacity="0.00000" height="220.4844" width="8" x="70.9531" y="322.2832"/><line style="stroke:#181818;stroke-width:0.5;stroke-dasharray:5,5;" x1="74" x2="74" y1="322.2832" y2="542.7676"/></g><g><title>.System</title><rect fill="#000000" fill-opacity="0.00000" height="145.8633" width="8" x="471.5503" y="135.4648"/><line style="stroke:#181818;stroke-width:0.5;stroke-dasharray:5,5;" x1="475.2866" x2="475.2866" y1="135.4648" y2="281.3281"/></g><line style="stroke:#181818;stroke-width:0.5;stroke-dasharray:1,4;" x1="475.2866" x2="475.2866" y1="281.3281" y2="322.2832"/><g><title>.System</title><rect fill="#000000" fill-opacity="0.00000" height="220.4844" width="8" x="471.5503" y="322.2832"/><line style="stroke:#181818;stroke-width:0.5;stroke-dasharray:5,5;" x1="475.2866" x2="475.2866" y1="322.2832" y2="542.7676"/></g><g class="participant participant-head" data-participant="Rep"><text fill="#000000" font-family="sans-serif" font-size="14" lengthAdjust="spacing" textLength="103.9063" x="20" y="116.0234">Shipping Agent</text><text fill="#000000" font-family="sans-serif" font-size="14" lengthAdjust="spacing" textLength="99.9141" x="21.9961" y="132.5117">Representative</text><ellipse cx="74.9531" cy="50.9883" fill="#E3E3E3" rx="8" ry="8" style="stroke:#181818;stroke-width:0.5;"/><path d="M74.9531,58.9883 L74.9531,85.9883 M61.9531,66.9883 L87.9531,66.9883 M74.9531,85.9883 L61.9531,100.9883 M74.9531,85.9883 L87.9531,100.9883" fill="none" style="stroke:#181818;stroke-width:0.5;"/></g><g class="participant participant-tail" data-participant="Rep"><text fill="#000000" font-family="sans-serif" font-size="14" lengthAdjust="spacing" textLength="103.9063" x="20" y="555.3027">Shipping Agent</text><text fill="#000000" font-family="sans-serif" font-size="14" lengthAdjust="spacing" textLength="99.9141" x="21.9961" y="571.791">Representative</text><ellipse cx="74.9531" cy="583.2441" fill="#E3E3E3" rx="8" ry="8" style="stroke:#181818;stroke-width:0.5;"/><path d="M74.9531,591.2441 L74.9531,618.2441 M61.9531,599.2441 L87.9531,599.2441 M74.9531,618.2441 L61.9531,633.2441 M74.9531,618.2441 L87.9531,633.2441" fill="none" style="stroke:#181818;stroke-width:0.5;"/></g><g class="participant participant-head" data-participant="System"><rect fill="#E3E3E3" height="30.4883" rx="2.5" ry="2.5" style="stroke:#181818;stroke-width:0.5;" width="66.5273" x="442.2866" y="103.9766"/><text fill="#000000" font-family="sans-serif" font-size="14" lengthAdjust="spacing" textLength="52.5273" x="449.2866" y="124.5117">:System</text></g><g class="participant participant-tail" data-participant="System"><rect fill="#E3E3E3" height="30.4883" rx="2.5" ry="2.5" style="stroke:#181818;stroke-width:0.5;" width="66.5273" x="442.2866" y="541.7676"/><text fill="#000000" font-family="sans-serif" font-size="14" lengthAdjust="spacing" textLength="52.5273" x="449.2866" y="562.3027">:System</text></g><g><title>Shipping Agent</title><rect fill="#FFFFFF" height="135.8633" style="stroke:#FFFFFF;stroke-width:1;" width="10" x="69.9531" y="145.4648"/><line style="stroke:#181818;stroke-width:1;" x1="69.9531" x2="69.9531" y1="145.4648" y2="281.3281"/><line style="stroke:#181818;stroke-width:1;" x1="79.9531" x2="79.9531" y1="145.4648" y2="281.3281"/><line style="stroke:#181818;stroke-width:1;" x1="69.9531" x2="79.9531" y1="145.4648" y2="145.4648"/></g><g><title>Shipping Agent</title><rect fill="#FFFFFF" height="210.4844" style="stroke:#FFFFFF;stroke-width:1;" width="10" x="69.9531" y="322.2832"/><line style="stroke:#181818;stroke-width:1;" x1="69.9531" x2="69.9531" y1="322.2832" y2="532.7676"/><line style="stroke:#181818;stroke-width:1;" x1="79.9531" x2="79.9531" y1="322.2832" y2="532.7676"/><line style="stroke:#181818;stroke-width:1;" x1="69.9531" x2="79.9531" y1="532.7676" y2="532.7676"/></g><g><title>.System</title><rect fill="#FFFFFF" height="59.9316" style="stroke:#181818;stroke-width:1;" width="10" x="470.5503" y="206.3965"/></g><g><title>.System</title><rect fill="#FFFFFF" height="29.3105" style="stroke:#181818;stroke-width:1;" width="10" x="470.5503" y="367.9043"/></g><g><title>.System</title><rect fill="#FFFFFF" height="44.6211" style="stroke:#181818;stroke-width:1;" width="10" x="470.5503" y="473.1465"/></g><path d="M10,152.4648 L301.9683,152.4648 L301.9683,159.7754 L291.9683,169.7754 L10,169.7754 L10,152.4648" fill="#EEEEEE" style="stroke:#000000;stroke-width:1.5;"/><rect fill="none" height="121.8633" style="stroke:#000000;stroke-width:1.5;" width="508.814" x="10" y="152.4648"/><text fill="#000000" font-family="sans-serif" font-size="13" font-weight="bold" lengthAdjust="spacing" textLength="246.9683" x="25" y="166.0332">Create Notification (as "In Progress")</text><g class="message" data-participant-1="Rep" data-participant-2="System"><polygon fill="#181818" points="458.5503,202.3965,468.5503,206.3965,458.5503,210.3965,462.5503,206.3965" style="stroke:#181818;stroke-width:1;"/><line style="stroke:#181818;stroke-width:1;" x1="79.9531" x2="464.5503" y1="206.3965" y2="206.3965"/><text fill="#000000" font-family="sans-serif" font-size="13" font-weight="bold" lengthAdjust="spacing" textLength="8.5757" x="86.9531" y="193.999">1</text><text fill="#000000" font-family="sans-serif" font-size="13" font-weight="bold" lengthAdjust="spacing" textLength="35.0708" x="99.5288" y="186.3438">POST</text><text fill="#000000" font-family="sans-serif" font-size="13" lengthAdjust="spacing" textLength="111.103" x="138.7129" y="186.3438">/api/notifications</text><text fill="#000000" font-family="sans-serif" font-size="13" lengthAdjust="spacing" textLength="133.8403" x="99.5288" y="201.6543">(Body: CreateVvnDto)</text></g><g class="message" data-participant-1="System" data-participant-2="Rep"><polygon fill="#181818" points="90.9531,262.3281,80.9531,266.3281,90.9531,270.3281,86.9531,266.3281" style="stroke:#181818;stroke-width:1;"/><line style="stroke:#181818;stroke-width:1;stroke-dasharray:2,2;" x1="84.9531" x2="474.5503" y1="266.3281" y2="266.3281"/><text fill="#000000" font-family="sans-serif" font-size="13" font-weight="bold" lengthAdjust="spacing" textLength="8.5757" x="96.9531" y="246.2754">2</text><text fill="#000000" font-family="sans-serif" font-size="13" font-weight="bold" lengthAdjust="spacing" textLength="81.9419" x="109.5288" y="230.9648">201 Created</text><text fill="#000000" font-family="sans-serif" font-size="13" lengthAdjust="spacing" textLength="271.7051" x="109.5288" y="246.2754">(Header: Location = /api/notifications/{id})</text><text fill="#000000" font-family="sans-serif" font-size="13" lengthAdjust="spacing" textLength="354.0215" x="109.5288" y="261.5859">(Body: VesselVisitNotificationDto { Status: "InProgress" })</text></g><text fill="#000000" font-family="sans-serif" font-size="11" lengthAdjust="spacing" textLength="277.6318" x="136.4358" y="305.9629">Representative reviews the "In Progress" notification</text><path d="M10,329.2832 L282.6714,329.2832 L282.6714,336.5938 L272.6714,346.5938 L10,346.5938 L10,329.2832" fill="#EEEEEE" style="stroke:#000000;stroke-width:1.5;"/><rect fill="none" height="75.9316" style="stroke:#000000;stroke-width:1.5;" width="508.814" x="10" y="329.2832"/><text fill="#000000" font-family="sans-serif" font-size="13" font-weight="bold" lengthAdjust="spacing" textLength="227.6714" x="25" y="342.8516">Submit Notification (for Approval)</text><g class="message" data-participant-1="Rep" data-participant-2="System"><polygon fill="#181818" points="458.5503,363.9043,468.5503,367.9043,458.5503,371.9043,462.5503,367.9043" style="stroke:#181818;stroke-width:1;"/><line style="stroke:#181818;stroke-width:1;" x1="79.9531" x2="464.5503" y1="367.9043" y2="367.9043"/><text fill="#000000" font-family="sans-serif" font-size="13" font-weight="bold" lengthAdjust="spacing" textLength="8.5757" x="86.9531" y="363.1621">3</text><text fill="#000000" font-family="sans-serif" font-size="13" font-weight="bold" lengthAdjust="spacing" textLength="45.9189" x="99.5288" y="363.1621">PATCH</text><text fill="#000000" font-family="sans-serif" font-size="13" lengthAdjust="spacing" textLength="188.7666" x="149.561" y="363.1621">/api/notifications/{id}/submit</text></g><g class="message" data-participant-1="System" data-participant-2="Rep"><polygon fill="#181818" points="90.9531,393.2148,80.9531,397.2148,90.9531,401.2148,86.9531,397.2148" style="stroke:#181818;stroke-width:1;"/><line style="stroke:#181818;stroke-width:1;stroke-dasharray:2,2;" x1="84.9531" x2="474.5503" y1="397.2148" y2="397.2148"/><text fill="#000000" font-family="sans-serif" font-size="13" font-weight="bold" lengthAdjust="spacing" textLength="8.5757" x="96.9531" y="392.4727">4</text><text fill="#000000" font-family="sans-serif" font-size="13" font-weight="bold" lengthAdjust="spacing" textLength="105.3838" x="109.5288" y="392.4727">204 No Content</text></g><path d="M10,419.2148 L265.5518,419.2148 L265.5518,426.5254 L255.5518,436.5254 L10,436.5254 L10,419.2148" fill="#EEEEEE" style="stroke:#000000;stroke-width:1.5;"/><rect fill="none" height="106.5527" style="stroke:#000000;stroke-width:1.5;" width="508.814" x="10" y="419.2148"/><text fill="#000000" font-family="sans-serif" font-size="13" font-weight="bold" lengthAdjust="spacing" textLength="210.5518" x="25" y="432.7832">Alternate Flow: Validation Error</text><g class="message" data-participant-1="Rep" data-participant-2="System"><polygon fill="#181818" points="458.5503,469.1465,468.5503,473.1465,458.5503,477.1465,462.5503,473.1465" style="stroke:#181818;stroke-width:1;"/><line style="stroke:#181818;stroke-width:1;" x1="79.9531" x2="464.5503" y1="473.1465" y2="473.1465"/><text fill="#000000" font-family="sans-serif" font-size="13" font-weight="bold" lengthAdjust="spacing" textLength="8.5757" x="86.9531" y="460.749">5</text><text fill="#000000" font-family="sans-serif" font-size="13" font-weight="bold" lengthAdjust="spacing" textLength="35.0708" x="99.5288" y="453.0938">POST</text><text fill="#000000" font-family="sans-serif" font-size="13" lengthAdjust="spacing" textLength="111.103" x="138.7129" y="453.0938">/api/notifications</text><text fill="#000000" font-family="sans-serif" font-size="13" lengthAdjust="spacing" textLength="241.7188" x="99.5288" y="468.4043">(Body: CreateVvnDto with invalid data)</text></g><g class="message" data-participant-1="System" data-participant-2="Rep"><polygon fill="#181818" points="90.9531,513.7676,80.9531,517.7676,90.9531,521.7676,86.9531,517.7676" style="stroke:#181818;stroke-width:1;"/><line style="stroke:#181818;stroke-width:1;stroke-dasharray:2,2;" x1="84.9531" x2="474.5503" y1="517.7676" y2="517.7676"/><text fill="#000000" font-family="sans-serif" font-size="13" font-weight="bold" lengthAdjust="spacing" textLength="8.5757" x="96.9531" y="505.3701">6</text><text fill="#000000" font-family="sans-serif" font-size="13" font-weight="bold" lengthAdjust="spacing" textLength="112.7153" x="109.5288" y="497.7148">400 Bad Request</text><text fill="#000000" font-family="sans-serif" font-size="13" lengthAdjust="spacing" textLength="288.0947" x="109.5288" y="513.0254">(Body: { message: "Invalid container code..." })</text></g><!--SRC=[hLHVJzim47_FfpZr1OWWPGoXgHAJIja4qZJGmdZYnSJNvDJ4pcodNONuxfpjj6ecO7jONnhRT-VVdpllmSySJhAJx1CSGRws3Xl8yLU7ga2u954QqS1-dbyU97P1gXL-tMYbYyhe1i6P3dTEMb4iH8cvMzS81WidL5dl1jXAIBqYLS9Sr1QJn97Zq0s82SmC2eSWb8IyUsp8mJrQYpNSa-N5T-reJeLmf5MFAn6Tqwfh7j4aed3Qm2Ylg6tz9TCIbNjGFx0rQFcJyvOu0c61jnA6vAYWLYW7eqba7mxZP-BBqTB3yT59QNJNRW0EWN3Ew5h1hT4bNsH71mdmZxFWwFD6rWcawUrDVfUcC1OjZTLE1VkWzY-qN6_uto_LfTEnoXP4ZyhlxS5TXM1ZuQMeINA01L7Nm4ftpXxoVr5tqelWEFGwlu6pZwTdK6XMWHGQ_f9e-sfUxYBSR4CuIqLk3Ijo5UIiMcVXt3FS4WnvFR4ZvkYfUe8dnnzw2Z9DcTGL2ebc0jzqBzNvA-J7JoIV3xOIHCE3txigio3mrAEP3C30SrHAufzQeP99acKP33k0MtD9k8fS1yR1BZ3Wp8tjVJCERPzpiqtRrcYsu4tBftUpgrSz3xJ7DXJ-HwVHS7hlqG0f_YRhRF2HtCPL6vqZEr3hq6ShA2gUJIx5f5ZOKUJ7jhrZxIdJXnat4EkOfkz97ZMRrWwDycTVQxrYOsEZUhnVZD7clmn9R59IOGg0oultnWQpCZiC7C8Gp7W6-2MYseO9AIei5Y2fP56MMx1l2N9wV0mNGlAQtqlhGhz7V4_GiDBy48O-ZSY6WyUTzRUstTdspyyB]--></g></svg>