<svg xmlns="http://www.w3.org/2000/svg" xmlns:xlink="http://www.w3.org/1999/xlink" contentStyleType="text/css" height="926px" preserveAspectRatio="none" style="width:1818px;height:926px;background:#FFFFFF;" version="1.1" viewBox="0 0 1818 926" width="1818px" zoomAndPan="magnify"><title>US221 - Add a Customer Representative</title><defs/><g><text fill="#000000" font-family="sans-serif" font-size="14" font-weight="bold" lengthAdjust="spacing" textLength="267.6406" x="774.4983" y="30.1074">US221 - Add a Customer Representative</text><rect fill="#FFFFFF" height="692.1113" style="stroke:#181818;stroke-width:1.0;" width="10" x="59.0171" y="133.2422"/><rect fill="#FFFFFF" height="31.291" style="stroke:#181818;stroke-width:1.0;" width="10" x="453.9712" y="156.5332"/><rect fill="#FFFFFF" height="606.2383" style="stroke:#181818;stroke-width:1.0;" width="10" x="453.9712" y="219.1152"/><rect fill="#FFFFFF" height="28" style="stroke:#181818;stroke-width:1.0;" width="10" x="458.9712" y="759.0625"/><rect fill="#FFFFFF" height="469.3652" style="stroke:#181818;stroke-width:1.0;" width="10" x="885.8262" y="250.4063"/><rect fill="#FFFFFF" height="31.291" style="stroke:#181818;stroke-width:1.0;" width="10" x="1086.4565" y="281.6973"/><rect fill="#FFFFFF" height="31.291" style="stroke:#181818;stroke-width:1.0;" width="10" x="1192.1597" y="344.2793"/><rect fill="#FFFFFF" height="31.291" style="stroke:#181818;stroke-width:1.0;" width="10" x="1192.1597" y="469.4434"/><rect fill="#FFFFFF" height="31.291" style="stroke:#181818;stroke-width:1.0;" width="10" x="1192.1597" y="594.6074"/><rect fill="#FFFFFF" height="31.291" style="stroke:#181818;stroke-width:1.0;" width="10" x="1321.2007" y="406.8613"/><rect fill="#FFFFFF" height="31.291" style="stroke:#181818;stroke-width:1.0;" width="10" x="1481.7417" y="532.0254"/><rect fill="#FFFFFF" height="31.291" style="stroke:#181818;stroke-width:1.0;" width="10" x="1689.3652" y="657.1895"/><line style="stroke:#181818;stroke-width:0.5;stroke-dasharray:5.0,5.0;" x1="64" x2="64" y1="123.2422" y2="843.3535"/><line style="stroke:#181818;stroke-width:0.5;stroke-dasharray:5.0,5.0;" x1="458.5371" x2="458.5371" y1="123.2422" y2="843.3535"/><line style="stroke:#181818;stroke-width:0.5;stroke-dasharray:5.0,5.0;" x1="890.0474" x2="890.0474" y1="123.2422" y2="843.3535"/><line style="stroke:#181818;stroke-width:0.5;stroke-dasharray:5.0,5.0;" x1="1090.605" x2="1090.605" y1="123.2422" y2="843.3535"/><line style="stroke:#181818;stroke-width:0.5;stroke-dasharray:5.0,5.0;" x1="1196.3081" x2="1196.3081" y1="123.2422" y2="843.3535"/><line style="stroke:#181818;stroke-width:0.5;stroke-dasharray:5.0,5.0;" x1="1326.0112" x2="1326.0112" y1="123.2422" y2="843.3535"/><line style="stroke:#181818;stroke-width:0.5;stroke-dasharray:5.0,5.0;" x1="1486.3901" x2="1486.3901" y1="123.2422" y2="843.3535"/><line style="stroke:#181818;stroke-width:0.5;stroke-dasharray:5.0,5.0;" x1="1694.0933" x2="1694.0933" y1="123.2422" y2="843.3535"/><text fill="#000000" font-family="sans-serif" font-size="14" lengthAdjust="spacing" textLength="112.0342" x="5" y="119.7285">CRM Collaborator</text><ellipse cx="64.0171" cy="53.1211" fill="#E3E3E3" rx="8" ry="8" style="stroke:#181818;stroke-width:0.5;"/><path d="M64.0171,61.1211 L64.0171,88.1211 M51.0171,69.1211 L77.0171,69.1211 M64.0171,88.1211 L51.0171,103.1211 M64.0171,88.1211 L77.0171,103.1211 " fill="none" style="stroke:#181818;stroke-width:0.5;"/><text fill="#000000" font-family="sans-serif" font-size="14" lengthAdjust="spacing" textLength="112.0342" x="5" y="857.4609">CRM Collaborator</text><ellipse cx="64.0171" cy="869.4746" fill="#E3E3E3" rx="8" ry="8" style="stroke:#181818;stroke-width:0.5;"/><path d="M64.0171,877.4746 L64.0171,904.4746 M51.0171,885.4746 L77.0171,885.4746 M64.0171,904.4746 L51.0171,919.4746 M64.0171,904.4746 L77.0171,919.4746 " fill="none" style="stroke:#181818;stroke-width:0.5;"/><rect fill="#E3E3E3" height="32.6211" rx="2.5" ry="2.5" style="stroke:#181818;stroke-width:0.5;" width="238.8682" x="339.5371" y="89.6211"/><text fill="#000000" font-family="sans-serif" font-size="14" lengthAdjust="spacing" textLength="224.8682" x="346.5371" y="111.7285">:RegisterCustomerRepresentativeUI</text><rect fill="#E3E3E3" height="32.6211" rx="2.5" ry="2.5" style="stroke:#181818;stroke-width:0.5;" width="238.8682" x="339.5371" y="842.3535"/><text fill="#000000" font-family="sans-serif" font-size="14" lengthAdjust="spacing" textLength="224.8682" x="346.5371" y="864.4609">:RegisterCustomerRepresentativeUI</text><rect fill="#E3E3E3" height="32.6211" rx="2.5" ry="2.5" style="stroke:#181818;stroke-width:0.5;" width="285.5576" x="748.0474" y="89.6211"/><text fill="#000000" font-family="sans-serif" font-size="14" lengthAdjust="spacing" textLength="271.5576" x="755.0474" y="111.7285">:RegisterCustomerRepresentativeController</text><rect fill="#E3E3E3" height="32.6211" rx="2.5" ry="2.5" style="stroke:#181818;stroke-width:0.5;" width="285.5576" x="748.0474" y="842.3535"/><text fill="#000000" font-family="sans-serif" font-size="14" lengthAdjust="spacing" textLength="271.5576" x="755.0474" y="864.4609">:RegisterCustomerRepresentativeController</text><rect fill="#E3E3E3" height="32.6211" rx="2.5" ry="2.5" style="stroke:#181818;stroke-width:0.5;" width="95.7031" x="1043.605" y="89.6211"/><text fill="#000000" font-family="sans-serif" font-size="14" lengthAdjust="spacing" textLength="81.7031" x="1050.605" y="111.7285">:Repositories</text><rect fill="#E3E3E3" height="32.6211" rx="2.5" ry="2.5" style="stroke:#181818;stroke-width:0.5;" width="95.7031" x="1043.605" y="842.3535"/><text fill="#000000" font-family="sans-serif" font-size="14" lengthAdjust="spacing" textLength="81.7031" x="1050.605" y="864.4609">:Repositories</text><rect fill="#E3E3E3" height="51.2422" rx="2.5" ry="2.5" style="stroke:#181818;stroke-width:0.5;" width="95.7031" x="1149.3081" y="71"/><text fill="#000000" font-family="sans-serif" font-size="14" lengthAdjust="spacing" textLength="72.3652" x="1160.9771" y="93.1074">repositories</text><text fill="#000000" font-family="sans-serif" font-size="14" lengthAdjust="spacing" textLength="81.7031" x="1156.3081" y="111.7285">:Repositories</text><rect fill="#E3E3E3" height="51.2422" rx="2.5" ry="2.5" style="stroke:#181818;stroke-width:0.5;" width="95.7031" x="1149.3081" y="842.3535"/><text fill="#000000" font-family="sans-serif" font-size="14" lengthAdjust="spacing" textLength="72.3652" x="1160.9771" y="864.4609">repositories</text><text fill="#000000" font-family="sans-serif" font-size="14" lengthAdjust="spacing" textLength="81.7031" x="1156.3081" y="883.082">:Repositories</text><rect fill="#E3E3E3" height="51.2422" rx="2.5" ry="2.5" style="stroke:#181818;stroke-width:0.5;" width="142.3789" x="1255.0112" y="71"/><text fill="#000000" font-family="sans-serif" font-size="14" lengthAdjust="spacing" textLength="128.3789" x="1262.0112" y="93.1074">customerRepository:</text><text fill="#000000" font-family="sans-serif" font-size="14" lengthAdjust="spacing" textLength="127.5996" x="1262.4009" y="111.7285">CustomerRepository</text><rect fill="#E3E3E3" height="51.2422" rx="2.5" ry="2.5" style="stroke:#181818;stroke-width:0.5;" width="142.3789" x="1255.0112" y="842.3535"/><text fill="#000000" font-family="sans-serif" font-size="14" lengthAdjust="spacing" textLength="128.3789" x="1262.0112" y="864.4609">customerRepository:</text><text fill="#000000" font-family="sans-serif" font-size="14" lengthAdjust="spacing" textLength="127.5996" x="1262.4009" y="883.082">CustomerRepository</text><rect fill="#E3E3E3" height="51.2422" rx="2.5" ry="2.5" style="stroke:#181818;stroke-width:0.5;" width="158.7031" x="1407.3901" y="71"/><text fill="#000000" font-family="sans-serif" font-size="14" lengthAdjust="spacing" textLength="144.7031" x="1414.3901" y="93.1074">systemUserRepository:</text><text fill="#000000" font-family="sans-serif" font-size="14" lengthAdjust="spacing" textLength="143.1514" x="1415.166" y="111.7285">SystemUserRepository</text><rect fill="#E3E3E3" height="51.2422" rx="2.5" ry="2.5" style="stroke:#181818;stroke-width:0.5;" width="158.7031" x="1407.3901" y="842.3535"/><text fill="#000000" font-family="sans-serif" font-size="14" lengthAdjust="spacing" textLength="144.7031" x="1414.3901" y="864.4609">systemUserRepository:</text><text fill="#000000" font-family="sans-serif" font-size="14" lengthAdjust="spacing" textLength="143.1514" x="1415.166" y="883.082">SystemUserRepository</text><rect fill="#E3E3E3" height="51.2422" rx="2.5" ry="2.5" style="stroke:#181818;stroke-width:0.5;" width="236.5439" x="1576.0933" y="71"/><text fill="#000000" font-family="sans-serif" font-size="14" lengthAdjust="spacing" textLength="222.5439" x="1583.0933" y="93.1074">customerRepresentativeRepository:</text><text fill="#000000" font-family="sans-serif" font-size="14" lengthAdjust="spacing" textLength="221.7646" x="1583.4829" y="111.7285">CustomerRepresentativeRepository</text><rect fill="#E3E3E3" height="51.2422" rx="2.5" ry="2.5" style="stroke:#181818;stroke-width:0.5;" width="236.5439" x="1576.0933" y="842.3535"/><text fill="#000000" font-family="sans-serif" font-size="14" lengthAdjust="spacing" textLength="222.5439" x="1583.0933" y="864.4609">customerRepresentativeRepository:</text><text fill="#000000" font-family="sans-serif" font-size="14" lengthAdjust="spacing" textLength="221.7646" x="1583.4829" y="883.082">CustomerRepresentativeRepository</text><rect fill="#FFFFFF" height="692.1113" style="stroke:#181818;stroke-width:1.0;" width="10" x="59.0171" y="133.2422"/><rect fill="#FFFFFF" height="31.291" style="stroke:#181818;stroke-width:1.0;" width="10" x="453.9712" y="156.5332"/><rect fill="#FFFFFF" height="606.2383" style="stroke:#181818;stroke-width:1.0;" width="10" x="453.9712" y="219.1152"/><rect fill="#FFFFFF" height="28" style="stroke:#181818;stroke-width:1.0;" width="10" x="458.9712" y="759.0625"/><rect fill="#FFFFFF" height="469.3652" style="stroke:#181818;stroke-width:1.0;" width="10" x="885.8262" y="250.4063"/><rect fill="#FFFFFF" height="31.291" style="stroke:#181818;stroke-width:1.0;" width="10" x="1086.4565" y="281.6973"/><rect fill="#FFFFFF" height="31.291" style="stroke:#181818;stroke-width:1.0;" width="10" x="1192.1597" y="344.2793"/><rect fill="#FFFFFF" height="31.291" style="stroke:#181818;stroke-width:1.0;" width="10" x="1192.1597" y="469.4434"/><rect fill="#FFFFFF" height="31.291" style="stroke:#181818;stroke-width:1.0;" width="10" x="1192.1597" y="594.6074"/><rect fill="#FFFFFF" height="31.291" style="stroke:#181818;stroke-width:1.0;" width="10" x="1321.2007" y="406.8613"/><rect fill="#FFFFFF" height="31.291" style="stroke:#181818;stroke-width:1.0;" width="10" x="1481.7417" y="532.0254"/><rect fill="#FFFFFF" height="31.291" style="stroke:#181818;stroke-width:1.0;" width="10" x="1689.3652" y="657.1895"/><polygon fill="#181818" points="441.9712,152.5332,451.9712,156.5332,441.9712,160.5332,445.9712,156.5332" style="stroke:#181818;stroke-width:1.0;"/><line style="stroke:#181818;stroke-width:1.0;" x1="69.0171" x2="447.9712" y1="156.5332" y2="156.5332"/><text fill="#000000" font-family="sans-serif" font-size="13" font-weight="bold" lengthAdjust="spacing" textLength="7.23" x="76.0171" y="151.2705">1</text><text fill="#000000" font-family="sans-serif" font-size="13" lengthAdjust="spacing" textLength="269.5088" x="87.2471" y="151.2705">asks to register a new customer representative</text><polygon fill="#181818" points="80.0171,183.8242,70.0171,187.8242,80.0171,191.8242,76.0171,187.8242" style="stroke:#181818;stroke-width:1.0;"/><line style="stroke:#181818;stroke-width:1.0;stroke-dasharray:2.0,2.0;" x1="74.0171" x2="457.9712" y1="187.8242" y2="187.8242"/><text fill="#000000" font-family="sans-serif" font-size="13" font-weight="bold" lengthAdjust="spacing" textLength="7.23" x="86.0171" y="182.5615">2</text><text fill="#000000" font-family="sans-serif" font-size="13" lengthAdjust="spacing" textLength="349.7241" x="97.2471" y="182.5615">requests input (customer VAT, name, email, phone, position)</text><polygon fill="#181818" points="441.9712,215.1152,451.9712,219.1152,441.9712,223.1152,445.9712,219.1152" style="stroke:#181818;stroke-width:1.0;"/><line style="stroke:#181818;stroke-width:1.0;" x1="69.0171" x2="447.9712" y1="219.1152" y2="219.1152"/><text fill="#000000" font-family="sans-serif" font-size="13" font-weight="bold" lengthAdjust="spacing" textLength="7.23" x="76.0171" y="213.8525">3</text><text fill="#000000" font-family="sans-serif" font-size="13" lengthAdjust="spacing" textLength="121.418" x="87.2471" y="213.8525">types requested data</text><polygon fill="#181818" points="873.8262,246.4063,883.8262,250.4063,873.8262,254.4063,877.8262,250.4063" style="stroke:#181818;stroke-width:1.0;"/><line style="stroke:#181818;stroke-width:1.0;" x1="463.9712" x2="879.8262" y1="250.4063" y2="250.4063"/><text fill="#000000" font-family="sans-serif" font-size="13" font-weight="bold" lengthAdjust="spacing" textLength="7.23" x="470.9712" y="245.1436">4</text><text fill="#000000" font-family="sans-serif" font-size="13" lengthAdjust="spacing" textLength="391.625" x="482.2012" y="245.1436">registerRepresentative(customerVAT, name, email, phone, position)</text><polygon fill="#181818" points="1074.4565,277.6973,1084.4565,281.6973,1074.4565,285.6973,1078.4565,281.6973" style="stroke:#181818;stroke-width:1.0;"/><line style="stroke:#181818;stroke-width:1.0;" x1="895.8262" x2="1080.4565" y1="281.6973" y2="281.6973"/><text fill="#000000" font-family="sans-serif" font-size="13" font-weight="bold" lengthAdjust="spacing" textLength="7.23" x="902.8262" y="276.4346">5</text><text fill="#000000" font-family="sans-serif" font-size="13" lengthAdjust="spacing" textLength="75.8735" x="914.0562" y="276.4346">getInstance()</text><polygon fill="#181818" points="906.8262,308.9883,896.8262,312.9883,906.8262,316.9883,902.8262,312.9883" style="stroke:#181818;stroke-width:1.0;"/><line style="stroke:#181818;stroke-width:1.0;stroke-dasharray:2.0,2.0;" x1="900.8262" x2="1090.4565" y1="312.9883" y2="312.9883"/><text fill="#000000" font-family="sans-serif" font-size="13" font-weight="bold" lengthAdjust="spacing" textLength="7.23" x="912.8262" y="307.7256">6</text><text fill="#000000" font-family="sans-serif" font-size="13" lengthAdjust="spacing" textLength="67.1963" x="924.0562" y="307.7256">repositories</text><polygon fill="#181818" points="1180.1597,340.2793,1190.1597,344.2793,1180.1597,348.2793,1184.1597,344.2793" style="stroke:#181818;stroke-width:1.0;"/><line style="stroke:#181818;stroke-width:1.0;" x1="895.8262" x2="1186.1597" y1="344.2793" y2="344.2793"/><text fill="#000000" font-family="sans-serif" font-size="13" font-weight="bold" lengthAdjust="spacing" textLength="7.23" x="902.8262" y="339.0166">7</text><text fill="#000000" font-family="sans-serif" font-size="13" lengthAdjust="spacing" textLength="124.2554" x="914.0562" y="339.0166">customerRepository()</text><polygon fill="#181818" points="906.8262,371.5703,896.8262,375.5703,906.8262,379.5703,902.8262,375.5703" style="stroke:#181818;stroke-width:1.0;"/><line style="stroke:#181818;stroke-width:1.0;stroke-dasharray:2.0,2.0;" x1="900.8262" x2="1196.1597" y1="375.5703" y2="375.5703"/><text fill="#000000" font-family="sans-serif" font-size="13" font-weight="bold" lengthAdjust="spacing" textLength="7.23" x="912.8262" y="370.3076">8</text><text fill="#000000" font-family="sans-serif" font-size="13" lengthAdjust="spacing" textLength="115.5972" x="924.0562" y="370.3076">customerRepository</text><polygon fill="#181818" points="1309.2007,402.8613,1319.2007,406.8613,1309.2007,410.8613,1313.2007,406.8613" style="stroke:#181818;stroke-width:1.0;"/><line style="stroke:#181818;stroke-width:1.0;" x1="895.8262" x2="1315.2007" y1="406.8613" y2="406.8613"/><text fill="#000000" font-family="sans-serif" font-size="13" font-weight="bold" lengthAdjust="spacing" textLength="7.23" x="902.8262" y="401.5986">9</text><text fill="#000000" font-family="sans-serif" font-size="13" lengthAdjust="spacing" textLength="195.0508" x="914.0562" y="401.5986">findByVATNumber(customerVAT)</text><polygon fill="#181818" points="906.8262,434.1523,896.8262,438.1523,906.8262,442.1523,902.8262,438.1523" style="stroke:#181818;stroke-width:1.0;"/><line style="stroke:#181818;stroke-width:1.0;stroke-dasharray:2.0,2.0;" x1="900.8262" x2="1325.2007" y1="438.1523" y2="438.1523"/><text fill="#000000" font-family="sans-serif" font-size="13" font-weight="bold" lengthAdjust="spacing" textLength="14.46" x="912.8262" y="432.8896">10</text><text fill="#000000" font-family="sans-serif" font-size="13" lengthAdjust="spacing" textLength="56.3481" x="931.2861" y="432.8896">Customer</text><polygon fill="#181818" points="1180.1597,465.4434,1190.1597,469.4434,1180.1597,473.4434,1184.1597,469.4434" style="stroke:#181818;stroke-width:1.0;"/><line style="stroke:#181818;stroke-width:1.0;" x1="895.8262" x2="1186.1597" y1="469.4434" y2="469.4434"/><text fill="#000000" font-family="sans-serif" font-size="13" font-weight="bold" lengthAdjust="spacing" textLength="14.46" x="902.8262" y="464.1807">11</text><text fill="#000000" font-family="sans-serif" font-size="13" lengthAdjust="spacing" textLength="139.4136" x="921.2861" y="464.1807">systemUserRepository()</text><polygon fill="#181818" points="906.8262,496.7344,896.8262,500.7344,906.8262,504.7344,902.8262,500.7344" style="stroke:#181818;stroke-width:1.0;"/><line style="stroke:#181818;stroke-width:1.0;stroke-dasharray:2.0,2.0;" x1="900.8262" x2="1196.1597" y1="500.7344" y2="500.7344"/><text fill="#000000" font-family="sans-serif" font-size="13" font-weight="bold" lengthAdjust="spacing" textLength="14.46" x="912.8262" y="495.4717">12</text><text fill="#000000" font-family="sans-serif" font-size="13" lengthAdjust="spacing" textLength="130.7554" x="931.2861" y="495.4717">systemUserRepository</text><polygon fill="#181818" points="1469.7417,528.0254,1479.7417,532.0254,1469.7417,536.0254,1473.7417,532.0254" style="stroke:#181818;stroke-width:1.0;"/><line style="stroke:#181818;stroke-width:1.0;" x1="895.8262" x2="1475.7417" y1="532.0254" y2="532.0254"/><text fill="#000000" font-family="sans-serif" font-size="13" font-weight="bold" lengthAdjust="spacing" textLength="14.46" x="902.8262" y="526.7627">13</text><text fill="#000000" font-family="sans-serif" font-size="13" lengthAdjust="spacing" textLength="106.9072" x="921.2861" y="526.7627">save(SystemUser)</text><polygon fill="#181818" points="906.8262,559.3164,896.8262,563.3164,906.8262,567.3164,902.8262,563.3164" style="stroke:#181818;stroke-width:1.0;"/><line style="stroke:#181818;stroke-width:1.0;stroke-dasharray:2.0,2.0;" x1="900.8262" x2="1485.7417" y1="563.3164" y2="563.3164"/><text fill="#000000" font-family="sans-serif" font-size="13" font-weight="bold" lengthAdjust="spacing" textLength="14.46" x="912.8262" y="558.0537">14</text><text fill="#000000" font-family="sans-serif" font-size="13" lengthAdjust="spacing" textLength="70.7891" x="931.2861" y="558.0537">SystemUser</text><polygon fill="#181818" points="1180.1597,590.6074,1190.1597,594.6074,1180.1597,598.6074,1184.1597,594.6074" style="stroke:#181818;stroke-width:1.0;"/><line style="stroke:#181818;stroke-width:1.0;" x1="895.8262" x2="1186.1597" y1="594.6074" y2="594.6074"/><text fill="#000000" font-family="sans-serif" font-size="13" font-weight="bold" lengthAdjust="spacing" textLength="14.46" x="902.8262" y="589.3447">15</text><text fill="#000000" font-family="sans-serif" font-size="13" lengthAdjust="spacing" textLength="211.6943" x="921.2861" y="589.3447">customerRepresentativeRepository()</text><polygon fill="#181818" points="906.8262,621.8984,896.8262,625.8984,906.8262,629.8984,902.8262,625.8984" style="stroke:#181818;stroke-width:1.0;"/><line style="stroke:#181818;stroke-width:1.0;stroke-dasharray:2.0,2.0;" x1="900.8262" x2="1196.1597" y1="625.8984" y2="625.8984"/><text fill="#000000" font-family="sans-serif" font-size="13" font-weight="bold" lengthAdjust="spacing" textLength="14.46" x="912.8262" y="620.6357">16</text><text fill="#000000" font-family="sans-serif" font-size="13" lengthAdjust="spacing" textLength="203.0361" x="931.2861" y="620.6357">customerRepresentativeRepository</text><polygon fill="#181818" points="1677.3652,653.1895,1687.3652,657.1895,1677.3652,661.1895,1681.3652,657.1895" style="stroke:#181818;stroke-width:1.0;"/><line style="stroke:#181818;stroke-width:1.0;" x1="895.8262" x2="1683.3652" y1="657.1895" y2="657.1895"/><text fill="#000000" font-family="sans-serif" font-size="13" font-weight="bold" lengthAdjust="spacing" textLength="14.46" x="902.8262" y="651.9268">17</text><text fill="#000000" font-family="sans-serif" font-size="13" lengthAdjust="spacing" textLength="179.9053" x="921.2861" y="651.9268">save(CustomerRepresentative)</text><polygon fill="#181818" points="906.8262,684.4805,896.8262,688.4805,906.8262,692.4805,902.8262,688.4805" style="stroke:#181818;stroke-width:1.0;"/><line style="stroke:#181818;stroke-width:1.0;stroke-dasharray:2.0,2.0;" x1="900.8262" x2="1693.3652" y1="688.4805" y2="688.4805"/><text fill="#000000" font-family="sans-serif" font-size="13" font-weight="bold" lengthAdjust="spacing" textLength="14.46" x="912.8262" y="683.2178">18</text><text fill="#000000" font-family="sans-serif" font-size="13" lengthAdjust="spacing" textLength="143.7871" x="931.2861" y="683.2178">CustomerRepresentative</text><polygon fill="#181818" points="474.9712,715.7715,464.9712,719.7715,474.9712,723.7715,470.9712,719.7715" style="stroke:#181818;stroke-width:1.0;"/><line style="stroke:#181818;stroke-width:1.0;stroke-dasharray:2.0,2.0;" x1="468.9712" x2="889.8262" y1="719.7715" y2="719.7715"/><text fill="#000000" font-family="sans-serif" font-size="13" font-weight="bold" lengthAdjust="spacing" textLength="14.46" x="480.9712" y="714.5088">19</text><text fill="#000000" font-family="sans-serif" font-size="13" lengthAdjust="spacing" textLength="205.207" x="499.4312" y="714.5088">status of operation (success/failure)</text><line style="stroke:#181818;stroke-width:1.0;" x1="468.9712" x2="510.9712" y1="751.0625" y2="751.0625"/><line style="stroke:#181818;stroke-width:1.0;" x1="510.9712" x2="510.9712" y1="751.0625" y2="764.0625"/><line style="stroke:#181818;stroke-width:1.0;" x1="469.9712" x2="510.9712" y1="764.0625" y2="764.0625"/><polygon fill="#181818" points="479.9712,760.0625,469.9712,764.0625,479.9712,768.0625,475.9712,764.0625" style="stroke:#181818;stroke-width:1.0;"/><text fill="#000000" font-family="sans-serif" font-size="13" font-weight="bold" lengthAdjust="spacing" textLength="14.46" x="475.9712" y="745.7998">20</text><text fill="#000000" font-family="sans-serif" font-size="13" lengthAdjust="spacing" textLength="130.0698" x="494.4312" y="745.7998">displayStatusMessage</text><polygon fill="#181818" points="75.0171,821.3535,65.0171,825.3535,75.0171,829.3535,71.0171,825.3535" style="stroke:#181818;stroke-width:1.0;"/><line style="stroke:#181818;stroke-width:1.0;stroke-dasharray:2.0,2.0;" x1="69.0171" x2="457.9712" y1="825.3535" y2="825.3535"/><text fill="#000000" font-family="sans-serif" font-size="13" font-weight="bold" lengthAdjust="spacing" textLength="14.46" x="81.0171" y="820.0908">21</text><text fill="#000000" font-family="sans-serif" font-size="13" lengthAdjust="spacing" textLength="145.9707" x="99.4771" y="820.0908">operation result message</text><!--SRC=[bPPFRzf04CNl_XGZJbG2LSsHGoJA2IcfAlxqbCl67imAUzVT7IVoj-zu0NkDXoOviipxpVFuxO0_QLCffqeehR7fqTaIWLoDYU- -gLHwKZbkgIaG7AQaJ5x41VweClkkJGu7LNXC4bMJDNNvYYv9I1FBzjk7XnymXsMMWO9LxOaRETXWvT2Z8KNw3O6LALa7azNc6LQsADIhTOfF9g0yy6723KcdkbA6OBBOOAuzeRloXhZzEiZswo-fLjQGuzPuQRhRF8tqbVMQNMdqeQOxQBQw7Gq__53Y8iMB6GD-FortGqNQUxkW5ozcDJeCwd7jaEKRVjfoxszeM-4uyAJwk-wYoTtpAfRSEXUBGXxqco8CBpzfOp5_v3SA2vQVF93bG9xV9iVAu7k7vFEOsOCu3goVCwQbBRZkRusUF72QQu9f1_YptCt0g19dWANInGogepNyARZJrdnBCeon0tlKLEYlSCmWKwG69eABnv2luEBy5CD9T6O-uQMVL9lO972PBsIJs-L8Q-Fv8gSuZQHIa2N0F3RUPpcUXuJgJBLvP-qukB6PS2b2PTHEo7hKD4YwBkDQ1XoqoNusFCzVOJ_54uvw2sq4MkJh6lVOZG2vdO1qrJwSWNW_xqv1gcuXYkFLhu2efuWNAP6ddXGx4L7_IO6u1BwI2NcBV2OXel8w9tcPoNcHBNpOISZIiFPEikxipVCJNfSHttIgFTW3s0hv1vKN1anzdQRe_VS3xvFQuM2RdNV8UKC5GgPzLQXc6q3FBEC_18DrThCA1oksRyfkwuAWl01kHB41NlV_0000]--></g></svg>