<svg xmlns="http://www.w3.org/2000/svg" xmlns:xlink="http://www.w3.org/1999/xlink" contentStyleType="text/css" height="440px" preserveAspectRatio="none" style="width:914px;height:440px;background:#FFFFFF;" version="1.1" viewBox="0 0 914 440" width="914px" zoomAndPan="magnify"><title>US221 - Add a Customer Representative - System Sequence Diagram (SSD)</title><defs/><g><text fill="#000000" font-family="sans-serif" font-size="14" font-weight="bold" lengthAdjust="spacing" textLength="501.8262" x="213.1213" y="30.1074">US221 - Add a Customer Representative - System Sequence Diagram (SSD)</text><rect fill="#FFFFFF" height="205.7461" style="stroke:#181818;stroke-width:1.0;" width="10" x="59.0171" y="133.2422"/><rect fill="#FFFFFF" height="31.291" style="stroke:#181818;stroke-width:1.0;" width="10" x="542.1338" y="156.5332"/><rect fill="#FFFFFF" height="119.873" style="stroke:#181818;stroke-width:1.0;" width="10" x="542.1338" y="219.1152"/><line style="stroke:#181818;stroke-width:0.5;stroke-dasharray:5.0,5.0;" x1="64" x2="64" y1="123.2422" y2="356.9883"/><line style="stroke:#181818;stroke-width:0.5;stroke-dasharray:5.0,5.0;" x1="546.8511" x2="546.8511" y1="123.2422" y2="356.9883"/><text fill="#000000" font-family="sans-serif" font-size="14" lengthAdjust="spacing" textLength="112.0342" x="5" y="119.7285">CRM Collaborator</text><ellipse cx="64.0171" cy="53.1211" fill="#E3E3E3" rx="8" ry="8" style="stroke:#181818;stroke-width:0.5;"/><path d="M64.0171,61.1211 L64.0171,88.1211 M51.0171,69.1211 L77.0171,69.1211 M64.0171,88.1211 L51.0171,103.1211 M64.0171,88.1211 L77.0171,103.1211 " fill="none" style="stroke:#181818;stroke-width:0.5;"/><text fill="#000000" font-family="sans-serif" font-size="14" lengthAdjust="spacing" textLength="112.0342" x="5" y="371.0957">CRM Collaborator</text><ellipse cx="64.0171" cy="383.1094" fill="#E3E3E3" rx="8" ry="8" style="stroke:#181818;stroke-width:0.5;"/><path d="M64.0171,391.1094 L64.0171,418.1094 M51.0171,399.1094 L77.0171,399.1094 M64.0171,418.1094 L51.0171,433.1094 M64.0171,418.1094 L77.0171,433.1094 " fill="none" style="stroke:#181818;stroke-width:0.5;"/><rect fill="#E3E3E3" height="32.6211" rx="2.5" ry="2.5" style="stroke:#181818;stroke-width:0.5;" width="64.5654" x="514.8511" y="89.6211"/><text fill="#000000" font-family="sans-serif" font-size="14" lengthAdjust="spacing" textLength="50.5654" x="521.8511" y="111.7285">:System</text><rect fill="#E3E3E3" height="32.6211" rx="2.5" ry="2.5" style="stroke:#181818;stroke-width:0.5;" width="64.5654" x="514.8511" y="355.9883"/><text fill="#000000" font-family="sans-serif" font-size="14" lengthAdjust="spacing" textLength="50.5654" x="521.8511" y="378.0957">:System</text><rect fill="#FFFFFF" height="205.7461" style="stroke:#181818;stroke-width:1.0;" width="10" x="59.0171" y="133.2422"/><rect fill="#FFFFFF" height="31.291" style="stroke:#181818;stroke-width:1.0;" width="10" x="542.1338" y="156.5332"/><rect fill="#FFFFFF" height="119.873" style="stroke:#181818;stroke-width:1.0;" width="10" x="542.1338" y="219.1152"/><polygon fill="#181818" points="530.1338,152.5332,540.1338,156.5332,530.1338,160.5332,534.1338,156.5332" style="stroke:#181818;stroke-width:1.0;"/><line style="stroke:#181818;stroke-width:1.0;" x1="69.0171" x2="536.1338" y1="156.5332" y2="156.5332"/><text fill="#000000" font-family="sans-serif" font-size="13" font-weight="bold" lengthAdjust="spacing" textLength="7.23" x="76.0171" y="151.2705">1</text><text fill="#000000" font-family="sans-serif" font-size="13" lengthAdjust="spacing" textLength="297.6987" x="87.2471" y="151.2705">Requests to register a new customer representative</text><polygon fill="#181818" points="80.0171,183.8242,70.0171,187.8242,80.0171,191.8242,76.0171,187.8242" style="stroke:#181818;stroke-width:1.0;"/><line style="stroke:#181818;stroke-width:1.0;stroke-dasharray:2.0,2.0;" x1="74.0171" x2="546.1338" y1="187.8242" y2="187.8242"/><text fill="#000000" font-family="sans-serif" font-size="13" font-weight="bold" lengthAdjust="spacing" textLength="7.23" x="86.0171" y="182.5615">2</text><text fill="#000000" font-family="sans-serif" font-size="13" lengthAdjust="spacing" textLength="437.8867" x="97.2471" y="182.5615">Requests representative data (name, email, position, phone, customer VAT)</text><polygon fill="#181818" points="530.1338,215.1152,540.1338,219.1152,530.1338,223.1152,534.1338,219.1152" style="stroke:#181818;stroke-width:1.0;"/><line style="stroke:#181818;stroke-width:1.0;" x1="69.0171" x2="536.1338" y1="219.1152" y2="219.1152"/><text fill="#000000" font-family="sans-serif" font-size="13" font-weight="bold" lengthAdjust="spacing" textLength="7.23" x="76.0171" y="213.8525">3</text><text fill="#000000" font-family="sans-serif" font-size="13" lengthAdjust="spacing" textLength="231.2134" x="87.2471" y="213.8525">Submits customer representative details</text><line style="stroke:#181818;stroke-width:1.0;" x1="552.1338" x2="594.1338" y1="250.4063" y2="250.4063"/><line style="stroke:#181818;stroke-width:1.0;" x1="594.1338" x2="594.1338" y1="250.4063" y2="263.4063"/><line style="stroke:#181818;stroke-width:1.0;" x1="553.1338" x2="594.1338" y1="263.4063" y2="263.4063"/><polygon fill="#181818" points="563.1338,259.4063,553.1338,263.4063,563.1338,267.4063,559.1338,263.4063" style="stroke:#181818;stroke-width:1.0;"/><text fill="#000000" font-family="sans-serif" font-size="13" font-weight="bold" lengthAdjust="spacing" textLength="7.23" x="559.1338" y="245.1436">4</text><text fill="#000000" font-family="sans-serif" font-size="13" lengthAdjust="spacing" textLength="336.7051" x="570.3638" y="245.1436">Creates representative as a user (Customer App role only)</text><line style="stroke:#181818;stroke-width:1.0;" x1="552.1338" x2="594.1338" y1="294.6973" y2="294.6973"/><line style="stroke:#181818;stroke-width:1.0;" x1="594.1338" x2="594.1338" y1="294.6973" y2="307.6973"/><line style="stroke:#181818;stroke-width:1.0;" x1="553.1338" x2="594.1338" y1="307.6973" y2="307.6973"/><polygon fill="#181818" points="563.1338,303.6973,553.1338,307.6973,563.1338,311.6973,559.1338,307.6973" style="stroke:#181818;stroke-width:1.0;"/><text fill="#000000" font-family="sans-serif" font-size="13" font-weight="bold" lengthAdjust="spacing" textLength="7.23" x="559.1338" y="289.4346">5</text><text fill="#000000" font-family="sans-serif" font-size="13" lengthAdjust="spacing" textLength="287.5742" x="570.3638" y="289.4346">Associates representative with specified customer</text><polygon fill="#181818" points="75.0171,334.9883,65.0171,338.9883,75.0171,342.9883,71.0171,338.9883" style="stroke:#181818;stroke-width:1.0;"/><line style="stroke:#181818;stroke-width:1.0;stroke-dasharray:2.0,2.0;" x1="69.0171" x2="546.1338" y1="338.9883" y2="338.9883"/><text fill="#000000" font-family="sans-serif" font-size="13" font-weight="bold" lengthAdjust="spacing" textLength="7.23" x="81.0171" y="333.7256">6</text><text fill="#000000" font-family="sans-serif" font-size="13" lengthAdjust="spacing" textLength="391.4473" x="92.2471" y="333.7256">Displays success message "Representative registered successfully"</text><!--SRC=[ZLCxR-Cm3DxzAmWlJO1cQCSE1mJ9sgM-tix8Z4DKhnEf1lxtnwP9ODyrXsemX4_Kzw2fEtWL0gMGFIg1wEWv3esySSnOC418CRb3IS6gIgN9IKRtXWDrTeMWa5ECWvyMo07xT3GwsACNQXfbjTBNxl7n0LQmxdj0s5HH8o_mGhcGK5HKVYSxxqOnNz3HxqhH4MmPXm_QHTTjbqs3LLEiOKV5zavJWNRpyWoRv3tkKa53Ma2P0OqPKtQSCIgqJvyAfwhFxOc9tpywCRlMWAqf0giV5tzFvjmSYWfeiZuCR72nP96Eu2xfoYpTYUygTT66ypeJhqnZfZbHcjD1ZugmY1Ze7YWW-tl8ILWvHTiTKZJyQkNN-kVofDNJbnPkvkpgBh29tmXbV6hIyhrm4zvD8Qly9vJz5OGgfhEu3iawPoZ9XYX5Fox_HxeMIOw_uZso7a0oETupzTSqtsZ_biMUoIWWrJaIWM0VUmBG_ZMyboam-dFflde_jisjla-WsU3z0G00]--></g></svg>