<svg xmlns="http://www.w3.org/2000/svg" xmlns:xlink="http://www.w3.org/1999/xlink" contentStyleType="text/css" height="655px" preserveAspectRatio="none" style="width:1895px;height:655px;background:#FFFFFF;" version="1.1" viewBox="0 0 1895 655" width="1895px" zoomAndPan="magnify"><defs/><g><rect fill="#ADD8E6" height="643.2163" style="stroke:#000000;stroke-width:1.0;" width="954.6812" x="11" y="6"/><text fill="#000000" font-family="Verdana" font-size="13" font-weight="bold" lengthAdjust="spacing" textLength="227.5571" x="374.562" y="19.0698">Backend System (Sistema AIT)</text><rect fill="#90EE90" height="643.2163" style="stroke:#000000;stroke-width:1.0;" width="664.9102" x="977.6812" y="6"/><text fill="#000000" font-family="Verdana" font-size="13" font-weight="bold" lengthAdjust="spacing" textLength="84.5889" x="1267.8418" y="19.0698">Persistence</text><rect fill="#ADD8E6" height="643.2163" style="stroke:#000000;stroke-width:1.0;" width="233.5571" x="1654.5913" y="6"/><text fill="#000000" font-family="Verdana" font-size="13" font-weight="bold" lengthAdjust="spacing" textLength="227.5571" x="1657.5913" y="19.0698">Backend System (Sistema AIT)</text><rect fill="#FFFFFF" height="506.5884" style="stroke:#000000;stroke-width:1.0;" width="10" x="75.9727" y="89.6133"/><rect fill="#FFFFFF" height="446.9897" style="stroke:#000000;stroke-width:1.0;" width="10" x="420.0605" y="119.4126"/><rect fill="#FFFFFF" height="417.1904" style="stroke:#000000;stroke-width:1.0;" width="10" x="642.8003" y="149.2119"/><rect fill="#FFFFFF" height="327.7925" style="stroke:#000000;stroke-width:1.0;" width="10" x="913.8584" y="208.8105"/><rect fill="#FFFFFF" height="29.7993" style="stroke:#000000;stroke-width:1.0;" width="10" x="1033.3022" y="447.2051"/><rect fill="#FFFFFF" height="148.9966" style="stroke:#000000;stroke-width:1.0;" width="10" x="1194.7324" y="238.6099"/><rect fill="#FFFFFF" height="29.7993" style="stroke:#000000;stroke-width:1.0;" width="10" x="1486.8926" y="268.4092"/><rect fill="#FFFFFF" height="29.7993" style="stroke:#000000;stroke-width:1.0;" width="10" x="1596.1553" y="328.0078"/><rect fill="#FFFFFF" height="89.3979" style="stroke:#000000;stroke-width:1.0;" width="10" x="1766.3699" y="417.4058"/><line style="stroke:#000000;stroke-width:1.0;" x1="80" x2="80" y1="57.814" y2="614.2017"/><line style="stroke:#000000;stroke-width:1.0;" x1="424.5869" x2="424.5869" y1="57.814" y2="614.2017"/><line style="stroke:#000000;stroke-width:1.0;" x1="647.2412" x2="647.2412" y1="57.814" y2="614.2017"/><line style="stroke:#000000;stroke-width:1.0;" x1="833.6021" x2="833.6021" y1="57.814" y2="614.2017"/><line style="stroke:#000000;stroke-width:1.0;" x1="918.0356" x2="918.0356" y1="57.814" y2="614.2017"/><line style="stroke:#000000;stroke-width:1.0;" x1="1037.6812" x2="1037.6812" y1="57.814" y2="614.2017"/><line style="stroke:#000000;stroke-width:1.0;" x1="1199.5737" x2="1199.5737" y1="57.814" y2="614.2017"/><line style="stroke:#000000;stroke-width:1.0;" x1="1491.0659" x2="1491.0659" y1="57.814" y2="614.2017"/><line style="stroke:#000000;stroke-width:1.0;" x1="1600.7192" x2="1600.7192" y1="57.814" y2="614.2017"/><line style="stroke:#000000;stroke-width:1.0;" x1="1771.0183" x2="1771.0183" y1="57.814" y2="614.2017"/><rect fill="#FFFFFF" height="31.0146" rx="2.5" ry="2.5" style="stroke:#000000;stroke-width:1.0;" width="111.9453" x="25" y="25.7993"/><text fill="#000000" font-family="Verdana" font-size="14" lengthAdjust="spacing" textLength="97.9453" x="32" y="46.8745">HTTP Request</text><rect fill="#FFFFFF" height="31.0146" rx="2.5" ry="2.5" style="stroke:#000000;stroke-width:1.0;" width="111.9453" x="25" y="613.2017"/><text fill="#000000" font-family="Verdana" font-size="14" lengthAdjust="spacing" textLength="97.9453" x="32" y="634.2769">HTTP Request</text><rect fill="#FFFFFF" height="31.0146" rx="2.5" ry="2.5" style="stroke:#000000;stroke-width:1.0;" width="54.9473" x="397.5869" y="25.7993"/><text fill="#000000" font-family="Verdana" font-size="14" lengthAdjust="spacing" textLength="40.9473" x="404.5869" y="46.8745">Route</text><rect fill="#FFFFFF" height="31.0146" rx="2.5" ry="2.5" style="stroke:#000000;stroke-width:1.0;" width="54.9473" x="397.5869" y="613.2017"/><text fill="#000000" font-family="Verdana" font-size="14" lengthAdjust="spacing" textLength="40.9473" x="404.5869" y="634.2769">Route</text><rect fill="#FFFFFF" height="31.0146" rx="2.5" ry="2.5" style="stroke:#000000;stroke-width:1.0;" width="83.1182" x="606.2412" y="25.7993"/><text fill="#000000" font-family="Verdana" font-size="14" lengthAdjust="spacing" textLength="69.1182" x="613.2412" y="46.8745">Controller</text><rect fill="#FFFFFF" height="31.0146" rx="2.5" ry="2.5" style="stroke:#000000;stroke-width:1.0;" width="83.1182" x="606.2412" y="613.2017"/><text fill="#000000" font-family="Verdana" font-size="14" lengthAdjust="spacing" textLength="69.1182" x="613.2412" y="634.2769">Controller</text><rect fill="#FFFFFF" height="31.0146" rx="2.5" ry="2.5" style="stroke:#000000;stroke-width:1.0;" width="44.4336" x="811.6021" y="25.7993"/><text fill="#000000" font-family="Verdana" font-size="14" lengthAdjust="spacing" textLength="30.4336" x="818.6021" y="46.8745">DTO</text><rect fill="#FFFFFF" height="31.0146" rx="2.5" ry="2.5" style="stroke:#000000;stroke-width:1.0;" width="44.4336" x="811.6021" y="613.2017"/><text fill="#000000" font-family="Verdana" font-size="14" lengthAdjust="spacing" textLength="30.4336" x="818.6021" y="634.2769">DTO</text><rect fill="#FFFFFF" height="31.0146" rx="2.5" ry="2.5" style="stroke:#000000;stroke-width:1.0;" width="65.6455" x="886.0356" y="25.7993"/><text fill="#000000" font-family="Verdana" font-size="14" lengthAdjust="spacing" textLength="51.6455" x="893.0356" y="46.8745">Service</text><rect fill="#FFFFFF" height="31.0146" rx="2.5" ry="2.5" style="stroke:#000000;stroke-width:1.0;" width="65.6455" x="886.0356" y="613.2017"/><text fill="#000000" font-family="Verdana" font-size="14" lengthAdjust="spacing" textLength="51.6455" x="893.0356" y="634.2769">Service</text><rect fill="#FFFFFF" height="31.0146" rx="2.5" ry="2.5" style="stroke:#000000;stroke-width:1.0;" width="93.2422" x="991.6812" y="25.7993"/><text fill="#000000" font-family="Verdana" font-size="14" lengthAdjust="spacing" textLength="79.2422" x="998.6812" y="46.8745">Data Model</text><rect fill="#FFFFFF" height="31.0146" rx="2.5" ry="2.5" style="stroke:#000000;stroke-width:1.0;" width="93.2422" x="991.6812" y="613.2017"/><text fill="#000000" font-family="Verdana" font-size="14" lengthAdjust="spacing" textLength="79.2422" x="998.6812" y="634.2769">Data Model</text><rect fill="#FFFFFF" height="31.0146" rx="2.5" ry="2.5" style="stroke:#000000;stroke-width:1.0;" width="86.3174" x="1156.5737" y="25.7993"/><text fill="#000000" font-family="Verdana" font-size="14" lengthAdjust="spacing" textLength="72.3174" x="1163.5737" y="46.8745">Aggregate</text><rect fill="#FFFFFF" height="31.0146" rx="2.5" ry="2.5" style="stroke:#000000;stroke-width:1.0;" width="86.3174" x="1156.5737" y="613.2017"/><text fill="#000000" font-family="Verdana" font-size="14" lengthAdjust="spacing" textLength="72.3174" x="1163.5737" y="634.2769">Aggregate</text><rect fill="#FFFFFF" height="31.0146" rx="2.5" ry="2.5" style="stroke:#000000;stroke-width:1.0;" width="103.6533" x="1440.0659" y="25.7993"/><text fill="#000000" font-family="Verdana" font-size="14" lengthAdjust="spacing" textLength="89.6533" x="1447.0659" y="46.8745">Value Object</text><rect fill="#FFFFFF" height="31.0146" rx="2.5" ry="2.5" style="stroke:#000000;stroke-width:1.0;" width="103.6533" x="1440.0659" y="613.2017"/><text fill="#000000" font-family="Verdana" font-size="14" lengthAdjust="spacing" textLength="89.6533" x="1447.0659" y="634.2769">Value Object</text><rect fill="#FFFFFF" height="31.0146" rx="2.5" ry="2.5" style="stroke:#000000;stroke-width:1.0;" width="54.8721" x="1573.7192" y="25.7993"/><text fill="#000000" font-family="Verdana" font-size="14" lengthAdjust="spacing" textLength="40.8721" x="1580.7192" y="46.8745">Entity</text><rect fill="#FFFFFF" height="31.0146" rx="2.5" ry="2.5" style="stroke:#000000;stroke-width:1.0;" width="54.8721" x="1573.7192" y="613.2017"/><text fill="#000000" font-family="Verdana" font-size="14" lengthAdjust="spacing" textLength="40.8721" x="1580.7192" y="634.2769">Entity</text><rect fill="#FFFFFF" height="31.0146" rx="2.5" ry="2.5" style="stroke:#000000;stroke-width:1.0;" width="88.7031" x="1727.0183" y="25.7993"/><text fill="#000000" font-family="Verdana" font-size="14" lengthAdjust="spacing" textLength="74.7031" x="1734.0183" y="46.8745">Repository</text><rect fill="#FFFFFF" height="31.0146" rx="2.5" ry="2.5" style="stroke:#000000;stroke-width:1.0;" width="88.7031" x="1727.0183" y="613.2017"/><text fill="#000000" font-family="Verdana" font-size="14" lengthAdjust="spacing" textLength="74.7031" x="1734.0183" y="634.2769">Repository</text><rect fill="#FFFFFF" height="506.5884" style="stroke:#000000;stroke-width:1.0;" width="10" x="75.9727" y="89.6133"/><rect fill="#FFFFFF" height="446.9897" style="stroke:#000000;stroke-width:1.0;" width="10" x="420.0605" y="119.4126"/><rect fill="#FFFFFF" height="417.1904" style="stroke:#000000;stroke-width:1.0;" width="10" x="642.8003" y="149.2119"/><rect fill="#FFFFFF" height="327.7925" style="stroke:#000000;stroke-width:1.0;" width="10" x="913.8584" y="208.8105"/><rect fill="#FFFFFF" height="29.7993" style="stroke:#000000;stroke-width:1.0;" width="10" x="1033.3022" y="447.2051"/><rect fill="#FFFFFF" height="148.9966" style="stroke:#000000;stroke-width:1.0;" width="10" x="1194.7324" y="238.6099"/><rect fill="#FFFFFF" height="29.7993" style="stroke:#000000;stroke-width:1.0;" width="10" x="1486.8926" y="268.4092"/><rect fill="#FFFFFF" height="29.7993" style="stroke:#000000;stroke-width:1.0;" width="10" x="1596.1553" y="328.0078"/><rect fill="#FFFFFF" height="89.3979" style="stroke:#000000;stroke-width:1.0;" width="10" x="1766.3699" y="417.4058"/><polygon fill="#000000" points="413.0605,85.6133,423.0605,89.6133,413.0605,93.6133,417.0605,89.6133" style="stroke:#000000;stroke-width:1.0;"/><line style="stroke:#000000;stroke-width:1.0;" x1="85.9727" x2="419.0605" y1="89.6133" y2="89.6133"/><text fill="#000000" font-family="Verdana" font-size="13" font-weight="bold" lengthAdjust="spacing" textLength="9.2422" x="92.9727" y="84.8838">1</text><text fill="#000000" font-family="Verdana" font-size="13" lengthAdjust="spacing" textLength="306.8457" x="106.2148" y="84.8838">1.1: POST /api/vessel OR PUT /api/vessel/{id}</text><polygon fill="#000000" points="635.8003,115.4126,645.8003,119.4126,635.8003,123.4126,639.8003,119.4126" style="stroke:#000000;stroke-width:1.0;"/><line style="stroke:#000000;stroke-width:1.0;" x1="430.0605" x2="641.8003" y1="119.4126" y2="119.4126"/><text fill="#000000" font-family="Verdana" font-size="13" font-weight="bold" lengthAdjust="spacing" textLength="9.2422" x="437.0605" y="114.6831">2</text><text fill="#000000" font-family="Verdana" font-size="13" lengthAdjust="spacing" textLength="185.4976" x="450.3027" y="114.6831">1.2: Invoke Create / Update</text><polygon fill="#000000" points="821.8188,145.2119,831.8188,149.2119,821.8188,153.2119,825.8188,149.2119" style="stroke:#000000;stroke-width:1.0;"/><line style="stroke:#000000;stroke-width:1.0;" x1="652.8003" x2="827.8188" y1="149.2119" y2="149.2119"/><text fill="#000000" font-family="Verdana" font-size="13" font-weight="bold" lengthAdjust="spacing" textLength="9.2422" x="659.8003" y="144.4824">3</text><text fill="#000000" font-family="Verdana" font-size="13" lengthAdjust="spacing" textLength="148.7764" x="673.0425" y="144.4824">1.3: Map request body</text><polygon fill="#000000" points="663.8003,175.0112,653.8003,179.0112,663.8003,183.0112,659.8003,179.0112" style="stroke:#000000;stroke-width:1.0;"/><line style="stroke:#000000;stroke-width:1.0;stroke-dasharray:2.0,2.0;" x1="657.8003" x2="832.8188" y1="179.0112" y2="179.0112"/><text fill="#000000" font-family="Verdana" font-size="13" font-weight="bold" lengthAdjust="spacing" textLength="9.2422" x="669.8003" y="174.2817">4</text><text fill="#000000" font-family="Verdana" font-size="13" lengthAdjust="spacing" textLength="115.9463" x="683.0425" y="174.2817">1.4: Mapped data</text><polygon fill="#000000" points="901.8584,204.8105,911.8584,208.8105,901.8584,212.8105,905.8584,208.8105" style="stroke:#000000;stroke-width:1.0;"/><line style="stroke:#000000;stroke-width:1.0;" x1="652.8003" x2="907.8584" y1="208.8105" y2="208.8105"/><text fill="#000000" font-family="Verdana" font-size="13" font-weight="bold" lengthAdjust="spacing" textLength="9.2422" x="659.8003" y="204.0811">5</text><text fill="#000000" font-family="Verdana" font-size="13" lengthAdjust="spacing" textLength="114.48" x="673.0425" y="204.0811">1.5: Process data</text><polygon fill="#000000" points="1182.7324,234.6099,1192.7324,238.6099,1182.7324,242.6099,1186.7324,238.6099" style="stroke:#000000;stroke-width:1.0;"/><line style="stroke:#000000;stroke-width:1.0;" x1="923.8584" x2="1188.7324" y1="238.6099" y2="238.6099"/><text fill="#000000" font-family="Verdana" font-size="13" font-weight="bold" lengthAdjust="spacing" textLength="9.2422" x="930.8584" y="233.8804">6</text><text fill="#000000" font-family="Verdana" font-size="13" lengthAdjust="spacing" textLength="213.0972" x="944.1006" y="233.8804">1.6: Create or update aggregate</text><polygon fill="#000000" points="1474.8926,264.4092,1484.8926,268.4092,1474.8926,272.4092,1478.8926,268.4092" style="stroke:#000000;stroke-width:1.0;"/><line style="stroke:#000000;stroke-width:1.0;" x1="1204.7324" x2="1480.8926" y1="268.4092" y2="268.4092"/><text fill="#000000" font-family="Verdana" font-size="13" font-weight="bold" lengthAdjust="spacing" textLength="9.2422" x="1211.7324" y="263.6797">7</text><text fill="#000000" font-family="Verdana" font-size="13" lengthAdjust="spacing" textLength="246.5049" x="1224.9746" y="263.6797">1.6.1: Create or update value objects</text><polygon fill="#000000" points="1215.7324,294.2085,1205.7324,298.2085,1215.7324,302.2085,1211.7324,298.2085" style="stroke:#000000;stroke-width:1.0;"/><line style="stroke:#000000;stroke-width:1.0;stroke-dasharray:2.0,2.0;" x1="1209.7324" x2="1490.8926" y1="298.2085" y2="298.2085"/><text fill="#000000" font-family="Verdana" font-size="13" font-weight="bold" lengthAdjust="spacing" textLength="9.2422" x="1221.7324" y="293.479">8</text><text fill="#000000" font-family="Verdana" font-size="13" lengthAdjust="spacing" textLength="244.918" x="1234.9746" y="293.479">1.6.2: Value objects created/updated</text><polygon fill="#000000" points="1584.1553,324.0078,1594.1553,328.0078,1584.1553,332.0078,1588.1553,328.0078" style="stroke:#000000;stroke-width:1.0;"/><line style="stroke:#000000;stroke-width:1.0;" x1="1204.7324" x2="1590.1553" y1="328.0078" y2="328.0078"/><text fill="#000000" font-family="Verdana" font-size="13" font-weight="bold" lengthAdjust="spacing" textLength="9.2422" x="1211.7324" y="323.2783">9</text><text fill="#000000" font-family="Verdana" font-size="13" lengthAdjust="spacing" textLength="197.4946" x="1224.9746" y="323.2783">1.6.3: Create or update entity</text><polygon fill="#000000" points="1215.7324,353.8071,1205.7324,357.8071,1215.7324,361.8071,1211.7324,357.8071" style="stroke:#000000;stroke-width:1.0;"/><line style="stroke:#000000;stroke-width:1.0;stroke-dasharray:2.0,2.0;" x1="1209.7324" x2="1600.1553" y1="357.8071" y2="357.8071"/><text fill="#000000" font-family="Verdana" font-size="13" font-weight="bold" lengthAdjust="spacing" textLength="18.4844" x="1221.7324" y="353.0776">10</text><text fill="#000000" font-family="Verdana" font-size="13" lengthAdjust="spacing" textLength="195.1904" x="1244.2168" y="353.0776">1.6.4: Entity created/updated</text><polygon fill="#000000" points="934.8584,383.6064,924.8584,387.6064,934.8584,391.6064,930.8584,387.6064" style="stroke:#000000;stroke-width:1.0;"/><line style="stroke:#000000;stroke-width:1.0;stroke-dasharray:2.0,2.0;" x1="928.8584" x2="1198.7324" y1="387.6064" y2="387.6064"/><text fill="#000000" font-family="Verdana" font-size="13" font-weight="bold" lengthAdjust="spacing" textLength="18.4844" x="940.8584" y="382.877">11</text><text fill="#000000" font-family="Verdana" font-size="13" lengthAdjust="spacing" textLength="224.3896" x="963.3428" y="382.877">1.6.5: Aggregate created/updated</text><polygon fill="#000000" points="1754.3699,413.4058,1764.3699,417.4058,1754.3699,421.4058,1758.3699,417.4058" style="stroke:#000000;stroke-width:1.0;"/><line style="stroke:#000000;stroke-width:1.0;" x1="923.8584" x2="1760.3699" y1="417.4058" y2="417.4058"/><text fill="#000000" font-family="Verdana" font-size="13" font-weight="bold" lengthAdjust="spacing" textLength="18.4844" x="930.8584" y="412.6763">12</text><text fill="#000000" font-family="Verdana" font-size="13" lengthAdjust="spacing" textLength="145.7422" x="953.3428" y="412.6763">1.7: Persist aggregate</text><polygon fill="#000000" points="1054.3022,443.2051,1044.3022,447.2051,1054.3022,451.2051,1050.3022,447.2051" style="stroke:#000000;stroke-width:1.0;"/><line style="stroke:#000000;stroke-width:1.0;" x1="1048.3022" x2="1765.3699" y1="447.2051" y2="447.2051"/><text fill="#000000" font-family="Verdana" font-size="13" font-weight="bold" lengthAdjust="spacing" textLength="18.4844" x="1060.3022" y="442.4756">13</text><text fill="#000000" font-family="Verdana" font-size="13" lengthAdjust="spacing" textLength="237.7388" x="1082.7866" y="442.4756">1.7.1: Map aggregate to data model</text><polygon fill="#000000" points="1754.3699,473.0044,1764.3699,477.0044,1754.3699,481.0044,1758.3699,477.0044" style="stroke:#000000;stroke-width:1.0;"/><line style="stroke:#000000;stroke-width:1.0;stroke-dasharray:2.0,2.0;" x1="1038.3022" x2="1760.3699" y1="477.0044" y2="477.0044"/><text fill="#000000" font-family="Verdana" font-size="13" font-weight="bold" lengthAdjust="spacing" textLength="18.4844" x="1045.3022" y="472.2749">14</text><text fill="#000000" font-family="Verdana" font-size="13" lengthAdjust="spacing" textLength="177.0615" x="1067.7866" y="472.2749">1.7.2: Data model mapped</text><polygon fill="#000000" points="934.8584,502.8037,924.8584,506.8037,934.8584,510.8037,930.8584,506.8037" style="stroke:#000000;stroke-width:1.0;"/><line style="stroke:#000000;stroke-width:1.0;stroke-dasharray:2.0,2.0;" x1="928.8584" x2="1770.3699" y1="506.8037" y2="506.8037"/><text fill="#000000" font-family="Verdana" font-size="13" font-weight="bold" lengthAdjust="spacing" textLength="18.4844" x="940.8584" y="502.0742">15</text><text fill="#000000" font-family="Verdana" font-size="13" lengthAdjust="spacing" textLength="126.5278" x="963.3428" y="502.0742">1.8: Data persisted</text><polygon fill="#000000" points="663.8003,532.603,653.8003,536.603,663.8003,540.603,659.8003,536.603" style="stroke:#000000;stroke-width:1.0;"/><line style="stroke:#000000;stroke-width:1.0;stroke-dasharray:2.0,2.0;" x1="657.8003" x2="917.8584" y1="536.603" y2="536.603"/><text fill="#000000" font-family="Verdana" font-size="13" font-weight="bold" lengthAdjust="spacing" textLength="18.4844" x="669.8003" y="531.8735">16</text><text fill="#000000" font-family="Verdana" font-size="13" lengthAdjust="spacing" textLength="127.4292" x="692.2847" y="531.8735">1.9: Response data</text><polygon fill="#000000" points="96.9727,562.4023,86.9727,566.4023,96.9727,570.4023,92.9727,566.4023" style="stroke:#000000;stroke-width:1.0;"/><line style="stroke:#000000;stroke-width:1.0;stroke-dasharray:2.0,2.0;" x1="90.9727" x2="646.8003" y1="566.4023" y2="566.4023"/><text fill="#000000" font-family="Verdana" font-size="13" font-weight="bold" lengthAdjust="spacing" textLength="18.4844" x="102.9727" y="561.6729">17</text><text fill="#000000" font-family="Verdana" font-size="13" lengthAdjust="spacing" textLength="222.3521" x="125.457" y="561.6729">1.10: HTTP 201 Created / 200 OK</text><polygon fill="#000000" points="1882.1484,592.2017,1892.1484,596.2017,1882.1484,600.2017,1886.1484,596.2017" style="stroke:#000000;stroke-width:1.0;"/><line style="stroke:#000000;stroke-width:1.0;stroke-dasharray:2.0,2.0;" x1="80.9727" x2="1888.1484" y1="596.2017" y2="596.2017"/><text fill="#000000" font-family="Verdana" font-size="13" font-weight="bold" lengthAdjust="spacing" textLength="18.4844" x="87.9727" y="591.4722">18</text><text fill="#000000" font-family="Verdana" font-size="13" lengthAdjust="spacing" textLength="140.4863" x="110.457" y="591.4722">1.11: HTTP Response</text><!--SRC=[VLNBRjim4BphAxRkfJsuVgHDKXqA977H16rWmtPofwM5mqOMLOeoQWJzzv9BYgGY8RvOj7Pc7pDSlrDFU42e2iRBX3LAbCrXXp99Tk8lZAvPzenb3fjJhV007pRSV3Eukjj-7C7xNtp_fAwB1XFGduf9nJDUiLB1w7QxNS4Q_pHOgn6m6cwLgjov7xqMZK8AewT-m8qebHH5WPAYmh4VkjWkAMQXHF_b1kMHPpQLUwOWwdQ5iZODbYR0DlT38fOKqS_358DxaMDXq-aZdOQZh_PxYNlcklIduU17fcSAozrlpEpmw0Tx7aPyBnLN9ugrZnHcfDET3SmRAr5p9QI5X6FIGf98BnX_ixf02hDFinHMoyqM9gpYaoFMDHQmNCFgeVFJv8Nd_nAMANxKRNRKjrIQCwX8nFCKxigZU4QuaMX04tYeSZCaJsFT4U4qYzQPu6SftBCAfAjv9_9J04Q6CV7ZVlRF1Aym1vsI9Jbwh35IDwLp3k6-w758aUccBT33MdkrmHhdPIVaUTesAYGqr2amRmpF4xmIu9ehieHbCyBq-8xa945XTU2C_HGJZVj56baUOnR8A4a-iIdoU5GnRwTQQqh7U3PGA5hNUYRdOeSRgaiBvjw-KP2ZYMfv9T-v4J2yVeCgw10f6cuEiLreCzWbCgHaTCqYdB5mkpiiYL7IMDbJWBQiCHSSQC44P_gT4nZ60rKP3HSU3mVoUSVYdYWkxDMeBXr9vTPaXo7gpO-dVyc-fZgmhaHPO- -QjVSblcgQ8Tv3j7wcAT2VotmwSpRAzQQOJwUm_1dpHLS-hfCsI6UvwIH4F7F4ROKnBDvV_m40]--></g></svg>