<svg xmlns="http://www.w3.org/2000/svg" xmlns:xlink="http://www.w3.org/1999/xlink" contentStyleType="text/css" height="774px" preserveAspectRatio="none" style="width:2433px;height:774px;background:#FFFFFF;" version="1.1" viewBox="0 0 2433 774" width="2433px" zoomAndPan="magnify"><defs/><g><rect fill="#ADD8E6" height="762.4136" style="stroke:#000000;stroke-width:1.0;" width="1303.2603" x="11" y="6"/><text fill="#000000" font-family="Verdana" font-size="13" font-weight="bold" lengthAdjust="spacing" textLength="227.5571" x="548.8516" y="19.0698">Backend System (Sistema AIT)</text><rect fill="#90EE90" height="762.4136" style="stroke:#000000;stroke-width:1.0;" width="1099.7842" x="1326.2603" y="6"/><text fill="#000000" font-family="Verdana" font-size="13" font-weight="bold" lengthAdjust="spacing" textLength="84.5889" x="1833.8579" y="19.0698">Persistence</text><rect fill="#FFFFFF" height="625.7856" style="stroke:#000000;stroke-width:1.0;" width="10" x="75.9727" y="89.6133"/><rect fill="#FFFFFF" height="566.187" style="stroke:#000000;stroke-width:1.0;" width="10" x="420.0605" y="119.4126"/><rect fill="#FFFFFF" height="536.3877" style="stroke:#000000;stroke-width:1.0;" width="10" x="642.8003" y="149.2119"/><rect fill="#FFFFFF" height="446.9897" style="stroke:#000000;stroke-width:1.0;" width="10" x="948.0928" y="208.8105"/><rect fill="#FFFFFF" height="387.3911" style="stroke:#000000;stroke-width:1.0;" width="10" x="1204.0415" y="238.6099"/><rect fill="#FFFFFF" height="29.7993" style="stroke:#000000;stroke-width:1.0;" width="10" x="1381.8813" y="506.8037"/><rect fill="#FFFFFF" height="148.9966" style="stroke:#000000;stroke-width:1.0;" width="10" x="1501.6611" y="268.4092"/><rect fill="#FFFFFF" height="29.7993" style="stroke:#000000;stroke-width:1.0;" width="10" x="1793.8213" y="298.2085"/><rect fill="#FFFFFF" height="29.7993" style="stroke:#000000;stroke-width:1.0;" width="10" x="1903.084" y="357.8071"/><rect fill="#FFFFFF" height="148.9966" style="stroke:#000000;stroke-width:1.0;" width="10" x="2039.106" y="447.2051"/><rect fill="#FFFFFF" height="89.3979" style="stroke:#000000;stroke-width:1.0;" width="10" x="2304.2969" y="477.0044"/><line style="stroke:#000000;stroke-width:1.0;" x1="80" x2="80" y1="57.814" y2="733.3989"/><line style="stroke:#000000;stroke-width:1.0;" x1="424.5869" x2="424.5869" y1="57.814" y2="733.3989"/><line style="stroke:#000000;stroke-width:1.0;" x1="647.2412" x2="647.2412" y1="57.814" y2="733.3989"/><line style="stroke:#000000;stroke-width:1.0;" x1="833.6021" x2="833.6021" y1="57.814" y2="733.3989"/><line style="stroke:#000000;stroke-width:1.0;" x1="953.0356" x2="953.0356" y1="57.814" y2="733.3989"/><line style="stroke:#000000;stroke-width:1.0;" x1="1208.8228" x2="1208.8228" y1="57.814" y2="733.3989"/><line style="stroke:#000000;stroke-width:1.0;" x1="1386.2603" x2="1386.2603" y1="57.814" y2="733.3989"/><line style="stroke:#000000;stroke-width:1.0;" x1="1506.5024" x2="1506.5024" y1="57.814" y2="733.3989"/><line style="stroke:#000000;stroke-width:1.0;" x1="1797.9946" x2="1797.9946" y1="57.814" y2="733.3989"/><line style="stroke:#000000;stroke-width:1.0;" x1="1907.6479" x2="1907.6479" y1="57.814" y2="733.3989"/><line style="stroke:#000000;stroke-width:1.0;" x1="2043.52" x2="2043.52" y1="57.814" y2="733.3989"/><line style="stroke:#000000;stroke-width:1.0;" x1="2308.5493" x2="2308.5493" y1="57.814" y2="733.3989"/><rect fill="#FFFFFF" height="31.0146" rx="2.5" ry="2.5" style="stroke:#000000;stroke-width:1.0;" width="111.9453" x="25" y="25.7993"/><text fill="#000000" font-family="Verdana" font-size="14" lengthAdjust="spacing" textLength="97.9453" x="32" y="46.8745">HTTP Request</text><rect fill="#FFFFFF" height="31.0146" rx="2.5" ry="2.5" style="stroke:#000000;stroke-width:1.0;" width="111.9453" x="25" y="732.3989"/><text fill="#000000" font-family="Verdana" font-size="14" lengthAdjust="spacing" textLength="97.9453" x="32" y="753.4741">HTTP Request</text><rect fill="#FFFFFF" height="31.0146" rx="2.5" ry="2.5" style="stroke:#000000;stroke-width:1.0;" width="54.9473" x="397.5869" y="25.7993"/><text fill="#000000" font-family="Verdana" font-size="14" lengthAdjust="spacing" textLength="40.9473" x="404.5869" y="46.8745">Route</text><rect fill="#FFFFFF" height="31.0146" rx="2.5" ry="2.5" style="stroke:#000000;stroke-width:1.0;" width="54.9473" x="397.5869" y="732.3989"/><text fill="#000000" font-family="Verdana" font-size="14" lengthAdjust="spacing" textLength="40.9473" x="404.5869" y="753.4741">Route</text><rect fill="#FFFFFF" height="31.0146" rx="2.5" ry="2.5" style="stroke:#000000;stroke-width:1.0;" width="83.1182" x="606.2412" y="25.7993"/><text fill="#000000" font-family="Verdana" font-size="14" lengthAdjust="spacing" textLength="69.1182" x="613.2412" y="46.8745">Controller</text><rect fill="#FFFFFF" height="31.0146" rx="2.5" ry="2.5" style="stroke:#000000;stroke-width:1.0;" width="83.1182" x="606.2412" y="732.3989"/><text fill="#000000" font-family="Verdana" font-size="14" lengthAdjust="spacing" textLength="69.1182" x="613.2412" y="753.4741">Controller</text><rect fill="#FFFFFF" height="31.0146" rx="2.5" ry="2.5" style="stroke:#000000;stroke-width:1.0;" width="44.4336" x="811.6021" y="25.7993"/><text fill="#000000" font-family="Verdana" font-size="14" lengthAdjust="spacing" textLength="30.4336" x="818.6021" y="46.8745">DTO</text><rect fill="#FFFFFF" height="31.0146" rx="2.5" ry="2.5" style="stroke:#000000;stroke-width:1.0;" width="44.4336" x="811.6021" y="732.3989"/><text fill="#000000" font-family="Verdana" font-size="14" lengthAdjust="spacing" textLength="30.4336" x="818.6021" y="753.4741">DTO</text><rect fill="#FFFFFF" height="31.0146" rx="2.5" ry="2.5" style="stroke:#000000;stroke-width:1.0;" width="134.1143" x="886.0356" y="25.7993"/><text fill="#000000" font-family="Verdana" font-size="14" lengthAdjust="spacing" textLength="120.1143" x="893.0356" y="46.8745">Service Interface</text><rect fill="#FFFFFF" height="31.0146" rx="2.5" ry="2.5" style="stroke:#000000;stroke-width:1.0;" width="134.1143" x="886.0356" y="732.3989"/><text fill="#000000" font-family="Verdana" font-size="14" lengthAdjust="spacing" textLength="120.1143" x="893.0356" y="753.4741">Service Interface</text><rect fill="#FFFFFF" height="31.0146" rx="2.5" ry="2.5" style="stroke:#000000;stroke-width:1.0;" width="182.4375" x="1117.8228" y="25.7993"/><text fill="#000000" font-family="Verdana" font-size="14" lengthAdjust="spacing" textLength="168.4375" x="1124.8228" y="46.8745">Service Implementation</text><rect fill="#FFFFFF" height="31.0146" rx="2.5" ry="2.5" style="stroke:#000000;stroke-width:1.0;" width="182.4375" x="1117.8228" y="732.3989"/><text fill="#000000" font-family="Verdana" font-size="14" lengthAdjust="spacing" textLength="168.4375" x="1124.8228" y="753.4741">Service Implementation</text><rect fill="#FFFFFF" height="31.0146" rx="2.5" ry="2.5" style="stroke:#000000;stroke-width:1.0;" width="93.2422" x="1340.2603" y="25.7993"/><text fill="#000000" font-family="Verdana" font-size="14" lengthAdjust="spacing" textLength="79.2422" x="1347.2603" y="46.8745">Data Model</text><rect fill="#FFFFFF" height="31.0146" rx="2.5" ry="2.5" style="stroke:#000000;stroke-width:1.0;" width="93.2422" x="1340.2603" y="732.3989"/><text fill="#000000" font-family="Verdana" font-size="14" lengthAdjust="spacing" textLength="79.2422" x="1347.2603" y="753.4741">Data Model</text><rect fill="#FFFFFF" height="31.0146" rx="2.5" ry="2.5" style="stroke:#000000;stroke-width:1.0;" width="86.3174" x="1463.5024" y="25.7993"/><text fill="#000000" font-family="Verdana" font-size="14" lengthAdjust="spacing" textLength="72.3174" x="1470.5024" y="46.8745">Aggregate</text><rect fill="#FFFFFF" height="31.0146" rx="2.5" ry="2.5" style="stroke:#000000;stroke-width:1.0;" width="86.3174" x="1463.5024" y="732.3989"/><text fill="#000000" font-family="Verdana" font-size="14" lengthAdjust="spacing" textLength="72.3174" x="1470.5024" y="753.4741">Aggregate</text><rect fill="#FFFFFF" height="31.0146" rx="2.5" ry="2.5" style="stroke:#000000;stroke-width:1.0;" width="103.6533" x="1746.9946" y="25.7993"/><text fill="#000000" font-family="Verdana" font-size="14" lengthAdjust="spacing" textLength="89.6533" x="1753.9946" y="46.8745">Value Object</text><rect fill="#FFFFFF" height="31.0146" rx="2.5" ry="2.5" style="stroke:#000000;stroke-width:1.0;" width="103.6533" x="1746.9946" y="732.3989"/><text fill="#000000" font-family="Verdana" font-size="14" lengthAdjust="spacing" textLength="89.6533" x="1753.9946" y="753.4741">Value Object</text><rect fill="#FFFFFF" height="31.0146" rx="2.5" ry="2.5" style="stroke:#000000;stroke-width:1.0;" width="54.8721" x="1880.6479" y="25.7993"/><text fill="#000000" font-family="Verdana" font-size="14" lengthAdjust="spacing" textLength="40.8721" x="1887.6479" y="46.8745">Entity</text><rect fill="#FFFFFF" height="31.0146" rx="2.5" ry="2.5" style="stroke:#000000;stroke-width:1.0;" width="54.8721" x="1880.6479" y="732.3989"/><text fill="#000000" font-family="Verdana" font-size="14" lengthAdjust="spacing" textLength="40.8721" x="1887.6479" y="753.4741">Entity</text><rect fill="#FFFFFF" height="31.0146" rx="2.5" ry="2.5" style="stroke:#000000;stroke-width:1.0;" width="157.1719" x="1965.52" y="25.7993"/><text fill="#000000" font-family="Verdana" font-size="14" lengthAdjust="spacing" textLength="143.1719" x="1972.52" y="46.8745">Repository Interface</text><rect fill="#FFFFFF" height="31.0146" rx="2.5" ry="2.5" style="stroke:#000000;stroke-width:1.0;" width="157.1719" x="1965.52" y="732.3989"/><text fill="#000000" font-family="Verdana" font-size="14" lengthAdjust="spacing" textLength="143.1719" x="1972.52" y="753.4741">Repository Interface</text><rect fill="#FFFFFF" height="31.0146" rx="2.5" ry="2.5" style="stroke:#000000;stroke-width:1.0;" width="205.4951" x="2206.5493" y="25.7993"/><text fill="#000000" font-family="Verdana" font-size="14" lengthAdjust="spacing" textLength="191.4951" x="2213.5493" y="46.8745">Repository Implementation</text><rect fill="#FFFFFF" height="31.0146" rx="2.5" ry="2.5" style="stroke:#000000;stroke-width:1.0;" width="205.4951" x="2206.5493" y="732.3989"/><text fill="#000000" font-family="Verdana" font-size="14" lengthAdjust="spacing" textLength="191.4951" x="2213.5493" y="753.4741">Repository Implementation</text><rect fill="#FFFFFF" height="625.7856" style="stroke:#000000;stroke-width:1.0;" width="10" x="75.9727" y="89.6133"/><rect fill="#FFFFFF" height="566.187" style="stroke:#000000;stroke-width:1.0;" width="10" x="420.0605" y="119.4126"/><rect fill="#FFFFFF" height="536.3877" style="stroke:#000000;stroke-width:1.0;" width="10" x="642.8003" y="149.2119"/><rect fill="#FFFFFF" height="446.9897" style="stroke:#000000;stroke-width:1.0;" width="10" x="948.0928" y="208.8105"/><rect fill="#FFFFFF" height="387.3911" style="stroke:#000000;stroke-width:1.0;" width="10" x="1204.0415" y="238.6099"/><rect fill="#FFFFFF" height="29.7993" style="stroke:#000000;stroke-width:1.0;" width="10" x="1381.8813" y="506.8037"/><rect fill="#FFFFFF" height="148.9966" style="stroke:#000000;stroke-width:1.0;" width="10" x="1501.6611" y="268.4092"/><rect fill="#FFFFFF" height="29.7993" style="stroke:#000000;stroke-width:1.0;" width="10" x="1793.8213" y="298.2085"/><rect fill="#FFFFFF" height="29.7993" style="stroke:#000000;stroke-width:1.0;" width="10" x="1903.084" y="357.8071"/><rect fill="#FFFFFF" height="148.9966" style="stroke:#000000;stroke-width:1.0;" width="10" x="2039.106" y="447.2051"/><rect fill="#FFFFFF" height="89.3979" style="stroke:#000000;stroke-width:1.0;" width="10" x="2304.2969" y="477.0044"/><polygon fill="#000000" points="413.0605,85.6133,423.0605,89.6133,413.0605,93.6133,417.0605,89.6133" style="stroke:#000000;stroke-width:1.0;"/><line style="stroke:#000000;stroke-width:1.0;" x1="85.9727" x2="419.0605" y1="89.6133" y2="89.6133"/><text fill="#000000" font-family="Verdana" font-size="13" font-weight="bold" lengthAdjust="spacing" textLength="9.2422" x="92.9727" y="84.8838">1</text><text fill="#000000" font-family="Verdana" font-size="13" lengthAdjust="spacing" textLength="306.8457" x="106.2148" y="84.8838">1.1: POST /api/vessel OR PUT /api/vessel/{id}</text><polygon fill="#000000" points="635.8003,115.4126,645.8003,119.4126,635.8003,123.4126,639.8003,119.4126" style="stroke:#000000;stroke-width:1.0;"/><line style="stroke:#000000;stroke-width:1.0;" x1="430.0605" x2="641.8003" y1="119.4126" y2="119.4126"/><text fill="#000000" font-family="Verdana" font-size="13" font-weight="bold" lengthAdjust="spacing" textLength="9.2422" x="437.0605" y="114.6831">2</text><text fill="#000000" font-family="Verdana" font-size="13" lengthAdjust="spacing" textLength="185.4976" x="450.3027" y="114.6831">1.2: Invoke Create / Update</text><polygon fill="#000000" points="821.8188,145.2119,831.8188,149.2119,821.8188,153.2119,825.8188,149.2119" style="stroke:#000000;stroke-width:1.0;"/><line style="stroke:#000000;stroke-width:1.0;" x1="652.8003" x2="827.8188" y1="149.2119" y2="149.2119"/><text fill="#000000" font-family="Verdana" font-size="13" font-weight="bold" lengthAdjust="spacing" textLength="9.2422" x="659.8003" y="144.4824">3</text><text fill="#000000" font-family="Verdana" font-size="13" lengthAdjust="spacing" textLength="148.7764" x="673.0425" y="144.4824">1.3: Map request body</text><polygon fill="#000000" points="663.8003,175.0112,653.8003,179.0112,663.8003,183.0112,659.8003,179.0112" style="stroke:#000000;stroke-width:1.0;"/><line style="stroke:#000000;stroke-width:1.0;stroke-dasharray:2.0,2.0;" x1="657.8003" x2="832.8188" y1="179.0112" y2="179.0112"/><text fill="#000000" font-family="Verdana" font-size="13" font-weight="bold" lengthAdjust="spacing" textLength="9.2422" x="669.8003" y="174.2817">4</text><text fill="#000000" font-family="Verdana" font-size="13" lengthAdjust="spacing" textLength="115.9463" x="683.0425" y="174.2817">1.4: Mapped data</text><polygon fill="#000000" points="936.0928,204.8105,946.0928,208.8105,936.0928,212.8105,940.0928,208.8105" style="stroke:#000000;stroke-width:1.0;"/><line style="stroke:#000000;stroke-width:1.0;" x1="652.8003" x2="942.0928" y1="208.8105" y2="208.8105"/><text fill="#000000" font-family="Verdana" font-size="13" font-weight="bold" lengthAdjust="spacing" textLength="9.2422" x="659.8003" y="204.0811">5</text><text fill="#000000" font-family="Verdana" font-size="13" lengthAdjust="spacing" textLength="160.4624" x="673.0425" y="204.0811">1.5: Call service method</text><polygon fill="#000000" points="1192.0415,234.6099,1202.0415,238.6099,1192.0415,242.6099,1196.0415,238.6099" style="stroke:#000000;stroke-width:1.0;"/><line style="stroke:#000000;stroke-width:1.0;" x1="958.0928" x2="1198.0415" y1="238.6099" y2="238.6099"/><text fill="#000000" font-family="Verdana" font-size="13" font-weight="bold" lengthAdjust="spacing" textLength="9.2422" x="965.0928" y="233.8804">6</text><text fill="#000000" font-family="Verdana" font-size="13" lengthAdjust="spacing" textLength="213.7065" x="978.335" y="233.8804">1.6: Delegate to implementation</text><polygon fill="#000000" points="1489.6611,264.4092,1499.6611,268.4092,1489.6611,272.4092,1493.6611,268.4092" style="stroke:#000000;stroke-width:1.0;"/><line style="stroke:#000000;stroke-width:1.0;" x1="1214.0415" x2="1495.6611" y1="268.4092" y2="268.4092"/><text fill="#000000" font-family="Verdana" font-size="13" font-weight="bold" lengthAdjust="spacing" textLength="9.2422" x="1221.0415" y="263.6797">7</text><text fill="#000000" font-family="Verdana" font-size="13" lengthAdjust="spacing" textLength="213.0972" x="1234.2837" y="263.6797">1.7: Create or update aggregate</text><polygon fill="#000000" points="1781.8213,294.2085,1791.8213,298.2085,1781.8213,302.2085,1785.8213,298.2085" style="stroke:#000000;stroke-width:1.0;"/><line style="stroke:#000000;stroke-width:1.0;" x1="1511.6611" x2="1787.8213" y1="298.2085" y2="298.2085"/><text fill="#000000" font-family="Verdana" font-size="13" font-weight="bold" lengthAdjust="spacing" textLength="9.2422" x="1518.6611" y="293.479">8</text><text fill="#000000" font-family="Verdana" font-size="13" lengthAdjust="spacing" textLength="246.5049" x="1531.9033" y="293.479">1.7.1: Create or update value objects</text><polygon fill="#000000" points="1522.6611,324.0078,1512.6611,328.0078,1522.6611,332.0078,1518.6611,328.0078" style="stroke:#000000;stroke-width:1.0;"/><line style="stroke:#000000;stroke-width:1.0;stroke-dasharray:2.0,2.0;" x1="1516.6611" x2="1797.8213" y1="328.0078" y2="328.0078"/><text fill="#000000" font-family="Verdana" font-size="13" font-weight="bold" lengthAdjust="spacing" textLength="9.2422" x="1528.6611" y="323.2783">9</text><text fill="#000000" font-family="Verdana" font-size="13" lengthAdjust="spacing" textLength="244.918" x="1541.9033" y="323.2783">1.7.2: Value objects created/updated</text><polygon fill="#000000" points="1891.084,353.8071,1901.084,357.8071,1891.084,361.8071,1895.084,357.8071" style="stroke:#000000;stroke-width:1.0;"/><line style="stroke:#000000;stroke-width:1.0;" x1="1511.6611" x2="1897.084" y1="357.8071" y2="357.8071"/><text fill="#000000" font-family="Verdana" font-size="13" font-weight="bold" lengthAdjust="spacing" textLength="18.4844" x="1518.6611" y="353.0776">10</text><text fill="#000000" font-family="Verdana" font-size="13" lengthAdjust="spacing" textLength="197.4946" x="1541.1455" y="353.0776">1.7.3: Create or update entity</text><polygon fill="#000000" points="1522.6611,383.6064,1512.6611,387.6064,1522.6611,391.6064,1518.6611,387.6064" style="stroke:#000000;stroke-width:1.0;"/><line style="stroke:#000000;stroke-width:1.0;stroke-dasharray:2.0,2.0;" x1="1516.6611" x2="1907.084" y1="387.6064" y2="387.6064"/><text fill="#000000" font-family="Verdana" font-size="13" font-weight="bold" lengthAdjust="spacing" textLength="18.4844" x="1528.6611" y="382.877">11</text><text fill="#000000" font-family="Verdana" font-size="13" lengthAdjust="spacing" textLength="195.1904" x="1551.1455" y="382.877">1.7.4: Entity created/updated</text><polygon fill="#000000" points="1225.0415,413.4058,1215.0415,417.4058,1225.0415,421.4058,1221.0415,417.4058" style="stroke:#000000;stroke-width:1.0;"/><line style="stroke:#000000;stroke-width:1.0;stroke-dasharray:2.0,2.0;" x1="1219.0415" x2="1505.6611" y1="417.4058" y2="417.4058"/><text fill="#000000" font-family="Verdana" font-size="13" font-weight="bold" lengthAdjust="spacing" textLength="18.4844" x="1231.0415" y="412.6763">12</text><text fill="#000000" font-family="Verdana" font-size="13" lengthAdjust="spacing" textLength="224.3896" x="1253.5259" y="412.6763">1.7.5: Aggregate created/updated</text><polygon fill="#000000" points="2027.106,443.2051,2037.106,447.2051,2027.106,451.2051,2031.106,447.2051" style="stroke:#000000;stroke-width:1.0;"/><line style="stroke:#000000;stroke-width:1.0;" x1="1214.0415" x2="2033.106" y1="447.2051" y2="447.2051"/><text fill="#000000" font-family="Verdana" font-size="13" font-weight="bold" lengthAdjust="spacing" textLength="18.4844" x="1221.0415" y="442.4756">13</text><text fill="#000000" font-family="Verdana" font-size="13" lengthAdjust="spacing" textLength="180.4956" x="1243.5259" y="442.4756">1.8: Call repository method</text><polygon fill="#000000" points="2292.2969,473.0044,2302.2969,477.0044,2292.2969,481.0044,2296.2969,477.0044" style="stroke:#000000;stroke-width:1.0;"/><line style="stroke:#000000;stroke-width:1.0;" x1="2049.106" x2="2298.2969" y1="477.0044" y2="477.0044"/><text fill="#000000" font-family="Verdana" font-size="13" font-weight="bold" lengthAdjust="spacing" textLength="18.4844" x="2056.106" y="472.2749">14</text><text fill="#000000" font-family="Verdana" font-size="13" lengthAdjust="spacing" textLength="213.7065" x="2078.5903" y="472.2749">1.9: Delegate to implementation</text><polygon fill="#000000" points="1402.8813,502.8037,1392.8813,506.8037,1402.8813,510.8037,1398.8813,506.8037" style="stroke:#000000;stroke-width:1.0;"/><line style="stroke:#000000;stroke-width:1.0;" x1="1396.8813" x2="2303.2969" y1="506.8037" y2="506.8037"/><text fill="#000000" font-family="Verdana" font-size="13" font-weight="bold" lengthAdjust="spacing" textLength="18.4844" x="1408.8813" y="502.0742">15</text><text fill="#000000" font-family="Verdana" font-size="13" lengthAdjust="spacing" textLength="237.7388" x="1431.3657" y="502.0742">1.9.1: Map aggregate to data model</text><polygon fill="#000000" points="2292.2969,532.603,2302.2969,536.603,2292.2969,540.603,2296.2969,536.603" style="stroke:#000000;stroke-width:1.0;"/><line style="stroke:#000000;stroke-width:1.0;stroke-dasharray:2.0,2.0;" x1="1386.8813" x2="2298.2969" y1="536.603" y2="536.603"/><text fill="#000000" font-family="Verdana" font-size="13" font-weight="bold" lengthAdjust="spacing" textLength="18.4844" x="1393.8813" y="531.8735">16</text><text fill="#000000" font-family="Verdana" font-size="13" lengthAdjust="spacing" textLength="177.0615" x="1416.3657" y="531.8735">1.9.2: Data model mapped</text><polygon fill="#000000" points="2060.106,562.4023,2050.106,566.4023,2060.106,570.4023,2056.106,566.4023" style="stroke:#000000;stroke-width:1.0;"/><line style="stroke:#000000;stroke-width:1.0;stroke-dasharray:2.0,2.0;" x1="2054.106" x2="2308.2969" y1="566.4023" y2="566.4023"/><text fill="#000000" font-family="Verdana" font-size="13" font-weight="bold" lengthAdjust="spacing" textLength="18.4844" x="2066.106" y="561.6729">17</text><text fill="#000000" font-family="Verdana" font-size="13" lengthAdjust="spacing" textLength="134.7925" x="2088.5903" y="561.6729">1.10: Data persisted</text><polygon fill="#000000" points="1225.0415,592.2017,1215.0415,596.2017,1225.0415,600.2017,1221.0415,596.2017" style="stroke:#000000;stroke-width:1.0;"/><line style="stroke:#000000;stroke-width:1.0;stroke-dasharray:2.0,2.0;" x1="1219.0415" x2="2043.106" y1="596.2017" y2="596.2017"/><text fill="#000000" font-family="Verdana" font-size="13" font-weight="bold" lengthAdjust="spacing" textLength="18.4844" x="1231.0415" y="591.4722">18</text><text fill="#000000" font-family="Verdana" font-size="13" lengthAdjust="spacing" textLength="134.7925" x="1253.5259" y="591.4722">1.11: Data persisted</text><polygon fill="#000000" points="969.0928,622.001,959.0928,626.001,969.0928,630.001,965.0928,626.001" style="stroke:#000000;stroke-width:1.0;"/><line style="stroke:#000000;stroke-width:1.0;stroke-dasharray:2.0,2.0;" x1="963.0928" x2="1208.0415" y1="626.001" y2="626.001"/><text fill="#000000" font-family="Verdana" font-size="13" font-weight="bold" lengthAdjust="spacing" textLength="18.4844" x="975.0928" y="621.2715">19</text><text fill="#000000" font-family="Verdana" font-size="13" lengthAdjust="spacing" textLength="135.6938" x="997.5771" y="621.2715">1.12: Response data</text><polygon fill="#000000" points="663.8003,651.8003,653.8003,655.8003,663.8003,659.8003,659.8003,655.8003" style="stroke:#000000;stroke-width:1.0;"/><line style="stroke:#000000;stroke-width:1.0;stroke-dasharray:2.0,2.0;" x1="657.8003" x2="952.0928" y1="655.8003" y2="655.8003"/><text fill="#000000" font-family="Verdana" font-size="13" font-weight="bold" lengthAdjust="spacing" textLength="18.4844" x="669.8003" y="651.0708">20</text><text fill="#000000" font-family="Verdana" font-size="13" lengthAdjust="spacing" textLength="135.6938" x="692.2847" y="651.0708">1.13: Response data</text><polygon fill="#000000" points="96.9727,681.5996,86.9727,685.5996,96.9727,689.5996,92.9727,685.5996" style="stroke:#000000;stroke-width:1.0;"/><line style="stroke:#000000;stroke-width:1.0;stroke-dasharray:2.0,2.0;" x1="90.9727" x2="646.8003" y1="685.5996" y2="685.5996"/><text fill="#000000" font-family="Verdana" font-size="13" font-weight="bold" lengthAdjust="spacing" textLength="18.4844" x="102.9727" y="680.8701">21</text><text fill="#000000" font-family="Verdana" font-size="13" lengthAdjust="spacing" textLength="222.3521" x="125.457" y="680.8701">1.14: HTTP 201 Created / 200 OK</text><polygon fill="#000000" points="2420.0444,711.3989,2430.0444,715.3989,2420.0444,719.3989,2424.0444,715.3989" style="stroke:#000000;stroke-width:1.0;"/><line style="stroke:#000000;stroke-width:1.0;stroke-dasharray:2.0,2.0;" x1="80.9727" x2="2426.0444" y1="715.3989" y2="715.3989"/><text fill="#000000" font-family="Verdana" font-size="13" font-weight="bold" lengthAdjust="spacing" textLength="18.4844" x="87.9727" y="710.6694">22</text><text fill="#000000" font-family="Verdana" font-size="13" lengthAdjust="spacing" textLength="140.4863" x="110.457" y="710.6694">1.15: HTTP Response</text><!--SRC=[ZPPDSzCm48Rl_XLBkC0X96uf1H-OQHk6Tg2JJ9BshjXBQcfRnbOoP1Z-Ez9QraVa2St5bhtxQBtxxYgln1EM27N1yYfYEy6hNRd19ees_3UChbdwZ5K6gqChi8GtgrnT6LpThT-EuFNtVFiaheiTHY1_DMj4dkOrgmICRjVh1IpnrmvRCGBMmgqGjLw7rak-4qXcT1SQtF1ADBmei24hkmnDP-ivsSm43r-kiDddAS9T9R3vmT9kK_tKF3pXLzQ5p5SbcCXvvJdBD-H7YLjWqwfSLMg7BazV6yIABCAGcM1mppCikiZbabR3rbVRRODRfXDcLiF6ZqoM1-QRdvXsTQ07tNhOuqibSd4Ws-vss6o9DMzpmPl3KJBL2p-J9tt3X1AWpwPIdyner5yZHqSm_jpf1HA8tyK9BEQhDKnOdK_ssBPOm7m9YmVlqUHFdlsDM2holSoPfyeE9PbMNGG-I-GNxlapmas3oca23tMcCcumdMeTFqcH-YFtymJkMGsDZdd3iuDrT8IixCVXxk_9lSOCv9Oioj3uAe7xMnxhc00N2Tomee1MIxX4ySGp6q8W_e3Ya6LP2FeXWHaMf3kGSUTU5KEsggQBa4IZM-9T9droUGCxoYumesp3isAtxfBbQBgZAJ44l3sr0YUprZBTXd11up189OL7bm8fRP9DkYqojpmkrukswofDF1y85BksCoJTXjflA2uf4ltsH40QuyGoKDXBfHThSW9dQt5KMMy04FIZbc1Z-_vOXVxKy14ziu_nqyl4P-Q8SLPTsS_MZgI4ehhJQ4q1LQD1IGFODfkPoPOm3W9J0faPRoYfSRsUDHWRr63AugacrVeayJ3-fzb43HGqZlyB2Zg_3sjmdiJo6vVOrhngCPX9GmtlXNSqtUBp5y1CVEwqaoptA22OR0Fwtt4sZNLNPN9OdqsdCF_cWfsfw-Q2XhXtliXD27oXmNsehfjxXFm3]--></g></svg>