<svg xmlns="http://www.w3.org/2000/svg" xmlns:xlink="http://www.w3.org/1999/xlink" contentStyleType="text/css" height="536px" preserveAspectRatio="none" style="width:835px;height:536px;background:#FFFFFF;" version="1.1" viewBox="0 0 835 536" width="835px" zoomAndPan="magnify"><title>US2.2.2: Register and Update Vessel Records - System Sequence Diagram (SSD)</title><defs/><g><text fill="#000000" font-family="sans-serif" font-size="14" font-weight="bold" lengthAdjust="spacing" textLength="571.3545" x="131.2334" y="28.5352">US2.2.2: Register and Update Vessel Records - System Sequence Diagram (SSD)</text><rect fill="#FFFFFF" height="87.9316" style="stroke:#FFFFFF;stroke-width:1.0;" width="10" x="75.6387" y="128.9766"/><line style="stroke:#181818;stroke-width:1.0;" x1="75.6387" x2="75.6387" y1="128.9766" y2="216.9082"/><line style="stroke:#181818;stroke-width:1.0;" x1="85.6387" x2="85.6387" y1="128.9766" y2="216.9082"/><line style="stroke:#181818;stroke-width:1.0;" x1="75.6387" x2="85.6387" y1="128.9766" y2="128.9766"/><rect fill="#FFFFFF" height="87.9316" style="stroke:#FFFFFF;stroke-width:1.0;" width="10" x="75.6387" y="257.8633"/><line style="stroke:#181818;stroke-width:1.0;" x1="75.6387" x2="75.6387" y1="257.8633" y2="345.7949"/><line style="stroke:#181818;stroke-width:1.0;" x1="85.6387" x2="85.6387" y1="257.8633" y2="345.7949"/><rect fill="#FFFFFF" height="50.6211" style="stroke:#FFFFFF;stroke-width:1.0;" width="10" x="75.6387" y="386.75"/><line style="stroke:#181818;stroke-width:1.0;" x1="75.6387" x2="75.6387" y1="386.75" y2="437.3711"/><line style="stroke:#181818;stroke-width:1.0;" x1="85.6387" x2="85.6387" y1="386.75" y2="437.3711"/><line style="stroke:#181818;stroke-width:1.0;" x1="75.6387" x2="85.6387" y1="437.3711" y2="437.3711"/><rect fill="#FFFFFF" height="58.6211" style="stroke:#181818;stroke-width:1.0;" width="10" x="791.5576" y="150.2871"/><rect fill="#FFFFFF" height="58.6211" style="stroke:#181818;stroke-width:1.0;" width="10" x="791.5576" y="279.1738"/><rect fill="#FFFFFF" height="29.3105" style="stroke:#181818;stroke-width:1.0;" width="10" x="791.5576" y="408.0605"/><line style="stroke:#181818;stroke-width:0.5;stroke-dasharray:5.0,5.0;" x1="80" x2="80" y1="118.9766" y2="216.9082"/><line style="stroke:#383838;stroke-width:1.0;stroke-dasharray:1.0,4.0;" x1="80" x2="80" y1="216.9082" y2="257.8633"/><line style="stroke:#181818;stroke-width:0.5;stroke-dasharray:5.0,5.0;" x1="80" x2="80" y1="257.8633" y2="345.7949"/><line style="stroke:#383838;stroke-width:1.0;stroke-dasharray:1.0,4.0;" x1="80" x2="80" y1="345.7949" y2="386.75"/><line style="stroke:#181818;stroke-width:0.5;stroke-dasharray:5.0,5.0;" x1="80" x2="80" y1="386.75" y2="455.3711"/><line style="stroke:#181818;stroke-width:0.5;stroke-dasharray:5.0,5.0;" x1="796.2939" x2="796.2939" y1="118.9766" y2="216.9082"/><line style="stroke:#383838;stroke-width:1.0;stroke-dasharray:1.0,4.0;" x1="796.2939" x2="796.2939" y1="216.9082" y2="257.8633"/><line style="stroke:#181818;stroke-width:0.5;stroke-dasharray:5.0,5.0;" x1="796.2939" x2="796.2939" y1="257.8633" y2="345.7949"/><line style="stroke:#383838;stroke-width:1.0;stroke-dasharray:1.0,4.0;" x1="796.2939" x2="796.2939" y1="345.7949" y2="386.75"/><line style="stroke:#181818;stroke-width:0.5;stroke-dasharray:5.0,5.0;" x1="796.2939" x2="796.2939" y1="386.75" y2="455.3711"/><text fill="#000000" font-family="sans-serif" font-size="14" lengthAdjust="spacing" textLength="145.2773" x="5" y="116.0234">Port Authority Officer</text><ellipse cx="80.6387" cy="50.9883" fill="#E3E3E3" rx="8" ry="8" style="stroke:#181818;stroke-width:0.5;"/><path d="M80.6387,58.9883 L80.6387,85.9883 M67.6387,66.9883 L93.6387,66.9883 M80.6387,85.9883 L67.6387,100.9883 M80.6387,85.9883 L93.6387,100.9883 " fill="none" style="stroke:#181818;stroke-width:0.5;"/><text fill="#000000" font-family="sans-serif" font-size="14" lengthAdjust="spacing" textLength="145.2773" x="5" y="467.9063">Port Authority Officer</text><ellipse cx="80.6387" cy="479.3594" fill="#E3E3E3" rx="8" ry="8" style="stroke:#181818;stroke-width:0.5;"/><path d="M80.6387,487.3594 L80.6387,514.3594 M67.6387,495.3594 L93.6387,495.3594 M80.6387,514.3594 L67.6387,529.3594 M80.6387,514.3594 L93.6387,529.3594 " fill="none" style="stroke:#181818;stroke-width:0.5;"/><rect fill="#E3E3E3" height="30.4883" rx="2.5" ry="2.5" style="stroke:#181818;stroke-width:0.5;" width="66.5273" x="763.2939" y="87.4883"/><text fill="#000000" font-family="sans-serif" font-size="14" lengthAdjust="spacing" textLength="52.5273" x="770.2939" y="108.0234">:System</text><rect fill="#E3E3E3" height="30.4883" rx="2.5" ry="2.5" style="stroke:#181818;stroke-width:0.5;" width="66.5273" x="763.2939" y="454.3711"/><text fill="#000000" font-family="sans-serif" font-size="14" lengthAdjust="spacing" textLength="52.5273" x="770.2939" y="474.9063">:System</text><rect fill="#FFFFFF" height="87.9316" style="stroke:#FFFFFF;stroke-width:1.0;" width="10" x="75.6387" y="128.9766"/><line style="stroke:#181818;stroke-width:1.0;" x1="75.6387" x2="75.6387" y1="128.9766" y2="216.9082"/><line style="stroke:#181818;stroke-width:1.0;" x1="85.6387" x2="85.6387" y1="128.9766" y2="216.9082"/><line style="stroke:#181818;stroke-width:1.0;" x1="75.6387" x2="85.6387" y1="128.9766" y2="128.9766"/><rect fill="#FFFFFF" height="87.9316" style="stroke:#FFFFFF;stroke-width:1.0;" width="10" x="75.6387" y="257.8633"/><line style="stroke:#181818;stroke-width:1.0;" x1="75.6387" x2="75.6387" y1="257.8633" y2="345.7949"/><line style="stroke:#181818;stroke-width:1.0;" x1="85.6387" x2="85.6387" y1="257.8633" y2="345.7949"/><rect fill="#FFFFFF" height="50.6211" style="stroke:#FFFFFF;stroke-width:1.0;" width="10" x="75.6387" y="386.75"/><line style="stroke:#181818;stroke-width:1.0;" x1="75.6387" x2="75.6387" y1="386.75" y2="437.3711"/><line style="stroke:#181818;stroke-width:1.0;" x1="85.6387" x2="85.6387" y1="386.75" y2="437.3711"/><line style="stroke:#181818;stroke-width:1.0;" x1="75.6387" x2="85.6387" y1="437.3711" y2="437.3711"/><rect fill="#FFFFFF" height="58.6211" style="stroke:#181818;stroke-width:1.0;" width="10" x="791.5576" y="150.2871"/><rect fill="#FFFFFF" height="58.6211" style="stroke:#181818;stroke-width:1.0;" width="10" x="791.5576" y="279.1738"/><rect fill="#FFFFFF" height="29.3105" style="stroke:#181818;stroke-width:1.0;" width="10" x="791.5576" y="408.0605"/><polygon fill="#181818" points="779.5576,146.2871,789.5576,150.2871,779.5576,154.2871,783.5576,150.2871" style="stroke:#181818;stroke-width:1.0;"/><line style="stroke:#181818;stroke-width:1.0;" x1="85.6387" x2="785.5576" y1="150.2871" y2="150.2871"/><text fill="#000000" font-family="sans-serif" font-size="13" font-weight="bold" lengthAdjust="spacing" textLength="8.5757" x="92.6387" y="145.5449">1</text><text fill="#000000" font-family="sans-serif" font-size="13" lengthAdjust="spacing" textLength="674.3433" x="105.2144" y="145.5449">attempts to register a new vessel with details (IMO number, vessel name, vessel type, owner, vessel status)</text><polygon fill="#181818" points="96.6387,175.5977,86.6387,179.5977,96.6387,183.5977,92.6387,179.5977" style="stroke:#181818;stroke-width:1.0;"/><line style="stroke:#181818;stroke-width:1.0;stroke-dasharray:2.0,2.0;" x1="90.6387" x2="790.5576" y1="179.5977" y2="179.5977"/><text fill="#000000" font-family="sans-serif" font-size="13" font-weight="bold" lengthAdjust="spacing" textLength="8.5757" x="102.6387" y="174.8555">2</text><text fill="#000000" font-family="sans-serif" font-size="13" lengthAdjust="spacing" textLength="331.938" x="115.2144" y="174.8555">validates IMO number format (7 digits + check digit)</text><polygon fill="#181818" points="96.6387,204.9082,86.6387,208.9082,96.6387,212.9082,92.6387,208.9082" style="stroke:#181818;stroke-width:1.0;"/><line style="stroke:#181818;stroke-width:1.0;stroke-dasharray:2.0,2.0;" x1="90.6387" x2="795.5576" y1="208.9082" y2="208.9082"/><text fill="#000000" font-family="sans-serif" font-size="13" font-weight="bold" lengthAdjust="spacing" textLength="8.5757" x="102.6387" y="204.166">3</text><text fill="#000000" font-family="sans-serif" font-size="13" lengthAdjust="spacing" textLength="330.0845" x="115.2144" y="204.166">confirms successful registration of the vessel record</text><text fill="#000000" font-family="sans-serif" font-size="11" lengthAdjust="spacing" textLength="280.6128" x="298.2917" y="241.543">Authority selects an existing vessel record to update</text><polygon fill="#181818" points="779.5576,275.1738,789.5576,279.1738,779.5576,283.1738,783.5576,279.1738" style="stroke:#181818;stroke-width:1.0;"/><line style="stroke:#181818;stroke-width:1.0;" x1="85.6387" x2="785.5576" y1="279.1738" y2="279.1738"/><text fill="#000000" font-family="sans-serif" font-size="13" font-weight="bold" lengthAdjust="spacing" textLength="8.5757" x="92.6387" y="274.4316">4</text><text fill="#000000" font-family="sans-serif" font-size="13" lengthAdjust="spacing" textLength="622.7432" x="105.2144" y="274.4316">requests to update vessel record details (IMO number, newName, newType, newOwner, newStatus)</text><polygon fill="#181818" points="96.6387,304.4844,86.6387,308.4844,96.6387,312.4844,92.6387,308.4844" style="stroke:#181818;stroke-width:1.0;"/><line style="stroke:#181818;stroke-width:1.0;stroke-dasharray:2.0,2.0;" x1="90.6387" x2="790.5576" y1="308.4844" y2="308.4844"/><text fill="#000000" font-family="sans-serif" font-size="13" font-weight="bold" lengthAdjust="spacing" textLength="8.5757" x="102.6387" y="303.7422">5</text><text fill="#000000" font-family="sans-serif" font-size="13" lengthAdjust="spacing" textLength="184.1772" x="115.2144" y="303.7422">validates IMO number format</text><polygon fill="#181818" points="96.6387,333.7949,86.6387,337.7949,96.6387,341.7949,92.6387,337.7949" style="stroke:#181818;stroke-width:1.0;"/><line style="stroke:#181818;stroke-width:1.0;stroke-dasharray:2.0,2.0;" x1="90.6387" x2="795.5576" y1="337.7949" y2="337.7949"/><text fill="#000000" font-family="sans-serif" font-size="13" font-weight="bold" lengthAdjust="spacing" textLength="8.5757" x="102.6387" y="333.0527">6</text><text fill="#000000" font-family="sans-serif" font-size="13" lengthAdjust="spacing" textLength="300.7139" x="115.2144" y="333.0527">confirms successful update of the vessel record</text><text fill="#000000" font-family="sans-serif" font-size="11" lengthAdjust="spacing" textLength="216.1973" x="330.4995" y="370.4297">Authority wants to search vessel records</text><polygon fill="#181818" points="779.5576,404.0605,789.5576,408.0605,779.5576,412.0605,783.5576,408.0605" style="stroke:#181818;stroke-width:1.0;"/><line style="stroke:#181818;stroke-width:1.0;" x1="85.6387" x2="785.5576" y1="408.0605" y2="408.0605"/><text fill="#000000" font-family="sans-serif" font-size="13" font-weight="bold" lengthAdjust="spacing" textLength="8.5757" x="92.6387" y="403.3184">7</text><text fill="#000000" font-family="sans-serif" font-size="13" lengthAdjust="spacing" textLength="336.3306" x="105.2144" y="403.3184">searches vessels by (IMO number, name, or operator)</text><polygon fill="#181818" points="91.6387,433.3711,81.6387,437.3711,91.6387,441.3711,87.6387,437.3711" style="stroke:#181818;stroke-width:1.0;"/><line style="stroke:#181818;stroke-width:1.0;stroke-dasharray:2.0,2.0;" x1="85.6387" x2="795.5576" y1="437.3711" y2="437.3711"/><text fill="#000000" font-family="sans-serif" font-size="13" font-weight="bold" lengthAdjust="spacing" textLength="8.5757" x="97.6387" y="432.6289">8</text><text fill="#000000" font-family="sans-serif" font-size="13" lengthAdjust="spacing" textLength="202.2427" x="110.2144" y="432.6289">returns matching vessel records</text><!--SRC=[hLEnZjim3Dtz5KIMIz1pXYu5CXGeS4k7DaNTTEV9j2t4bboHJfg_BsKvi7EzE_I0GWibKO-Fxr5tS602eQvlKGXOBgrrDQoHUUXYr7ddJHDyH_T0OhQRZ8_MzHYmMzo1X84MDpsQ8zPKA1n182FewdQPm0sM_XmBLDWoPPbOqTH3yNwhQmVVgROi501T2OU-ZEH-4ZErUcLyA1boA2wQqa51lmPoXk31OXt1rqNniCao7CIxeNkaaA4H7s3rpGU1JuCqFbYvmBwghA6m0kJvD5E2OetjqGciTgd6c9B2B8BPKoGqlxdBytpcN1Xo6Am7FStcSld7A-CTe4JDXK6ywdFj5HoTuPJQF5jfe2H1spAiFt_PG-hb_fhWC7eoRUJIwyQVtIA11MNWpSntQc0YaIkVcTmEJjZQg3F3N0mg7peKM7-0qjPM-Ru3qv0vfktc9IpZNML3ny23CSgc6jgfpO1YlGDVWJHqPHf6IxEIdb9Dmax-tyYwtMuN5HL4XunrMe1-QvKuM3VOKUSXmUZB5qm9SP0ucJ8btu8yQuTwzdMqGeCVemqQx9CJ6XN_pOMtY3tHVvFC1M4mpMiod_LFZEfmIht1vLUKJVdQL7h1y7Xv8kAeeFvHtvEEY0__B5WW6O9ZK85CyvVl_5otYwFv2_y1]--></g></svg>