<?xml version="1.0" encoding="us-ascii" standalone="no"?><svg xmlns="http://www.w3.org/2000/svg" xmlns:xlink="http://www.w3.org/1999/xlink" contentStyleType="text/css" height="386px" preserveAspectRatio="none" style="width:733px;height:386px;background:#FFFFFF;" version="1.1" viewBox="0 0 733 386" width="733px" zoomAndPan="magnify"><defs/><g><text fill="#000000" font-family="sans-serif" font-size="14" font-weight="bold" lengthAdjust="spacing" textLength="547" x="92" y="29.5332">US2.2.4: Register and Update Storage Areas - System Sequence Diagram (SSD)</text><rect fill="#FFFFFF" height="60.7031" style="stroke:#FFFFFF;stroke-width:1.0;" width="10" x="69" y="131.2188"/><line style="stroke:#181818;stroke-width:1.0;" x1="69" x2="69" y1="131.2188" y2="191.9219"/><line style="stroke:#181818;stroke-width:1.0;" x1="79" x2="79" y1="131.2188" y2="191.9219"/><line style="stroke:#181818;stroke-width:1.0;" x1="69" x2="79" y1="131.2188" y2="131.2188"/><rect fill="#FFFFFF" height="52.7031" style="stroke:#FFFFFF;stroke-width:1.0;" width="10" x="69" y="233.7578"/><line style="stroke:#181818;stroke-width:1.0;" x1="69" x2="69" y1="233.7578" y2="286.4609"/><line style="stroke:#181818;stroke-width:1.0;" x1="79" x2="79" y1="233.7578" y2="286.4609"/><line style="stroke:#181818;stroke-width:1.0;" x1="69" x2="79" y1="286.4609" y2="286.4609"/><rect fill="#FFFFFF" height="30.3516" style="stroke:#181818;stroke-width:1.0;" width="10" x="690" y="153.5703"/><rect fill="#FFFFFF" height="30.3516" style="stroke:#181818;stroke-width:1.0;" width="10" x="690" y="256.1094"/><line style="stroke:#181818;stroke-width:0.5;stroke-dasharray:5.0,5.0;" x1="74" x2="74" y1="121.2188" y2="191.9219"/><line style="stroke:#383838;stroke-width:1.0;stroke-dasharray:1.0,4.0;" x1="74" x2="74" y1="191.9219" y2="233.7578"/><line style="stroke:#181818;stroke-width:0.5;stroke-dasharray:5.0,5.0;" x1="74" x2="74" y1="233.7578" y2="304.4609"/><line style="stroke:#181818;stroke-width:0.5;stroke-dasharray:5.0,5.0;" x1="695" x2="695" y1="121.2188" y2="191.9219"/><line style="stroke:#383838;stroke-width:1.0;stroke-dasharray:1.0,4.0;" x1="695" x2="695" y1="191.9219" y2="233.7578"/><line style="stroke:#181818;stroke-width:0.5;stroke-dasharray:5.0,5.0;" x1="695" x2="695" y1="233.7578" y2="304.4609"/><text fill="#000000" font-family="sans-serif" font-size="14" lengthAdjust="spacing" textLength="132" x="5" y="118.1426">Port Authority Officer</text><ellipse cx="74" cy="52.1094" fill="#E3E3E3" rx="8" ry="8" style="stroke:#181818;stroke-width:0.5;"/><path d="M74,60.1094 L74,87.1094 M61,68.1094 L87,68.1094 M74,87.1094 L61,102.1094 M74,87.1094 L87,102.1094 " fill="none" style="stroke:#181818;stroke-width:0.5;"/><text fill="#000000" font-family="sans-serif" font-size="14" lengthAdjust="spacing" textLength="132" x="5" y="317.9941">Port Authority Officer</text><ellipse cx="74" cy="329.5703" fill="#E3E3E3" rx="8" ry="8" style="stroke:#181818;stroke-width:0.5;"/><path d="M74,337.5703 L74,364.5703 M61,345.5703 L87,345.5703 M74,364.5703 L61,379.5703 M74,364.5703 L87,379.5703 " fill="none" style="stroke:#181818;stroke-width:0.5;"/><rect fill="#E3E3E3" height="31.6094" rx="2.5" ry="2.5" style="stroke:#181818;stroke-width:0.5;" width="64" x="663" y="88.6094"/><text fill="#000000" font-family="sans-serif" font-size="14" lengthAdjust="spacing" textLength="50" x="670" y="110.1426">:System</text><rect fill="#E3E3E3" height="31.6094" rx="2.5" ry="2.5" style="stroke:#181818;stroke-width:0.5;" width="64" x="663" y="303.4609"/><text fill="#000000" font-family="sans-serif" font-size="14" lengthAdjust="spacing" textLength="50" x="670" y="324.9941">:System</text><rect fill="#FFFFFF" height="60.7031" style="stroke:#FFFFFF;stroke-width:1.0;" width="10" x="69" y="131.2188"/><line style="stroke:#181818;stroke-width:1.0;" x1="69" x2="69" y1="131.2188" y2="191.9219"/><line style="stroke:#181818;stroke-width:1.0;" x1="79" x2="79" y1="131.2188" y2="191.9219"/><line style="stroke:#181818;stroke-width:1.0;" x1="69" x2="79" y1="131.2188" y2="131.2188"/><rect fill="#FFFFFF" height="52.7031" style="stroke:#FFFFFF;stroke-width:1.0;" width="10" x="69" y="233.7578"/><line style="stroke:#181818;stroke-width:1.0;" x1="69" x2="69" y1="233.7578" y2="286.4609"/><line style="stroke:#181818;stroke-width:1.0;" x1="79" x2="79" y1="233.7578" y2="286.4609"/><line style="stroke:#181818;stroke-width:1.0;" x1="69" x2="79" y1="286.4609" y2="286.4609"/><rect fill="#FFFFFF" height="30.3516" style="stroke:#181818;stroke-width:1.0;" width="10" x="690" y="153.5703"/><rect fill="#FFFFFF" height="30.3516" style="stroke:#181818;stroke-width:1.0;" width="10" x="690" y="256.1094"/><polygon fill="#181818" points="678,149.5703,688,153.5703,678,157.5703,682,153.5703" style="stroke:#181818;stroke-width:1.0;"/><line style="stroke:#181818;stroke-width:1.0;" x1="79" x2="684" y1="153.5703" y2="153.5703"/><text fill="#000000" font-family="sans-serif" font-size="13" font-weight="bold" lengthAdjust="spacing" textLength="7" x="86" y="148.7139">1</text><text fill="#000000" font-family="sans-serif" font-size="13" lengthAdjust="spacing" textLength="548" x="97" y="148.7139">attempts to register a new storage area with details (id, location, type, capacity, dockDistance)</text><polygon fill="#181818" points="90,179.9219,80,183.9219,90,187.9219,86,183.9219" style="stroke:#181818;stroke-width:1.0;"/><line style="stroke:#181818;stroke-width:1.0;stroke-dasharray:2.0,2.0;" x1="84" x2="694" y1="183.9219" y2="183.9219"/><text fill="#000000" font-family="sans-serif" font-size="13" font-weight="bold" lengthAdjust="spacing" textLength="7" x="96" y="179.0654">2</text><text fill="#000000" font-family="sans-serif" font-size="13" lengthAdjust="spacing" textLength="295" x="107" y="179.0654">confirms successful registration of the storage area</text><text fill="#000000" font-family="sans-serif" font-size="11" lengthAdjust="spacing" textLength="250" x="259.5" y="217.3408">Authority selects an existing storage area to update</text><polygon fill="#181818" points="678,252.1094,688,256.1094,678,260.1094,682,256.1094" style="stroke:#181818;stroke-width:1.0;"/><line style="stroke:#181818;stroke-width:1.0;" x1="79" x2="684" y1="256.1094" y2="256.1094"/><text fill="#000000" font-family="sans-serif" font-size="13" font-weight="bold" lengthAdjust="spacing" textLength="7" x="86" y="251.2529">3</text><text fill="#000000" font-family="sans-serif" font-size="13" lengthAdjust="spacing" textLength="581" x="97" y="251.2529">requests to update storage area details (id, newLocation, newType, newCapacity, newDockDistance)</text><polygon fill="#181818" points="85,282.4609,75,286.4609,85,290.4609,81,286.4609" style="stroke:#181818;stroke-width:1.0;"/><line style="stroke:#181818;stroke-width:1.0;stroke-dasharray:2.0,2.0;" x1="79" x2="694" y1="286.4609" y2="286.4609"/><text fill="#000000" font-family="sans-serif" font-size="13" font-weight="bold" lengthAdjust="spacing" textLength="7" x="91" y="281.6045">4</text><text fill="#000000" font-family="sans-serif" font-size="13" lengthAdjust="spacing" textLength="270" x="102" y="281.6045">confirms successful update of the storage area</text><!--SRC=[bPB1hjCm44Nt_efHDw-LcYoUM7M1z4INI212Fs1m9edLn0wUCQL_pxX9cnG915avzlZUEsVy0YSc41h67eM0vTexty8McTEGLqFmmNOn3BG74blk39-T7p7Yi3e3YObM9oFQCxPKgHn192lestvTm1tMuP8D6koPZ14dMdggNilNyjq1lb3hM2W2-XfEOvt3LHAYYi9R96GeeBfgnG0LVK_aBS7HOPkrjrLrt1c3IO9FmpUA1grUXStd40NUadGXEhd2fwPnbk86LEsnQpIVEEj6z0ARm-HnAvcM9ekv7pdFSkUbA8ebScN9OtG1TDSiTiNxU-83e6JamY11yTnR1KyN7S7K9MgNS77IGKs2hcVOkdeFVR0eBlWzo7NKcLXKrYg_XphOyr6LK5dibfHpxDcwq1HBf0FOu1iN1mPErX9pa_evKBpPG6X0EdfAPMhwNNqYS9_Jkl-oB5U6JBq-1jQf0lrKa_m0dXfM7cbIqOj_W1Vpm7c2DnS_QJpnKgGV7yZqv-kDcYu-FC3fp_6lx42__-0tP_f7SgkjvK7z0W00]--></g></svg>