<svg xmlns="http://www.w3.org/2000/svg" xmlns:xlink="http://www.w3.org/1999/xlink" contentStyleType="text/css" data-diagram-type="SEQUENCE" height="394px" preserveAspectRatio="none" style="width:759px;height:394px;background:#FFFFFF;" version="1.1" viewBox="0 0 759 394" width="759px" zoomAndPan="magnify"><title>US2.2.4: Register and Update Storage Areas - System Sequence Diagram (SSD)</title><defs/><g><text fill="#000000" font-family="sans-serif" font-size="14" font-weight="bold" lengthAdjust="spacing" textLength="528.2813" x="114.8162" y="30.1074">US2.2.4: Register and Update Storage Areas - System Sequence Diagram (SSD)</text><g><title>Port Authority Officer</title><rect fill="#FFFFFF" height="62.582" style="stroke:#FFFFFF;stroke-width:1;" width="10" x="67.9653" y="133.2422"/><line style="stroke:#181818;stroke-width:1;" x1="67.9653" x2="67.9653" y1="133.2422" y2="195.8242"/><line style="stroke:#181818;stroke-width:1;" x1="77.9653" x2="77.9653" y1="133.2422" y2="195.8242"/><line style="stroke:#181818;stroke-width:1;" x1="67.9653" x2="77.9653" y1="133.2422" y2="133.2422"/></g><g><title>Port Authority Officer</title><rect fill="#FFFFFF" height="54.582" style="stroke:#FFFFFF;stroke-width:1;" width="10" x="67.9653" y="238.4551"/><line style="stroke:#181818;stroke-width:1;" x1="67.9653" x2="67.9653" y1="238.4551" y2="293.0371"/><line style="stroke:#181818;stroke-width:1;" x1="77.9653" x2="77.9653" y1="238.4551" y2="293.0371"/><line style="stroke:#181818;stroke-width:1;" x1="67.9653" x2="77.9653" y1="293.0371" y2="293.0371"/></g><g><title>.System</title><rect fill="#FFFFFF" height="31.291" style="stroke:#181818;stroke-width:1;" width="10" x="716.6309" y="156.5332"/></g><g><title>.System</title><rect fill="#FFFFFF" height="31.291" style="stroke:#181818;stroke-width:1;" width="10" x="716.6309" y="261.7461"/></g><g><title>Port Authority Officer</title><rect fill="#000000" fill-opacity="0.00000" height="72.582" width="8" x="68.9653" y="123.2422"/><line style="stroke:#181818;stroke-width:0.5;stroke-dasharray:5,5;" x1="72" x2="72" y1="123.2422" y2="195.8242"/></g><line style="stroke:#181818;stroke-width:0.5;stroke-dasharray:1,4;" x1="72" x2="72" y1="195.8242" y2="238.4551"/><g><title>Port Authority Officer</title><rect fill="#000000" fill-opacity="0.00000" height="72.582" width="8" x="68.9653" y="238.4551"/><line style="stroke:#181818;stroke-width:0.5;stroke-dasharray:5,5;" x1="72" x2="72" y1="238.4551" y2="311.0371"/></g><g><title>.System</title><rect fill="#000000" fill-opacity="0.00000" height="72.582" width="8" x="717.6309" y="123.2422"/><line style="stroke:#181818;stroke-width:0.5;stroke-dasharray:5,5;" x1="721.3481" x2="721.3481" y1="123.2422" y2="195.8242"/></g><line style="stroke:#181818;stroke-width:0.5;stroke-dasharray:1,4;" x1="721.3481" x2="721.3481" y1="195.8242" y2="238.4551"/><g><title>.System</title><rect fill="#000000" fill-opacity="0.00000" height="72.582" width="8" x="717.6309" y="238.4551"/><line style="stroke:#181818;stroke-width:0.5;stroke-dasharray:5,5;" x1="721.3481" x2="721.3481" y1="238.4551" y2="311.0371"/></g><g class="participant participant-head" data-participant="Authority"><text fill="#000000" font-family="sans-serif" font-size="14" lengthAdjust="spacing" textLength="129.9307" x="5" y="119.7285">Port Authority Officer</text><ellipse cx="72.9653" cy="53.1211" fill="#E3E3E3" rx="8" ry="8" style="stroke:#181818;stroke-width:0.5;"/><path d="M72.9653,61.1211 L72.9653,88.1211 M59.9653,69.1211 L85.9653,69.1211 M72.9653,88.1211 L59.9653,103.1211 M72.9653,88.1211 L85.9653,103.1211" fill="none" style="stroke:#181818;stroke-width:0.5;"/></g><g class="participant participant-tail" data-participant="Authority"><text fill="#000000" font-family="sans-serif" font-size="14" lengthAdjust="spacing" textLength="129.9307" x="5" y="325.1445">Port Authority Officer</text><ellipse cx="72.9653" cy="337.1582" fill="#E3E3E3" rx="8" ry="8" style="stroke:#181818;stroke-width:0.5;"/><path d="M72.9653,345.1582 L72.9653,372.1582 M59.9653,353.1582 L85.9653,353.1582 M72.9653,372.1582 L59.9653,387.1582 M72.9653,372.1582 L85.9653,387.1582" fill="none" style="stroke:#181818;stroke-width:0.5;"/></g><g class="participant participant-head" data-participant="System"><rect fill="#E3E3E3" height="32.6211" rx="2.5" ry="2.5" style="stroke:#181818;stroke-width:0.5;" width="64.5654" x="689.3481" y="89.6211"/><text fill="#000000" font-family="sans-serif" font-size="14" lengthAdjust="spacing" textLength="50.5654" x="696.3481" y="111.7285">:System</text></g><g class="participant participant-tail" data-participant="System"><rect fill="#E3E3E3" height="32.6211" rx="2.5" ry="2.5" style="stroke:#181818;stroke-width:0.5;" width="64.5654" x="689.3481" y="310.0371"/><text fill="#000000" font-family="sans-serif" font-size="14" lengthAdjust="spacing" textLength="50.5654" x="696.3481" y="332.1445">:System</text></g><g><title>Port Authority Officer</title><rect fill="#FFFFFF" height="62.582" style="stroke:#FFFFFF;stroke-width:1;" width="10" x="67.9653" y="133.2422"/><line style="stroke:#181818;stroke-width:1;" x1="67.9653" x2="67.9653" y1="133.2422" y2="195.8242"/><line style="stroke:#181818;stroke-width:1;" x1="77.9653" x2="77.9653" y1="133.2422" y2="195.8242"/><line style="stroke:#181818;stroke-width:1;" x1="67.9653" x2="77.9653" y1="133.2422" y2="133.2422"/></g><g><title>Port Authority Officer</title><rect fill="#FFFFFF" height="54.582" style="stroke:#FFFFFF;stroke-width:1;" width="10" x="67.9653" y="238.4551"/><line style="stroke:#181818;stroke-width:1;" x1="67.9653" x2="67.9653" y1="238.4551" y2="293.0371"/><line style="stroke:#181818;stroke-width:1;" x1="77.9653" x2="77.9653" y1="238.4551" y2="293.0371"/><line style="stroke:#181818;stroke-width:1;" x1="67.9653" x2="77.9653" y1="293.0371" y2="293.0371"/></g><g><title>.System</title><rect fill="#FFFFFF" height="31.291" style="stroke:#181818;stroke-width:1;" width="10" x="716.6309" y="156.5332"/></g><g><title>.System</title><rect fill="#FFFFFF" height="31.291" style="stroke:#181818;stroke-width:1;" width="10" x="716.6309" y="261.7461"/></g><g class="message" data-participant-1="Authority" data-participant-2="System"><polygon fill="#181818" points="704.6309,152.5332,714.6309,156.5332,704.6309,160.5332,708.6309,156.5332" style="stroke:#181818;stroke-width:1;"/><line style="stroke:#181818;stroke-width:1;" x1="77.9653" x2="710.6309" y1="156.5332" y2="156.5332"/><text fill="#000000" font-family="sans-serif" font-size="13" font-weight="bold" lengthAdjust="spacing" textLength="7.23" x="84.9653" y="151.2705">1</text><text fill="#000000" font-family="sans-serif" font-size="13" lengthAdjust="spacing" textLength="567.9375" x="96.1953" y="151.2705">attempts to register a new storage area with details (id, location, type, capacity, currentOccupancy)</text></g><g class="message" data-participant-1="System" data-participant-2="Authority"><polygon fill="#181818" points="88.9653,183.8242,78.9653,187.8242,88.9653,191.8242,84.9653,187.8242" style="stroke:#181818;stroke-width:1;"/><line style="stroke:#181818;stroke-width:1;stroke-dasharray:2,2;" x1="82.9653" x2="720.6309" y1="187.8242" y2="187.8242"/><text fill="#000000" font-family="sans-serif" font-size="13" font-weight="bold" lengthAdjust="spacing" textLength="7.23" x="94.9653" y="182.5615">2</text><text fill="#000000" font-family="sans-serif" font-size="13" lengthAdjust="spacing" textLength="294.0806" x="106.1953" y="182.5615">confirms successful registration of the storage area</text></g><text fill="#000000" font-family="sans-serif" font-size="11" lengthAdjust="spacing" textLength="250.0942" x="272.251" y="221.6943">Authority selects an existing storage area to update</text><g class="message" data-participant-1="Authority" data-participant-2="System"><polygon fill="#181818" points="704.6309,257.7461,714.6309,261.7461,704.6309,265.7461,708.6309,261.7461" style="stroke:#181818;stroke-width:1;"/><line style="stroke:#181818;stroke-width:1;" x1="77.9653" x2="710.6309" y1="261.7461" y2="261.7461"/><text fill="#000000" font-family="sans-serif" font-size="13" font-weight="bold" lengthAdjust="spacing" textLength="7.23" x="84.9653" y="256.4834">3</text><text fill="#000000" font-family="sans-serif" font-size="13" lengthAdjust="spacing" textLength="608.4355" x="96.1953" y="256.4834">requests to update storage area details (id, newLocation, newType, newCapacity, NewcurrentOccupancy)</text></g><g class="message" data-participant-1="System" data-participant-2="Authority"><polygon fill="#181818" points="83.9653,289.0371,73.9653,293.0371,83.9653,297.0371,79.9653,293.0371" style="stroke:#181818;stroke-width:1;"/><line style="stroke:#181818;stroke-width:1;stroke-dasharray:2,2;" x1="77.9653" x2="720.6309" y1="293.0371" y2="293.0371"/><text fill="#000000" font-family="sans-serif" font-size="13" font-weight="bold" lengthAdjust="spacing" textLength="7.23" x="89.9653" y="287.7744">4</text><text fill="#000000" font-family="sans-serif" font-size="13" lengthAdjust="spacing" textLength="269.5342" x="101.1953" y="287.7744">confirms successful update of the storage area</text></g><!--SRC=[bPB1Rjim38RlUWeYboP0x4EnKmu3YlKuh4MzF00hqxPGM_94ggdVldJinCw0OPjFD4Nz_FbHTt1a0g6kRr48M8RM-Hgso9owCUg23xQ9eQCzaDXyP_ZD-HuZTgipa9XeTTAZVSEQ2fKZY6G5VTsk2xZ1Cfp61XMsJCQ84oqz5lVvVVxb02zKEnQAWBw4Or-EvWe9KKNX8H8oP50CMj51GRyIUKlmwB0UjRT5yRWp1fC4dxfNYWQjNeNDSuW23qcQ49qCy5HLpbBSWAfTiqRzYREkHo-mEKmzpYLJQ4OnzpxwMUxSPLcsM2uiUOmkW6RDqYxxUd5y09GHkJ18K3oNKS7JILSmJOaw9PoSD52Ie6iPjgxSGniiYWj-3pBqkXEBobhbDKenafSdQvEQjyDkSJfRdzjdwcInTG0RVELYny39McAkKZkRYkTM42gGXcwScP9-LvyeN7QrPf3d-QeXKwiFWdMpG1_QP7m4DqChapIfwCK_08pZqda2E1VVQDmmKwpVhzZqv-UPd0RVhl1-qEdl_42__s0u-_f7UglKyh0-0G00]--></g></svg>