<svg xmlns="http://www.w3.org/2000/svg" xmlns:xlink="http://www.w3.org/1999/xlink" contentStyleType="text/css" height="1009.8px" preserveAspectRatio="none" style="width:907px;height:1009px;background:#FFFFFF;" version="1.1" viewBox="0 0 907 1009" width="907.2px" zoomAndPan="magnify"><title>US 2.2.2: Manage Vessel Types (Design)</title><defs/><g><text fill="#000000" font-family="sans-serif" font-size="8.4" font-weight="bold" lengthAdjust="spacing" textLength="171.3797" x="369.0787" y="17.1211">US 2.2.2: Manage Vessel Types (Design)</text><rect fill="#FFFFFF" height="246.9949" style="stroke:#181818;stroke-width:0.6;" width="6" x="181.8135" y="113.9449"/><rect fill="#FFFFFF" height="470.8172" style="stroke:#181818;stroke-width:0.6;" width="6" x="181.8135" y="441.0715"/><rect fill="#FFFFFF" height="211.8223" style="stroke:#181818;stroke-width:0.6;" width="6" x="308.2269" y="131.5313"/><rect fill="#FFFFFF" height="435.6445" style="stroke:#181818;stroke-width:0.6;" width="6" x="308.2269" y="458.6578"/><rect fill="#FFFFFF" height="176.6496" style="stroke:#181818;stroke-width:0.6;" width="6" x="410.2336" y="149.1176"/><rect fill="#FFFFFF" height="400.4719" style="stroke:#181818;stroke-width:0.6;" width="6" x="410.2336" y="476.2441"/><rect fill="#FFFFFF" height="11.5863" style="stroke:#181818;stroke-width:0.6;" width="6" x="579.2271" y="191.0766"/><rect fill="#FFFFFF" height="8.4" style="stroke:#181818;stroke-width:0.6;" width="6" x="579.2271" y="664.8938"/><rect fill="#FFFFFF" height="52.759" style="stroke:#181818;stroke-width:0.6;" width="6" x="663.3146" y="220.2492"/><rect fill="#FFFFFF" height="52.759" style="stroke:#181818;stroke-width:0.6;" width="6" x="663.3146" y="493.8305"/><rect fill="#FFFFFF" height="52.759" style="stroke:#181818;stroke-width:0.6;" width="6" x="663.3146" y="585.3621"/><rect fill="#FFFFFF" height="52.759" style="stroke:#181818;stroke-width:0.6;" width="6" x="663.3146" y="771.198"/><rect fill="#FFFFFF" height="17.5863" style="stroke:#181818;stroke-width:0.6;" width="6" x="770.7105" y="237.8355"/><rect fill="#FFFFFF" height="17.5863" style="stroke:#181818;stroke-width:0.6;" width="6" x="770.7105" y="511.4168"/><rect fill="#FFFFFF" height="17.5863" style="stroke:#181818;stroke-width:0.6;" width="6" x="770.7105" y="602.9484"/><rect fill="#FFFFFF" height="17.5863" style="stroke:#181818;stroke-width:0.6;" width="6" x="770.7105" y="788.7844"/><rect fill="#FFFFFF" height="17.5863" style="stroke:#181818;stroke-width:0.6;" width="6" x="860.8849" y="290.5945"/><rect fill="#FFFFFF" height="17.5863" style="stroke:#181818;stroke-width:0.6;" width="6" x="860.8849" y="841.5434"/><rect fill="none" height="318.7266" rx="3" ry="3" style="stroke:#000000;stroke-width:0.8999999999999999;" width="898.137" x="6" y="81.5859"/><rect fill="none" height="542.5488" rx="3" ry="3" style="stroke:#000000;stroke-width:0.8999999999999999;" width="898.137" x="6" y="408.7125"/><line style="stroke:#181818;stroke-width:0.3;stroke-dasharray:5.0,5.0;" x1="57" x2="57" y1="71.3859" y2="961.4613"/><line style="stroke:#181818;stroke-width:0.3;stroke-dasharray:5.0,5.0;" x1="184.6808" x2="184.6808" y1="71.3859" y2="961.4613"/><line style="stroke:#181818;stroke-width:0.3;stroke-dasharray:5.0,5.0;" x1="310.8618" x2="310.8618" y1="71.3859" y2="961.4613"/><line style="stroke:#181818;stroke-width:0.3;stroke-dasharray:5.0,5.0;" x1="412.7496" x2="412.7496" y1="71.3859" y2="961.4613"/><line style="stroke:#181818;stroke-width:0.3;stroke-dasharray:5.0,5.0;" x1="582.1427" x2="582.1427" y1="177.8971" y2="961.4613"/><line style="stroke:#181818;stroke-width:0.3;stroke-dasharray:5.0,5.0;" x1="666.3114" x2="666.3114" y1="71.3859" y2="961.4613"/><line style="stroke:#181818;stroke-width:0.3;stroke-dasharray:5.0,5.0;" x1="773.5884" x2="773.5884" y1="71.3859" y2="961.4613"/><line style="stroke:#181818;stroke-width:0.3;stroke-dasharray:5.0,5.0;" x1="863.8327" x2="863.8327" y1="71.3859" y2="961.4613"/><text fill="#000000" font-family="sans-serif" font-size="8.4" lengthAdjust="spacing" text-decoration="underline" textLength="87.1664" x="12" y="69.6141">Port Authority Officer</text><ellipse cx="57.3832" cy="30.593" fill="#E2E2F0" rx="4.8" ry="4.8" style="stroke:#181818;stroke-width:0.3;"/><path d="M57.3832,35.393 L57.3832,51.593 M49.5832,40.193 L65.1832,40.193 M57.3832,51.593 L49.5832,60.593 M57.3832,51.593 L65.1832,60.593 " fill="none" style="stroke:#181818;stroke-width:0.3;"/><text fill="#000000" font-family="sans-serif" font-size="8.4" lengthAdjust="spacing" text-decoration="underline" textLength="87.1664" x="12" y="968.9824">Port Authority Officer</text><ellipse cx="57.3832" cy="975.8543" fill="#E2E2F0" rx="4.8" ry="4.8" style="stroke:#181818;stroke-width:0.3;"/><path d="M57.3832,980.6543 L57.3832,996.8543 M49.5832,985.4543 L65.1832,985.4543 M57.3832,996.8543 L49.5832,1005.8543 M57.3832,996.8543 L65.1832,1005.8543 " fill="none" style="stroke:#181818;stroke-width:0.3;"/><rect fill="#E2E2F0" height="18.293" rx="1.5" ry="1.5" style="stroke:#181818;stroke-width:0.3;" width="97.4654" x="136.0808" y="52.493"/><text fill="#000000" font-family="sans-serif" font-size="8.4" lengthAdjust="spacing" text-decoration="underline" textLength="89.0654" x="140.2808" y="64.8141">:VesselTypeController</text><rect fill="#E2E2F0" height="18.293" rx="1.5" ry="1.5" style="stroke:#181818;stroke-width:0.3;" width="97.4654" x="136.0808" y="960.8613"/><text fill="#000000" font-family="sans-serif" font-size="8.4" lengthAdjust="spacing" text-decoration="underline" textLength="89.0654" x="140.2808" y="973.1824">:VesselTypeController</text><rect fill="#E2E2F0" height="18.293" rx="1.5" ry="1.5" style="stroke:#181818;stroke-width:0.3;" width="84.7301" x="268.8618" y="52.493"/><text fill="#000000" font-family="sans-serif" font-size="8.4" lengthAdjust="spacing" text-decoration="underline" textLength="76.3301" x="273.0618" y="64.8141">IVesselTypeService</text><rect fill="#E2E2F0" height="18.293" rx="1.5" ry="1.5" style="stroke:#181818;stroke-width:0.3;" width="84.7301" x="268.8618" y="960.8613"/><text fill="#000000" font-family="sans-serif" font-size="8.4" lengthAdjust="spacing" text-decoration="underline" textLength="76.3301" x="273.0618" y="973.1824">IVesselTypeService</text><rect fill="#E2E2F0" height="18.293" rx="1.5" ry="1.5" style="stroke:#181818;stroke-width:0.3;" width="84.968" x="370.7496" y="52.493"/><text fill="#000000" font-family="sans-serif" font-size="8.4" lengthAdjust="spacing" text-decoration="underline" textLength="76.568" x="374.9496" y="64.8141">:VesselTypeService</text><rect fill="#E2E2F0" height="18.293" rx="1.5" ry="1.5" style="stroke:#181818;stroke-width:0.3;" width="84.968" x="370.7496" y="960.8613"/><text fill="#000000" font-family="sans-serif" font-size="8.4" lengthAdjust="spacing" text-decoration="underline" textLength="76.568" x="374.9496" y="973.1824">:VesselTypeService</text><rect fill="#E2E2F0" height="18.293" rx="1.5" ry="1.5" style="stroke:#181818;stroke-width:0.3;" width="56.5688" x="553.9427" y="960.8613"/><text fill="#000000" font-family="sans-serif" font-size="8.4" lengthAdjust="spacing" text-decoration="underline" textLength="48.1687" x="558.1427" y="973.1824">:VesselType</text><rect fill="#E2E2F0" height="18.293" rx="1.5" ry="1.5" style="stroke:#181818;stroke-width:0.3;" width="99.6064" x="616.5114" y="52.493"/><text fill="#000000" font-family="sans-serif" font-size="8.4" lengthAdjust="spacing" text-decoration="underline" textLength="91.2064" x="620.7114" y="64.8141">IVesselTypeRepository</text><rect fill="#E2E2F0" height="18.293" rx="1.5" ry="1.5" style="stroke:#181818;stroke-width:0.3;" width="99.6064" x="616.5114" y="960.8613"/><text fill="#000000" font-family="sans-serif" font-size="8.4" lengthAdjust="spacing" text-decoration="underline" textLength="91.2064" x="620.7114" y="973.1824">IVesselTypeRepository</text><rect fill="#E2E2F0" height="18.293" rx="1.5" ry="1.5" style="stroke:#181818;stroke-width:0.3;" width="99.8443" x="723.7884" y="52.493"/><text fill="#000000" font-family="sans-serif" font-size="8.4" lengthAdjust="spacing" text-decoration="underline" textLength="91.4443" x="727.9884" y="64.8141">:VesselTypeRepository</text><rect fill="#E2E2F0" height="18.293" rx="1.5" ry="1.5" style="stroke:#181818;stroke-width:0.3;" width="99.8443" x="723.7884" y="960.8613"/><text fill="#000000" font-family="sans-serif" font-size="8.4" lengthAdjust="spacing" text-decoration="underline" textLength="91.4443" x="727.9884" y="973.1824">:VesselTypeRepository</text><rect fill="#E2E2F0" height="18.293" rx="1.5" ry="1.5" style="stroke:#181818;stroke-width:0.3;" width="68.5043" x="829.6327" y="52.493"/><text fill="#000000" font-family="sans-serif" font-size="8.4" lengthAdjust="spacing" text-decoration="underline" textLength="60.1043" x="833.8327" y="64.8141">VesselTypeDto</text><rect fill="#E2E2F0" height="18.293" rx="1.5" ry="1.5" style="stroke:#181818;stroke-width:0.3;" width="68.5043" x="829.6327" y="960.8613"/><text fill="#000000" font-family="sans-serif" font-size="8.4" lengthAdjust="spacing" text-decoration="underline" textLength="60.1043" x="833.8327" y="973.1824">VesselTypeDto</text><rect fill="#FFFFFF" height="246.9949" style="stroke:#181818;stroke-width:0.6;" width="6" x="181.8135" y="113.9449"/><rect fill="#FFFFFF" height="470.8172" style="stroke:#181818;stroke-width:0.6;" width="6" x="181.8135" y="441.0715"/><rect fill="#FFFFFF" height="211.8223" style="stroke:#181818;stroke-width:0.6;" width="6" x="308.2269" y="131.5313"/><rect fill="#FFFFFF" height="435.6445" style="stroke:#181818;stroke-width:0.6;" width="6" x="308.2269" y="458.6578"/><rect fill="#FFFFFF" height="176.6496" style="stroke:#181818;stroke-width:0.6;" width="6" x="410.2336" y="149.1176"/><rect fill="#FFFFFF" height="400.4719" style="stroke:#181818;stroke-width:0.6;" width="6" x="410.2336" y="476.2441"/><rect fill="#FFFFFF" height="11.5863" style="stroke:#181818;stroke-width:0.6;" width="6" x="579.2271" y="191.0766"/><rect fill="#FFFFFF" height="8.4" style="stroke:#181818;stroke-width:0.6;" width="6" x="579.2271" y="664.8938"/><rect fill="#FFFFFF" height="52.759" style="stroke:#181818;stroke-width:0.6;" width="6" x="663.3146" y="220.2492"/><rect fill="#FFFFFF" height="52.759" style="stroke:#181818;stroke-width:0.6;" width="6" x="663.3146" y="493.8305"/><rect fill="#FFFFFF" height="52.759" style="stroke:#181818;stroke-width:0.6;" width="6" x="663.3146" y="585.3621"/><rect fill="#FFFFFF" height="52.759" style="stroke:#181818;stroke-width:0.6;" width="6" x="663.3146" y="771.198"/><rect fill="#FFFFFF" height="17.5863" style="stroke:#181818;stroke-width:0.6;" width="6" x="770.7105" y="237.8355"/><rect fill="#FFFFFF" height="17.5863" style="stroke:#181818;stroke-width:0.6;" width="6" x="770.7105" y="511.4168"/><rect fill="#FFFFFF" height="17.5863" style="stroke:#181818;stroke-width:0.6;" width="6" x="770.7105" y="602.9484"/><rect fill="#FFFFFF" height="17.5863" style="stroke:#181818;stroke-width:0.6;" width="6" x="770.7105" y="788.7844"/><rect fill="#FFFFFF" height="17.5863" style="stroke:#181818;stroke-width:0.6;" width="6" x="860.8849" y="290.5945"/><rect fill="#FFFFFF" height="17.5863" style="stroke:#181818;stroke-width:0.6;" width="6" x="860.8849" y="841.5434"/><path d="M9,81.5859 L168.0604,81.5859 L168.0604,85.9723 L162.0604,91.9723 L6,91.9723 L6,84.5859 A3,3 0 0 1 9,81.5859 " fill="#EEEEEE" style="stroke:#000000;stroke-width:0.8999999999999999;"/><rect fill="none" height="318.7266" rx="3" ry="3" style="stroke:#000000;stroke-width:0.8999999999999999;" width="898.137" x="6" y="81.5859"/><text fill="#000000" font-family="sans-serif" font-size="7.8" font-weight="bold" lengthAdjust="spacing" textLength="135.0604" x="15" y="89.727">Scenario: Create New Vessel Type</text><polygon fill="#181818" points="174.6135,111.5449,180.6135,113.9449,174.6135,116.3449,177.0135,113.9449" style="stroke:#181818;stroke-width:0.6;"/><line style="stroke:#181818;stroke-width:1.2;" x1="57.3832" x2="178.2135" y1="113.9449" y2="113.9449"/><text fill="#000000" font-family="sans-serif" font-size="7.8" lengthAdjust="spacing" textLength="19.5038" x="61.5832" y="101.9133">POST</text><text fill="#000000" font-family="sans-serif" font-size="7.8" lengthAdjust="spacing" textLength="2.468" x="81.087" y="101.9133">&#160;</text><text fill="#000000" font-family="sans-serif" font-size="7.8" lengthAdjust="spacing" textLength="58.8352" x="83.555" y="101.9133">/api/vesseltype</text><text fill="#000000" font-family="sans-serif" font-size="7.8" lengthAdjust="spacing" textLength="89.5286" x="61.5832" y="111.0996">(CreateVesselType(dto))</text><polygon fill="#181818" points="301.0269,129.1313,307.0269,131.5313,301.0269,133.9313,303.4269,131.5313" style="stroke:#181818;stroke-width:0.6;"/><line style="stroke:#181818;stroke-width:1.2;" x1="187.8135" x2="304.6269" y1="131.5313" y2="131.5313"/><text fill="#000000" font-family="sans-serif" font-size="7.8" lengthAdjust="spacing" textLength="106.7244" x="192.0135" y="128.6859">CreateVesselTypeAsync(dto)</text><polygon fill="#181818" points="403.0336,146.7176,409.0336,149.1176,403.0336,151.5176,405.4336,149.1176" style="stroke:#181818;stroke-width:0.6;"/><line style="stroke:#181818;stroke-width:1.2;" x1="314.2269" x2="406.6336" y1="149.1176" y2="149.1176"/><text fill="#000000" font-family="sans-serif" font-size="7.8" lengthAdjust="spacing" textLength="39.8303" x="318.4269" y="146.2723">delegation</text><polygon fill="#181818" points="546.7427,182.6766,552.7427,185.0766,546.7427,187.4766,549.1427,185.0766" style="stroke:#181818;stroke-width:0.6;"/><line style="stroke:#181818;stroke-width:1.2;" x1="416.2336" x2="550.3427" y1="185.0766" y2="185.0766"/><text fill="#000000" font-family="sans-serif" font-size="7.8" lengthAdjust="spacing" textLength="81.4011" x="420.4336" y="163.8586">VesselType.Create(id,</text><text fill="#000000" font-family="sans-serif" font-size="7.8" lengthAdjust="spacing" textLength="2.468" x="501.8347" y="163.8586">&#160;</text><text fill="#000000" font-family="sans-serif" font-size="7.8" lengthAdjust="spacing" textLength="23.2438" x="504.3026" y="163.8586">name,</text><text fill="#000000" font-family="sans-serif" font-size="7.8" lengthAdjust="spacing" textLength="44.8538" x="420.4336" y="173.0449">description,</text><text fill="#000000" font-family="sans-serif" font-size="7.8" lengthAdjust="spacing" textLength="33.23" x="420.4336" y="182.2313">capacity,</text><text fill="#000000" font-family="sans-serif" font-size="7.8" lengthAdjust="spacing" textLength="2.468" x="453.6636" y="182.2313">&#160;</text><text fill="#000000" font-family="sans-serif" font-size="7.8" lengthAdjust="spacing" textLength="20.4369" x="456.1315" y="182.2313">rows,</text><text fill="#000000" font-family="sans-serif" font-size="7.8" lengthAdjust="spacing" textLength="2.468" x="476.5685" y="182.2313">&#160;</text><text fill="#000000" font-family="sans-serif" font-size="7.8" lengthAdjust="spacing" textLength="19.7361" x="479.0364" y="182.2313">bays,</text><text fill="#000000" font-family="sans-serif" font-size="7.8" lengthAdjust="spacing" textLength="2.468" x="498.7726" y="182.2313">&#160;</text><text fill="#000000" font-family="sans-serif" font-size="7.8" lengthAdjust="spacing" textLength="19.222" x="501.2405" y="182.2313">tiers)</text><rect fill="#E2E2F0" height="18.293" rx="1.5" ry="1.5" style="stroke:#181818;stroke-width:0.3;" width="56.5688" x="553.9427" y="164.9836"/><text fill="#000000" font-family="sans-serif" font-size="8.4" lengthAdjust="spacing" text-decoration="underline" textLength="48.1687" x="558.1427" y="177.3047">:VesselType</text><polygon fill="#181818" points="422.8336,200.2629,416.8336,202.6629,422.8336,205.0629,420.4336,202.6629" style="stroke:#181818;stroke-width:0.6;"/><line style="stroke:#181818;stroke-width:1.2;stroke-dasharray:2.0,2.0;" x1="419.2336" x2="581.6271" y1="202.6629" y2="202.6629"/><text fill="#000000" font-family="sans-serif" font-size="7.8" lengthAdjust="spacing" textLength="15.1963" x="426.4336" y="199.8176">new</text><text fill="#000000" font-family="sans-serif" font-size="7.8" lengthAdjust="spacing" textLength="2.468" x="441.6299" y="199.8176">&#160;</text><text fill="#000000" font-family="sans-serif" font-size="7.8" lengthAdjust="spacing" textLength="42.2602" x="444.0979" y="199.8176">VesselType</text><text fill="#000000" font-family="sans-serif" font-size="7.8" lengthAdjust="spacing" textLength="2.468" x="486.358" y="199.8176">&#160;</text><text fill="#000000" font-family="sans-serif" font-size="7.8" lengthAdjust="spacing" textLength="31.478" x="488.826" y="199.8176">instance</text><polygon fill="#181818" points="656.1146,217.8492,662.1146,220.2492,656.1146,222.6492,658.5146,220.2492" style="stroke:#181818;stroke-width:0.6;"/><line style="stroke:#181818;stroke-width:1.2;" x1="416.2336" x2="659.7146" y1="220.2492" y2="220.2492"/><text fill="#000000" font-family="sans-serif" font-size="7.8" lengthAdjust="spacing" textLength="63.893" x="420.4336" y="217.4039">AddAsync(entity)</text><polygon fill="#181818" points="763.5105,235.4355,769.5105,237.8355,763.5105,240.2355,765.9105,237.8355" style="stroke:#181818;stroke-width:0.6;"/><line style="stroke:#181818;stroke-width:1.2;" x1="669.3146" x2="767.1105" y1="237.8355" y2="237.8355"/><text fill="#000000" font-family="sans-serif" font-size="7.8" lengthAdjust="spacing" textLength="43.098" x="673.5146" y="234.9902">persistence</text><text fill="#000000" font-family="sans-serif" font-size="7.8" lengthAdjust="spacing" textLength="2.468" x="716.6127" y="234.9902">&#160;</text><text fill="#000000" font-family="sans-serif" font-size="7.8" lengthAdjust="spacing" textLength="18.1594" x="719.0807" y="234.9902">logic</text><polygon fill="#181818" points="675.9146,253.0219,669.9146,255.4219,675.9146,257.8219,673.5146,255.4219" style="stroke:#181818;stroke-width:0.6;"/><line style="stroke:#181818;stroke-width:1.2;stroke-dasharray:2.0,2.0;" x1="672.3146" x2="773.1105" y1="255.4219" y2="255.4219"/><text fill="#000000" font-family="sans-serif" font-size="7.8" lengthAdjust="spacing" textLength="42.2602" x="679.5146" y="252.5766">VesselType</text><text fill="#000000" font-family="sans-serif" font-size="7.8" lengthAdjust="spacing" textLength="2.468" x="721.7748" y="252.5766">&#160;</text><text fill="#000000" font-family="sans-serif" font-size="7.8" lengthAdjust="spacing" textLength="21.5757" x="724.2428" y="252.5766">saved</text><polygon fill="#181818" points="422.8336,270.6082,416.8336,273.0082,422.8336,275.4082,420.4336,273.0082" style="stroke:#181818;stroke-width:0.6;"/><line style="stroke:#181818;stroke-width:1.2;stroke-dasharray:2.0,2.0;" x1="419.2336" x2="665.7146" y1="273.0082" y2="273.0082"/><text fill="#000000" font-family="sans-serif" font-size="7.8" lengthAdjust="spacing" textLength="42.2602" x="426.4336" y="270.1629">VesselType</text><text fill="#000000" font-family="sans-serif" font-size="7.8" lengthAdjust="spacing" textLength="2.468" x="468.6937" y="270.1629">&#160;</text><text fill="#000000" font-family="sans-serif" font-size="7.8" lengthAdjust="spacing" textLength="21.5757" x="471.1617" y="270.1629">saved</text><polygon fill="#181818" points="853.6849,288.1945,859.6849,290.5945,853.6849,292.9945,856.0849,290.5945" style="stroke:#181818;stroke-width:0.6;"/><line style="stroke:#181818;stroke-width:1.2;" x1="416.2336" x2="857.2849" y1="290.5945" y2="290.5945"/><text fill="#000000" font-family="sans-serif" font-size="7.8" lengthAdjust="spacing" textLength="15.9352" x="420.4336" y="287.7492">Map</text><text fill="#000000" font-family="sans-serif" font-size="7.8" lengthAdjust="spacing" textLength="2.468" x="436.3688" y="287.7492">&#160;</text><text fill="#000000" font-family="sans-serif" font-size="7.8" lengthAdjust="spacing" textLength="21.351" x="438.8367" y="287.7492">entity</text><text fill="#000000" font-family="sans-serif" font-size="7.8" lengthAdjust="spacing" textLength="2.468" x="460.1877" y="287.7492">&#160;</text><text fill="#000000" font-family="sans-serif" font-size="7.8" lengthAdjust="spacing" textLength="7.8" x="462.6557" y="287.7492">&#8594;</text><text fill="#000000" font-family="sans-serif" font-size="7.8" lengthAdjust="spacing" textLength="2.468" x="470.4557" y="287.7492">&#160;</text><text fill="#000000" font-family="sans-serif" font-size="7.8" lengthAdjust="spacing" textLength="55.8111" x="472.9236" y="287.7492">VesselTypeDto</text><polygon fill="#181818" points="422.8336,305.7809,416.8336,308.1809,422.8336,310.5809,420.4336,308.1809" style="stroke:#181818;stroke-width:0.6;"/><line style="stroke:#181818;stroke-width:1.2;stroke-dasharray:2.0,2.0;" x1="419.2336" x2="863.2849" y1="308.1809" y2="308.1809"/><text fill="#000000" font-family="sans-serif" font-size="7.8" lengthAdjust="spacing" textLength="55.8111" x="426.4336" y="305.3355">VesselTypeDto</text><polygon fill="#181818" points="320.8269,323.3672,314.8269,325.7672,320.8269,328.1672,318.4269,325.7672" style="stroke:#181818;stroke-width:0.6;"/><line style="stroke:#181818;stroke-width:1.2;stroke-dasharray:2.0,2.0;" x1="317.2269" x2="412.6336" y1="325.7672" y2="325.7672"/><text fill="#000000" font-family="sans-serif" font-size="7.8" lengthAdjust="spacing" textLength="23.3276" x="324.4269" y="322.9219">return</text><text fill="#000000" font-family="sans-serif" font-size="7.8" lengthAdjust="spacing" textLength="2.468" x="347.7545" y="322.9219">&#160;</text><text fill="#000000" font-family="sans-serif" font-size="7.8" lengthAdjust="spacing" textLength="55.8111" x="350.2225" y="322.9219">VesselTypeDto</text><polygon fill="#181818" points="194.4135,340.9535,188.4135,343.3535,194.4135,345.7535,192.0135,343.3535" style="stroke:#181818;stroke-width:0.6;"/><line style="stroke:#181818;stroke-width:1.2;stroke-dasharray:2.0,2.0;" x1="190.8135" x2="310.6269" y1="343.3535" y2="343.3535"/><text fill="#000000" font-family="sans-serif" font-size="7.8" lengthAdjust="spacing" textLength="55.8111" x="198.0135" y="340.5082">VesselTypeDto</text><polygon fill="#181818" points="63.9832,358.5398,57.9832,360.9398,63.9832,363.3398,61.5832,360.9398" style="stroke:#181818;stroke-width:0.6;"/><line style="stroke:#181818;stroke-width:1.2;stroke-dasharray:2.0,2.0;" x1="60.3832" x2="184.2135" y1="360.9398" y2="360.9398"/><text fill="#000000" font-family="sans-serif" font-size="7.8" lengthAdjust="spacing" textLength="14.7964" x="67.5832" y="358.0945">201</text><text fill="#000000" font-family="sans-serif" font-size="7.8" lengthAdjust="spacing" textLength="2.468" x="82.3796" y="358.0945">&#160;</text><text fill="#000000" font-family="sans-serif" font-size="7.8" lengthAdjust="spacing" textLength="29.4138" x="84.8476" y="358.0945">Created</text><text fill="#000000" font-family="sans-serif" font-size="7.8" lengthAdjust="spacing" textLength="2.468" x="114.2613" y="358.0945">&#160;</text><text fill="#000000" font-family="sans-serif" font-size="7.8" lengthAdjust="spacing" textLength="60.8842" x="116.7293" y="358.0945">(VesselTypeDto)</text><line style="stroke:#181818;stroke-width:1.2;" x1="57.3832" x2="82.5832" y1="387.7125" y2="387.7125"/><line style="stroke:#181818;stroke-width:1.2;" x1="82.5832" x2="82.5832" y1="387.7125" y2="395.5125"/><line style="stroke:#181818;stroke-width:1.2;" x1="57.9832" x2="82.5832" y1="395.5125" y2="395.5125"/><polygon fill="#181818" points="63.9832,393.1125,57.9832,395.5125,63.9832,397.9125,61.5832,395.5125" style="stroke:#181818;stroke-width:0.6;"/><text fill="#000000" font-family="sans-serif" font-size="7.8" lengthAdjust="spacing" textLength="42.2602" x="61.5832" y="375.6809">VesselType</text><text fill="#000000" font-family="sans-serif" font-size="7.8" lengthAdjust="spacing" textLength="2.468" x="103.8434" y="375.6809">&#160;</text><text fill="#000000" font-family="sans-serif" font-size="7.8" lengthAdjust="spacing" textLength="28.0122" x="106.3113" y="375.6809">created</text><text fill="#000000" font-family="sans-serif" font-size="7.8" lengthAdjust="spacing" textLength="47.8664" x="61.5832" y="384.8672">successfully!</text><path d="M9,408.7125 L185.378,408.7125 L185.378,413.0988 L179.378,419.0988 L6,419.0988 L6,411.7125 A3,3 0 0 1 9,408.7125 " fill="#EEEEEE" style="stroke:#000000;stroke-width:0.8999999999999999;"/><rect fill="none" height="542.5488" rx="3" ry="3" style="stroke:#000000;stroke-width:0.8999999999999999;" width="898.137" x="6" y="408.7125"/><text fill="#000000" font-family="sans-serif" font-size="7.8" font-weight="bold" lengthAdjust="spacing" textLength="152.378" x="15" y="416.8535">Scenario: Update Existing Vessel Type</text><polygon fill="#181818" points="174.6135,438.6715,180.6135,441.0715,174.6135,443.4715,177.0135,441.0715" style="stroke:#181818;stroke-width:0.6;"/><line style="stroke:#181818;stroke-width:1.2;" x1="57.3832" x2="178.2135" y1="441.0715" y2="441.0715"/><text fill="#000000" font-family="sans-serif" font-size="7.8" lengthAdjust="spacing" textLength="14.6479" x="61.5832" y="429.0398">PUT</text><text fill="#000000" font-family="sans-serif" font-size="7.8" lengthAdjust="spacing" textLength="2.468" x="76.2311" y="429.0398">&#160;</text><text fill="#000000" font-family="sans-serif" font-size="7.8" lengthAdjust="spacing" textLength="75.1626" x="78.699" y="429.0398">/api/vesseltype/{id}</text><text fill="#000000" font-family="sans-serif" font-size="7.8" lengthAdjust="spacing" textLength="83.7586" x="61.5832" y="438.2262">(UpdateVesselType(id,</text><text fill="#000000" font-family="sans-serif" font-size="7.8" lengthAdjust="spacing" textLength="2.468" x="145.3418" y="438.2262">&#160;</text><text fill="#000000" font-family="sans-serif" font-size="7.8" lengthAdjust="spacing" textLength="17.6909" x="147.8098" y="438.2262">dto))</text><polygon fill="#181818" points="301.0269,456.2578,307.0269,458.6578,301.0269,461.0578,303.4269,458.6578" style="stroke:#181818;stroke-width:0.6;"/><line style="stroke:#181818;stroke-width:1.2;" x1="187.8135" x2="304.6269" y1="458.6578" y2="458.6578"/><text fill="#000000" font-family="sans-serif" font-size="7.8" lengthAdjust="spacing" textLength="109.0134" x="192.0135" y="455.8125">UpdateVesselTypeAsync(dto)</text><polygon fill="#181818" points="403.0336,473.8441,409.0336,476.2441,403.0336,478.6441,405.4336,476.2441" style="stroke:#181818;stroke-width:0.6;"/><line style="stroke:#181818;stroke-width:1.2;" x1="314.2269" x2="406.6336" y1="476.2441" y2="476.2441"/><text fill="#000000" font-family="sans-serif" font-size="7.8" lengthAdjust="spacing" textLength="39.8303" x="318.4269" y="473.3988">delegation</text><polygon fill="#181818" points="656.1146,491.4305,662.1146,493.8305,656.1146,496.2305,658.5146,493.8305" style="stroke:#181818;stroke-width:0.6;"/><line style="stroke:#181818;stroke-width:1.2;" x1="416.2336" x2="659.7146" y1="493.8305" y2="493.8305"/><text fill="#000000" font-family="sans-serif" font-size="7.8" lengthAdjust="spacing" textLength="105.3762" x="420.4336" y="490.9852">GetByIdAsync(VesselTypeId)</text><polygon fill="#181818" points="763.5105,509.0168,769.5105,511.4168,763.5105,513.8168,765.9105,511.4168" style="stroke:#181818;stroke-width:0.6;"/><line style="stroke:#181818;stroke-width:1.2;" x1="669.3146" x2="767.1105" y1="511.4168" y2="511.4168"/><text fill="#000000" font-family="sans-serif" font-size="7.8" lengthAdjust="spacing" textLength="21.3624" x="673.5146" y="508.5715">query</text><text fill="#000000" font-family="sans-serif" font-size="7.8" lengthAdjust="spacing" textLength="2.468" x="694.8771" y="508.5715">&#160;</text><text fill="#000000" font-family="sans-serif" font-size="7.8" lengthAdjust="spacing" textLength="33.9803" x="697.345" y="508.5715">database</text><polygon fill="#181818" points="675.9146,526.6031,669.9146,529.0031,675.9146,531.4031,673.5146,529.0031" style="stroke:#181818;stroke-width:0.6;"/><line style="stroke:#181818;stroke-width:1.2;stroke-dasharray:2.0,2.0;" x1="672.3146" x2="773.1105" y1="529.0031" y2="529.0031"/><text fill="#000000" font-family="sans-serif" font-size="7.8" lengthAdjust="spacing" textLength="42.2602" x="679.5146" y="526.1578">VesselType</text><text fill="#000000" font-family="sans-serif" font-size="7.8" lengthAdjust="spacing" textLength="2.468" x="721.7748" y="526.1578">&#160;</text><text fill="#000000" font-family="sans-serif" font-size="7.8" lengthAdjust="spacing" textLength="21.351" x="724.2428" y="526.1578">entity</text><polygon fill="#181818" points="422.8336,544.1895,416.8336,546.5895,422.8336,548.9895,420.4336,546.5895" style="stroke:#181818;stroke-width:0.6;"/><line style="stroke:#181818;stroke-width:1.2;stroke-dasharray:2.0,2.0;" x1="419.2336" x2="665.7146" y1="546.5895" y2="546.5895"/><text fill="#000000" font-family="sans-serif" font-size="7.8" lengthAdjust="spacing" textLength="42.2602" x="426.4336" y="543.7441">VesselType</text><text fill="#000000" font-family="sans-serif" font-size="7.8" lengthAdjust="spacing" textLength="2.468" x="468.6937" y="543.7441">&#160;</text><text fill="#000000" font-family="sans-serif" font-size="7.8" lengthAdjust="spacing" textLength="21.351" x="471.1617" y="543.7441">entity</text><path d="M418.8,557.3895 L418.8,566.3895 A3,3 0 0 0 421.8,569.3895 L579,569.3895 A3,3 0 0 0 582,566.3895 L582,560.3895 L576,554.3895 L421.8,554.3895 A3,3 0 0 0 418.8,557.3895 " fill="#FEFFDD" style="stroke:#181818;stroke-width:0.3;"/><path d="M576,554.3895 L576,558.8895 A1.5,1.5 0 0 0 577.5,560.3895 L582,560.3895 L576,554.3895 " fill="#FEFFDD" style="stroke:#181818;stroke-width:0.3;"/><text fill="#000000" font-family="sans-serif" font-size="7.8" lengthAdjust="spacing" textLength="150.7937" x="422.4" y="564.9305">Checks existence and name uniqueness</text><polygon fill="#181818" points="656.1146,582.9621,662.1146,585.3621,656.1146,587.7621,658.5146,585.3621" style="stroke:#181818;stroke-width:0.6;"/><line style="stroke:#181818;stroke-width:1.2;" x1="416.2336" x2="659.7146" y1="585.3621" y2="585.3621"/><text fill="#000000" font-family="sans-serif" font-size="7.8" lengthAdjust="spacing" textLength="134.4586" x="420.4336" y="582.5168">GetByNameAsync(VesselTypeName)</text><polygon fill="#181818" points="763.5105,600.5484,769.5105,602.9484,763.5105,605.3484,765.9105,602.9484" style="stroke:#181818;stroke-width:0.6;"/><line style="stroke:#181818;stroke-width:1.2;" x1="669.3146" x2="767.1105" y1="602.9484" y2="602.9484"/><text fill="#000000" font-family="sans-serif" font-size="7.8" lengthAdjust="spacing" textLength="21.7356" x="673.5146" y="600.1031">check</text><text fill="#000000" font-family="sans-serif" font-size="7.8" lengthAdjust="spacing" textLength="2.468" x="695.2503" y="600.1031">&#160;</text><text fill="#000000" font-family="sans-serif" font-size="7.8" lengthAdjust="spacing" textLength="38.7105" x="697.7183" y="600.1031">duplicates</text><polygon fill="#181818" points="675.9146,618.1348,669.9146,620.5348,675.9146,622.9348,673.5146,620.5348" style="stroke:#181818;stroke-width:0.6;"/><line style="stroke:#181818;stroke-width:1.2;stroke-dasharray:2.0,2.0;" x1="672.3146" x2="773.1105" y1="620.5348" y2="620.5348"/><text fill="#000000" font-family="sans-serif" font-size="7.8" lengthAdjust="spacing" textLength="86.9959" x="679.5146" y="617.6895">Optional&lt;VesselType&gt;</text><polygon fill="#181818" points="422.8336,635.7211,416.8336,638.1211,422.8336,640.5211,420.4336,638.1211" style="stroke:#181818;stroke-width:0.6;"/><line style="stroke:#181818;stroke-width:1.2;stroke-dasharray:2.0,2.0;" x1="419.2336" x2="665.7146" y1="638.1211" y2="638.1211"/><text fill="#000000" font-family="sans-serif" font-size="7.8" lengthAdjust="spacing" textLength="86.9959" x="426.4336" y="635.2758">Optional&lt;VesselType&gt;</text><polygon fill="#181818" points="572.0271,662.4938,578.0271,664.8938,572.0271,667.2937,574.4271,664.8938" style="stroke:#181818;stroke-width:0.6;"/><line style="stroke:#181818;stroke-width:1.2;" x1="416.2336" x2="575.6271" y1="664.8938" y2="664.8938"/><text fill="#000000" font-family="sans-serif" font-size="7.8" lengthAdjust="spacing" textLength="66.2238" x="420.4336" y="652.8621">UpdateName(new</text><text fill="#000000" font-family="sans-serif" font-size="7.8" lengthAdjust="spacing" textLength="108.3507" x="420.4336" y="662.0484">VesselTypeName(dto.Name))</text><polygon fill="#181818" points="422.8336,670.8938,416.8336,673.2937,422.8336,675.6938,420.4336,673.2937" style="stroke:#181818;stroke-width:0.6;"/><line style="stroke:#181818;stroke-width:1.2;stroke-dasharray:2.0,2.0;" x1="419.2336" x2="581.6271" y1="673.2937" y2="673.2937"/><polygon fill="#181818" points="575.0271,697.6664,581.0271,700.0664,575.0271,702.4664,577.4271,700.0664" style="stroke:#181818;stroke-width:0.6;"/><line style="stroke:#181818;stroke-width:1.2;" x1="416.2336" x2="578.6271" y1="700.0664" y2="700.0664"/><text fill="#000000" font-family="sans-serif" font-size="7.8" lengthAdjust="spacing" textLength="87.8452" x="420.4336" y="688.0348">UpdateDescription(new</text><text fill="#000000" font-family="sans-serif" font-size="7.8" lengthAdjust="spacing" textLength="151.5935" x="420.4336" y="697.2211">VesselTypeDescription(dto.Description))</text><polygon fill="#181818" points="575.0271,724.4391,581.0271,726.8391,575.0271,729.2391,577.4271,726.8391" style="stroke:#181818;stroke-width:0.6;"/><line style="stroke:#181818;stroke-width:1.2;" x1="416.2336" x2="578.6271" y1="726.8391" y2="726.8391"/><text fill="#000000" font-family="sans-serif" font-size="7.8" lengthAdjust="spacing" textLength="76.6898" x="420.4336" y="714.8074">UpdateCapacity(new</text><text fill="#000000" font-family="sans-serif" font-size="7.8" lengthAdjust="spacing" textLength="129.2827" x="420.4336" y="723.9938">VesselTypeCapacity(dto.Capacity))</text><polygon fill="#181818" points="575.0271,751.2117,581.0271,753.6117,575.0271,756.0117,577.4271,753.6117" style="stroke:#181818;stroke-width:0.6;"/><line style="stroke:#181818;stroke-width:1.2;" x1="416.2336" x2="578.6271" y1="753.6117" y2="753.6117"/><text fill="#000000" font-family="sans-serif" font-size="7.8" lengthAdjust="spacing" textLength="132.1163" x="420.4336" y="741.5801">UpdateOperationalConstraints(new</text><text fill="#000000" font-family="sans-serif" font-size="7.8" lengthAdjust="spacing" textLength="101.678" x="420.4336" y="750.7664">VesselTypeDimensions(...))</text><polygon fill="#181818" points="656.1146,768.798,662.1146,771.198,656.1146,773.598,658.5146,771.198" style="stroke:#181818;stroke-width:0.6;"/><line style="stroke:#181818;stroke-width:1.2;" x1="416.2336" x2="659.7146" y1="771.198" y2="771.198"/><text fill="#000000" font-family="sans-serif" font-size="7.8" lengthAdjust="spacing" textLength="95.3329" x="420.4336" y="768.3527">UpdateAsync(vesselType)</text><polygon fill="#181818" points="763.5105,786.3844,769.5105,788.7844,763.5105,791.1844,765.9105,788.7844" style="stroke:#181818;stroke-width:0.6;"/><line style="stroke:#181818;stroke-width:1.2;" x1="669.3146" x2="767.1105" y1="788.7844" y2="788.7844"/><text fill="#000000" font-family="sans-serif" font-size="7.8" lengthAdjust="spacing" textLength="25.5709" x="673.5146" y="785.9391">persist</text><text fill="#000000" font-family="sans-serif" font-size="7.8" lengthAdjust="spacing" textLength="2.468" x="699.0855" y="785.9391">&#160;</text><text fill="#000000" font-family="sans-serif" font-size="7.8" lengthAdjust="spacing" textLength="31.1391" x="701.5535" y="785.9391">updated</text><text fill="#000000" font-family="sans-serif" font-size="7.8" lengthAdjust="spacing" textLength="2.468" x="732.6926" y="785.9391">&#160;</text><text fill="#000000" font-family="sans-serif" font-size="7.8" lengthAdjust="spacing" textLength="21.351" x="735.1605" y="785.9391">entity</text><polygon fill="#181818" points="675.9146,803.9707,669.9146,806.3707,675.9146,808.7707,673.5146,806.3707" style="stroke:#181818;stroke-width:0.6;"/><line style="stroke:#181818;stroke-width:1.2;stroke-dasharray:2.0,2.0;" x1="672.3146" x2="773.1105" y1="806.3707" y2="806.3707"/><text fill="#000000" font-family="sans-serif" font-size="7.8" lengthAdjust="spacing" textLength="31.1391" x="679.5146" y="803.5254">updated</text><text fill="#000000" font-family="sans-serif" font-size="7.8" lengthAdjust="spacing" textLength="2.468" x="710.6537" y="803.5254">&#160;</text><text fill="#000000" font-family="sans-serif" font-size="7.8" lengthAdjust="spacing" textLength="21.351" x="713.1217" y="803.5254">entity</text><polygon fill="#181818" points="422.8336,821.557,416.8336,823.957,422.8336,826.357,420.4336,823.957" style="stroke:#181818;stroke-width:0.6;"/><line style="stroke:#181818;stroke-width:1.2;stroke-dasharray:2.0,2.0;" x1="419.2336" x2="665.7146" y1="823.957" y2="823.957"/><text fill="#000000" font-family="sans-serif" font-size="7.8" lengthAdjust="spacing" textLength="31.1391" x="426.4336" y="821.1117">updated</text><text fill="#000000" font-family="sans-serif" font-size="7.8" lengthAdjust="spacing" textLength="2.468" x="457.5727" y="821.1117">&#160;</text><text fill="#000000" font-family="sans-serif" font-size="7.8" lengthAdjust="spacing" textLength="21.351" x="460.0406" y="821.1117">entity</text><polygon fill="#181818" points="853.6849,839.1434,859.6849,841.5434,853.6849,843.9434,856.0849,841.5434" style="stroke:#181818;stroke-width:0.6;"/><line style="stroke:#181818;stroke-width:1.2;" x1="416.2336" x2="857.2849" y1="841.5434" y2="841.5434"/><text fill="#000000" font-family="sans-serif" font-size="7.8" lengthAdjust="spacing" textLength="15.9352" x="420.4336" y="838.698">Map</text><text fill="#000000" font-family="sans-serif" font-size="7.8" lengthAdjust="spacing" textLength="2.468" x="436.3688" y="838.698">&#160;</text><text fill="#000000" font-family="sans-serif" font-size="7.8" lengthAdjust="spacing" textLength="21.351" x="438.8367" y="838.698">entity</text><text fill="#000000" font-family="sans-serif" font-size="7.8" lengthAdjust="spacing" textLength="2.468" x="460.1877" y="838.698">&#160;</text><text fill="#000000" font-family="sans-serif" font-size="7.8" lengthAdjust="spacing" textLength="7.8" x="462.6557" y="838.698">&#8594;</text><text fill="#000000" font-family="sans-serif" font-size="7.8" lengthAdjust="spacing" textLength="2.468" x="470.4557" y="838.698">&#160;</text><text fill="#000000" font-family="sans-serif" font-size="7.8" lengthAdjust="spacing" textLength="55.8111" x="472.9236" y="838.698">VesselTypeDto</text><polygon fill="#181818" points="422.8336,856.7297,416.8336,859.1297,422.8336,861.5297,420.4336,859.1297" style="stroke:#181818;stroke-width:0.6;"/><line style="stroke:#181818;stroke-width:1.2;stroke-dasharray:2.0,2.0;" x1="419.2336" x2="863.2849" y1="859.1297" y2="859.1297"/><text fill="#000000" font-family="sans-serif" font-size="7.8" lengthAdjust="spacing" textLength="55.8111" x="426.4336" y="856.2844">VesselTypeDto</text><polygon fill="#181818" points="320.8269,874.316,314.8269,876.716,320.8269,879.116,318.4269,876.716" style="stroke:#181818;stroke-width:0.6;"/><line style="stroke:#181818;stroke-width:1.2;stroke-dasharray:2.0,2.0;" x1="317.2269" x2="412.6336" y1="876.716" y2="876.716"/><text fill="#000000" font-family="sans-serif" font-size="7.8" lengthAdjust="spacing" textLength="23.3276" x="324.4269" y="873.8707">return</text><text fill="#000000" font-family="sans-serif" font-size="7.8" lengthAdjust="spacing" textLength="2.468" x="347.7545" y="873.8707">&#160;</text><text fill="#000000" font-family="sans-serif" font-size="7.8" lengthAdjust="spacing" textLength="55.8111" x="350.2225" y="873.8707">VesselTypeDto</text><polygon fill="#181818" points="194.4135,891.9023,188.4135,894.3023,194.4135,896.7023,192.0135,894.3023" style="stroke:#181818;stroke-width:0.6;"/><line style="stroke:#181818;stroke-width:1.2;stroke-dasharray:2.0,2.0;" x1="190.8135" x2="310.6269" y1="894.3023" y2="894.3023"/><text fill="#000000" font-family="sans-serif" font-size="7.8" lengthAdjust="spacing" textLength="55.8111" x="198.0135" y="891.457">VesselTypeDto</text><polygon fill="#181818" points="63.9832,909.4887,57.9832,911.8887,63.9832,914.2887,61.5832,911.8887" style="stroke:#181818;stroke-width:0.6;"/><line style="stroke:#181818;stroke-width:1.2;stroke-dasharray:2.0,2.0;" x1="60.3832" x2="184.2135" y1="911.8887" y2="911.8887"/><text fill="#000000" font-family="sans-serif" font-size="7.8" lengthAdjust="spacing" textLength="14.7964" x="67.5832" y="909.0434">200</text><text fill="#000000" font-family="sans-serif" font-size="7.8" lengthAdjust="spacing" textLength="2.468" x="82.3796" y="909.0434">&#160;</text><text fill="#000000" font-family="sans-serif" font-size="7.8" lengthAdjust="spacing" textLength="11.1516" x="84.8476" y="909.0434">OK</text><text fill="#000000" font-family="sans-serif" font-size="7.8" lengthAdjust="spacing" textLength="2.468" x="95.9991" y="909.0434">&#160;</text><text fill="#000000" font-family="sans-serif" font-size="7.8" lengthAdjust="spacing" textLength="60.8842" x="98.4671" y="909.0434">(VesselTypeDto)</text><line style="stroke:#181818;stroke-width:1.2;" x1="57.3832" x2="82.5832" y1="938.6613" y2="938.6613"/><line style="stroke:#181818;stroke-width:1.2;" x1="82.5832" x2="82.5832" y1="938.6613" y2="946.4613"/><line style="stroke:#181818;stroke-width:1.2;" x1="57.9832" x2="82.5832" y1="946.4613" y2="946.4613"/><polygon fill="#181818" points="63.9832,944.0613,57.9832,946.4613,63.9832,948.8613,61.5832,946.4613" style="stroke:#181818;stroke-width:0.6;"/><text fill="#000000" font-family="sans-serif" font-size="7.8" lengthAdjust="spacing" textLength="42.2602" x="61.5832" y="926.6297">VesselType</text><text fill="#000000" font-family="sans-serif" font-size="7.8" lengthAdjust="spacing" textLength="2.468" x="103.8434" y="926.6297">&#160;</text><text fill="#000000" font-family="sans-serif" font-size="7.8" lengthAdjust="spacing" textLength="31.1391" x="106.3113" y="926.6297">updated</text><text fill="#000000" font-family="sans-serif" font-size="7.8" lengthAdjust="spacing" textLength="47.8664" x="61.5832" y="935.816">successfully!</text><!--SRC=[xLLDJnin4BtlhvXoQK1921oZ2Yc5gegg4jH0JroCFKaiDjwjxGJIgjV-WFx4_fAElL_U3Kj2rTug9C2xxxqPpxwPiTB623TJEEtJpn0-CiNc29_H68pXUfEYWSu56ZbNXr74k4qq75mbsi9ePHU9bdO3azbCSjG7m0oCn5AgA6NQIYvJfYmS33CnftMUAAkJECx1rR7E65UCAUerYNluE3-qoeVWNLWFUgSiNQ0r-2TC4oFfofiilZkt2ZR0szWAUc4JZw6_KMJkfI8SMuB1BojK74TQ9m_N2ydl5L7WD83ePAK4JxH23IU3uCMIFIu9JD_EoAy8fuF14y9NGJgaWpgM2gCeUWszNW-c71NJCe6J8PnhP1Q1mIK-X6Pmm6XEMQGbl0Gte57alG2zi-0xmn2k9jDhE6QfF5vxi2NihUfa8bMDEi8cXuVESNBjr0ElH84UgHUsW2AJIcHaDefxfKgeT5798urAGc2CSsPbeYfAmOW2HcOTE3eYJXMmdsNGaQ8BYYsnItg6QvawmUwjuYnbd7XT-f8FfWjtR4E_hKHjWXHpM-OXUhNyL5bb_psaCfRHfuq4DkbXjjwwn1u9aTK4FIOiYpTiXYD2ZayfCMciCm_4oLpoYk3n6Jm84AHcs1f5c5SOeNQdvqXPNk5Tg6l03QeKial0hny_eTPSLPBkuF1jyTpx89Xlo39KtLiQxKghTkwshPhERwMMbgmvc-XP1msfdKzoRmler6GEGvsmHyhcApI28lDSogmufwUpLHnlNaMenFOie9LmamhlgaSoWbJpdUFW6NphJBZP6Wd7twJuJdCXKmlcWckjFvaDJQ5_E1kAPdYFzkrcd7TS5NaiTlOTpMkz0KgOtJ63BsYwh2LUsdNRhBpjL4B_QpbVM4Xc1PVcx0BvlG5yB6O3KyBFErehqkqQacwlo2K1cpLnptPMXRkm85PfB3cXpAwwJFpOPV6RAixPNgNPHTmUIlciBcpchjEfZsh_YEpMzrVTPzhlcEcDa1VLecb43j-u188pvT6kU9ulguPS-TXf5OTdXIQqHbXMKMfFOpMJoffcbdA9oX38TFhzFkazvPzCBpFFkgJkkyPWvUcYyFiE-pJG-nYddV9_Z_azDe39Xx-nmef2Rw-mtm00]--></g></svg>