<svg xmlns="http://www.w3.org/2000/svg" xmlns:xlink="http://www.w3.org/1999/xlink" contentStyleType="text/css" height="304px" preserveAspectRatio="none" style="width:794px;height:304px;background:#FFFFFF;" version="1.1" viewBox="0 0 794 304" width="794px" zoomAndPan="magnify"><defs/><g><rect fill="#FFFFFF" height="89.3979" style="stroke:#000000;stroke-width:1.0;" width="10" x="325.248" y="114.814"/><rect fill="#FFFFFF" height="29.7993" style="stroke:#000000;stroke-width:1.0;" width="10" x="718.8965" y="144.6133"/><line style="stroke:#000000;stroke-width:1.0;" x1="87" x2="87" y1="83.0146" y2="222.2119"/><line style="stroke:#000000;stroke-width:1.0;" x1="330.0859" x2="330.0859" y1="83.0146" y2="222.2119"/><line style="stroke:#000000;stroke-width:1.0;" x1="723.8594" x2="723.8594" y1="83.0146" y2="222.2119"/><text fill="#000000" font-family="Verdana" font-size="14" lengthAdjust="spacing" textLength="149.5088" x="10" y="80.0752">Port Authority Officer</text><ellipse cx="87.7544" cy="14" fill="#FFFFFF" rx="8" ry="8" style="stroke:#000000;stroke-width:1.0;"/><path d="M87.7544,22 L87.7544,49 M74.7544,30 L100.7544,30 M87.7544,49 L74.7544,64 M87.7544,49 L100.7544,64 " fill="none" style="stroke:#000000;stroke-width:1.0;"/><text fill="#000000" font-family="Verdana" font-size="14" lengthAdjust="spacing" textLength="149.5088" x="10" y="235.2871">Port Authority Officer</text><ellipse cx="87.7544" cy="247.2266" fill="#FFFFFF" rx="8" ry="8" style="stroke:#000000;stroke-width:1.0;"/><path d="M87.7544,255.2266 L87.7544,282.2266 M74.7544,263.2266 L100.7544,263.2266 M87.7544,282.2266 L74.7544,297.2266 M87.7544,282.2266 L100.7544,297.2266 " fill="none" style="stroke:#000000;stroke-width:1.0;"/><rect fill="#FFFFFF" height="48.0293" rx="2.5" ry="2.5" style="stroke:#000000;stroke-width:1.0;" width="114.3242" x="273.0859" y="33.9854"/><text fill="#000000" font-family="Verdana" font-size="14" lengthAdjust="spacing" textLength="100.3242" x="280.0859" y="55.0605">User Interface</text><text fill="#000000" font-family="Verdana" font-size="14" lengthAdjust="spacing" textLength="28.8545" x="315.8208" y="72.0752">(UI)</text><rect fill="#FFFFFF" height="48.0293" rx="2.5" ry="2.5" style="stroke:#000000;stroke-width:1.0;" width="114.3242" x="273.0859" y="221.2119"/><text fill="#000000" font-family="Verdana" font-size="14" lengthAdjust="spacing" textLength="100.3242" x="280.0859" y="242.2871">User Interface</text><text fill="#000000" font-family="Verdana" font-size="14" lengthAdjust="spacing" textLength="28.8545" x="315.8208" y="259.3018">(UI)</text><rect fill="#FFFFFF" height="48.0293" rx="2.5" ry="2.5" style="stroke:#000000;stroke-width:1.0;" width="130.0742" x="658.8594" y="33.9854"/><text fill="#000000" font-family="Verdana" font-size="14" lengthAdjust="spacing" textLength="116.0742" x="665.8594" y="55.0605">Backend Service</text><text fill="#000000" font-family="Verdana" font-size="14" lengthAdjust="spacing" textLength="98.6904" x="674.5513" y="72.0752">(Port System)</text><rect fill="#FFFFFF" height="48.0293" rx="2.5" ry="2.5" style="stroke:#000000;stroke-width:1.0;" width="130.0742" x="658.8594" y="221.2119"/><text fill="#000000" font-family="Verdana" font-size="14" lengthAdjust="spacing" textLength="116.0742" x="665.8594" y="242.2871">Backend Service</text><text fill="#000000" font-family="Verdana" font-size="14" lengthAdjust="spacing" textLength="98.6904" x="674.5513" y="259.3018">(Port System)</text><rect fill="#FFFFFF" height="89.3979" style="stroke:#000000;stroke-width:1.0;" width="10" x="325.248" y="114.814"/><rect fill="#FFFFFF" height="29.7993" style="stroke:#000000;stroke-width:1.0;" width="10" x="718.8965" y="144.6133"/><polygon fill="#000000" points="313.248,110.814,323.248,114.814,313.248,118.814,317.248,114.814" style="stroke:#000000;stroke-width:1.0;"/><line style="stroke:#000000;stroke-width:1.0;" x1="87.7544" x2="319.248" y1="114.814" y2="114.814"/><text fill="#000000" font-family="Verdana" font-size="13" font-weight="bold" lengthAdjust="spacing" textLength="9.2422" x="94.7544" y="110.0845">1</text><text fill="#000000" font-family="Verdana" font-size="13" lengthAdjust="spacing" textLength="205.2515" x="107.9966" y="110.0845">1: create or update vessel type</text><polygon fill="#000000" points="706.8965,140.6133,716.8965,144.6133,706.8965,148.6133,710.8965,144.6133" style="stroke:#000000;stroke-width:1.0;"/><line style="stroke:#000000;stroke-width:1.0;" x1="335.248" x2="712.8965" y1="144.6133" y2="144.6133"/><text fill="#000000" font-family="Verdana" font-size="13" font-weight="bold" lengthAdjust="spacing" textLength="9.2422" x="342.248" y="139.8838">2</text><text fill="#000000" font-family="Verdana" font-size="13" lengthAdjust="spacing" textLength="351.4063" x="355.4902" y="139.8838">1.1: Request (CreateVesselType / UpdateVesselType)</text><polygon fill="#000000" points="346.248,170.4126,336.248,174.4126,346.248,178.4126,342.248,174.4126" style="stroke:#000000;stroke-width:1.0;"/><line style="stroke:#000000;stroke-width:1.0;stroke-dasharray:2.0,2.0;" x1="340.248" x2="722.8965" y1="174.4126" y2="174.4126"/><text fill="#000000" font-family="Verdana" font-size="13" font-weight="bold" lengthAdjust="spacing" textLength="9.2422" x="352.248" y="169.6831">3</text><text fill="#000000" font-family="Verdana" font-size="13" lengthAdjust="spacing" textLength="206.4639" x="365.4902" y="169.6831">1.2: Response (VesselTypeDto)</text><polygon fill="#000000" points="98.7544,200.2119,88.7544,204.2119,98.7544,208.2119,94.7544,204.2119" style="stroke:#000000;stroke-width:1.0;"/><line style="stroke:#000000;stroke-width:1.0;stroke-dasharray:2.0,2.0;" x1="92.7544" x2="329.248" y1="204.2119" y2="204.2119"/><text fill="#000000" font-family="Verdana" font-size="13" font-weight="bold" lengthAdjust="spacing" textLength="9.2422" x="104.7544" y="199.4824">4</text><text fill="#000000" font-family="Verdana" font-size="13" lengthAdjust="spacing" textLength="165.6611" x="117.9966" y="199.4824">1.3: Display confirmation</text><!--SRC=[PP6nJiCm48PtFyMHAHbQ16mPa80kcOeeOM8npaMrQ6ptV8cKj-Ti6W9YiqxtVVz_yXKVSK089ssTqYDxDmuVI4ffmvwWUFR4y33oqPFb6VPzRmrI0JekRnKqiJKsQCTGj1496iT8lJRuxigsgV9ss_nTVDJc4rq71wJ9viqSTPWZu_2DN5QKkYJ1vbuqKCDD3OPGCu9K74ENNXF6Y2VWEM3gRgSqb50115lIXDqA_OBd4ID3-PGrRvbz5HIkeSs-TLIjkgNGOjly5DhU9caCtaM4SeLtx2lLuJz3QYNmSbWotDMmir4-OWRZNMzfq6oz-qtBELy0]--></g></svg>