<svg xmlns="http://www.w3.org/2000/svg" xmlns:xlink="http://www.w3.org/1999/xlink" contentStyleType="text/css" height="1675px" preserveAspectRatio="none" style="width:1365px;height:1675px;background:#FFFFFF;" version="1.1" viewBox="0 0 1365 1675" width="1365px" zoomAndPan="magnify"><title>US 2.2.3: Register and Update Vessel Records (Design)</title><defs/><g><text fill="#000000" font-family="sans-serif" font-size="14" font-weight="bold" lengthAdjust="spacing" textLength="391.1318" x="488.4587" y="28.5352">US 2.2.3: Register and Update Vessel Records (Design)</text><rect fill="#FFFFFF" height="610.1426" style="stroke:#181818;stroke-width:1.0;" width="10" x="296.541" y="189.9082"/><rect fill="#FFFFFF" height="608.832" style="stroke:#181818;stroke-width:1.0;" width="10" x="296.541" y="918.293"/><rect fill="#FFFFFF" height="551.5215" style="stroke:#181818;stroke-width:1.0;" width="10" x="476.793" y="219.2188"/><rect fill="#FFFFFF" height="550.2109" style="stroke:#181818;stroke-width:1.0;" width="10" x="476.793" y="947.6035"/><rect fill="#FFFFFF" height="492.9004" style="stroke:#181818;stroke-width:1.0;" width="10" x="616.3672" y="248.5293"/><rect fill="#FFFFFF" height="491.5898" style="stroke:#181818;stroke-width:1.0;" width="10" x="616.3672" y="976.9141"/><rect fill="#FFFFFF" height="19.3105" style="stroke:#181818;stroke-width:1.0;" width="10" x="876.4155" y="516.9453"/><rect fill="#FFFFFF" height="103.2422" style="stroke:#181818;stroke-width:1.0;" width="10" x="983.7832" y="277.8398"/><rect fill="#FFFFFF" height="87.9316" style="stroke:#181818;stroke-width:1.0;" width="10" x="983.7832" y="565.5664"/><rect fill="#FFFFFF" height="87.9316" style="stroke:#181818;stroke-width:1.0;" width="10" x="983.7832" y="1006.2246"/><rect fill="#FFFFFF" height="87.9316" style="stroke:#181818;stroke-width:1.0;" width="10" x="983.7832" y="1292.6406"/><rect fill="#FFFFFF" height="29.3105" style="stroke:#181818;stroke-width:1.0;" width="10" x="1185.8394" y="322.4609"/><rect fill="#FFFFFF" height="29.3105" style="stroke:#181818;stroke-width:1.0;" width="10" x="1185.8394" y="594.877"/><rect fill="#FFFFFF" height="29.3105" style="stroke:#181818;stroke-width:1.0;" width="10" x="1185.8394" y="1035.5352"/><rect fill="#FFFFFF" height="29.3105" style="stroke:#181818;stroke-width:1.0;" width="10" x="1185.8394" y="1321.9512"/><rect fill="#FFFFFF" height="29.3105" style="stroke:#181818;stroke-width:1.0;" width="10" x="1303.3516" y="682.8086"/><rect fill="#FFFFFF" height="29.3105" style="stroke:#181818;stroke-width:1.0;" width="10" x="1303.3516" y="1409.8828"/><rect fill="none" height="714.3848" rx="5" ry="5" style="stroke:#000000;stroke-width:1.5;" width="1349.0493" x="10" y="135.9766"/><rect fill="none" height="713.0742" rx="5" ry="5" style="stroke:#000000;stroke-width:1.5;" width="1349.0493" x="10" y="864.3613"/><line style="stroke:#181818;stroke-width:0.5;stroke-dasharray:5.0,5.0;" x1="95" x2="95" y1="118.9766" y2="1594.4355"/><line style="stroke:#181818;stroke-width:0.5;stroke-dasharray:5.0,5.0;" x1="300.709" x2="300.709" y1="118.9766" y2="1594.4355"/><line style="stroke:#181818;stroke-width:0.5;stroke-dasharray:5.0,5.0;" x1="481.5737" x2="481.5737" y1="118.9766" y2="1594.4355"/><line style="stroke:#181818;stroke-width:0.5;stroke-dasharray:5.0,5.0;" x1="620.9497" x2="620.9497" y1="118.9766" y2="1594.4355"/><line style="stroke:#181818;stroke-width:0.5;stroke-dasharray:5.0,5.0;" x1="880.6641" x2="880.6641" y1="502.6348" y2="1594.4355"/><line style="stroke:#181818;stroke-width:0.5;stroke-dasharray:5.0,5.0;" x1="988.167" x2="988.167" y1="118.9766" y2="1594.4355"/><line style="stroke:#181818;stroke-width:0.5;stroke-dasharray:5.0,5.0;" x1="1190.0249" x2="1190.0249" y1="118.9766" y2="1594.4355"/><line style="stroke:#181818;stroke-width:0.5;stroke-dasharray:5.0,5.0;" x1="1307.6538" x2="1307.6538" y1="118.9766" y2="1594.4355"/><text fill="#000000" font-family="sans-serif" font-size="14" lengthAdjust="spacing" text-decoration="underline" textLength="145.2773" x="20" y="116.0234">Port Authority Officer</text><ellipse cx="95.6387" cy="50.9883" fill="#E2E2F0" rx="8" ry="8" style="stroke:#181818;stroke-width:0.5;"/><path d="M95.6387,58.9883 L95.6387,85.9883 M82.6387,66.9883 L108.6387,66.9883 M95.6387,85.9883 L82.6387,100.9883 M95.6387,85.9883 L108.6387,100.9883 " fill="none" style="stroke:#181818;stroke-width:0.5;"/><text fill="#000000" font-family="sans-serif" font-size="14" lengthAdjust="spacing" text-decoration="underline" textLength="145.2773" x="20" y="1606.9707">Port Authority Officer</text><ellipse cx="95.6387" cy="1618.4238" fill="#E2E2F0" rx="8" ry="8" style="stroke:#181818;stroke-width:0.5;"/><path d="M95.6387,1626.4238 L95.6387,1653.4238 M82.6387,1634.4238 L108.6387,1634.4238 M95.6387,1653.4238 L82.6387,1668.4238 M95.6387,1653.4238 L108.6387,1668.4238 " fill="none" style="stroke:#181818;stroke-width:0.5;"/><rect fill="#E2E2F0" height="30.4883" rx="2.5" ry="2.5" style="stroke:#181818;stroke-width:0.5;" width="129.6641" x="236.709" y="87.4883"/><text fill="#000000" font-family="sans-serif" font-size="14" lengthAdjust="spacing" text-decoration="underline" textLength="115.6641" x="243.709" y="108.0234">:VesselController</text><rect fill="#E2E2F0" height="30.4883" rx="2.5" ry="2.5" style="stroke:#181818;stroke-width:0.5;" width="129.6641" x="236.709" y="1593.4355"/><text fill="#000000" font-family="sans-serif" font-size="14" lengthAdjust="spacing" text-decoration="underline" textLength="115.6641" x="243.709" y="1613.9707">:VesselController</text><rect fill="#E2E2F0" height="30.4883" rx="2.5" ry="2.5" style="stroke:#181818;stroke-width:0.5;" width="108.4385" x="427.5737" y="87.4883"/><text fill="#000000" font-family="sans-serif" font-size="14" lengthAdjust="spacing" text-decoration="underline" textLength="94.4385" x="434.5737" y="108.0234">IVesselService</text><rect fill="#E2E2F0" height="30.4883" rx="2.5" ry="2.5" style="stroke:#181818;stroke-width:0.5;" width="108.4385" x="427.5737" y="1593.4355"/><text fill="#000000" font-family="sans-serif" font-size="14" lengthAdjust="spacing" text-decoration="underline" textLength="94.4385" x="434.5737" y="1613.9707">IVesselService</text><rect fill="#E2E2F0" height="30.4883" rx="2.5" ry="2.5" style="stroke:#181818;stroke-width:0.5;" width="108.835" x="566.9497" y="87.4883"/><text fill="#000000" font-family="sans-serif" font-size="14" lengthAdjust="spacing" text-decoration="underline" textLength="94.835" x="573.9497" y="108.0234">:VesselService</text><rect fill="#E2E2F0" height="30.4883" rx="2.5" ry="2.5" style="stroke:#181818;stroke-width:0.5;" width="108.835" x="566.9497" y="1593.4355"/><text fill="#000000" font-family="sans-serif" font-size="14" lengthAdjust="spacing" text-decoration="underline" textLength="94.835" x="573.9497" y="1613.9707">:VesselService</text><rect fill="#E2E2F0" height="30.4883" rx="2.5" ry="2.5" style="stroke:#181818;stroke-width:0.5;" width="61.5029" x="850.6641" y="1593.4355"/><text fill="#000000" font-family="sans-serif" font-size="14" lengthAdjust="spacing" text-decoration="underline" textLength="47.5029" x="857.6641" y="1613.9707">:Vessel</text><rect fill="#E2E2F0" height="30.4883" rx="2.5" ry="2.5" style="stroke:#181818;stroke-width:0.5;" width="133.2324" x="922.167" y="87.4883"/><text fill="#000000" font-family="sans-serif" font-size="14" lengthAdjust="spacing" text-decoration="underline" textLength="119.2324" x="929.167" y="108.0234">IVesselRepository</text><rect fill="#E2E2F0" height="30.4883" rx="2.5" ry="2.5" style="stroke:#181818;stroke-width:0.5;" width="133.2324" x="922.167" y="1593.4355"/><text fill="#000000" font-family="sans-serif" font-size="14" lengthAdjust="spacing" text-decoration="underline" textLength="119.2324" x="929.167" y="1613.9707">IVesselRepository</text><rect fill="#E2E2F0" height="30.4883" rx="2.5" ry="2.5" style="stroke:#181818;stroke-width:0.5;" width="133.6289" x="1124.0249" y="87.4883"/><text fill="#000000" font-family="sans-serif" font-size="14" lengthAdjust="spacing" text-decoration="underline" textLength="119.6289" x="1131.0249" y="108.0234">:VesselRepository</text><rect fill="#E2E2F0" height="30.4883" rx="2.5" ry="2.5" style="stroke:#181818;stroke-width:0.5;" width="133.6289" x="1124.0249" y="1593.4355"/><text fill="#000000" font-family="sans-serif" font-size="14" lengthAdjust="spacing" text-decoration="underline" textLength="119.6289" x="1131.0249" y="1613.9707">:VesselRepository</text><rect fill="#E2E2F0" height="30.4883" rx="2.5" ry="2.5" style="stroke:#181818;stroke-width:0.5;" width="81.3955" x="1267.6538" y="87.4883"/><text fill="#000000" font-family="sans-serif" font-size="14" lengthAdjust="spacing" text-decoration="underline" textLength="67.3955" x="1274.6538" y="108.0234">VesselDto</text><rect fill="#E2E2F0" height="30.4883" rx="2.5" ry="2.5" style="stroke:#181818;stroke-width:0.5;" width="81.3955" x="1267.6538" y="1593.4355"/><text fill="#000000" font-family="sans-serif" font-size="14" lengthAdjust="spacing" text-decoration="underline" textLength="67.3955" x="1274.6538" y="1613.9707">VesselDto</text><rect fill="#FFFFFF" height="610.1426" style="stroke:#181818;stroke-width:1.0;" width="10" x="296.541" y="189.9082"/><rect fill="#FFFFFF" height="608.832" style="stroke:#181818;stroke-width:1.0;" width="10" x="296.541" y="918.293"/><rect fill="#FFFFFF" height="551.5215" style="stroke:#181818;stroke-width:1.0;" width="10" x="476.793" y="219.2188"/><rect fill="#FFFFFF" height="550.2109" style="stroke:#181818;stroke-width:1.0;" width="10" x="476.793" y="947.6035"/><rect fill="#FFFFFF" height="492.9004" style="stroke:#181818;stroke-width:1.0;" width="10" x="616.3672" y="248.5293"/><rect fill="#FFFFFF" height="491.5898" style="stroke:#181818;stroke-width:1.0;" width="10" x="616.3672" y="976.9141"/><rect fill="#FFFFFF" height="19.3105" style="stroke:#181818;stroke-width:1.0;" width="10" x="876.4155" y="516.9453"/><rect fill="#FFFFFF" height="103.2422" style="stroke:#181818;stroke-width:1.0;" width="10" x="983.7832" y="277.8398"/><rect fill="#FFFFFF" height="87.9316" style="stroke:#181818;stroke-width:1.0;" width="10" x="983.7832" y="565.5664"/><rect fill="#FFFFFF" height="87.9316" style="stroke:#181818;stroke-width:1.0;" width="10" x="983.7832" y="1006.2246"/><rect fill="#FFFFFF" height="87.9316" style="stroke:#181818;stroke-width:1.0;" width="10" x="983.7832" y="1292.6406"/><rect fill="#FFFFFF" height="29.3105" style="stroke:#181818;stroke-width:1.0;" width="10" x="1185.8394" y="322.4609"/><rect fill="#FFFFFF" height="29.3105" style="stroke:#181818;stroke-width:1.0;" width="10" x="1185.8394" y="594.877"/><rect fill="#FFFFFF" height="29.3105" style="stroke:#181818;stroke-width:1.0;" width="10" x="1185.8394" y="1035.5352"/><rect fill="#FFFFFF" height="29.3105" style="stroke:#181818;stroke-width:1.0;" width="10" x="1185.8394" y="1321.9512"/><rect fill="#FFFFFF" height="29.3105" style="stroke:#181818;stroke-width:1.0;" width="10" x="1303.3516" y="682.8086"/><rect fill="#FFFFFF" height="29.3105" style="stroke:#181818;stroke-width:1.0;" width="10" x="1303.3516" y="1409.8828"/><path d="M15,135.9766 L255.2559,135.9766 L255.2559,143.2871 L245.2559,153.2871 L10,153.2871 L10,140.9766 A5,5 0 0 1 15,135.9766 " fill="#EEEEEE" style="stroke:#000000;stroke-width:1.5;"/><rect fill="none" height="714.3848" rx="5" ry="5" style="stroke:#000000;stroke-width:1.5;" width="1349.0493" x="10" y="135.9766"/><text fill="#000000" font-family="sans-serif" font-size="13" font-weight="bold" lengthAdjust="spacing" textLength="200.2559" x="25" y="149.5449">Scenario: Register New Vessel</text><polygon fill="#181818" points="284.541,185.9082,294.541,189.9082,284.541,193.9082,288.541,189.9082" style="stroke:#181818;stroke-width:1.0;"/><line style="stroke:#181818;stroke-width:2.0;" x1="95.6387" x2="290.541" y1="189.9082" y2="189.9082"/><text fill="#000000" font-family="sans-serif" font-size="13" lengthAdjust="spacing" textLength="32.5063" x="102.6387" y="169.8555">POST</text><text fill="#000000" font-family="sans-serif" font-size="13" lengthAdjust="spacing" textLength="4.1133" x="135.145" y="169.8555">&#160;</text><text fill="#000000" font-family="sans-serif" font-size="13" lengthAdjust="spacing" textLength="70.9795" x="139.2583" y="169.8555">/api/vessel</text><text fill="#000000" font-family="sans-serif" font-size="13" lengthAdjust="spacing" textLength="118.7773" x="102.6387" y="185.166">(CreateVessel(dto))</text><polygon fill="#181818" points="464.793,215.2188,474.793,219.2188,464.793,223.2188,468.793,219.2188" style="stroke:#181818;stroke-width:1.0;"/><line style="stroke:#181818;stroke-width:2.0;" x1="306.541" x2="470.793" y1="219.2188" y2="219.2188"/><text fill="#000000" font-family="sans-serif" font-size="13" lengthAdjust="spacing" textLength="147.437" x="313.541" y="214.4766">CreateVesselAsync(dto)</text><polygon fill="#181818" points="604.3672,244.5293,614.3672,248.5293,604.3672,252.5293,608.3672,248.5293" style="stroke:#181818;stroke-width:1.0;"/><line style="stroke:#181818;stroke-width:2.0;" x1="486.793" x2="610.3672" y1="248.5293" y2="248.5293"/><text fill="#000000" font-family="sans-serif" font-size="13" lengthAdjust="spacing" textLength="66.3838" x="493.793" y="243.7871">delegation</text><polygon fill="#181818" points="971.7832,273.8398,981.7832,277.8398,971.7832,281.8398,975.7832,277.8398" style="stroke:#181818;stroke-width:1.0;"/><line style="stroke:#181818;stroke-width:2.0;" x1="626.3672" x2="977.7832" y1="277.8398" y2="277.8398"/><text fill="#000000" font-family="sans-serif" font-size="13" lengthAdjust="spacing" textLength="204.769" x="633.3672" y="273.0977">GetByImoAsync(dto.ImoNumber)</text><polygon fill="#181818" points="1173.8394,318.4609,1183.8394,322.4609,1173.8394,326.4609,1177.8394,322.4609" style="stroke:#181818;stroke-width:1.0;"/><line style="stroke:#181818;stroke-width:2.0;" x1="993.7832" x2="1179.8394" y1="322.4609" y2="322.4609"/><text fill="#000000" font-family="sans-serif" font-size="13" lengthAdjust="spacing" textLength="35.604" x="1000.7832" y="302.4082">query</text><text fill="#000000" font-family="sans-serif" font-size="13" lengthAdjust="spacing" textLength="4.1133" x="1036.3872" y="302.4082">&#160;</text><text fill="#000000" font-family="sans-serif" font-size="13" lengthAdjust="spacing" textLength="56.6338" x="1040.5005" y="302.4082">database</text><text fill="#000000" font-family="sans-serif" font-size="13" lengthAdjust="spacing" textLength="4.1133" x="1097.1343" y="302.4082">&#160;</text><text fill="#000000" font-family="sans-serif" font-size="13" lengthAdjust="spacing" textLength="18.0845" x="1101.2476" y="302.4082">for</text><text fill="#000000" font-family="sans-serif" font-size="13" lengthAdjust="spacing" textLength="4.1133" x="1119.332" y="302.4082">&#160;</text><text fill="#000000" font-family="sans-serif" font-size="13" lengthAdjust="spacing" textLength="50.394" x="1123.4453" y="302.4082">existing</text><text fill="#000000" font-family="sans-serif" font-size="13" lengthAdjust="spacing" textLength="25.0415" x="1000.7832" y="317.7188">IMO</text><polygon fill="#181818" points="1004.7832,347.7715,994.7832,351.7715,1004.7832,355.7715,1000.7832,351.7715" style="stroke:#181818;stroke-width:1.0;"/><line style="stroke:#181818;stroke-width:2.0;stroke-dasharray:2.0,2.0;" x1="998.7832" x2="1189.8394" y1="351.7715" y2="351.7715"/><text fill="#000000" font-family="sans-serif" font-size="13" lengthAdjust="spacing" textLength="114.5562" x="1010.7832" y="347.0293">Optional&lt;Vessel&gt;</text><polygon fill="#181818" points="637.3672,377.082,627.3672,381.082,637.3672,385.082,633.3672,381.082" style="stroke:#181818;stroke-width:1.0;"/><line style="stroke:#181818;stroke-width:2.0;stroke-dasharray:2.0,2.0;" x1="631.3672" x2="987.7832" y1="381.082" y2="381.082"/><text fill="#000000" font-family="sans-serif" font-size="13" lengthAdjust="spacing" textLength="114.5562" x="643.3672" y="376.3398">Optional&lt;Vessel&gt;</text><path d="M631,399.082 L631,460.082 A5,5 0 0 0 636,465.082 L844,465.082 A5,5 0 0 0 849,460.082 L849,404.082 L839,394.082 L636,394.082 A5,5 0 0 0 631,399.082 " fill="#FEFFDD" style="stroke:#181818;stroke-width:0.5;"/><path d="M839,394.082 L839,401.582 A2.5,2.5 0 0 0 841.5,404.082 L849,404.082 L839,394.082 " fill="#FEFFDD" style="stroke:#181818;stroke-width:0.5;"/><text fill="#000000" font-family="sans-serif" font-size="13" lengthAdjust="spacing" textLength="61.4009" x="637" y="411.6504">Validates:</text><text fill="#000000" font-family="sans-serif" font-size="13" lengthAdjust="spacing" textLength="138.0107" x="637" y="426.9609">&#8226; Unique IMO number</text><text fill="#000000" font-family="sans-serif" font-size="13" lengthAdjust="spacing" textLength="123.792" x="637" y="442.2715">&#8226; Vessel type exists</text><text fill="#000000" font-family="sans-serif" font-size="13" lengthAdjust="spacing" textLength="197.7993" x="637" y="457.582">&#8226; IMO format (7 digits + check)</text><polygon fill="#181818" points="838.6641,502.9453,848.6641,506.9453,838.6641,510.9453,842.6641,506.9453" style="stroke:#181818;stroke-width:1.0;"/><line style="stroke:#181818;stroke-width:2.0;" x1="626.3672" x2="844.6641" y1="506.9453" y2="506.9453"/><text fill="#000000" font-family="sans-serif" font-size="13" lengthAdjust="spacing" textLength="117.1714" x="633.3672" y="486.8926">Vessel.Create(imo,</text><text fill="#000000" font-family="sans-serif" font-size="13" lengthAdjust="spacing" textLength="4.1133" x="750.5386" y="486.8926">&#160;</text><text fill="#000000" font-family="sans-serif" font-size="13" lengthAdjust="spacing" textLength="38.7397" x="754.6519" y="486.8926">name,</text><text fill="#000000" font-family="sans-serif" font-size="13" lengthAdjust="spacing" textLength="43.1196" x="633.3672" y="502.2031">typeId,</text><text fill="#000000" font-family="sans-serif" font-size="13" lengthAdjust="spacing" textLength="4.1133" x="676.4868" y="502.2031">&#160;</text><text fill="#000000" font-family="sans-serif" font-size="13" lengthAdjust="spacing" textLength="58.3032" x="680.6001" y="502.2031">operator)</text><rect fill="#E2E2F0" height="30.4883" rx="2.5" ry="2.5" style="stroke:#181818;stroke-width:0.5;" width="61.5029" x="850.6641" y="473.457"/><text fill="#000000" font-family="sans-serif" font-size="14" lengthAdjust="spacing" text-decoration="underline" textLength="47.5029" x="857.6641" y="493.9922">:Vessel</text><polygon fill="#181818" points="637.3672,532.2559,627.3672,536.2559,637.3672,540.2559,633.3672,536.2559" style="stroke:#181818;stroke-width:1.0;"/><line style="stroke:#181818;stroke-width:2.0;stroke-dasharray:2.0,2.0;" x1="631.3672" x2="880.4155" y1="536.2559" y2="536.2559"/><text fill="#000000" font-family="sans-serif" font-size="13" lengthAdjust="spacing" textLength="25.3271" x="643.3672" y="531.5137">new</text><text fill="#000000" font-family="sans-serif" font-size="13" lengthAdjust="spacing" textLength="4.1133" x="668.6943" y="531.5137">&#160;</text><text fill="#000000" font-family="sans-serif" font-size="13" lengthAdjust="spacing" textLength="39.9966" x="672.8076" y="531.5137">Vessel</text><text fill="#000000" font-family="sans-serif" font-size="13" lengthAdjust="spacing" textLength="4.1133" x="712.8042" y="531.5137">&#160;</text><text fill="#000000" font-family="sans-serif" font-size="13" lengthAdjust="spacing" textLength="52.4634" x="716.9175" y="531.5137">instance</text><polygon fill="#181818" points="971.7832,561.5664,981.7832,565.5664,971.7832,569.5664,975.7832,565.5664" style="stroke:#181818;stroke-width:1.0;"/><line style="stroke:#181818;stroke-width:2.0;" x1="626.3672" x2="977.7832" y1="565.5664" y2="565.5664"/><text fill="#000000" font-family="sans-serif" font-size="13" lengthAdjust="spacing" textLength="109.1289" x="633.3672" y="560.8242">AddAsync(vessel)</text><polygon fill="#181818" points="1173.8394,590.877,1183.8394,594.877,1173.8394,598.877,1177.8394,594.877" style="stroke:#181818;stroke-width:1.0;"/><line style="stroke:#181818;stroke-width:2.0;" x1="993.7832" x2="1179.8394" y1="594.877" y2="594.877"/><text fill="#000000" font-family="sans-serif" font-size="13" lengthAdjust="spacing" textLength="42.6182" x="1000.7832" y="590.1348">persist</text><text fill="#000000" font-family="sans-serif" font-size="13" lengthAdjust="spacing" textLength="4.1133" x="1043.4014" y="590.1348">&#160;</text><text fill="#000000" font-family="sans-serif" font-size="13" lengthAdjust="spacing" textLength="25.3271" x="1047.5146" y="590.1348">new</text><text fill="#000000" font-family="sans-serif" font-size="13" lengthAdjust="spacing" textLength="4.1133" x="1072.8418" y="590.1348">&#160;</text><text fill="#000000" font-family="sans-serif" font-size="13" lengthAdjust="spacing" textLength="35.585" x="1076.9551" y="590.1348">entity</text><polygon fill="#181818" points="1004.7832,620.1875,994.7832,624.1875,1004.7832,628.1875,1000.7832,624.1875" style="stroke:#181818;stroke-width:1.0;"/><line style="stroke:#181818;stroke-width:2.0;stroke-dasharray:2.0,2.0;" x1="998.7832" x2="1189.8394" y1="624.1875" y2="624.1875"/><text fill="#000000" font-family="sans-serif" font-size="13" lengthAdjust="spacing" textLength="39.9966" x="1010.7832" y="619.4453">Vessel</text><text fill="#000000" font-family="sans-serif" font-size="13" lengthAdjust="spacing" textLength="4.1133" x="1050.7798" y="619.4453">&#160;</text><text fill="#000000" font-family="sans-serif" font-size="13" lengthAdjust="spacing" textLength="35.9595" x="1054.8931" y="619.4453">saved</text><polygon fill="#181818" points="637.3672,649.498,627.3672,653.498,637.3672,657.498,633.3672,653.498" style="stroke:#181818;stroke-width:1.0;"/><line style="stroke:#181818;stroke-width:2.0;stroke-dasharray:2.0,2.0;" x1="631.3672" x2="987.7832" y1="653.498" y2="653.498"/><text fill="#000000" font-family="sans-serif" font-size="13" lengthAdjust="spacing" textLength="39.9966" x="643.3672" y="648.7559">Vessel</text><text fill="#000000" font-family="sans-serif" font-size="13" lengthAdjust="spacing" textLength="4.1133" x="683.3638" y="648.7559">&#160;</text><text fill="#000000" font-family="sans-serif" font-size="13" lengthAdjust="spacing" textLength="35.9595" x="687.4771" y="648.7559">saved</text><polygon fill="#181818" points="1291.3516,678.8086,1301.3516,682.8086,1291.3516,686.8086,1295.3516,682.8086" style="stroke:#181818;stroke-width:1.0;"/><line style="stroke:#181818;stroke-width:2.0;" x1="626.3672" x2="1297.3516" y1="682.8086" y2="682.8086"/><text fill="#000000" font-family="sans-serif" font-size="13" lengthAdjust="spacing" textLength="26.5586" x="633.3672" y="678.0664">Map</text><text fill="#000000" font-family="sans-serif" font-size="13" lengthAdjust="spacing" textLength="4.1133" x="659.9258" y="678.0664">&#160;</text><text fill="#000000" font-family="sans-serif" font-size="13" lengthAdjust="spacing" textLength="35.585" x="664.0391" y="678.0664">entity</text><text fill="#000000" font-family="sans-serif" font-size="13" lengthAdjust="spacing" textLength="4.1133" x="699.624" y="678.0664">&#160;</text><text fill="#000000" font-family="sans-serif" font-size="13" lengthAdjust="spacing" textLength="13" x="703.7373" y="678.0664">&#8594;</text><text fill="#000000" font-family="sans-serif" font-size="13" lengthAdjust="spacing" textLength="4.1133" x="716.7373" y="678.0664">&#160;</text><text fill="#000000" font-family="sans-serif" font-size="13" lengthAdjust="spacing" textLength="62.5815" x="720.8506" y="678.0664">VesselDto</text><polygon fill="#181818" points="637.3672,708.1191,627.3672,712.1191,637.3672,716.1191,633.3672,712.1191" style="stroke:#181818;stroke-width:1.0;"/><line style="stroke:#181818;stroke-width:2.0;stroke-dasharray:2.0,2.0;" x1="631.3672" x2="1307.3516" y1="712.1191" y2="712.1191"/><text fill="#000000" font-family="sans-serif" font-size="13" lengthAdjust="spacing" textLength="62.5815" x="643.3672" y="707.377">VesselDto</text><polygon fill="#181818" points="497.793,737.4297,487.793,741.4297,497.793,745.4297,493.793,741.4297" style="stroke:#181818;stroke-width:1.0;"/><line style="stroke:#181818;stroke-width:2.0;stroke-dasharray:2.0,2.0;" x1="491.793" x2="620.3672" y1="741.4297" y2="741.4297"/><text fill="#000000" font-family="sans-serif" font-size="13" lengthAdjust="spacing" textLength="38.8794" x="503.793" y="736.6875">return</text><text fill="#000000" font-family="sans-serif" font-size="13" lengthAdjust="spacing" textLength="4.1133" x="542.6724" y="736.6875">&#160;</text><text fill="#000000" font-family="sans-serif" font-size="13" lengthAdjust="spacing" textLength="62.5815" x="546.7856" y="736.6875">VesselDto</text><polygon fill="#181818" points="317.541,766.7402,307.541,770.7402,317.541,774.7402,313.541,770.7402" style="stroke:#181818;stroke-width:1.0;"/><line style="stroke:#181818;stroke-width:2.0;stroke-dasharray:2.0,2.0;" x1="311.541" x2="480.793" y1="770.7402" y2="770.7402"/><text fill="#000000" font-family="sans-serif" font-size="13" lengthAdjust="spacing" textLength="62.5815" x="323.541" y="765.998">VesselDto</text><polygon fill="#181818" points="106.6387,796.0508,96.6387,800.0508,106.6387,804.0508,102.6387,800.0508" style="stroke:#181818;stroke-width:1.0;"/><line style="stroke:#181818;stroke-width:2.0;stroke-dasharray:2.0,2.0;" x1="100.6387" x2="300.541" y1="800.0508" y2="800.0508"/><text fill="#000000" font-family="sans-serif" font-size="13" lengthAdjust="spacing" textLength="24.6606" x="112.6387" y="795.3086">201</text><text fill="#000000" font-family="sans-serif" font-size="13" lengthAdjust="spacing" textLength="4.1133" x="137.2993" y="795.3086">&#160;</text><text fill="#000000" font-family="sans-serif" font-size="13" lengthAdjust="spacing" textLength="49.0229" x="141.4126" y="795.3086">Created</text><text fill="#000000" font-family="sans-serif" font-size="13" lengthAdjust="spacing" textLength="4.1133" x="190.4355" y="795.3086">&#160;</text><text fill="#000000" font-family="sans-serif" font-size="13" lengthAdjust="spacing" textLength="71.0366" x="194.5488" y="795.3086">(VesselDto)</text><line style="stroke:#181818;stroke-width:2.0;" x1="95.6387" x2="137.6387" y1="829.3613" y2="829.3613"/><line style="stroke:#181818;stroke-width:2.0;" x1="137.6387" x2="137.6387" y1="829.3613" y2="842.3613"/><line style="stroke:#181818;stroke-width:2.0;" x1="96.6387" x2="137.6387" y1="842.3613" y2="842.3613"/><polygon fill="#181818" points="106.6387,838.3613,96.6387,842.3613,106.6387,846.3613,102.6387,842.3613" style="stroke:#181818;stroke-width:1.0;"/><text fill="#000000" font-family="sans-serif" font-size="13" lengthAdjust="spacing" textLength="39.9966" x="102.6387" y="824.6191">Vessel</text><text fill="#000000" font-family="sans-serif" font-size="13" lengthAdjust="spacing" textLength="4.1133" x="142.6353" y="824.6191">&#160;</text><text fill="#000000" font-family="sans-serif" font-size="13" lengthAdjust="spacing" textLength="63.9019" x="146.7485" y="824.6191">registered</text><text fill="#000000" font-family="sans-serif" font-size="13" lengthAdjust="spacing" textLength="4.1133" x="210.6504" y="824.6191">&#160;</text><text fill="#000000" font-family="sans-serif" font-size="13" lengthAdjust="spacing" textLength="79.7773" x="214.7637" y="824.6191">successfully!</text><path d="M15,864.3613 L271.8994,864.3613 L271.8994,871.6719 L261.8994,881.6719 L10,881.6719 L10,869.3613 A5,5 0 0 1 15,864.3613 " fill="#EEEEEE" style="stroke:#000000;stroke-width:1.5;"/><rect fill="none" height="713.0742" rx="5" ry="5" style="stroke:#000000;stroke-width:1.5;" width="1349.0493" x="10" y="864.3613"/><text fill="#000000" font-family="sans-serif" font-size="13" font-weight="bold" lengthAdjust="spacing" textLength="216.8994" x="25" y="877.9297">Scenario: Update Existing Vessel</text><polygon fill="#181818" points="284.541,914.293,294.541,918.293,284.541,922.293,288.541,918.293" style="stroke:#181818;stroke-width:1.0;"/><line style="stroke:#181818;stroke-width:2.0;" x1="95.6387" x2="290.541" y1="918.293" y2="918.293"/><text fill="#000000" font-family="sans-serif" font-size="13" lengthAdjust="spacing" textLength="24.4131" x="102.6387" y="898.2402">PUT</text><text fill="#000000" font-family="sans-serif" font-size="13" lengthAdjust="spacing" textLength="4.1133" x="127.0518" y="898.2402">&#160;</text><text fill="#000000" font-family="sans-serif" font-size="13" lengthAdjust="spacing" textLength="110.1318" x="131.165" y="898.2402">/api/vessel/{imo}</text><text fill="#000000" font-family="sans-serif" font-size="13" lengthAdjust="spacing" textLength="121.1006" x="102.6387" y="913.5508">(UpdateVessel(imo,</text><text fill="#000000" font-family="sans-serif" font-size="13" lengthAdjust="spacing" textLength="4.1133" x="223.7393" y="913.5508">&#160;</text><text fill="#000000" font-family="sans-serif" font-size="13" lengthAdjust="spacing" textLength="29.4849" x="227.8525" y="913.5508">dto))</text><polygon fill="#181818" points="464.793,943.6035,474.793,947.6035,464.793,951.6035,468.793,947.6035" style="stroke:#181818;stroke-width:1.0;"/><line style="stroke:#181818;stroke-width:2.0;" x1="306.541" x2="470.793" y1="947.6035" y2="947.6035"/><text fill="#000000" font-family="sans-serif" font-size="13" lengthAdjust="spacing" textLength="151.252" x="313.541" y="942.8613">UpdateVesselAsync(dto)</text><polygon fill="#181818" points="604.3672,972.9141,614.3672,976.9141,604.3672,980.9141,608.3672,976.9141" style="stroke:#181818;stroke-width:1.0;"/><line style="stroke:#181818;stroke-width:2.0;" x1="486.793" x2="610.3672" y1="976.9141" y2="976.9141"/><text fill="#000000" font-family="sans-serif" font-size="13" lengthAdjust="spacing" textLength="66.3838" x="493.793" y="972.1719">delegation</text><polygon fill="#181818" points="971.7832,1002.2246,981.7832,1006.2246,971.7832,1010.2246,975.7832,1006.2246" style="stroke:#181818;stroke-width:1.0;"/><line style="stroke:#181818;stroke-width:2.0;" x1="626.3672" x2="977.7832" y1="1006.2246" y2="1006.2246"/><text fill="#000000" font-family="sans-serif" font-size="13" lengthAdjust="spacing" textLength="204.769" x="633.3672" y="1001.4824">GetByImoAsync(dto.ImoNumber)</text><polygon fill="#181818" points="1173.8394,1031.5352,1183.8394,1035.5352,1173.8394,1039.5352,1177.8394,1035.5352" style="stroke:#181818;stroke-width:1.0;"/><line style="stroke:#181818;stroke-width:2.0;" x1="993.7832" x2="1179.8394" y1="1035.5352" y2="1035.5352"/><text fill="#000000" font-family="sans-serif" font-size="13" lengthAdjust="spacing" textLength="35.604" x="1000.7832" y="1030.793">query</text><text fill="#000000" font-family="sans-serif" font-size="13" lengthAdjust="spacing" textLength="4.1133" x="1036.3872" y="1030.793">&#160;</text><text fill="#000000" font-family="sans-serif" font-size="13" lengthAdjust="spacing" textLength="38.2256" x="1040.5005" y="1030.793">vessel</text><text fill="#000000" font-family="sans-serif" font-size="13" lengthAdjust="spacing" textLength="4.1133" x="1078.7261" y="1030.793">&#160;</text><text fill="#000000" font-family="sans-serif" font-size="13" lengthAdjust="spacing" textLength="14.9741" x="1082.8394" y="1030.793">by</text><text fill="#000000" font-family="sans-serif" font-size="13" lengthAdjust="spacing" textLength="4.1133" x="1097.8135" y="1030.793">&#160;</text><text fill="#000000" font-family="sans-serif" font-size="13" lengthAdjust="spacing" textLength="25.0415" x="1101.9268" y="1030.793">IMO</text><polygon fill="#181818" points="1004.7832,1060.8457,994.7832,1064.8457,1004.7832,1068.8457,1000.7832,1064.8457" style="stroke:#181818;stroke-width:1.0;"/><line style="stroke:#181818;stroke-width:2.0;stroke-dasharray:2.0,2.0;" x1="998.7832" x2="1189.8394" y1="1064.8457" y2="1064.8457"/><text fill="#000000" font-family="sans-serif" font-size="13" lengthAdjust="spacing" textLength="39.9966" x="1010.7832" y="1060.1035">Vessel</text><text fill="#000000" font-family="sans-serif" font-size="13" lengthAdjust="spacing" textLength="4.1133" x="1050.7798" y="1060.1035">&#160;</text><text fill="#000000" font-family="sans-serif" font-size="13" lengthAdjust="spacing" textLength="35.585" x="1054.8931" y="1060.1035">entity</text><polygon fill="#181818" points="637.3672,1090.1563,627.3672,1094.1563,637.3672,1098.1563,633.3672,1094.1563" style="stroke:#181818;stroke-width:1.0;"/><line style="stroke:#181818;stroke-width:2.0;stroke-dasharray:2.0,2.0;" x1="631.3672" x2="987.7832" y1="1094.1563" y2="1094.1563"/><text fill="#000000" font-family="sans-serif" font-size="13" lengthAdjust="spacing" textLength="39.9966" x="643.3672" y="1089.4141">Vessel</text><text fill="#000000" font-family="sans-serif" font-size="13" lengthAdjust="spacing" textLength="4.1133" x="683.3638" y="1089.4141">&#160;</text><text fill="#000000" font-family="sans-serif" font-size="13" lengthAdjust="spacing" textLength="35.585" x="687.4771" y="1089.4141">entity</text><path d="M631,1112.1563 L631,1173.1563 A5,5 0 0 0 636,1178.1563 L800,1178.1563 A5,5 0 0 0 805,1173.1563 L805,1117.1563 L795,1107.1563 L636,1107.1563 A5,5 0 0 0 631,1112.1563 " fill="#FEFFDD" style="stroke:#181818;stroke-width:0.5;"/><path d="M795,1107.1563 L795,1114.6563 A2.5,2.5 0 0 0 797.5,1117.1563 L805,1117.1563 L795,1107.1563 " fill="#FEFFDD" style="stroke:#181818;stroke-width:0.5;"/><text fill="#000000" font-family="sans-serif" font-size="13" lengthAdjust="spacing" textLength="61.4009" x="637" y="1124.7246">Validates:</text><text fill="#000000" font-family="sans-serif" font-size="13" lengthAdjust="spacing" textLength="92.5996" x="637" y="1140.0352">&#8226; Vessel exists</text><text fill="#000000" font-family="sans-serif" font-size="13" lengthAdjust="spacing" textLength="134.9639" x="637" y="1155.3457">&#8226; VesselTypeId exists</text><text fill="#000000" font-family="sans-serif" font-size="13" lengthAdjust="spacing" textLength="153.3784" x="637" y="1170.6563">&#8226; IMO format and match</text><polygon fill="#181818" points="869.4155,1200.709,879.4155,1204.709,869.4155,1208.709,873.4155,1204.709" style="stroke:#181818;stroke-width:1.0;"/><line style="stroke:#181818;stroke-width:2.0;" x1="626.3672" x2="875.4155" y1="1204.709" y2="1204.709"/><text fill="#000000" font-family="sans-serif" font-size="13" lengthAdjust="spacing" textLength="150.5791" x="633.3672" y="1199.9668">UpdateName(dto.Name)</text><polygon fill="#181818" points="869.4155,1230.0195,879.4155,1234.0195,869.4155,1238.0195,873.4155,1234.0195" style="stroke:#181818;stroke-width:1.0;"/><line style="stroke:#181818;stroke-width:2.0;" x1="626.3672" x2="875.4155" y1="1234.0195" y2="1234.0195"/><text fill="#000000" font-family="sans-serif" font-size="13" lengthAdjust="spacing" textLength="231.0483" x="633.3672" y="1229.2773">UpdateVesselType(dto.VesselTypeId)</text><polygon fill="#181818" points="869.4155,1259.3301,879.4155,1263.3301,869.4155,1267.3301,873.4155,1263.3301" style="stroke:#181818;stroke-width:1.0;"/><line style="stroke:#181818;stroke-width:2.0;" x1="626.3672" x2="875.4155" y1="1263.3301" y2="1263.3301"/><text fill="#000000" font-family="sans-serif" font-size="13" lengthAdjust="spacing" textLength="190.6328" x="633.3672" y="1258.5879">UpdateOperator(dto.Operator)</text><polygon fill="#181818" points="971.7832,1288.6406,981.7832,1292.6406,971.7832,1296.6406,975.7832,1292.6406" style="stroke:#181818;stroke-width:1.0;"/><line style="stroke:#181818;stroke-width:2.0;" x1="626.3672" x2="977.7832" y1="1292.6406" y2="1292.6406"/><text fill="#000000" font-family="sans-serif" font-size="13" lengthAdjust="spacing" textLength="128.4512" x="633.3672" y="1287.8984">UpdateAsync(vessel)</text><polygon fill="#181818" points="1173.8394,1317.9512,1183.8394,1321.9512,1173.8394,1325.9512,1177.8394,1321.9512" style="stroke:#181818;stroke-width:1.0;"/><line style="stroke:#181818;stroke-width:2.0;" x1="993.7832" x2="1179.8394" y1="1321.9512" y2="1321.9512"/><text fill="#000000" font-family="sans-serif" font-size="13" lengthAdjust="spacing" textLength="42.6182" x="1000.7832" y="1317.209">persist</text><text fill="#000000" font-family="sans-serif" font-size="13" lengthAdjust="spacing" textLength="4.1133" x="1043.4014" y="1317.209">&#160;</text><text fill="#000000" font-family="sans-serif" font-size="13" lengthAdjust="spacing" textLength="51.8984" x="1047.5146" y="1317.209">updated</text><text fill="#000000" font-family="sans-serif" font-size="13" lengthAdjust="spacing" textLength="4.1133" x="1099.4131" y="1317.209">&#160;</text><text fill="#000000" font-family="sans-serif" font-size="13" lengthAdjust="spacing" textLength="35.585" x="1103.5264" y="1317.209">entity</text><polygon fill="#181818" points="1004.7832,1347.2617,994.7832,1351.2617,1004.7832,1355.2617,1000.7832,1351.2617" style="stroke:#181818;stroke-width:1.0;"/><line style="stroke:#181818;stroke-width:2.0;stroke-dasharray:2.0,2.0;" x1="998.7832" x2="1189.8394" y1="1351.2617" y2="1351.2617"/><text fill="#000000" font-family="sans-serif" font-size="13" lengthAdjust="spacing" textLength="51.8984" x="1010.7832" y="1346.5195">updated</text><text fill="#000000" font-family="sans-serif" font-size="13" lengthAdjust="spacing" textLength="4.1133" x="1062.6816" y="1346.5195">&#160;</text><text fill="#000000" font-family="sans-serif" font-size="13" lengthAdjust="spacing" textLength="35.585" x="1066.7949" y="1346.5195">entity</text><polygon fill="#181818" points="637.3672,1376.5723,627.3672,1380.5723,637.3672,1384.5723,633.3672,1380.5723" style="stroke:#181818;stroke-width:1.0;"/><line style="stroke:#181818;stroke-width:2.0;stroke-dasharray:2.0,2.0;" x1="631.3672" x2="987.7832" y1="1380.5723" y2="1380.5723"/><text fill="#000000" font-family="sans-serif" font-size="13" lengthAdjust="spacing" textLength="51.8984" x="643.3672" y="1375.8301">updated</text><text fill="#000000" font-family="sans-serif" font-size="13" lengthAdjust="spacing" textLength="4.1133" x="695.2656" y="1375.8301">&#160;</text><text fill="#000000" font-family="sans-serif" font-size="13" lengthAdjust="spacing" textLength="35.585" x="699.3789" y="1375.8301">entity</text><polygon fill="#181818" points="1291.3516,1405.8828,1301.3516,1409.8828,1291.3516,1413.8828,1295.3516,1409.8828" style="stroke:#181818;stroke-width:1.0;"/><line style="stroke:#181818;stroke-width:2.0;" x1="626.3672" x2="1297.3516" y1="1409.8828" y2="1409.8828"/><text fill="#000000" font-family="sans-serif" font-size="13" lengthAdjust="spacing" textLength="26.5586" x="633.3672" y="1405.1406">Map</text><text fill="#000000" font-family="sans-serif" font-size="13" lengthAdjust="spacing" textLength="4.1133" x="659.9258" y="1405.1406">&#160;</text><text fill="#000000" font-family="sans-serif" font-size="13" lengthAdjust="spacing" textLength="35.585" x="664.0391" y="1405.1406">entity</text><text fill="#000000" font-family="sans-serif" font-size="13" lengthAdjust="spacing" textLength="4.1133" x="699.624" y="1405.1406">&#160;</text><text fill="#000000" font-family="sans-serif" font-size="13" lengthAdjust="spacing" textLength="13" x="703.7373" y="1405.1406">&#8594;</text><text fill="#000000" font-family="sans-serif" font-size="13" lengthAdjust="spacing" textLength="4.1133" x="716.7373" y="1405.1406">&#160;</text><text fill="#000000" font-family="sans-serif" font-size="13" lengthAdjust="spacing" textLength="62.5815" x="720.8506" y="1405.1406">VesselDto</text><polygon fill="#181818" points="637.3672,1435.1934,627.3672,1439.1934,637.3672,1443.1934,633.3672,1439.1934" style="stroke:#181818;stroke-width:1.0;"/><line style="stroke:#181818;stroke-width:2.0;stroke-dasharray:2.0,2.0;" x1="631.3672" x2="1307.3516" y1="1439.1934" y2="1439.1934"/><text fill="#000000" font-family="sans-serif" font-size="13" lengthAdjust="spacing" textLength="62.5815" x="643.3672" y="1434.4512">VesselDto</text><polygon fill="#181818" points="497.793,1464.5039,487.793,1468.5039,497.793,1472.5039,493.793,1468.5039" style="stroke:#181818;stroke-width:1.0;"/><line style="stroke:#181818;stroke-width:2.0;stroke-dasharray:2.0,2.0;" x1="491.793" x2="620.3672" y1="1468.5039" y2="1468.5039"/><text fill="#000000" font-family="sans-serif" font-size="13" lengthAdjust="spacing" textLength="38.8794" x="503.793" y="1463.7617">return</text><text fill="#000000" font-family="sans-serif" font-size="13" lengthAdjust="spacing" textLength="4.1133" x="542.6724" y="1463.7617">&#160;</text><text fill="#000000" font-family="sans-serif" font-size="13" lengthAdjust="spacing" textLength="62.5815" x="546.7856" y="1463.7617">VesselDto</text><polygon fill="#181818" points="317.541,1493.8145,307.541,1497.8145,317.541,1501.8145,313.541,1497.8145" style="stroke:#181818;stroke-width:1.0;"/><line style="stroke:#181818;stroke-width:2.0;stroke-dasharray:2.0,2.0;" x1="311.541" x2="480.793" y1="1497.8145" y2="1497.8145"/><text fill="#000000" font-family="sans-serif" font-size="13" lengthAdjust="spacing" textLength="62.5815" x="323.541" y="1493.0723">VesselDto</text><polygon fill="#181818" points="106.6387,1523.125,96.6387,1527.125,106.6387,1531.125,102.6387,1527.125" style="stroke:#181818;stroke-width:1.0;"/><line style="stroke:#181818;stroke-width:2.0;stroke-dasharray:2.0,2.0;" x1="100.6387" x2="300.541" y1="1527.125" y2="1527.125"/><text fill="#000000" font-family="sans-serif" font-size="13" lengthAdjust="spacing" textLength="24.6606" x="112.6387" y="1522.3828">200</text><text fill="#000000" font-family="sans-serif" font-size="13" lengthAdjust="spacing" textLength="4.1133" x="137.2993" y="1522.3828">&#160;</text><text fill="#000000" font-family="sans-serif" font-size="13" lengthAdjust="spacing" textLength="18.5859" x="141.4126" y="1522.3828">OK</text><text fill="#000000" font-family="sans-serif" font-size="13" lengthAdjust="spacing" textLength="4.1133" x="159.9985" y="1522.3828">&#160;</text><text fill="#000000" font-family="sans-serif" font-size="13" lengthAdjust="spacing" textLength="71.0366" x="164.1118" y="1522.3828">(VesselDto)</text><line style="stroke:#181818;stroke-width:2.0;" x1="95.6387" x2="137.6387" y1="1556.4355" y2="1556.4355"/><line style="stroke:#181818;stroke-width:2.0;" x1="137.6387" x2="137.6387" y1="1556.4355" y2="1569.4355"/><line style="stroke:#181818;stroke-width:2.0;" x1="96.6387" x2="137.6387" y1="1569.4355" y2="1569.4355"/><polygon fill="#181818" points="106.6387,1565.4355,96.6387,1569.4355,106.6387,1573.4355,102.6387,1569.4355" style="stroke:#181818;stroke-width:1.0;"/><text fill="#000000" font-family="sans-serif" font-size="13" lengthAdjust="spacing" textLength="39.9966" x="102.6387" y="1551.6934">Vessel</text><text fill="#000000" font-family="sans-serif" font-size="13" lengthAdjust="spacing" textLength="4.1133" x="142.6353" y="1551.6934">&#160;</text><text fill="#000000" font-family="sans-serif" font-size="13" lengthAdjust="spacing" textLength="51.8984" x="146.7485" y="1551.6934">updated</text><text fill="#000000" font-family="sans-serif" font-size="13" lengthAdjust="spacing" textLength="4.1133" x="198.647" y="1551.6934">&#160;</text><text fill="#000000" font-family="sans-serif" font-size="13" lengthAdjust="spacing" textLength="79.7773" x="202.7603" y="1551.6934">successfully!</text><!--SRC=[vLRBJXin5DtxAsxPDA4aGBge55L8550LLH34QzMDcRb9B2Rsr7Q0jAhKLJ-Wdz1Fuqjwn_RCE6G8ZwwghZAUEUVSQn_V0rRO3E7y57hTNlTj7qvmB8n53LocS9wdt29Se36OqQT4wTH0Qn-D6CisOponIiFQiT8MTcTsehImSnYEHY91lGRSbCyivzgAHEHSMbZhUy4z9QrMMHQWzN8HFV3eKzJN9EMWWx1eb8s1gt0ES20jjTnOy0HpPGHjSEvh5kj6eNl0PPo7xLlbljClO-PAICBmAHZyCaEPuAxMwkPi8f8hIN3eHH2jPZAbivTao_PMz67ARwS4vcCov2j2RskhGVWuQeLqK6T28cFiDNGw7JXDK78j56n7tX_XJMawOTYO6iWhP2EEiU0qT7OY9w4FnyFJCzZakTYyTiZFihMdaQwL9xPIgzhjuYQ9w-AkHRU0HJgaMffEch70hfdBnAdK8jNzg3Z4h-afPZZcLYXPKqe6YnZESi9_HFjXFfYggbIN5aUpwINgkAWptdE87BZaWPu3ZH6_v0PXHFE2jtHwGevXS3YiwOxjoL7fOLwqoRFtVhCxBCL5ng2YrFjRHV9TCgdeMOlnn88QLPk_u9ae9jxqsTsFtt0k1RLVj0dIxTQz3HV3pdFqMp7kTO6YtKsvXTOxICLOM0Dl89bWSjLcI6bIr5muNpzyiBvEFNlLhdUs9QPg0oIVueQhCqWtGEMeEGrPTE9XU8FCuXd8-WeBQIodGOYF8L2RtDvDKs-qlw-FEanz6Je5Ln6zx2EcXhuClyRqIOO-H0XcHfkWS27y8Sz3At3tynTK-LCtLYmAR5ETubjKnELLLM9n43NQcPRDlEKPl1yDZRHgTXV6dwXbmFGfvxP31AJGgaJQiKeS8r4orHhXI7M8Cb8oioIXbwDPbirV5HTsEIDx_V9Fua4vmojYiXcw8YdF5u9oynjDmNUAIwyJuj9DnaioCrRv9pBJdm9Spf-Iay66C7_FcAbbndCIiXIfOz2_ENEXzK0y5lzPqMyoMPcAfMD7b8Bk_8g7zWfWNTd1uqPMqOOXLnrfM8LiawUUyA9md3bg-iI0l8T-YfqFK_xRaDo2uQU_pSVoM9V3yGy0]--></g></svg>