<svg xmlns="http://www.w3.org/2000/svg" xmlns:xlink="http://www.w3.org/1999/xlink" contentStyleType="text/css" data-diagram-type="SEQUENCE" height="304px" preserveAspectRatio="none" style="width:743px;height:304px;background:#FFFFFF;" version="1.1" viewBox="0 0 743 304" width="743px" zoomAndPan="magnify"><defs/><g><g><title>User Interface</title><rect fill="#FFFFFF" height="89.3979" style="stroke:#000000;stroke-width:1;" width="10" x="300.4414" y="114.814"/></g><g><title>Backend Service</title><rect fill="#FFFFFF" height="29.7993" style="stroke:#000000;stroke-width:1;" width="10" x="667.4932" y="144.6133"/></g><g><title>Logistics Operator</title><rect fill="#000000" fill-opacity="0.00000" height="139.1973" width="8" x="72.7349" y="83.0146"/><line style="stroke:#000000;stroke-width:1;" x1="76" x2="76" y1="83.0146" y2="222.2119"/></g><g><title>User Interface</title><rect fill="#000000" fill-opacity="0.00000" height="139.1973" width="8" x="301.4414" y="83.0146"/><line style="stroke:#000000;stroke-width:1;" x1="305.2793" x2="305.2793" y1="83.0146" y2="222.2119"/></g><g><title>Backend Service</title><rect fill="#000000" fill-opacity="0.00000" height="139.1973" width="8" x="668.4932" y="83.0146"/><line style="stroke:#000000;stroke-width:1;" x1="672.4561" x2="672.4561" y1="83.0146" y2="222.2119"/></g><g class="participant participant-head" data-participant="Operator"><text fill="#000000" font-family="Verdana" font-size="14" lengthAdjust="spacing" textLength="127.4697" x="10" y="80.0752">Logistics Operator</text><ellipse cx="76.7349" cy="14" fill="#FFFFFF" rx="8" ry="8" style="stroke:#000000;stroke-width:1;"/><path d="M76.7349,22 L76.7349,49 M63.7349,30 L89.7349,30 M76.7349,49 L63.7349,64 M76.7349,49 L89.7349,64" fill="none" style="stroke:#000000;stroke-width:1;"/></g><g class="participant participant-tail" data-participant="Operator"><text fill="#000000" font-family="Verdana" font-size="14" lengthAdjust="spacing" textLength="127.4697" x="10" y="235.2871">Logistics Operator</text><ellipse cx="76.7349" cy="247.2266" fill="#FFFFFF" rx="8" ry="8" style="stroke:#000000;stroke-width:1;"/><path d="M76.7349,255.2266 L76.7349,282.2266 M63.7349,263.2266 L89.7349,263.2266 M76.7349,282.2266 L63.7349,297.2266 M76.7349,282.2266 L89.7349,297.2266" fill="none" style="stroke:#000000;stroke-width:1;"/></g><g class="participant participant-head" data-participant="UI"><rect fill="#FFFFFF" height="48.0293" rx="2.5" ry="2.5" style="stroke:#000000;stroke-width:1;" width="114.3242" x="248.2793" y="33.9854"/><text fill="#000000" font-family="Verdana" font-size="14" lengthAdjust="spacing" textLength="100.3242" x="255.2793" y="55.0605">User Interface</text><text fill="#000000" font-family="Verdana" font-size="14" lengthAdjust="spacing" textLength="28.8545" x="291.0142" y="72.0752">(UI)</text></g><g class="participant participant-tail" data-participant="UI"><rect fill="#FFFFFF" height="48.0293" rx="2.5" ry="2.5" style="stroke:#000000;stroke-width:1;" width="114.3242" x="248.2793" y="221.2119"/><text fill="#000000" font-family="Verdana" font-size="14" lengthAdjust="spacing" textLength="100.3242" x="255.2793" y="242.2871">User Interface</text><text fill="#000000" font-family="Verdana" font-size="14" lengthAdjust="spacing" textLength="28.8545" x="291.0142" y="259.3018">(UI)</text></g><g class="participant participant-head" data-participant="Backend"><rect fill="#FFFFFF" height="48.0293" rx="2.5" ry="2.5" style="stroke:#000000;stroke-width:1;" width="130.0742" x="607.4561" y="33.9854"/><text fill="#000000" font-family="Verdana" font-size="14" lengthAdjust="spacing" textLength="116.0742" x="614.4561" y="55.0605">Backend Service</text><text fill="#000000" font-family="Verdana" font-size="14" lengthAdjust="spacing" textLength="98.6904" x="623.1479" y="72.0752">(Port System)</text></g><g class="participant participant-tail" data-participant="Backend"><rect fill="#FFFFFF" height="48.0293" rx="2.5" ry="2.5" style="stroke:#000000;stroke-width:1;" width="130.0742" x="607.4561" y="221.2119"/><text fill="#000000" font-family="Verdana" font-size="14" lengthAdjust="spacing" textLength="116.0742" x="614.4561" y="242.2871">Backend Service</text><text fill="#000000" font-family="Verdana" font-size="14" lengthAdjust="spacing" textLength="98.6904" x="623.1479" y="259.3018">(Port System)</text></g><g><title>User Interface</title><rect fill="#FFFFFF" height="89.3979" style="stroke:#000000;stroke-width:1;" width="10" x="300.4414" y="114.814"/></g><g><title>Backend Service</title><rect fill="#FFFFFF" height="29.7993" style="stroke:#000000;stroke-width:1;" width="10" x="667.4932" y="144.6133"/></g><g class="message" data-participant-1="Operator" data-participant-2="UI"><polygon fill="#000000" points="288.4414,110.814,298.4414,114.814,288.4414,118.814,292.4414,114.814" style="stroke:#000000;stroke-width:1;"/><line style="stroke:#000000;stroke-width:1;" x1="76.7349" x2="294.4414" y1="114.814" y2="114.814"/><text fill="#000000" font-family="Verdana" font-size="13" font-weight="bold" lengthAdjust="spacing" textLength="9.2422" x="83.7349" y="110.0845">1</text><text fill="#000000" font-family="Verdana" font-size="13" lengthAdjust="spacing" textLength="191.4644" x="96.9771" y="110.0845">1: create or update Resource</text></g><g class="message" data-participant-1="UI" data-participant-2="Backend"><polygon fill="#000000" points="655.4932,140.6133,665.4932,144.6133,655.4932,148.6133,659.4932,144.6133" style="stroke:#000000;stroke-width:1;"/><line style="stroke:#000000;stroke-width:1;" x1="310.4414" x2="661.4932" y1="144.6133" y2="144.6133"/><text fill="#000000" font-family="Verdana" font-size="13" font-weight="bold" lengthAdjust="spacing" textLength="9.2422" x="317.4414" y="139.8838">2</text><text fill="#000000" font-family="Verdana" font-size="13" lengthAdjust="spacing" textLength="324.8096" x="330.6836" y="139.8838">1.1: Request (CreateResource / UpdateResource)</text></g><g class="message" data-participant-1="Backend" data-participant-2="UI"><polygon fill="#000000" points="321.4414,170.4126,311.4414,174.4126,321.4414,178.4126,317.4414,174.4126" style="stroke:#000000;stroke-width:1;"/><line style="stroke:#000000;stroke-width:1;stroke-dasharray:2,2;" x1="315.4414" x2="671.4932" y1="174.4126" y2="174.4126"/><text fill="#000000" font-family="Verdana" font-size="13" font-weight="bold" lengthAdjust="spacing" textLength="9.2422" x="327.4414" y="169.6831">3</text><text fill="#000000" font-family="Verdana" font-size="13" lengthAdjust="spacing" textLength="193.1655" x="340.6836" y="169.6831">1.2: Response (ResourceDto)</text></g><g class="message" data-participant-1="UI" data-participant-2="Operator"><polygon fill="#000000" points="87.7349,200.2119,77.7349,204.2119,87.7349,208.2119,83.7349,204.2119" style="stroke:#000000;stroke-width:1;"/><line style="stroke:#000000;stroke-width:1;stroke-dasharray:2,2;" x1="81.7349" x2="304.4414" y1="204.2119" y2="204.2119"/><text fill="#000000" font-family="Verdana" font-size="13" font-weight="bold" lengthAdjust="spacing" textLength="9.2422" x="93.7349" y="199.4824">4</text><text fill="#000000" font-family="Verdana" font-size="13" lengthAdjust="spacing" textLength="165.6611" x="106.9771" y="199.4824">1.3: Display confirmation</text></g><!--SRC=[PP0nJyCm48Lt_ueZKpAq2DWoC42NI4YWLjbO3kSA5iGsvtEb_dlE0RSWDllvVU_U-KBUQ2Q87-YymIp1v_c5s1Yq4XYQX_3gaZYRu34IeseDuFbY8hA-keXUe1aJCGnUYFTewTctuz0jzd7uQxn3-qv-WXtnmItEfy02ksCIch-H7uinTHIiRZK7UhZgmJAX4AYOurHEMqeXiwLIsnsAeYFLhKoTfU1QqIrzPae2xVsIKK6uX769ga9tZgfLQjBgr6HzNG9J33uHj1NTIEZCHF_uqaVHqq8buAQ7ZKlw_KUmmUyTpoWk-D-uRl85]--></g></svg>