<svg xmlns="http://www.w3.org/2000/svg" xmlns:xlink="http://www.w3.org/1999/xlink" contentStyleType="text/css" data-diagram-type="SEQUENCE" height="299.6px" preserveAspectRatio="none" style="width:433px;height:299px;background:#FFFFFF;" version="1.1" viewBox="0 0 433 299" width="434px" zoomAndPan="magnify"><title>US2.2.10: View the Status of Vessel Visit Notifications - System Sequence Diagram (SSD)</title><defs/><g><text fill="#000000" font-family="sans-serif" font-size="9.8" font-weight="bold" lengthAdjust="spacing" textLength="414.4472" x="7" y="21.0752">US2.2.10: View the Status of Vessel Visit Notifications - System Sequence Diagram (SSD)</text><g><title>Shipping Agent Representative</title><rect fill="#FFFFFF" height="68.0148" style="stroke:#FFFFFF;stroke-width:0.7;" width="7" x="96.3551" y="93.2695"/><line style="stroke:#181818;stroke-width:0.7;" x1="96.3551" x2="96.3551" y1="93.2695" y2="161.2844"/><line style="stroke:#181818;stroke-width:0.7;" x1="103.3551" x2="103.3551" y1="93.2695" y2="161.2844"/><line style="stroke:#181818;stroke-width:0.7;" x1="96.3551" x2="103.3551" y1="93.2695" y2="93.2695"/></g><g><title>Shipping Agent Representative</title><rect fill="#FFFFFF" height="38.2074" style="stroke:#FFFFFF;stroke-width:0.7;" width="7" x="96.3551" y="191.126"/><line style="stroke:#181818;stroke-width:0.7;" x1="96.3551" x2="96.3551" y1="191.126" y2="229.3334"/><line style="stroke:#181818;stroke-width:0.7;" x1="103.3551" x2="103.3551" y1="191.126" y2="229.3334"/><line style="stroke:#181818;stroke-width:0.7;" x1="96.3551" x2="103.3551" y1="229.3334" y2="229.3334"/></g><g><title>.System</title><rect fill="#FFFFFF" height="34.0074" style="stroke:#181818;stroke-width:0.7;" width="7" x="372.851" y="121.677"/></g><g><title>.System</title><rect fill="#FFFFFF" height="21.9037" style="stroke:#181818;stroke-width:0.7;" width="7" x="372.851" y="207.4297"/></g><g><title>Shipping Agent Representative</title><rect fill="#000000" fill-opacity="0.00000" height="75.0148" width="5.6" x="97.0551" y="86.2695"/><line style="stroke:#181818;stroke-width:0.35;stroke-dasharray:3.5,3.5;" x1="99.4983" x2="99.4983" y1="86.2695" y2="161.2844"/></g><line style="stroke:#181818;stroke-width:0.35;stroke-dasharray:0.7,2.8;" x1="99.4983" x2="99.4983" y1="161.2844" y2="191.126"/><g><title>Shipping Agent Representative</title><rect fill="#000000" fill-opacity="0.00000" height="50.8074" width="5.6" x="97.0551" y="191.126"/><line style="stroke:#181818;stroke-width:0.35;stroke-dasharray:3.5,3.5;" x1="99.4983" x2="99.4983" y1="191.126" y2="241.9334"/></g><g><title>.System</title><rect fill="#000000" fill-opacity="0.00000" height="75.0148" width="5.6" x="373.551" y="86.2695"/><line style="stroke:#181818;stroke-width:0.35;stroke-dasharray:3.5,3.5;" x1="376.1531" x2="376.1531" y1="86.2695" y2="161.2844"/></g><line style="stroke:#181818;stroke-width:0.35;stroke-dasharray:0.7,2.8;" x1="376.1531" x2="376.1531" y1="161.2844" y2="191.126"/><g><title>.System</title><rect fill="#000000" fill-opacity="0.00000" height="50.8074" width="5.6" x="373.551" y="191.126"/><line style="stroke:#181818;stroke-width:0.35;stroke-dasharray:3.5,3.5;" x1="376.1531" x2="376.1531" y1="191.126" y2="241.9334"/></g><g class="participant participant-head" data-participant="Agent"><text fill="#000000" font-family="sans-serif" font-size="9.8" lengthAdjust="spacing" textLength="135.1137" x="30.1983" y="83.81">Shipping Agent Representative</text><ellipse cx="99.8551" cy="37.1848" fill="#E3E3E3" rx="5.6" ry="5.6" style="stroke:#181818;stroke-width:0.35;"/><path d="M99.8551,42.7848 L99.8551,61.6848 M90.7551,48.3848 L108.9551,48.3848 M99.8551,61.6848 L90.7551,72.1848 M99.8551,61.6848 L108.9551,72.1848" fill="none" style="stroke:#181818;stroke-width:0.35;"/></g><g class="participant participant-tail" data-participant="Agent"><text fill="#000000" font-family="sans-serif" font-size="9.8" lengthAdjust="spacing" textLength="135.1137" x="30.1983" y="251.8086">Shipping Agent Representative</text><ellipse cx="99.8551" cy="260.2182" fill="#E3E3E3" rx="5.6" ry="5.6" style="stroke:#181818;stroke-width:0.35;"/><path d="M99.8551,265.8182 L99.8551,284.7182 M90.7551,271.4182 L108.9551,271.4182 M99.8551,284.7182 L90.7551,295.2182 M99.8551,284.7182 L108.9551,295.2182" fill="none" style="stroke:#181818;stroke-width:0.35;"/></g><g class="participant participant-head" data-participant="System"><rect fill="#E3E3E3" height="22.8348" rx="1.75" ry="1.75" style="stroke:#181818;stroke-width:0.35;" width="45.1958" x="353.7531" y="62.7348"/><text fill="#000000" font-family="sans-serif" font-size="9.8" lengthAdjust="spacing" textLength="35.3958" x="358.6531" y="78.21">:System</text></g><g class="participant participant-tail" data-participant="System"><rect fill="#E3E3E3" height="22.8348" rx="1.75" ry="1.75" style="stroke:#181818;stroke-width:0.35;" width="45.1958" x="353.7531" y="241.2334"/><text fill="#000000" font-family="sans-serif" font-size="9.8" lengthAdjust="spacing" textLength="35.3958" x="358.6531" y="256.7086">:System</text></g><g><title>Shipping Agent Representative</title><rect fill="#FFFFFF" height="68.0148" style="stroke:#FFFFFF;stroke-width:0.7;" width="7" x="96.3551" y="93.2695"/><line style="stroke:#181818;stroke-width:0.7;" x1="96.3551" x2="96.3551" y1="93.2695" y2="161.2844"/><line style="stroke:#181818;stroke-width:0.7;" x1="103.3551" x2="103.3551" y1="93.2695" y2="161.2844"/><line style="stroke:#181818;stroke-width:0.7;" x1="96.3551" x2="103.3551" y1="93.2695" y2="93.2695"/></g><g><title>Shipping Agent Representative</title><rect fill="#FFFFFF" height="38.2074" style="stroke:#FFFFFF;stroke-width:0.7;" width="7" x="96.3551" y="191.126"/><line style="stroke:#181818;stroke-width:0.7;" x1="96.3551" x2="96.3551" y1="191.126" y2="229.3334"/><line style="stroke:#181818;stroke-width:0.7;" x1="103.3551" x2="103.3551" y1="191.126" y2="229.3334"/><line style="stroke:#181818;stroke-width:0.7;" x1="96.3551" x2="103.3551" y1="229.3334" y2="229.3334"/></g><g><title>.System</title><rect fill="#FFFFFF" height="34.0074" style="stroke:#181818;stroke-width:0.7;" width="7" x="372.851" y="121.677"/></g><g><title>.System</title><rect fill="#FFFFFF" height="21.9037" style="stroke:#181818;stroke-width:0.7;" width="7" x="372.851" y="207.4297"/></g><g class="message" data-participant-1="Agent" data-participant-2="System"><polygon fill="#181818" points="364.451,118.877,371.451,121.677,364.451,124.477,367.251,121.677" style="stroke:#181818;stroke-width:0.7;"/><line style="stroke:#181818;stroke-width:0.7;" x1="103.3551" x2="368.651" y1="121.677" y2="121.677"/><text fill="#000000" font-family="sans-serif" font-size="9.1" font-weight="bold" lengthAdjust="spacing" textLength="5.061" x="108.2551" y="111.9412">1</text><text fill="#000000" font-family="sans-serif" font-size="9.1" lengthAdjust="spacing" textLength="171.958" x="116.1161" y="105.8894">requests list of all Vessel Visit Notifications</text><text fill="#000000" font-family="sans-serif" font-size="9.1" lengthAdjust="spacing" textLength="161.8494" x="116.1161" y="117.9931">(submitted by self or same organization)</text></g><g class="message" data-participant-1="System" data-participant-2="Agent"><polygon fill="#181818" points="111.0551,152.8844,104.0551,155.6844,111.0551,158.4844,108.2551,155.6844" style="stroke:#181818;stroke-width:0.7;"/><line style="stroke:#181818;stroke-width:0.7;stroke-dasharray:1.4,1.4;" x1="106.8551" x2="375.651" y1="155.6844" y2="155.6844"/><text fill="#000000" font-family="sans-serif" font-size="9.1" font-weight="bold" lengthAdjust="spacing" textLength="5.061" x="115.2551" y="145.9486">2</text><text fill="#000000" font-family="sans-serif" font-size="9.1" lengthAdjust="spacing" textLength="189.1671" x="123.1161" y="139.8968">retrieves and returns notifications with statuses</text><text fill="#000000" font-family="sans-serif" font-size="9.1" lengthAdjust="spacing" textLength="176.0281" x="123.1161" y="152.0005">(In Progress, Pending, Approved, Rejected)</text></g><text fill="#000000" font-family="sans-serif" font-size="7.7" lengthAdjust="spacing" textLength="67.1983" x="204.5039" y="179.3935">Agent applies filters</text><g class="message" data-participant-1="Agent" data-participant-2="System"><polygon fill="#181818" points="364.451,204.6297,371.451,207.4297,364.451,210.2297,367.251,207.4297" style="stroke:#181818;stroke-width:0.7;"/><line style="stroke:#181818;stroke-width:0.7;" x1="103.3551" x2="368.651" y1="207.4297" y2="207.4297"/><text fill="#000000" font-family="sans-serif" font-size="9.1" font-weight="bold" lengthAdjust="spacing" textLength="5.061" x="108.2551" y="203.7458">3</text><text fill="#000000" font-family="sans-serif" font-size="9.1" lengthAdjust="spacing" textLength="248.3349" x="116.1161" y="203.7458">searches notifications by (vessel, status, representative, time)</text></g><g class="message" data-participant-1="System" data-participant-2="Agent"><polygon fill="#181818" points="107.5551,226.5334,100.5551,229.3334,107.5551,232.1334,104.7551,229.3334" style="stroke:#181818;stroke-width:0.7;"/><line style="stroke:#181818;stroke-width:0.7;stroke-dasharray:1.4,1.4;" x1="103.3551" x2="375.651" y1="229.3334" y2="229.3334"/><text fill="#000000" font-family="sans-serif" font-size="9.1" font-weight="bold" lengthAdjust="spacing" textLength="5.061" x="111.7551" y="225.6495">4</text><text fill="#000000" font-family="sans-serif" font-size="9.1" lengthAdjust="spacing" textLength="176.5213" x="119.6161" y="225.6495">returns matching filtered notification records</text></g><!--SRC=[ZP91Rzim38Nl-XL4Baq0szXwp650i6B0BaCneptjmjYCpTMMD95EaFtwKNQ6Pa4Bx2QPptmV7tK7JqAWDCO1bK3qFB3lO3q67ve-XP4A86sgZPCNzX4JZl1Q0qqJNLKYDY_OKMrT218rYhuRhWNIOnjEsU60Wv1pochIf_g-kgy-VjZ2CzC9j2Ue5NKI20Tu9X4Qh2Aiy2qe7xX1vU05IgZFOl1Gqw-9V4FmmDXbetLTFsoSmqc3dyOz9OUDXWIhkkSOCy2k8w_mdM8YiPDrFD8AK9Q2CrxbXYEQQBLTRERoSdIv7nzpPelUtPLbkU3lXk6MiopTubT- -ekyjO0CMbHWOD4yATgFxq_xmwzbse-iIYtips2o0zX8WhQ8a3hq_7jMRbxPBh0NozBS5unihedfI0BestoRae7wVx1FhBqzYRm8olPVFJocq5bWKi0Z-TPoB60NOmf7QWiBywVjdDgDQ-aMOSdd2mzAATD_JcmdnZcRggekO1ZZm0Prc8K2LdaZEI5CJK-tlDPsVPppAoxOXKrslU02b4Vwtu3cI4RKffzVx8nasL-RvbSUKYjlJNprQMxw1m00]--></g></svg>