<svg xmlns="http://www.w3.org/2000/svg" xmlns:xlink="http://www.w3.org/1999/xlink" contentStyleType="text/css" data-diagram-type="SEQUENCE" height="428px" preserveAspectRatio="none" style="width:620px;height:428px;background:#FFFFFF;" version="1.1" viewBox="0 0 620 428" width="620px" zoomAndPan="magnify"><title>US2.2.10: View the Status of Vessel Visit Notifications - System Sequence Diagram (SSD)</title><defs/><g><text fill="#000000" font-family="sans-serif" font-size="14" font-weight="bold" lengthAdjust="spacing" textLength="592.0674" x="10" y="30.1074">US2.2.10: View the Status of Vessel Visit Notifications - System Sequence Diagram (SSD)</text><g><title>Shipping Agent Representative</title><rect fill="#FFFFFF" height="97.1641" style="stroke:#FFFFFF;stroke-width:1;" width="10" x="137.6501" y="133.2422"/><line style="stroke:#181818;stroke-width:1;" x1="137.6501" x2="137.6501" y1="133.2422" y2="230.4063"/><line style="stroke:#181818;stroke-width:1;" x1="147.6501" x2="147.6501" y1="133.2422" y2="230.4063"/><line style="stroke:#181818;stroke-width:1;" x1="137.6501" x2="147.6501" y1="133.2422" y2="133.2422"/></g><g><title>Shipping Agent Representative</title><rect fill="#FFFFFF" height="54.582" style="stroke:#FFFFFF;stroke-width:1;" width="10" x="137.6501" y="273.0371"/><line style="stroke:#181818;stroke-width:1;" x1="137.6501" x2="137.6501" y1="273.0371" y2="327.6191"/><line style="stroke:#181818;stroke-width:1;" x1="147.6501" x2="147.6501" y1="273.0371" y2="327.6191"/><line style="stroke:#181818;stroke-width:1;" x1="137.6501" x2="147.6501" y1="327.6191" y2="327.6191"/></g><g><title>.System</title><rect fill="#FFFFFF" height="48.582" style="stroke:#181818;stroke-width:1;" width="10" x="532.6443" y="173.8242"/></g><g><title>.System</title><rect fill="#FFFFFF" height="31.291" style="stroke:#181818;stroke-width:1;" width="10" x="532.6443" y="296.3281"/></g><g><title>Shipping Agent Representative</title><rect fill="#000000" fill-opacity="0.00000" height="107.1641" width="8" x="138.6501" y="123.2422"/><line style="stroke:#181818;stroke-width:0.5;stroke-dasharray:5,5;" x1="142.1404" x2="142.1404" y1="123.2422" y2="230.4063"/></g><line style="stroke:#181818;stroke-width:0.5;stroke-dasharray:1,4;" x1="142.1404" x2="142.1404" y1="230.4063" y2="273.0371"/><g><title>Shipping Agent Representative</title><rect fill="#000000" fill-opacity="0.00000" height="72.582" width="8" x="138.6501" y="273.0371"/><line style="stroke:#181818;stroke-width:0.5;stroke-dasharray:5,5;" x1="142.1404" x2="142.1404" y1="273.0371" y2="345.6191"/></g><g><title>.System</title><rect fill="#000000" fill-opacity="0.00000" height="107.1641" width="8" x="533.6443" y="123.2422"/><line style="stroke:#181818;stroke-width:0.5;stroke-dasharray:5,5;" x1="537.3616" x2="537.3616" y1="123.2422" y2="230.4063"/></g><line style="stroke:#181818;stroke-width:0.5;stroke-dasharray:1,4;" x1="537.3616" x2="537.3616" y1="230.4063" y2="273.0371"/><g><title>.System</title><rect fill="#000000" fill-opacity="0.00000" height="72.582" width="8" x="533.6443" y="273.0371"/><line style="stroke:#181818;stroke-width:0.5;stroke-dasharray:5,5;" x1="537.3616" x2="537.3616" y1="273.0371" y2="345.6191"/></g><g class="participant participant-head" data-participant="Agent"><text fill="#000000" font-family="sans-serif" font-size="14" lengthAdjust="spacing" textLength="193.0195" x="43.1404" y="119.7285">Shipping Agent Representative</text><ellipse cx="142.6501" cy="53.1211" fill="#E3E3E3" rx="8" ry="8" style="stroke:#181818;stroke-width:0.5;"/><path d="M142.6501,61.1211 L142.6501,88.1211 M129.6501,69.1211 L155.6501,69.1211 M142.6501,88.1211 L129.6501,103.1211 M142.6501,88.1211 L155.6501,103.1211" fill="none" style="stroke:#181818;stroke-width:0.5;"/></g><g class="participant participant-tail" data-participant="Agent"><text fill="#000000" font-family="sans-serif" font-size="14" lengthAdjust="spacing" textLength="193.0195" x="43.1404" y="359.7266">Shipping Agent Representative</text><ellipse cx="142.6501" cy="371.7402" fill="#E3E3E3" rx="8" ry="8" style="stroke:#181818;stroke-width:0.5;"/><path d="M142.6501,379.7402 L142.6501,406.7402 M129.6501,387.7402 L155.6501,387.7402 M142.6501,406.7402 L129.6501,421.7402 M142.6501,406.7402 L155.6501,421.7402" fill="none" style="stroke:#181818;stroke-width:0.5;"/></g><g class="participant participant-head" data-participant="System"><rect fill="#E3E3E3" height="32.6211" rx="2.5" ry="2.5" style="stroke:#181818;stroke-width:0.5;" width="64.5654" x="505.3616" y="89.6211"/><text fill="#000000" font-family="sans-serif" font-size="14" lengthAdjust="spacing" textLength="50.5654" x="512.3616" y="111.7285">:System</text></g><g class="participant participant-tail" data-participant="System"><rect fill="#E3E3E3" height="32.6211" rx="2.5" ry="2.5" style="stroke:#181818;stroke-width:0.5;" width="64.5654" x="505.3616" y="344.6191"/><text fill="#000000" font-family="sans-serif" font-size="14" lengthAdjust="spacing" textLength="50.5654" x="512.3616" y="366.7266">:System</text></g><g><title>Shipping Agent Representative</title><rect fill="#FFFFFF" height="97.1641" style="stroke:#FFFFFF;stroke-width:1;" width="10" x="137.6501" y="133.2422"/><line style="stroke:#181818;stroke-width:1;" x1="137.6501" x2="137.6501" y1="133.2422" y2="230.4063"/><line style="stroke:#181818;stroke-width:1;" x1="147.6501" x2="147.6501" y1="133.2422" y2="230.4063"/><line style="stroke:#181818;stroke-width:1;" x1="137.6501" x2="147.6501" y1="133.2422" y2="133.2422"/></g><g><title>Shipping Agent Representative</title><rect fill="#FFFFFF" height="54.582" style="stroke:#FFFFFF;stroke-width:1;" width="10" x="137.6501" y="273.0371"/><line style="stroke:#181818;stroke-width:1;" x1="137.6501" x2="137.6501" y1="273.0371" y2="327.6191"/><line style="stroke:#181818;stroke-width:1;" x1="147.6501" x2="147.6501" y1="273.0371" y2="327.6191"/><line style="stroke:#181818;stroke-width:1;" x1="137.6501" x2="147.6501" y1="327.6191" y2="327.6191"/></g><g><title>.System</title><rect fill="#FFFFFF" height="48.582" style="stroke:#181818;stroke-width:1;" width="10" x="532.6443" y="173.8242"/></g><g><title>.System</title><rect fill="#FFFFFF" height="31.291" style="stroke:#181818;stroke-width:1;" width="10" x="532.6443" y="296.3281"/></g><g class="message" data-participant-1="Agent" data-participant-2="System"><polygon fill="#181818" points="520.6443,169.8242,530.6443,173.8242,520.6443,177.8242,524.6443,173.8242" style="stroke:#181818;stroke-width:1;"/><line style="stroke:#181818;stroke-width:1;" x1="147.6501" x2="526.6443" y1="173.8242" y2="173.8242"/><text fill="#000000" font-family="sans-serif" font-size="13" font-weight="bold" lengthAdjust="spacing" textLength="7.23" x="154.6501" y="159.916">1</text><text fill="#000000" font-family="sans-serif" font-size="13" lengthAdjust="spacing" textLength="245.6543" x="165.8801" y="151.2705">requests list of all Vessel Visit Notifications</text><text fill="#000000" font-family="sans-serif" font-size="13" lengthAdjust="spacing" textLength="231.2134" x="165.8801" y="168.5615">(submitted by self or same organization)</text></g><g class="message" data-participant-1="System" data-participant-2="Agent"><polygon fill="#181818" points="158.6501,218.4063,148.6501,222.4063,158.6501,226.4063,154.6501,222.4063" style="stroke:#181818;stroke-width:1;"/><line style="stroke:#181818;stroke-width:1;stroke-dasharray:2,2;" x1="152.6501" x2="536.6443" y1="222.4063" y2="222.4063"/><text fill="#000000" font-family="sans-serif" font-size="13" font-weight="bold" lengthAdjust="spacing" textLength="7.23" x="164.6501" y="208.498">2</text><text fill="#000000" font-family="sans-serif" font-size="13" lengthAdjust="spacing" textLength="270.2388" x="175.8801" y="199.8525">retrieves and returns notifications with statuses</text><text fill="#000000" font-family="sans-serif" font-size="13" lengthAdjust="spacing" textLength="251.4688" x="175.8801" y="217.1436">(In Progress, Pending, Approved, Rejected)</text></g><text fill="#000000" font-family="sans-serif" font-size="11" lengthAdjust="spacing" textLength="95.9976" x="292.1484" y="256.2764">Agent applies filters</text><g class="message" data-participant-1="Agent" data-participant-2="System"><polygon fill="#181818" points="520.6443,292.3281,530.6443,296.3281,520.6443,300.3281,524.6443,296.3281" style="stroke:#181818;stroke-width:1;"/><line style="stroke:#181818;stroke-width:1;" x1="147.6501" x2="526.6443" y1="296.3281" y2="296.3281"/><text fill="#000000" font-family="sans-serif" font-size="13" font-weight="bold" lengthAdjust="spacing" textLength="7.23" x="154.6501" y="291.0654">3</text><text fill="#000000" font-family="sans-serif" font-size="13" lengthAdjust="spacing" textLength="354.7642" x="165.8801" y="291.0654">searches notifications by (vessel, status, representative, time)</text></g><g class="message" data-participant-1="System" data-participant-2="Agent"><polygon fill="#181818" points="153.6501,323.6191,143.6501,327.6191,153.6501,331.6191,149.6501,327.6191" style="stroke:#181818;stroke-width:1;"/><line style="stroke:#181818;stroke-width:1;stroke-dasharray:2,2;" x1="147.6501" x2="536.6443" y1="327.6191" y2="327.6191"/><text fill="#000000" font-family="sans-serif" font-size="13" font-weight="bold" lengthAdjust="spacing" textLength="7.23" x="159.6501" y="322.3564">4</text><text fill="#000000" font-family="sans-serif" font-size="13" lengthAdjust="spacing" textLength="252.1733" x="170.8801" y="322.3564">returns matching filtered notification records</text></g><!--SRC=[ZP91Rzim38Nl-XL4Baq0szXwp650i6B0BaCneptjmjYCpTMMD95EaFtwKNQ6Pa4Bx2QPptmV7tK7JqAWDCO1bK3qFB3lO3q67ve-XP4A86sgZPCNzX4JZl1Q0qqJNLKYDY_OKMrT218rYhuRhWNIOnjEsU60Wv1pochIf_g-kgy-VjZ2CzC9j2Ue5NKI20Tu9X4Qh2Aiy2qe7xX1vU05IgZFOl1Gqw-9V4FmmDXbetLTFsoSmqc3dyOz9OUDXWIhkkSOCy2k8w_mdM8YiPDrFD8AK9Q2CrxbXYEQQBLTRERoSdIv7nzpPelUtPLbkU3lXk6MiopTubT- -ekyjO0CMbHWOD4yATgFxq_xmwzbse-iIYtips2o0zX8WhQ8a3hq_7jMRbxPBh0NozBS5unihedfI0BestoRae7wVx1FhBqzYRm8olPVFJocq5bWKi0Z-TPoB60NOmf7QWiBywVjdDgDQ-aMOSdd2mzAATD_JcmdnZcRggekO1ZZm0Prc8K2LdaZEI5CJK-tlDPsVPppAoxOXKrslU02b4Vwtu3cI4RKffzVx8nasL-RvbSUKYjlJNprQMxw1m00]--></g></svg>