<?xml version="1.0" encoding="us-ascii" standalone="no"?><svg xmlns="http://www.w3.org/2000/svg" xmlns:xlink="http://www.w3.org/1999/xlink" contentStyleType="text/css" height="447px" preserveAspectRatio="none" style="width:622px;height:447px;background:#FFFFFF;" version="1.1" viewBox="0 0 622 447" width="622px" zoomAndPan="magnify"><defs/><g><text fill="#000000" font-family="sans-serif" font-size="14" font-weight="bold" lengthAdjust="spacing" textLength="594" x="10" y="29.5332">US2.2.12: Register and manage physical resources - System Sequence Diagram (SSD)</text><rect fill="#FFFFFF" height="60.7031" style="stroke:#FFFFFF;stroke-width:1.0;" width="10" x="132" y="131.2188"/><line style="stroke:#181818;stroke-width:1.0;" x1="132" x2="132" y1="131.2188" y2="191.9219"/><line style="stroke:#181818;stroke-width:1.0;" x1="142" x2="142" y1="131.2188" y2="191.9219"/><line style="stroke:#181818;stroke-width:1.0;" x1="132" x2="142" y1="131.2188" y2="131.2188"/><rect fill="#FFFFFF" height="122.4063" style="stroke:#FFFFFF;stroke-width:1.0;" width="10" x="132" y="233.7578"/><line style="stroke:#181818;stroke-width:1.0;" x1="132" x2="132" y1="233.7578" y2="356.1641"/><line style="stroke:#181818;stroke-width:1.0;" x1="142" x2="142" y1="233.7578" y2="356.1641"/><rect fill="#FFFFFF" height="30.3516" style="stroke:#181818;stroke-width:1.0;" width="10" x="502" y="153.5703"/><rect fill="#FFFFFF" height="30.3516" style="stroke:#181818;stroke-width:1.0;" width="10" x="502" y="256.1094"/><rect fill="#FFFFFF" height="30.3516" style="stroke:#181818;stroke-width:1.0;" width="10" x="502" y="316.8125"/><line style="stroke:#181818;stroke-width:0.5;stroke-dasharray:5.0,5.0;" x1="137" x2="137" y1="121.2188" y2="191.9219"/><line style="stroke:#383838;stroke-width:1.0;stroke-dasharray:1.0,4.0;" x1="137" x2="137" y1="191.9219" y2="233.7578"/><line style="stroke:#181818;stroke-width:0.5;stroke-dasharray:5.0,5.0;" x1="137" x2="137" y1="233.7578" y2="365.1641"/><line style="stroke:#181818;stroke-width:0.5;stroke-dasharray:5.0,5.0;" x1="507" x2="507" y1="121.2188" y2="191.9219"/><line style="stroke:#383838;stroke-width:1.0;stroke-dasharray:1.0,4.0;" x1="507" x2="507" y1="191.9219" y2="233.7578"/><line style="stroke:#181818;stroke-width:0.5;stroke-dasharray:5.0,5.0;" x1="507" x2="507" y1="233.7578" y2="365.1641"/><text fill="#000000" font-family="sans-serif" font-size="14" lengthAdjust="spacing" textLength="116" x="76" y="118.1426">Logistics Operator</text><ellipse cx="137" cy="52.1094" fill="#E3E3E3" rx="8" ry="8" style="stroke:#181818;stroke-width:0.5;"/><path d="M137,60.1094 L137,87.1094 M124,68.1094 L150,68.1094 M137,87.1094 L124,102.1094 M137,87.1094 L150,102.1094 " fill="none" style="stroke:#181818;stroke-width:0.5;"/><text fill="#000000" font-family="sans-serif" font-size="14" lengthAdjust="spacing" textLength="116" x="76" y="378.6973">Logistics Operator</text><ellipse cx="137" cy="390.2734" fill="#E3E3E3" rx="8" ry="8" style="stroke:#181818;stroke-width:0.5;"/><path d="M137,398.2734 L137,425.2734 M124,406.2734 L150,406.2734 M137,425.2734 L124,440.2734 M137,425.2734 L150,440.2734 " fill="none" style="stroke:#181818;stroke-width:0.5;"/><rect fill="#E3E3E3" height="31.6094" rx="2.5" ry="2.5" style="stroke:#181818;stroke-width:0.5;" width="64" x="475" y="88.6094"/><text fill="#000000" font-family="sans-serif" font-size="14" lengthAdjust="spacing" textLength="50" x="482" y="110.1426">:System</text><rect fill="#E3E3E3" height="31.6094" rx="2.5" ry="2.5" style="stroke:#181818;stroke-width:0.5;" width="64" x="475" y="364.1641"/><text fill="#000000" font-family="sans-serif" font-size="14" lengthAdjust="spacing" textLength="50" x="482" y="385.6973">:System</text><rect fill="#FFFFFF" height="60.7031" style="stroke:#FFFFFF;stroke-width:1.0;" width="10" x="132" y="131.2188"/><line style="stroke:#181818;stroke-width:1.0;" x1="132" x2="132" y1="131.2188" y2="191.9219"/><line style="stroke:#181818;stroke-width:1.0;" x1="142" x2="142" y1="131.2188" y2="191.9219"/><line style="stroke:#181818;stroke-width:1.0;" x1="132" x2="142" y1="131.2188" y2="131.2188"/><rect fill="#FFFFFF" height="122.4063" style="stroke:#FFFFFF;stroke-width:1.0;" width="10" x="132" y="233.7578"/><line style="stroke:#181818;stroke-width:1.0;" x1="132" x2="132" y1="233.7578" y2="356.1641"/><line style="stroke:#181818;stroke-width:1.0;" x1="142" x2="142" y1="233.7578" y2="356.1641"/><rect fill="#FFFFFF" height="30.3516" style="stroke:#181818;stroke-width:1.0;" width="10" x="502" y="153.5703"/><rect fill="#FFFFFF" height="30.3516" style="stroke:#181818;stroke-width:1.0;" width="10" x="502" y="256.1094"/><rect fill="#FFFFFF" height="30.3516" style="stroke:#181818;stroke-width:1.0;" width="10" x="502" y="316.8125"/><polygon fill="#181818" points="490,149.5703,500,153.5703,490,157.5703,494,153.5703" style="stroke:#181818;stroke-width:1.0;"/><line style="stroke:#181818;stroke-width:1.0;" x1="142" x2="496" y1="153.5703" y2="153.5703"/><text fill="#000000" font-family="sans-serif" font-size="13" font-weight="bold" lengthAdjust="spacing" textLength="7" x="149" y="148.7139">1</text><text fill="#000000" font-family="sans-serif" font-size="13" lengthAdjust="spacing" textLength="330" x="160" y="148.7139">attempts to register a new physical resource with details.</text><polygon fill="#181818" points="153,179.9219,143,183.9219,153,187.9219,149,183.9219" style="stroke:#181818;stroke-width:1.0;"/><line style="stroke:#181818;stroke-width:1.0;stroke-dasharray:2.0,2.0;" x1="147" x2="506" y1="183.9219" y2="183.9219"/><text fill="#000000" font-family="sans-serif" font-size="13" font-weight="bold" lengthAdjust="spacing" textLength="7" x="159" y="179.0654">2</text><text fill="#000000" font-family="sans-serif" font-size="13" lengthAdjust="spacing" textLength="325" x="170" y="179.0654">confirms successful registration of the physical resource</text><text fill="#000000" font-family="sans-serif" font-size="11" lengthAdjust="spacing" textLength="236" x="204" y="217.3408">Logistics selects an existing resource to manage</text><polygon fill="#181818" points="490,252.1094,500,256.1094,490,260.1094,494,256.1094" style="stroke:#181818;stroke-width:1.0;"/><line style="stroke:#181818;stroke-width:1.0;" x1="142" x2="496" y1="256.1094" y2="256.1094"/><text fill="#000000" font-family="sans-serif" font-size="13" font-weight="bold" lengthAdjust="spacing" textLength="7" x="149" y="251.2529">3</text><text fill="#000000" font-family="sans-serif" font-size="13" lengthAdjust="spacing" textLength="224" x="160" y="251.2529">selects a physical resource to manage</text><polygon fill="#181818" points="153,282.4609,143,286.4609,153,290.4609,149,286.4609" style="stroke:#181818;stroke-width:1.0;"/><line style="stroke:#181818;stroke-width:1.0;stroke-dasharray:2.0,2.0;" x1="147" x2="506" y1="286.4609" y2="286.4609"/><text fill="#000000" font-family="sans-serif" font-size="13" font-weight="bold" lengthAdjust="spacing" textLength="7" x="159" y="281.6045">4</text><text fill="#000000" font-family="sans-serif" font-size="13" lengthAdjust="spacing" textLength="307" x="170" y="281.6045">displays the details of the selected physical resource</text><polygon fill="#181818" points="490,312.8125,500,316.8125,490,320.8125,494,316.8125" style="stroke:#181818;stroke-width:1.0;"/><line style="stroke:#181818;stroke-width:1.0;" x1="142" x2="496" y1="316.8125" y2="316.8125"/><text fill="#000000" font-family="sans-serif" font-size="13" font-weight="bold" lengthAdjust="spacing" textLength="7" x="149" y="311.9561">5</text><text fill="#000000" font-family="sans-serif" font-size="13" lengthAdjust="spacing" textLength="252" x="160" y="311.9561">updates the details of the physical resource</text><polygon fill="#181818" points="153,343.1641,143,347.1641,153,351.1641,149,347.1641" style="stroke:#181818;stroke-width:1.0;"/><line style="stroke:#181818;stroke-width:1.0;stroke-dasharray:2.0,2.0;" x1="147" x2="506" y1="347.1641" y2="347.1641"/><text fill="#000000" font-family="sans-serif" font-size="13" font-weight="bold" lengthAdjust="spacing" textLength="7" x="159" y="342.3076">6</text><text fill="#000000" font-family="sans-serif" font-size="13" lengthAdjust="spacing" textLength="300" x="170" y="342.3076">confirms successful update of the physical resource</text><!--SRC=[fLB1JiCm3BtdAwnT1XAjn8ux825n125HyG4czTg89YcnmzY5RyUbtLR1a42S4ZdsUtxlPGcFJ23a-mw5W6NNkT306J9dFzny3D6sANgw019RdXj-Tg77X7xs1f8opLvwjC_OKALm18ciO6YwUGEtMCVjGB31ZiaOSQAjZzMgN9MNgpKyKEDOA0666Zm6HOE-tR6ps2aYnvmiCHHGxRJDGqKlcO8bk77O30ndLNLpRWncYI7x9qe6hSG4Yziu83lBSDzJGgqj01aEPQCRwkbw30ABzOZ_sJ9UZRcsubu7kuupow8eZZjNbW8c5q6hviXNNEstNGFAOBemI5GvUwqGQFjT9coTj52JeEku77ICzDC-4sQXy4UkDTWODYvv1ivMhU9DxYOc5UrYWBW1QK-uQchwIZ7gknjZcAjxDsLPpcYPEasRDJMWjw6c2HzagDGfIHtwmPS3m0aR3lE_jQ1shFzwnvyw9__siaSYgd-b__IkkQ-rvoJwTz1_f3Ro_26l3m00]--></g></svg>