<svg xmlns="http://www.w3.org/2000/svg" xmlns:xlink="http://www.w3.org/1999/xlink" contentStyleType="text/css" height="492px" preserveAspectRatio="none" style="width:708px;height:492px;background:#FFFFFF;" version="1.1" viewBox="0 0 708 492" width="708.8px" zoomAndPan="magnify"><title>US221 - Add a Customer Representative</title><defs/><g><text fill="#000000" font-family="sans-serif" font-size="11.2" font-weight="bold" lengthAdjust="spacing" textLength="214.1125" x="242.0496" y="20.0859">US221 - Add a Customer Representative</text><!--class Customer--><g id="elem_Customer"><rect codeLine="11" fill="#F1F1F1" height="157.575" id="Customer" rx="2" ry="2" style="stroke:#181818;stroke-width:0.4000000000000001;" width="211.293" x="5.6" y="138.8969"/><ellipse cx="83.5734" cy="151.6969" fill="#ADD1B2" rx="8.8" ry="8.8" style="stroke:#181818;stroke-width:0.8000000000000002;"/><path d="M85.7859,148.3969 Q85.9109,148.2219 86.0609,148.1344 Q86.2109,148.0469 86.3859,148.0469 Q86.6859,148.0469 86.8734,148.2594 Q87.0609,148.4594 87.0609,148.9469 L87.0609,150.1094 Q87.0609,150.5969 86.8734,150.8094 Q86.6859,151.0219 86.3859,151.0219 Q86.1109,151.0219 85.9484,150.8594 Q85.7859,150.7094 85.6984,150.2969 Q85.6609,150.0094 85.5109,149.8594 Q85.2484,149.5594 84.7609,149.3844 Q84.2734,149.2094 83.7734,149.2094 Q83.1609,149.2094 82.6484,149.4719 Q82.1484,149.7344 81.7484,150.3344 Q81.3609,150.9344 81.3609,151.7594 L81.3609,152.6344 Q81.3609,153.6219 82.0734,154.2844 Q82.7859,154.9344 84.0609,154.9344 Q84.8109,154.9344 85.3359,154.7344 Q85.6484,154.6094 85.9859,154.2594 Q86.1984,154.0469 86.3109,153.9844 Q86.4359,153.9219 86.5984,153.9219 Q86.8609,153.9219 87.0609,154.1344 Q87.2734,154.3344 87.2734,154.6094 Q87.2734,154.8844 86.9984,155.2094 Q86.5984,155.6719 85.9609,155.9344 Q85.0984,156.2969 84.0609,156.2969 Q82.8484,156.2969 81.8859,155.7969 Q81.0984,155.3969 80.5484,154.5469 Q79.9984,153.6844 79.9984,152.6594 L79.9984,151.7344 Q79.9984,150.6719 80.4859,149.7594 Q80.9859,148.8344 81.8609,148.3469 Q82.7359,147.8469 83.7234,147.8469 Q84.3109,147.8469 84.8234,147.9844 Q85.3484,148.1094 85.7859,148.3969 Z " fill="#000000"/><text fill="#000000" font-family="sans-serif" font-size="11.2" lengthAdjust="spacing" textLength="48.5461" x="99.9734" y="156.3344">Customer</text><line style="stroke:#181818;stroke-width:0.4000000000000001;" x1="6.4" x2="216.093" y1="164.4969" y2="164.4969"/><text fill="#000000" font-family="sans-serif" font-size="11.2" lengthAdjust="spacing" textLength="87.7734" x="10.4" y="179.7828">-Address address</text><text fill="#000000" font-family="sans-serif" font-size="11.2" lengthAdjust="spacing" textLength="123.2328" x="10.4" y="194.6797">-VATNumber vatNumber</text><text fill="#000000" font-family="sans-serif" font-size="11.2" lengthAdjust="spacing" textLength="201.693" x="10.4" y="209.5766">-CustomerRepresentative representative</text><text fill="#000000" font-family="sans-serif" font-size="11.2" lengthAdjust="spacing" textLength="150.0406" x="10.4" y="224.4734">-PhoneNumber phoneNumber</text><text fill="#000000" font-family="sans-serif" font-size="11.2" lengthAdjust="spacing" textLength="64.7336" x="10.4" y="239.3703">-Name name</text><text fill="#000000" font-family="sans-serif" font-size="11.2" lengthAdjust="spacing" textLength="102.6977" x="10.4" y="254.2672">-EmailAddress email</text><text fill="#000000" font-family="sans-serif" font-size="11.2" lengthAdjust="spacing" textLength="101.4563" x="10.4" y="269.1641">-CustomerType type</text><text fill="#000000" font-family="sans-serif" font-size="11.2" lengthAdjust="spacing" textLength="117.0203" x="10.4" y="284.0609">-CustomerStatus status</text><line style="stroke:#181818;stroke-width:0.4000000000000001;" x1="6.4" x2="216.093" y1="290.0719" y2="290.0719"/></g><!--class CustomerRepresentative--><g id="elem_CustomerRepresentative"><rect codeLine="22" fill="#F1F1F1" height="142.6781" id="CustomerRepresentative" rx="2" ry="2" style="stroke:#181818;stroke-width:0.4000000000000001;" width="201.9523" x="84" y="344.4969"/><ellipse cx="119.6371" cy="357.2969" fill="#ADD1B2" rx="8.8" ry="8.8" style="stroke:#181818;stroke-width:0.8000000000000002;"/><path d="M121.8496,353.9969 Q121.9746,353.8219 122.1246,353.7344 Q122.2746,353.6469 122.4496,353.6469 Q122.7496,353.6469 122.9371,353.8594 Q123.1246,354.0594 123.1246,354.5469 L123.1246,355.7094 Q123.1246,356.1969 122.9371,356.4094 Q122.7496,356.6219 122.4496,356.6219 Q122.1746,356.6219 122.0121,356.4594 Q121.8496,356.3094 121.7621,355.8969 Q121.7246,355.6094 121.5746,355.4594 Q121.3121,355.1594 120.8246,354.9844 Q120.3371,354.8094 119.8371,354.8094 Q119.2246,354.8094 118.7121,355.0719 Q118.2121,355.3344 117.8121,355.9344 Q117.4246,356.5344 117.4246,357.3594 L117.4246,358.2344 Q117.4246,359.2219 118.1371,359.8844 Q118.8496,360.5344 120.1246,360.5344 Q120.8746,360.5344 121.3996,360.3344 Q121.7121,360.2094 122.0496,359.8594 Q122.2621,359.6469 122.3746,359.5844 Q122.4996,359.5219 122.6621,359.5219 Q122.9246,359.5219 123.1246,359.7344 Q123.3371,359.9344 123.3371,360.2094 Q123.3371,360.4844 123.0621,360.8094 Q122.6621,361.2719 122.0246,361.5344 Q121.1621,361.8969 120.1246,361.8969 Q118.9121,361.8969 117.9496,361.3969 Q117.1621,360.9969 116.6121,360.1469 Q116.0621,359.2844 116.0621,358.2594 L116.0621,357.3344 Q116.0621,356.2719 116.5496,355.3594 Q117.0496,354.4344 117.9246,353.9469 Q118.7996,353.4469 119.7871,353.4469 Q120.3746,353.4469 120.8871,353.5844 Q121.4121,353.7094 121.8496,353.9969 Z " fill="#000000"/><text fill="#000000" font-family="sans-serif" font-size="11.2" lengthAdjust="spacing" textLength="123.8781" x="136.0371" y="361.9344">CustomerRepresentative</text><line style="stroke:#181818;stroke-width:0.4000000000000001;" x1="84.8" x2="285.1523" y1="370.0969" y2="370.0969"/><text fill="#000000" font-family="sans-serif" font-size="11.2" lengthAdjust="spacing" textLength="64.7336" x="88.8" y="385.3828">-Name name</text><text fill="#000000" font-family="sans-serif" font-size="11.2" lengthAdjust="spacing" textLength="102.6977" x="88.8" y="400.2797">-EmailAddress email</text><text fill="#000000" font-family="sans-serif" font-size="11.2" lengthAdjust="spacing" textLength="150.0406" x="88.8" y="415.1766">-PhoneNumber phoneNumber</text><text fill="#000000" font-family="sans-serif" font-size="11.2" lengthAdjust="spacing" textLength="85.2906" x="88.8" y="430.0734">-Position position</text><text fill="#000000" font-family="sans-serif" font-size="11.2" lengthAdjust="spacing" textLength="192.3523" x="88.8" y="444.9703">-CustomerRepresentativeStatus status</text><line style="stroke:#181818;stroke-width:0.4000000000000001;" x1="84.8" x2="285.1523" y1="450.9813" y2="450.9813"/><text fill="#000000" font-family="sans-serif" font-size="11.2" lengthAdjust="spacing" textLength="86.8547" x="88.8" y="466.2672">+updateContact()</text><text fill="#000000" font-family="sans-serif" font-size="11.2" lengthAdjust="spacing" textLength="49.4922" x="88.8" y="481.1641">+disable()</text></g><!--class RegisterCustomerRepresentativeController--><g id="elem_RegisterCustomerRepresentativeController"><rect codeLine="32" fill="#F1F1F1" height="53.2969" id="RegisterCustomerRepresentativeController" rx="2" ry="2" style="stroke:#181818;stroke-width:0.4000000000000001;" width="340.4758" x="152.8" y="37.2969"/><ellipse cx="212.5707" cy="50.0969" fill="#ADD1B2" rx="8.8" ry="8.8" style="stroke:#181818;stroke-width:0.8000000000000002;"/><path d="M214.7832,46.7969 Q214.9082,46.6219 215.0582,46.5344 Q215.2082,46.4469 215.3832,46.4469 Q215.6832,46.4469 215.8707,46.6594 Q216.0582,46.8594 216.0582,47.3469 L216.0582,48.5094 Q216.0582,48.9969 215.8707,49.2094 Q215.6832,49.4219 215.3832,49.4219 Q215.1082,49.4219 214.9457,49.2594 Q214.7832,49.1094 214.6957,48.6969 Q214.6582,48.4094 214.5082,48.2594 Q214.2457,47.9594 213.7582,47.7844 Q213.2707,47.6094 212.7707,47.6094 Q212.1582,47.6094 211.6457,47.8719 Q211.1457,48.1344 210.7457,48.7344 Q210.3582,49.3344 210.3582,50.1594 L210.3582,51.0344 Q210.3582,52.0219 211.0707,52.6844 Q211.7832,53.3344 213.0582,53.3344 Q213.8082,53.3344 214.3332,53.1344 Q214.6457,53.0094 214.9832,52.6594 Q215.1957,52.4469 215.3082,52.3844 Q215.4332,52.3219 215.5957,52.3219 Q215.8582,52.3219 216.0582,52.5344 Q216.2707,52.7344 216.2707,53.0094 Q216.2707,53.2844 215.9957,53.6094 Q215.5957,54.0719 214.9582,54.3344 Q214.0957,54.6969 213.0582,54.6969 Q211.8457,54.6969 210.8832,54.1969 Q210.0957,53.7969 209.5457,52.9469 Q208.9957,52.0844 208.9957,51.0594 L208.9957,50.1344 Q208.9957,49.0719 209.4832,48.1594 Q209.9832,47.2344 210.8582,46.7469 Q211.7332,46.2469 212.7207,46.2469 Q213.3082,46.2469 213.8207,46.3844 Q214.3457,46.5094 214.7832,46.7969 Z " fill="#000000"/><text fill="#000000" font-family="sans-serif" font-size="11.2" lengthAdjust="spacing" textLength="214.1344" x="228.9707" y="54.7344">RegisterCustomerRepresentativeController</text><line style="stroke:#181818;stroke-width:0.4000000000000001;" x1="153.6" x2="492.4758" y1="62.8969" y2="62.8969"/><line style="stroke:#181818;stroke-width:0.4000000000000001;" x1="153.6" x2="492.4758" y1="69.2969" y2="69.2969"/><text fill="#000000" font-family="sans-serif" font-size="11.2" lengthAdjust="spacing" textLength="330.8758" x="157.6" y="84.5828">+registerRepresentative(vatNumber, name, email, phone, position)</text></g><!--class CustomerRepository--><g id="elem_CustomerRepository"><rect codeLine="36" fill="#F1F1F1" height="53.2969" id="CustomerRepository" rx="2" ry="2" style="stroke:#181818;stroke-width:0.4000000000000001;" width="171.1195" x="301.6" y="190.8969"/><ellipse cx="333.1479" cy="203.6969" fill="#ADD1B2" rx="8.8" ry="8.8" style="stroke:#181818;stroke-width:0.8000000000000002;"/><path d="M335.3604,200.3969 Q335.4854,200.2219 335.6354,200.1344 Q335.7854,200.0469 335.9604,200.0469 Q336.2604,200.0469 336.4479,200.2594 Q336.6354,200.4594 336.6354,200.9469 L336.6354,202.1094 Q336.6354,202.5969 336.4479,202.8094 Q336.2604,203.0219 335.9604,203.0219 Q335.6854,203.0219 335.5229,202.8594 Q335.3604,202.7094 335.2729,202.2969 Q335.2354,202.0094 335.0854,201.8594 Q334.8229,201.5594 334.3354,201.3844 Q333.8479,201.2094 333.3479,201.2094 Q332.7354,201.2094 332.2229,201.4719 Q331.7229,201.7344 331.3229,202.3344 Q330.9354,202.9344 330.9354,203.7594 L330.9354,204.6344 Q330.9354,205.6219 331.6479,206.2844 Q332.3604,206.9344 333.6354,206.9344 Q334.3854,206.9344 334.9104,206.7344 Q335.2229,206.6094 335.5604,206.2594 Q335.7729,206.0469 335.8854,205.9844 Q336.0104,205.9219 336.1729,205.9219 Q336.4354,205.9219 336.6354,206.1344 Q336.8479,206.3344 336.8479,206.6094 Q336.8479,206.8844 336.5729,207.2094 Q336.1729,207.6719 335.5354,207.9344 Q334.6729,208.2969 333.6354,208.2969 Q332.4229,208.2969 331.4604,207.7969 Q330.6729,207.3969 330.1229,206.5469 Q329.5729,205.6844 329.5729,204.6594 L329.5729,203.7344 Q329.5729,202.6719 330.0604,201.7594 Q330.5604,200.8344 331.4354,200.3469 Q332.3104,199.8469 333.2979,199.8469 Q333.8854,199.8469 334.3979,199.9844 Q334.9229,200.1094 335.3604,200.3969 Z " fill="#000000"/><text fill="#000000" font-family="sans-serif" font-size="11.2" lengthAdjust="spacing" textLength="102.0797" x="348.6919" y="208.3344">CustomerRepository</text><line style="stroke:#181818;stroke-width:0.4000000000000001;" x1="302.4" x2="471.9195" y1="216.4969" y2="216.4969"/><line style="stroke:#181818;stroke-width:0.4000000000000001;" x1="302.4" x2="471.9195" y1="222.8969" y2="222.8969"/><text fill="#000000" font-family="sans-serif" font-size="11.2" lengthAdjust="spacing" textLength="161.5195" x="306.4" y="238.1828">+findByVATNumber(vatNumber)</text></g><!--class CustomerRepresentativeRepository--><g id="elem_CustomerRepresentativeRepository"><rect codeLine="40" fill="#F1F1F1" height="68.1938" id="CustomerRepresentativeRepository" rx="2" ry="2" style="stroke:#181818;stroke-width:0.4000000000000001;" width="203.0117" x="500.8" y="183.6969"/><ellipse cx="512.8" cy="196.4969" fill="#ADD1B2" rx="8.8" ry="8.8" style="stroke:#181818;stroke-width:0.8000000000000002;"/><path d="M515.0125,193.1969 Q515.1375,193.0219 515.2875,192.9344 Q515.4375,192.8469 515.6125,192.8469 Q515.9125,192.8469 516.1,193.0594 Q516.2875,193.2594 516.2875,193.7469 L516.2875,194.9094 Q516.2875,195.3969 516.1,195.6094 Q515.9125,195.8219 515.6125,195.8219 Q515.3375,195.8219 515.175,195.6594 Q515.0125,195.5094 514.925,195.0969 Q514.8875,194.8094 514.7375,194.6594 Q514.475,194.3594 513.9875,194.1844 Q513.5,194.0094 513,194.0094 Q512.3875,194.0094 511.875,194.2719 Q511.375,194.5344 510.975,195.1344 Q510.5875,195.7344 510.5875,196.5594 L510.5875,197.4344 Q510.5875,198.4219 511.3,199.0844 Q512.0125,199.7344 513.2875,199.7344 Q514.0375,199.7344 514.5625,199.5344 Q514.875,199.4094 515.2125,199.0594 Q515.425,198.8469 515.5375,198.7844 Q515.6625,198.7219 515.825,198.7219 Q516.0875,198.7219 516.2875,198.9344 Q516.5,199.1344 516.5,199.4094 Q516.5,199.6844 516.225,200.0094 Q515.825,200.4719 515.1875,200.7344 Q514.325,201.0969 513.2875,201.0969 Q512.075,201.0969 511.1125,200.5969 Q510.325,200.1969 509.775,199.3469 Q509.225,198.4844 509.225,197.4594 L509.225,196.5344 Q509.225,195.4719 509.7125,194.5594 Q510.2125,193.6344 511.0875,193.1469 Q511.9625,192.6469 512.95,192.6469 Q513.5375,192.6469 514.05,192.7844 Q514.575,192.9094 515.0125,193.1969 Z " fill="#000000"/><text fill="#000000" font-family="sans-serif" font-size="11.2" lengthAdjust="spacing" textLength="177.4117" x="524" y="201.1344">CustomerRepresentativeRepository</text><line style="stroke:#181818;stroke-width:0.4000000000000001;" x1="501.6" x2="703.0117" y1="209.2969" y2="209.2969"/><line style="stroke:#181818;stroke-width:0.4000000000000001;" x1="501.6" x2="703.0117" y1="215.6969" y2="215.6969"/><text fill="#000000" font-family="sans-serif" font-size="11.2" lengthAdjust="spacing" textLength="161.5359" x="505.6" y="230.9828">+save(CustomerRepresentative)</text><text fill="#000000" font-family="sans-serif" font-size="11.2" lengthAdjust="spacing" textLength="192.6477" x="505.6" y="245.8797">+findByCustomerAndActive(Customer)</text></g><!--link Customer to CustomerRepresentative--><g id="link_Customer_CustomerRepresentative"><path codeLine="45" d="M150.4,296.5209 C150.4,312.2649 150.4,323.9209 150.4,339.4009 " fill="none" id="Customer-to-CustomerRepresentative" style="stroke:#181818;stroke-width:0.8000000000000002;"/><polygon fill="#181818" points="150.4,344.2009,153.6,337.0009,150.4,340.2009,147.2,337.0009,150.4,344.2009" style="stroke:#181818;stroke-width:0.8000000000000002;"/><polygon fill="#000000" points="154.4,316.8773,156.7511,309.6412,152.0489,309.6412,154.4,316.8773" style="stroke:#000000;stroke-width:0.8000000000000002;"/><text fill="#000000" font-family="sans-serif" font-size="10.4" lengthAdjust="spacing" textLength="65.9039" x="161.6" y="317.1835">representative</text><text fill="#000000" font-family="sans-serif" font-size="10.4" lengthAdjust="spacing" textLength="5.784" x="147.4765" y="314.041">1</text><text fill="#000000" font-family="sans-serif" font-size="10.4" lengthAdjust="spacing" textLength="17.3469" x="130.1971" y="335.5825">0..1</text></g><!--link RegisterCustomerRepresentativeController to CustomerRepository--><g id="link_RegisterCustomerRepresentativeController_CustomerRepository"><path codeLine="46" d="M387.2,91.2009 C387.2,119.2809 387.2,158.0809 387.2,186.0569 " fill="none" id="RegisterCustomerRepresentativeController-to-CustomerRepository" style="stroke:#181818;stroke-width:0.8000000000000002;stroke-dasharray:7.0,7.0;"/><polygon fill="#181818" points="387.2,190.8569,390.4,183.6569,387.2,186.8569,384,183.6569,387.2,190.8569" style="stroke:#181818;stroke-width:0.8000000000000002;"/></g><!--link RegisterCustomerRepresentativeController to CustomerRepresentativeRepository--><g id="link_RegisterCustomerRepresentativeController_CustomerRepresentativeRepository"><path codeLine="47" d="M483.2,90.9129 C483.2,127.2649 483.2,187.6969 483.2,187.6969 C483.2,187.6969 485.392,187.6969 495.992,187.6969 " fill="none" id="RegisterCustomerRepresentativeController-to-CustomerRepresentativeRepository" style="stroke:#181818;stroke-width:0.8000000000000002;stroke-dasharray:7.0,7.0;"/><polygon fill="#181818" points="500.792,187.6969,493.592,184.4969,496.792,187.6969,493.592,190.8969,500.792,187.6969" style="stroke:#181818;stroke-width:0.8000000000000002;"/></g><!--link RegisterCustomerRepresentativeController to Customer--><g id="link_RegisterCustomerRepresentativeController_Customer"><path codeLine="48" d="M184.8,91.2009 C184.8,104.6409 184.8,116.8329 184.8,133.9609 " fill="none" id="RegisterCustomerRepresentativeController-to-Customer" style="stroke:#181818;stroke-width:0.8000000000000002;stroke-dasharray:7.0,7.0;"/><polygon fill="#181818" points="184.8,138.7609,188,131.5609,184.8,134.7609,181.6,131.5609,184.8,138.7609" style="stroke:#181818;stroke-width:0.8000000000000002;"/></g><!--link RegisterCustomerRepresentativeController to CustomerRepresentative--><g id="link_RegisterCustomerRepresentativeController_CustomerRepresentative"><path codeLine="49" d="M251.2,91.1049 C251.2,144.7289 251.2,261.4169 251.2,339.6009 " fill="none" id="RegisterCustomerRepresentativeController-to-CustomerRepresentative" style="stroke:#181818;stroke-width:0.8000000000000002;stroke-dasharray:7.0,7.0;"/><polygon fill="#181818" points="251.2,344.4009,254.4,337.2009,251.2,340.4009,248,337.2009,251.2,344.4009" style="stroke:#181818;stroke-width:0.8000000000000002;"/></g><!--SRC=[hL9BJy904BxlhvXmiW4QvUY1f1eFNem1zJwq0spOxZQxKqmb_dUt3mhK-YBsq9t7DzyytKRg32sca1fjuhKrAS4IbIFXMbU6yGPNDET24LYA6VLA7GFS6XFpAlNgKwYIchZ823AZYbBfyndBQoEEFB52vo9cAnSvqtriz5o-4LmAmP9z3S_poUGAnX0b2I3SvevzsHPcb5bof1bPRWc4g7WE_fq0_rLX7kS0wxUnlaHF3tcwyBWjSYqrdZr1Xz-Ug0tsSMqqDJpPGMwy3-Z7g_slqUzIb6fV3fLA9-LJEPzoI1txt2VD7RZg4U_TLZkLxlwQ_lik7esJB8tsIws5R-TqMcg974AU9SXqQpmavekWiIRIuKAHrzk6PhIIZidsKvS4rYZLxdRebr87d08lsfMEglv7TRUZkhbHsqZGEyhIQMpHvbXAdTmKxRqSo8EVDj53vj2NruyEJlBjCP5EehXgQc-fqhPNFhWQm7WyXS5b67hnYvEuxfmlJCMlPns6qvxnd1tVEv_psFwZ1l41]--></g></svg>